<svg id="Layer_1" data-name="Layer 1" xmlns="http://www.w3.org/2000/svg" viewBox="0 0 719 33.5"><defs><style>.cls-1{fill:#77c2a5;}.cls-2{fill:#f0e8c4;}.cls-3{fill:#e25e31;}.cls-4{fill:#ecac2a;}.cls-5{fill:#f0e8c5;}.cls-6{fill:#a83d65;}.cls-7{fill:#e23d52;}.cls-8{fill:#76c2a4;}.cls-9{fill:#e55d2f;}.cls-10{fill:#77c2a3;}</style></defs><title>Adorno-superior-480</title><polygon class="cls-1" points="8.7 0 19 0 13.9 12.8 8.7 25.5 3.5 12.8 -1.7 0 8.7 0"/><circle class="cls-2" cx="8.7" cy="30.9" r="3.1"/><polygon class="cls-3" points="29.6 0 39.9 0 34.7 12.8 29.6 25.5 24.4 12.8 19.2 0 29.6 0"/><circle class="cls-4" cx="29.6" cy="30.9" r="3.1"/><polygon class="cls-5" points="50.4 0 60.8 0 55.6 12.8 50.4 25.5 45.3 12.8 40.1 0 50.4 0"/><circle class="cls-6" cx="50.4" cy="30.9" r="3.1"/><polygon class="cls-7" points="71.3 0 81.7 0 76.5 12.8 71.3 25.5 66.1 12.8 61 0 71.3 0"/><circle class="cls-5" cx="71.3" cy="30.9" r="3.1"/><polygon class="cls-4" points="92.2 0 102.6 0 97.4 12.8 92.2 25.5 87 12.8 81.8 0 92.2 0"/><circle class="cls-3" cx="92.2" cy="30.9" r="3.1"/><polygon class="cls-6" points="113.1 0 123.4 0 118.3 12.8 113.1 25.5 107.9 12.8 102.7 0 113.1 0"/><circle class="cls-8" cx="113.1" cy="30.9" r="3.1"/><polygon class="cls-2" points="134 0 144.3 0 139.1 12.8 134 25.5 128.8 12.8 123.6 0 134 0"/><circle class="cls-4" cx="134" cy="30.9" r="3.1"/><polygon class="cls-8" points="154.8 0 165.2 0 160 12.8 154.8 25.5 149.7 12.8 144.5 0 154.8 0"/><circle class="cls-2" cx="154.8" cy="30.9" r="3.1"/><polygon class="cls-8" points="175.7 0 186.1 0 180.9 12.8 175.7 25.5 170.5 12.8 165.4 0 175.7 0"/><circle class="cls-2" cx="175.7" cy="30.9" r="3.1"/><polygon class="cls-9" points="196.6 0 207 0 201.8 12.8 196.6 25.5 191.4 12.8 186.2 0 196.6 0"/><circle class="cls-4" cx="196.6" cy="30.9" r="3.1"/><polygon class="cls-2" points="217.5 0 227.8 0 222.7 12.8 217.5 25.5 212.3 12.8 207.1 0 217.5 0"/><circle class="cls-4" cx="217.5" cy="30.9" r="3.1"/><polygon class="cls-7" points="238.4 0 248.7 0 243.5 12.8 238.4 25.5 233.2 12.8 228 0 238.4 0"/><circle class="cls-5" cx="238.4" cy="30.9" r="3.1"/><polygon class="cls-4" points="259.2 0 269.6 0 264.4 12.8 259.2 25.5 254.1 12.8 248.9 0 259.2 0"/><circle class="cls-3" cx="259.2" cy="30.9" r="3.1"/><polygon class="cls-6" points="280.1 0 290.5 0 285.3 12.8 280.1 25.5 274.9 12.8 269.7 0 280.1 0"/><circle class="cls-8" cx="280.1" cy="30.9" r="3.1"/><polygon class="cls-2" points="301 0 311.4 0 306.2 12.8 301 25.5 295.8 12.8 290.6 0 301 0"/><circle class="cls-4" cx="301" cy="30.9" r="3.1"/><polygon class="cls-10" points="321.9 0 332.2 0 327.1 12.8 321.9 25.5 316.7 12.8 311.5 0 321.9 0"/><circle class="cls-2" cx="321.9" cy="30.9" r="3.1"/><polygon class="cls-10" points="342.7 0 353.1 0 347.9 12.8 342.7 25.5 337.6 12.8 332.4 0 342.7 0"/><circle class="cls-2" cx="342.7" cy="30.9" r="3.1"/><polygon class="cls-9" points="363.6 0 374 0 368.8 12.8 363.6 25.5 358.4 12.8 353.3 0 363.6 0"/><circle class="cls-4" cx="363.6" cy="30.9" r="3.1"/><polygon class="cls-2" points="384.5 0 394.9 0 389.7 12.8 384.5 25.5 379.3 12.8 374.1 0 384.5 0"/><circle class="cls-4" cx="384.5" cy="30.9" r="3.1"/><polygon class="cls-7" points="405.4 0 415.7 0 410.6 12.8 405.4 25.5 400.2 12.8 395 0 405.4 0"/><circle class="cls-5" cx="405.4" cy="30.9" r="3.1"/><polygon class="cls-4" points="426.3 0 436.6 0 431.4 12.8 426.3 25.5 421.1 12.8 415.9 0 426.3 0"/><circle class="cls-3" cx="426.3" cy="30.9" r="3.1"/><polygon class="cls-6" points="447.1 0 457.5 0 452.3 12.8 447.1 25.5 442 12.8 436.8 0 447.1 0"/><circle class="cls-8" cx="447.1" cy="30.9" r="3.1"/><polygon class="cls-2" points="468 0 478.4 0 473.2 12.8 468 25.5 462.8 12.8 457.7 0 468 0"/><circle class="cls-4" cx="468" cy="30.9" r="3.1"/><polygon class="cls-10" points="488.9 0 499.3 0 494.1 12.8 488.9 25.5 483.7 12.8 478.5 0 488.9 0"/><circle class="cls-2" cx="488.9" cy="30.9" r="3.1"/><polygon class="cls-10" points="509.8 0 520.1 0 515 12.8 509.8 25.5 504.6 12.8 499.4 0 509.8 0"/><circle class="cls-2" cx="509.8" cy="30.9" r="3.1"/><polygon class="cls-9" points="530.7 0 541 0 535.8 12.8 530.7 25.5 525.5 12.8 520.3 0 530.7 0"/><circle class="cls-4" cx="530.7" cy="30.9" r="3.1"/><polygon class="cls-2" points="551.5 0 561.9 0 556.7 12.8 551.5 25.5 546.4 12.8 541.2 0 551.5 0"/><circle class="cls-4" cx="551.5" cy="30.9" r="3.1"/><polygon class="cls-7" points="572.4 0 582.8 0 577.6 12.8 572.4 25.5 567.2 12.8 562.1 0 572.4 0"/><circle class="cls-5" cx="572.4" cy="30.9" r="3.1"/><polygon class="cls-4" points="593.3 0 603.7 0 598.5 12.8 593.3 25.5 588.1 12.8 582.9 0 593.3 0"/><circle class="cls-3" cx="593.3" cy="30.9" r="3.1"/><polygon class="cls-6" points="614.2 0 624.5 0 619.4 12.8 614.2 25.5 609 12.8 603.8 0 614.2 0"/><circle class="cls-8" cx="614.2" cy="30.9" r="3.1"/><polygon class="cls-2" points="635.1 0 645.4 0 640.2 12.8 635.1 25.5 629.9 12.8 624.7 0 635.1 0"/><circle class="cls-4" cx="635.1" cy="30.9" r="3.1"/><polygon class="cls-10" points="655.9 0 666.3 0 661.1 12.8 655.9 25.5 650.8 12.8 645.6 0 655.9 0"/><circle class="cls-2" cx="655.9" cy="30.9" r="3.1"/><polygon class="cls-10" points="676.8 0 687.2 0 682 12.8 676.8 25.5 671.6 12.8 666.5 0 676.8 0"/><circle class="cls-2" cx="676.8" cy="30.9" r="3.1"/><polygon class="cls-9" points="697.7 0 708.1 0 702.9 12.8 697.7 25.5 692.5 12.8 687.3 0 697.7 0"/><circle class="cls-4" cx="697.7" cy="30.9" r="3.1"/><polygon class="cls-2" points="718.6 0 728.9 0 723.8 12.8 718.6 25.5 713.4 12.8 708.2 0 718.6 0"/><circle class="cls-4" cx="718.6" cy="30.9" r="3.1"/></svg>