<svg id="Layer_1" data-name="Layer 1" xmlns="http://www.w3.org/2000/svg" viewBox="0 0 58.5 58.5">
  <defs>
    <style>
      .cls-1 {
        fill: #fff;
      }

      .cls-2 {
        fill: #e5232a;
      }
    </style>
  </defs>
  <title>Facebook-480</title>
  <g>
    <circle class="cls-1" cx="29.3" cy="29.2" r="29"/>
    <g>
      <path class="cls-2" d="M29.3,3.8A25.5,25.5,0,1,0,54.8,29.3,25.5,25.5,0,0,0,29.3,3.8Zm0,50.5a25.1,25.1,0,1,1,25-25A25,25,0,0,1,29.3,54.3Z"/>
      <path class="cls-2" d="M29.3,0A29.3,29.3,0,1,0,58.5,29.3,29.3,29.3,0,0,0,29.3,0Zm0,58A28.8,28.8,0,1,1,58,29.3,28.8,28.8,0,0,1,29.3,58Z"/>
      <g>
        <path class="cls-2" d="M29.3,3.7c-1.1-.5-1.2-2.2-2.7-2.2a1.4,1.4,0,0,0-1.4,1,.7.7,0,0,0,.4,1h.2c.2.1.2-.2,0-.3s-.2-.6.3-.4a.6.6,0,0,1,.3.8l-.7.4c-.2.1-.4.1-.4.3h0c.2.1.4-.1.6-.1l.6-.3c.2-.2.3-.3.3-.5s.3.1.5.2v.2c0,.1.1.2.2.1s.1,0,.1-.1h.1c.1,0,.1,0,.1-.1a.1.1,0,0,0,.1.1H28c.2,0,.2-.1.3-.2H29c0,.1.1.1.2.1S29.5,3.8,29.3,3.7ZM26,2.5h-.5a.6.6,0,0,1,.6-.3C26,2.4,26,2.4,26,2.5Zm.5.3-.4-.3h.5C26.6,2.7,26.5,2.7,26.5,2.8Zm.6.5h-.3l-.2-.4c0-.1.2-.1.3-.2l.3.6h0A.1.1,0,0,0,27.1,3.3Z"/>
        <path class="cls-2" d="M29.2,54.8c1.1.5,1.2,2.2,2.7,2.2a1.4,1.4,0,0,0,1.4-1,.7.7,0,0,0-.4-1h-.2c-.2,0-.2.2,0,.3s.2.6-.2.5-.6-.6-.4-.9a2,2,0,0,1,.8-.4.3.3,0,0,0,.3-.3h0c-.2-.1-.4.1-.6.1l-.6.4a.5.5,0,0,0-.3.4c-.1.1-.3,0-.5-.1v-.3c0-.1-.1-.1-.2-.1h-.3a.1.1,0,0,0-.1-.1h-.1c-.1,0-.2,0-.3.2h-.3c-.1-.2-.3-.1-.3,0h-.2C29.2,54.4,29,54.7,29.2,54.8ZM32.5,56H33a.6.6,0,0,1-.6.3C32.5,56.2,32.5,56.1,32.5,56Zm-.5-.3.4.3h-.5Zm-.5-.5h.2c.1.1.1.3.2.4s-.1.1-.3.2l-.3-.5v-.2C31.3,55.2,31.4,55.2,31.5,55.2Z"/>
        <path class="cls-2" d="M22.7,4.6c-1.2-.3-1.8-1.9-3.2-1.5a1.8,1.8,0,0,0-1.1,1.4c-.1.5.2.8.7.9h.2c.2,0,.1-.3-.1-.3s-.3-.6.1-.5a.6.6,0,0,1,.6.7c-.1.3-.4.4-.6.6s-.3.2-.3.4h.1l.4-.3.6-.5a.7.7,0,0,0,.1-.5h.5a.4.4,0,0,1,.1.3c0,.1.2.1.2,0h.5c.2,0,.2-.1.2-.2h.4a.2.2,0,0,0,.3-.1h.2A.2.2,0,1,0,22.7,4.6Zm-3.5-.3-.5.2c0-.2.3-.4.5-.5S19.1,4.2,19.2,4.3Zm.5.1h-.4V4.1h.5a.1.1,0,0,1-.1.1C19.8,4.3,19.7,4.3,19.7,4.4Zm.7.4h-.2l-.3-.3a.2.2,0,0,1,.2-.2l.4.4h-.1Z"/>
        <path class="cls-2" d="M35.8,53.9c1.3.3,1.8,1.9,3.2,1.5A1.6,1.6,0,0,0,40.1,54c.1-.5-.2-.8-.7-.8a.1.1,0,0,0-.1-.1.1.1,0,1,0,0,.3c.5.1.3.6-.1.5a.6.6,0,0,1-.6-.7c.1-.2.4-.4.6-.6s.3-.2.3-.3h0a.9.9,0,0,0-.5.3l-.6.5a.9.9,0,0,0-.1.5c-.1.1-.3,0-.5,0s-.1-.2-.1-.3-.2-.1-.2,0H37c-.2,0-.2.1-.2.2h-.2a.1.1,0,0,0-.1.1c-.1,0-.1,0-.1-.1a.2.2,0,0,0-.3.1h-.2C35.7,53.6,35.6,53.9,35.8,53.9Zm3.6.3a.4.4,0,0,0,.4-.2c0,.3-.2.4-.5.5A.4.4,0,0,0,39.4,54.2Zm-.6-.1.4.2H39c-.2,0-.3,0-.3-.1h-.1a.1.1,0,0,1,.1-.1C38.7,54.2,38.8,54.2,38.8,54.1Zm-.7-.3h.3l.2.3c0,.1-.1.2-.2.3l-.4-.5h.1Z"/>
        <path class="cls-2" d="M16.5,7.1c-1.2.1-2.2-1.3-3.4-.6a1.8,1.8,0,0,0-.8,1.6.8.8,0,0,0,.9.7h.2c.2-.1.1-.3-.1-.3s-.5-.4,0-.5.8.2.7.6-.3.5-.4.7a.5.5,0,0,0-.2.4h.1l.4-.4.4-.6a.7.7,0,0,0-.1-.5h.6v.2h.2c0-.1.1-.1.1-.2h.4c.1,0,.1-.1.1-.2h.2a.1.1,0,0,0,.1-.1.1.1,0,0,1,.1.1l.2-.2h.3C16.8,7.5,16.8,7.1,16.5,7.1ZM13,7.7c-.1.1-.3.2-.3.4a.5.5,0,0,1,.3-.6Zm.6,0h-.4c0-.1,0-.2.1-.2h.4A.3.3,0,0,0,13.6,7.7Zm.8.2h-.3l-.3-.2V7.5l.6.3h-.1Z"/>
        <path class="cls-2" d="M42,51.4c1.2-.1,2.2,1.3,3.5.6a1.9,1.9,0,0,0,.7-1.6.8.8,0,0,0-.9-.7h-.2c-.2.1-.1.4.1.3s.5.5,0,.5a.6.6,0,0,1-.7-.5l.4-.8c.1-.1.3-.2.2-.4h0c-.2.1-.3.3-.4.4a2.1,2.1,0,0,0-.4.6.6.6,0,0,0,0,.6h-.5l-.2-.2c0-.1-.2,0-.2,0v.2h-.2c-.1-.1-.1-.1-.2,0s0,0-.1,0-.1.1-.1.3h-.1c-.1,0-.2,0-.2.1h-.1c-.1-.1-.2,0-.2.1H42C41.7,51.1,41.8,51.4,42,51.4Zm3.5-.6c.1-.1.3-.2.4-.4a.7.7,0,0,1-.4.6Zm-.6,0c.1,0,.3.1.5,0a.3.3,0,0,1-.1.2h-.5a.1.1,0,0,1,.1-.1Zm-.8-.2h.3l.3.2a.4.4,0,0,1-.1.3.9.9,0,0,1-.6-.3h.1Z"/>
        <path class="cls-2" d="M11.2,11.2c-1.1.4-2.4-.8-3.5.3a1.5,1.5,0,0,0-.2,1.7.7.7,0,0,0,1,.4h.2c.1-.1,0-.4-.2-.3s-.6-.3-.2-.4a.6.6,0,0,1,.9.3,1.9,1.9,0,0,1-.3.8c0,.2-.1.3,0,.5h0c.2-.1.2-.4.3-.5a1.9,1.9,0,0,0,.2-.7.4.4,0,0,0-.1-.5l.5-.3.2.2c0,.1.2,0,.2-.1h.4a.2.2,0,0,0,0-.3h.3c.2,0,.3-.1.2-.2h.3C11.6,11.4,11.5,11.1,11.2,11.2ZM8,12.7l-.3.4a1.9,1.9,0,0,1,.2-.7Zm.6-.2H8.1c0-.1,0-.2.1-.2v-.2h.4Zm.8,0-.2.2-.4-.2c-.1-.1,0-.2,0-.3h.6Z"/>
        <path class="cls-2" d="M47.3,47.3c1.2-.4,2.4.8,3.5-.3a1.7,1.7,0,0,0,.3-1.7.8.8,0,0,0-1.1-.4h-.1c-.2.1,0,.4.1.3s.6.3.2.5-.8,0-.8-.4a1.1,1.1,0,0,1,.2-.8c0-.1.1-.3,0-.4h0c-.2.1-.2.4-.3.5a1.9,1.9,0,0,0-.2.7.4.4,0,0,0,.1.5c0,.2-.3.2-.5.3s-.1-.1-.1-.2-.2,0-.3.1h-.1c-.1,0-.1,0-.1.1H48a.4.4,0,0,0-.1.3h-.1a.1.1,0,0,0-.1.1h-.1c-.2,0-.3.1-.2.3h-.2C47,47.1,47.1,47.4,47.3,47.3Zm3.2-1.4.3-.5a.6.6,0,0,1-.2.7A.3.3,0,0,0,50.5,45.9Zm-.6.1h.5v.3h-.5C50,46.1,50,46.1,49.9,46Zm-.7.1c.1-.1.1-.2.2-.2h.3a.2.2,0,0,1,0,.3h-.6a.1.1,0,0,1-.1-.1Z"/>
        <path class="cls-2" d="M7.2,16.5c-1.1.7-2.6-.1-3.3,1.2A1.5,1.5,0,0,0,4,19.4a.8.8,0,0,0,1.2.1.1.1,0,0,0,.1-.1c.1-.1-.1-.3-.2-.2s-.7-.1-.3-.4.8-.2.9.2,0,.5,0,.8-.1.3,0,.4.1.1.1,0,.1-.3.2-.5V19a.9.9,0,0,0-.3-.5c0-.1.2-.2.4-.3s.2,0,.2.1a.2.2,0,0,0,.2-.2h0a.1.1,0,0,0,.1-.1h.1c.1,0,.1,0,.1-.1a.2.2,0,0,0,0-.3h.1v-.2h.1c.1,0,.1-.1.1-.2l.2-.2C7.6,16.6,7.4,16.3,7.2,16.5ZM4.5,18.7a.6.6,0,0,0-.2.5c-.2-.2-.1-.5,0-.7A.2.2,0,0,0,4.5,18.7Zm.4-.3-.4.2v-.2h.1a.2.2,0,0,1,.2-.2h.1Zm.8-.2-.2.2H5.1v-.3h.6a.1.1,0,0,1,.1.1Z"/>
        <path class="cls-2" d="M51.3,42.1c1.1-.7,2.6,0,3.4-1.3a1.7,1.7,0,0,0-.2-1.7.7.7,0,0,0-1.1-.1c-.1,0-.2,0-.2.1s.1.3.2.2.7.1.3.4a.6.6,0,0,1-.9-.1,2.7,2.7,0,0,1,0-.9.3.3,0,0,0,0-.4h-.1c-.1.1-.1.4-.1.5a2,2,0,0,0-.1.7,1.1,1.1,0,0,0,.3.5c0,.2-.2.3-.4.4l-.2-.2a.2.2,0,0,0-.2.2h-.3c-.1.1,0,.2,0,.3h0c0,.1,0,.1-.1.1v.2h-.1c-.2,0-.2.2-.2.3h-.2C51,41.9,51.2,42.2,51.3,42.1Zm2.8-2.3a.7.7,0,0,0,.1-.5c.2.2.1.5,0,.7A.3.3,0,0,0,54.1,39.8Zm-.5.3.4-.2v.4h-.4Zm-.8.2a.2.2,0,0,0,.2-.2c.1,0,.2.1.4,0s0,.2,0,.4h-.7C52.7,40.4,52.8,40.4,52.8,40.3Z"/>
        <path class="cls-2" d="M4.6,22.6c-.8,1-2.5.6-2.9,2a1.8,1.8,0,0,0,.7,1.7.7.7,0,0,0,1.1-.2h.1c.1-.2-.2-.3-.3-.2s-.6.1-.4-.3.7-.4.9-.1a1.2,1.2,0,0,1,.2.8c.1.2.1.4.2.4h.1v-.5a2.4,2.4,0,0,0-.2-.8c-.1-.1-.2-.3-.4-.3s.2-.3.3-.5h.3c.1,0,.2-.1.1-.2h0c.1,0,.1,0,.1-.1a.1.1,0,0,0,.1-.1.4.4,0,0,0-.1-.3h0a.1.1,0,0,1,.1-.1v-.2h.1a.2.2,0,0,0,0-.3l.2-.2C5,22.7,4.8,22.4,4.6,22.6Zm-2,2.9a.9.9,0,0,0-.1.5c-.2-.1-.2-.4-.1-.7A.2.2,0,0,0,2.6,25.5Zm.4-.4-.4.3V25l.2-.2h.1C2.9,25,2.9,25,3,25.1Zm.6-.4c0,.1-.1.1,0,.2H3.1c0-.1-.1-.2-.1-.3l.6-.2h.1C3.7,24.6,3.7,24.6,3.6,24.7Z"/>
        <path class="cls-2" d="M53.9,35.9c.8-.9,2.5-.6,2.9-2a1.8,1.8,0,0,0-.6-1.7.8.8,0,0,0-1.2.2.1.1,0,0,1-.1.1c-.1.2.2.3.3.2s.7-.1.4.3-.7.4-.9.1a1.1,1.1,0,0,1-.2-.8l-.2-.4h-.1v.6c.1.2.1.5.2.7l.4.4c0,.1-.2.2-.3.4h-.3c-.1,0-.1.1-.1.2s0,.1.1.1h-.1a.1.1,0,0,0-.1.1.1.1,0,0,0-.1.1.4.4,0,0,0,.1.3h0c-.1.1-.1.1-.1.2h-.1a.2.2,0,0,0,0,.3l-.2.2C53.5,35.9,53.8,36.1,53.9,35.9Zm2-2.9a.7.7,0,0,0,.1-.5.6.6,0,0,1,.1.7A.2.2,0,0,0,55.9,33Zm-.4.4c.2,0,.3-.1.4-.3a.3.3,0,0,0,.1.2v.2l-.3.2h0a.1.1,0,0,0-.1-.1C55.6,33.5,55.6,33.5,55.5,33.4Zm-.6.5c0-.1.1-.2.1-.3h.4a.4.4,0,0,1,.1.3l-.6.2h0Z"/>
        <path class="cls-2" d="M3.7,29.2c-.5,1.1-2.2,1.2-2.2,2.7a1.4,1.4,0,0,0,1,1.4.7.7,0,0,0,1-.4v-.2c.1-.2-.2-.2-.3,0s-.6.2-.4-.2a.5.5,0,0,1,.8-.4,2,2,0,0,1,.4.8c.1.1.1.3.3.3h0c.1-.2-.1-.4-.1-.6L4,32c-.2-.2-.3-.3-.5-.3s.1-.3.2-.5h.2c.1,0,.2-.1.1-.2a.1.1,0,0,0-.1-.1H4c0-.1,0-.1-.1-.1H4c.1-.1,0-.2-.1-.2h0v-.2H4a.2.2,0,0,0-.1-.3.3.3,0,0,0,.1-.2C4.1,29.2,3.8,29,3.7,29.2ZM2.5,32.5a1.3,1.3,0,0,0,.1.6.9.9,0,0,1-.3-.7Zm.3-.5-.3.4v-.2h0c0-.1.1-.2.1-.3h.3Zm.5-.5v.2l-.4.2c-.1,0-.1-.1-.2-.3l.6-.3h.1C3.3,31.3,3.3,31.4,3.3,31.5Z"/>
        <path class="cls-2" d="M54.8,29.3c.5-1.1,2.2-1.2,2.2-2.7a1.5,1.5,0,0,0-1-1.4.7.7,0,0,0-1,.4c-.1.1-.1.1-.1.2s.2.2.3,0,.6-.2.5.3a.7.7,0,0,1-.9.3,2.5,2.5,0,0,1-.4-.7c-.1-.2-.1-.4-.3-.4h0c-.1.2.1.4.1.6a2.1,2.1,0,0,0,.4.6.5.5,0,0,0,.4.3c.1.1,0,.3-.1.5h-.3c-.1,0-.2.1-.1.2a.1.1,0,0,0,.1.1h-.1c0,.2,0,.2.2.3h-.1v.2h0c-.2,0-.1.2,0,.3s-.1.1-.1.2S54.7,29.5,54.8,29.3ZM56,26a.7.7,0,0,0-.1-.5.6.6,0,0,1,.3.6C56.2,26,56.1,26,56,26Zm-.3.5.3-.4a.3.3,0,0,1,.1.2h0a.4.4,0,0,1-.1.3h-.3Zm-.5.6v-.3l.4-.2.2.3-.5.3h-.1Z"/>
        <path class="cls-2" d="M4.6,35.8c-.3,1.3-1.9,1.8-1.5,3.2a1.8,1.8,0,0,0,1.4,1.1c.5.1.8-.2.9-.7h0a.1.1,0,0,0-.3,0c0,.5-.6.3-.5-.1a.6.6,0,0,1,.7-.6,3.4,3.4,0,0,1,.6.6c.1.2.2.3.4.3h0A.9.9,0,0,0,6,39l-.5-.6H5c-.1-.1,0-.3,0-.5h.3c.1,0,.1-.2,0-.2s0-.1-.1-.1h0c0-.2-.1-.2-.2-.2H5a.1.1,0,0,0-.1-.1.1.1,0,0,1,.1-.1.2.2,0,0,0-.1-.3v-.2C5,35.7,4.6,35.6,4.6,35.8Zm-.3,3.6a.8.8,0,0,0,.2.4c-.2,0-.4-.2-.5-.5Zm.1-.6a.6.6,0,0,0-.1.4c-.1,0-.2,0-.2-.1A.1.1,0,0,0,4,39a.4.4,0,0,1,.1-.3h0a.1.1,0,0,1,.1.1Zm.4-.7v.3l-.3.2a.2.2,0,0,1-.2-.2c.1-.1.2-.3.4-.4s0-.1.1-.1Z"/>
        <path class="cls-2" d="M53.9,22.7c.3-1.2,1.9-1.8,1.5-3.2A1.8,1.8,0,0,0,54,18.4c-.5-.1-.8.2-.8.7s-.1.1-.1.2.3.1.3-.1.6-.3.5.1a.6.6,0,0,1-.7.6c-.3-.1-.4-.4-.6-.6s-.2-.3-.3-.3-.1,0-.1.1l.3.4.5.6h.5c.1.1,0,.3,0,.5h-.3c-.1,0-.1.2,0,.2a.1.1,0,0,0,.1.1h0c0,.2.1.2.2.2h0a.3.3,0,0,0,.1.2h-.1a.2.2,0,0,0,.1.3v.2A.2.2,0,1,0,53.9,22.7Zm.3-3.5c0-.2,0-.4-.2-.5s.4.3.5.5Zm-.1.5a.6.6,0,0,0,.1-.4h.2c.1.1.1.1.1.2a.4.4,0,0,1-.1.3h-.3Zm-.3.7v-.2l.3-.3.3.2-.5.4c0,.1,0,.1-.1.1S53.8,20.5,53.8,20.4Z"/>
        <path class="cls-2" d="M7.1,42c.1,1.2-1.3,2.2-.6,3.5a2,2,0,0,0,1.6.7.8.8,0,0,0,.7-.9v-.2c-.1-.2-.3-.1-.3.1s-.4.5-.5,0a.6.6,0,0,1,.6-.7l.7.5c.1,0,.2.2.4.1h0c0-.2-.3-.3-.4-.4l-.6-.4H8.2a.7.7,0,0,1-.1-.5l.2-.2c.1,0,.1-.2,0-.2H8.1v-.2h0V43H8c0-.1-.1-.1-.2-.1H7.7c0-.1,0-.2-.1-.2h.1a.2.2,0,0,0-.2-.2V42C7.5,41.7,7.1,41.8,7.1,42Zm.6,3.5.4.4a.7.7,0,0,1-.6-.4Zm0-.6v.5H7.4v-.3h0c.1,0,.1,0,.1.1Zm.2-.8c0,.1.1.2.1.3s-.2.2-.2.3H7.5l.3-.6h0A.3.3,0,0,1,7.9,44.1Z"/>
        <path class="cls-2" d="M51.4,16.5c-.1-1.2,1.3-2.2.6-3.4a1.7,1.7,0,0,0-1.6-.8.8.8,0,0,0-.7.9v.2c.1.2.4.1.3-.1s.5-.5.5,0-.2.8-.5.7-.5-.3-.8-.4l-.4-.2h0c.1.1.3.2.4.4l.6.4h.6v.6h-.2a.1.1,0,0,0,0,.2h.3v.2h.5c-.1.1,0,.2.1.2v.3C51.1,16.8,51.4,16.8,51.4,16.5ZM50.8,13c-.1-.1-.2-.3-.4-.3a.5.5,0,0,1,.6.3Zm0,.6v-.4c.1,0,.2,0,.2.1h.1v.3h-.3Zm-.2.8a.4.4,0,0,0-.1-.3c.1,0,.2-.2.2-.3H51a.9.9,0,0,1-.3.6h0Z"/>
        <path class="cls-2" d="M11.2,47.3c.4,1.2-.8,2.4.3,3.5a1.8,1.8,0,0,0,1.7.3.8.8,0,0,0,.4-1.1h0c-.1-.2-.4,0-.3.1s-.3.6-.4.2-.1-.8.3-.8a1.1,1.1,0,0,1,.8.2c.2,0,.3.1.5,0h0c-.1-.2-.4-.2-.5-.3l-.7-.2a.4.4,0,0,0-.5.1c-.1,0-.2-.3-.3-.4l.2-.2c.1-.1,0-.2-.1-.3h-.2a.1.1,0,0,0-.1-.1H12a.1.1,0,0,0-.1-.1h-.1c0-.2-.1-.3-.2-.2v-.2C11.4,47,11.1,47.1,11.2,47.3Zm1.5,3.2.4.3a.7.7,0,0,1-.7-.2Zm-.2-.6a.7.7,0,0,0,.1.5h-.4V50h.1C12.4,50,12.4,50,12.5,49.9Zm0-.7.2.2c-.1.1-.2.2-.2.3h-.3c0-.2.1-.4.1-.6h.1A.3.3,0,0,0,12.5,49.2Z"/>
        <path class="cls-2" d="M47.3,11.2c-.4-1.1.8-2.4-.3-3.5a1.5,1.5,0,0,0-1.7-.2.7.7,0,0,0-.4,1v.2c.1.1.4,0,.3-.2s.3-.6.5-.2a.7.7,0,0,1-.4.9,1.9,1.9,0,0,1-.8-.3H44c.1.2.4.2.5.3l.7.2a.4.4,0,0,0,.5-.1c.2.1.2.3.3.5l-.2.2c-.1,0,0,.2.1.2H46a.1.1,0,0,0,.1.1h0v.2h.4a.1.1,0,0,0,.1.1h0c0,.2.1.3.3.2v.3C47.1,11.6,47.4,11.5,47.3,11.2ZM45.9,8l-.5-.3.7.2Zm.1.6a.9.9,0,0,0-.1-.5h.4v.3H46Zm.1.8-.2-.2V8.8c.1-.1.2,0,.3,0a1.3,1.3,0,0,1-.1.6h-.1Z"/>
        <path class="cls-2" d="M16.5,51.3c.7,1.1-.1,2.6,1.2,3.4a1.7,1.7,0,0,0,1.7-.2.7.7,0,0,0,.1-1.1c0-.1,0-.1-.1-.2s-.3.1-.2.2-.1.7-.4.3a.6.6,0,0,1,.2-.9h.8a.3.3,0,0,0,.4,0c.1,0,.1-.1,0-.1H19l-.5.3c-.1,0-.2-.2-.3-.4s0-.1.1-.2a.2.2,0,0,0-.2-.2h-.2a.1.1,0,0,1-.1-.1h-.1c-.1-.1-.2,0-.3,0h0a.1.1,0,0,1-.1-.1h-.2c0-.2-.1-.2-.2-.2l-.2-.2C16.6,51,16.3,51.2,16.5,51.3Zm2.2,2.8h.5c-.2.2-.5.1-.7,0Zm-.3-.5c.1.1.1.3.2.4h-.3l-.2-.3h.3Zm-.2-.8c.1.1.1.2.2.2v.4c-.1.1-.2,0-.3,0a1.3,1.3,0,0,1-.1-.6h.2Z"/>
        <path class="cls-2" d="M42.1,7.2c-.7-1.1,0-2.6-1.3-3.3a1.5,1.5,0,0,0-1.7.1A.8.8,0,0,0,39,5.2h.1c.1.2.3-.1.2-.2s.1-.7.4-.3.2.8-.1.9h-.9c-.1,0-.3-.1-.4,0h0l.5.2h.7a.6.6,0,0,0,.5-.3c.1,0,.3.2.4.4l-.2.2a.2.2,0,0,0,.2.2h.4a.2.2,0,0,0,.3,0h0a.1.1,0,0,1,.1.1h.2c0,.1.2.1.3.1v.2C41.9,7.6,42.2,7.4,42.1,7.2ZM39.8,4.5c-.1-.2-.3-.2-.5-.2s.5-.1.7,0A.2.2,0,0,0,39.8,4.5Zm.3.4c0-.1-.1-.2-.2-.4h.3l.2.2h-.3Zm.2.8c0-.1-.1-.1-.2-.1s.1-.3,0-.5h.4v.6h-.2Z"/>
        <path class="cls-2" d="M22.6,53.9c.9.8.6,2.5,2,2.9a1.8,1.8,0,0,0,1.7-.6.8.8,0,0,0-.2-1.2.1.1,0,0,1-.1-.1c-.2-.1-.3.2-.2.3s.1.7-.3.4-.4-.7-.1-.9a1.2,1.2,0,0,1,.8-.2c.2,0,.4-.1.4-.2h-.5l-.8.2c-.1.1-.3.2-.3.4s-.3-.2-.5-.3a.4.4,0,0,0,.1-.3c0-.1-.1-.1-.2-.1a.1.1,0,0,1-.2,0h-.1A.1.1,0,0,0,24,54a.1.1,0,0,0-.1-.1h-.4c0-.1-.1-.1-.2-.1H23l-.2-.2C22.7,53.5,22.4,53.8,22.6,53.9Zm2.9,2H26c-.1.2-.4.2-.7.1A.2.2,0,0,0,25.5,55.9Zm-.4-.4.3.4H25l-.2-.3h0a.1.1,0,0,0,.1-.1Zm-.4-.6h.2a.8.8,0,0,0,.1.4h-.3c-.1-.2-.1-.4-.2-.6h.2Z"/>
        <path class="cls-2" d="M35.9,4.6c-.9-.8-.6-2.5-2-2.9a1.9,1.9,0,0,0-1.7.7.7.7,0,0,0,.2,1.1h.1c.2.1.3-.2.2-.3s-.1-.6.3-.4.4.7.1.9a1.1,1.1,0,0,1-.8.2l-.4.2h.6l.7-.2.4-.4L34,4v.3c0,.1.1.2.2.1h1.4l.2.2C35.9,5,36.1,4.8,35.9,4.6ZM33,2.6a.4.4,0,0,0-.5,0c.2-.3.4-.3.7-.2A.2.2,0,0,0,33,2.6Zm.4.4c0-.2-.2-.3-.3-.4s.2,0,.2-.1h.2c.1,0,.1.1.2.2h-.3Zm.5.6c-.1,0-.2-.1-.3,0a.9.9,0,0,0-.1-.5h.3a1.4,1.4,0,0,1,.2.6h0A.1.1,0,0,1,33.9,3.6Z"/>
      </g>
      <g>
        <g>
          <path class="cls-2" d="M30.2.4c-.3.2-.4.5-.8.7h-.7L28.2.4,28,.6a1.4,1.4,0,0,0,1.3.7c.4,0,.8-.5.9-.9S30.2.3,30.2.4Z"/>
          <path class="cls-2" d="M30.1,3.5c-.1-.3-.2-.5-.5-.5a1.1,1.1,0,0,0-1.3.9c0,.2.2.2.3.1a2.1,2.1,0,0,1,.4-.6c.2-.1.5-.2.7,0s.3.5.6.6a.1.1,0,0,1,.1-.1h0Z"/>
          <path class="cls-2" d="M29.7,1.8a.6.6,0,0,0-.7-.1.8.8,0,0,0-.2.4.3.3,0,0,0,.1.2c0,.1,0,.2.1.2s.4.1.6,0A.6.6,0,0,0,29.7,1.8Zm-.4.5h-.2V2c.1,0,.1,0,.1-.1h.1A.2.2,0,0,1,29.3,2.3Z"/>
          <path class="cls-2" d="M27.4.4c0-.1-.1,0-.1,0a3.3,3.3,0,0,0,.3.6H27L26.7.7h-.1c.1.5.4.9.5,1.4a13.6,13.6,0,0,1-.2,2c-.1.1.2.2.2,0a.9.9,0,0,0,.1-.5h.6c-.1.1-.1.3-.2.4s.2.3.3.1A3.2,3.2,0,0,0,27.4.4ZM28,2.1h-.3l-.4.2V1.9h.6A.3.3,0,0,1,28,2.1Zm-.7-.8h.4l.2.3h-.7a.8.8,0,0,0-.1-.4Zm.2,2.1h-.2V2.9h.6v.4C27.8,3.3,27.6,3.4,27.5,3.4Zm.1-.7h-.3V2.4H28v.3Z"/>
          <path class="cls-2" d="M31.9,3.9A4.1,4.1,0,0,1,31.7.5h0c-.3,0-.4.3-.5.6h-.4l.3-.5H31c-1,.3-.9,3.9,0,3.7s.1-.1.1-.2-.2-.1-.2-.3h.5l.3.7C31.8,4.2,32,4.1,31.9,3.9ZM30.7,1.2h.5v.3h-.5Zm-.1.5h.5v.4h-.5Zm0,1.1V2.3h0c.2,0,.4.1.5,0a.6.6,0,0,1,.1.4h-.6Zm.1.5h0a.4.4,0,0,0-.1-.3h.6a.4.4,0,0,1,.1.3Z"/>
          <path class="cls-2" d="M29.5.4c-.1.1-.2.3-.3.3h-.4a.4.4,0,0,0,.4.4c.2,0,.4-.2.6-.4S29.6.2,29.5.4Z"/>
          <path class="cls-2" d="M29.4,3.4a.5.5,0,0,0-.5.5c0,.2.2.2.2.1s.1-.3.3-.3l.3.2h.1A.7.7,0,0,0,29.4,3.4Z"/>
          <path class="cls-2" d="M28.3,1.1a.1.1,0,1,0,0,.3C28.4,1.4,28.4,1.1,28.3,1.1Z"/>
          <path class="cls-2" d="M28.6,1.6c-.1,0-.1.3,0,.3A.1.1,0,0,0,28.6,1.6Z"/>
          <path class="cls-2" d="M28.7,2.6s-.1.1,0,.1h.1C28.9,2.7,28.8,2.6,28.7,2.6Z"/>
          <path class="cls-2" d="M28.4,3c-.1,0-.1.2,0,.2S28.5,3,28.4,3Z"/>
          <path class="cls-2" d="M29.9,1.5c-.1,0-.1.2,0,.2S30,1.5,29.9,1.5Z"/>
          <path class="cls-2" d="M30.1,1.2h0C30.3,1.4,30.3,1,30.1,1.2Z"/>
          <path class="cls-2" d="M29.9,2.5c-.2,0-.2.2,0,.2S30,2.5,29.9,2.5Z"/>
          <path class="cls-2" d="M30.2,2.9c-.2,0-.2.2,0,.2S30.3,2.9,30.2,2.9Z"/>
          <path class="cls-2" d="M26.8,1.6a.1.1,0,1,0,0,.3A.1.1,0,1,0,26.8,1.6Z"/>
          <path class="cls-2" d="M26.9,2.9c-.2,0-.2.2,0,.2S27,2.9,26.9,2.9Z"/>
          <path class="cls-2" d="M26.8,2.4h0c0,.1.1.1.2,0h0C27,2.2,26.7,2.2,26.8,2.4Z"/>
          <path class="cls-2" d="M31.6,1.4c.2-.1.2.2.1.2S31.5,1.4,31.6,1.4Z"/>
          <path class="cls-2" d="M31.7,2.6c.1,0,.2.3,0,.3A.1.1,0,0,1,31.7,2.6Z"/>
          <path class="cls-2" d="M31.7,2.1h0c0,.1-.1.1-.2,0h0C31.4,2,31.7,2,31.7,2.1Z"/>
        </g>
        <g>
          <path class="cls-2" d="M28.4,58.2c.3-.2.4-.6.7-.7a1.2,1.2,0,0,1,.8.1c.2.1.2.4.4.5s.3,0,.2-.1a1.2,1.2,0,0,0-1.2-.7,1.2,1.2,0,0,0-1,.8C28.3,58.2,28.3,58.3,28.4,58.2Z"/>
          <path class="cls-2" d="M28.4,55.1l.5.5a1,1,0,0,0,1.3-.9c.1-.2-.2-.2-.2-.1l-.4.6c-.2.1-.6.2-.8,0s-.3-.5-.5-.6-.1,0-.1.1h0C28.2,54.8,28.4,55,28.4,55.1Z"/>
          <path class="cls-2" d="M28.9,56.7a.4.4,0,0,0,.7.1c.1,0,.1-.2.1-.3v-.2a.2.2,0,0,0-.2-.2c-.1-.2-.4-.1-.5,0A.5.5,0,0,0,28.9,56.7Zm.3-.4h.2a.3.3,0,0,1-.1.2h-.2A.2.2,0,0,1,29.2,56.3Z"/>
          <path class="cls-2" d="M31.1,58.2c.1,0,.1,0,.1-.1s-.1-.4-.2-.6h.5l.3.5c.1.1.2.1.2,0a3.9,3.9,0,0,1-.5-1.4,4.6,4.6,0,0,1,.2-2,.2.2,0,0,0-.3-.1c0,.2-.1.4-.1.6h-.5c0-.2.1-.3.1-.4s-.2-.3-.2-.1A3.2,3.2,0,0,0,31.1,58.2Zm-.5-1.7h.2l.4-.2c0,.2.1.3.1.4H31c-.2,0-.3-.1-.4,0Zm.7.8h-.5c0-.1-.1-.2-.1-.3h.6c0,.1.1.2.1.3ZM31,55.2h.3a4.3,4.3,0,0,0-.1.5c-.1,0-.2,0-.2-.1h-.4c0-.1.1-.2.1-.4Zm0,.7h.2v.4h-.6v-.3Z"/>
          <path class="cls-2" d="M26.6,54.7a3.7,3.7,0,0,1,.2,3.4.1.1,0,0,0,.1.1.7.7,0,0,0,.4-.6h.4l-.2.5h.1c.9-.3.9-3.9-.1-3.7s-.1.1,0,.1l.2.3-.6.2a1.9,1.9,0,0,0-.2-.7C26.8,54.3,26.5,54.5,26.6,54.7Zm1.2,2.7h-.4v-.3h.5Zm.1-.5h-.5v-.4c.1,0,.2,0,.2.1H28C28,56.7,28,56.8,27.9,56.9Zm.1-1.1v.4h-.6c0-.2,0-.3-.1-.4H28Zm-.2-.5h0a.4.4,0,0,1,.1.3s0-.1-.1,0h-.5c0-.1-.1-.2-.1-.3Z"/>
          <path class="cls-2" d="M29,58.2c.1-.1.2-.3.4-.3h.2a.1.1,0,0,0,.1.1h0a.1.1,0,0,0,.1-.1c0-.1-.3-.3-.4-.3a.7.7,0,0,0-.6.4C28.7,58.2,28.9,58.3,29,58.2Z"/>
          <path class="cls-2" d="M29.2,55.2c.2,0,.4-.3.5-.5s-.2-.2-.3-.1-.1.3-.2.3-.2-.2-.3-.2-.1,0-.1,0S29,55.1,29.2,55.2Z"/>
          <path class="cls-2" d="M30.3,57.5c.1,0,.1-.3,0-.3A.2.2,0,0,0,30.3,57.5Z"/>
          <path class="cls-2" d="M29.9,56.9c.1,0,.1-.2,0-.2S29.8,56.9,29.9,56.9Z"/>
          <path class="cls-2" d="M29.8,56a.1.1,0,0,0,.1-.1.1.1,0,0,1-.1-.1h0a.1.1,0,0,1-.1.1A.1.1,0,0,0,29.8,56Z"/>
          <path class="cls-2" d="M30.1,55.6c.2,0,.2-.2,0-.2S30,55.6,30.1,55.6Z"/>
          <path class="cls-2" d="M28.6,57.1a.1.1,0,0,0,0-.3C28.5,56.8,28.5,57.1,28.6,57.1Z"/>
          <path class="cls-2" d="M28.4,57.4h0C28.3,57.2,28.3,57.5,28.4,57.4Z"/>
          <path class="cls-2" d="M28.7,56.1c.1,0,.1-.2,0-.2S28.5,56.1,28.7,56.1Z"/>
          <path class="cls-2" d="M28.4,55.7c.1,0,.1-.2,0-.2S28.3,55.7,28.4,55.7Z"/>
          <path class="cls-2" d="M31.8,57c.1,0,.1-.3,0-.3A.2.2,0,0,0,31.8,57Z"/>
          <path class="cls-2" d="M31.7,55.7c.1,0,.1-.2,0-.2S31.5,55.7,31.7,55.7Z"/>
          <path class="cls-2" d="M31.8,56.2h0c-.1-.1-.2-.1-.2,0h0C31.5,56.4,31.8,56.4,31.8,56.2Z"/>
          <path class="cls-2" d="M26.9,57.2c-.2.1-.2-.2,0-.2S27.1,57.2,26.9,57.2Z"/>
          <path class="cls-2" d="M26.9,56a.1.1,0,0,1,0-.3C27,55.7,27,56,26.9,56Z"/>
          <path class="cls-2" d="M26.8,56.5H27C27.1,56.6,26.8,56.6,26.8,56.5Z"/>
        </g>
        <g>
          <path class="cls-2" d="M22.6,1.1c-.2.3-.2.7-.5.9h-.7l-.6-.4c-.1-.1-.2.1-.1.2a1.3,1.3,0,0,0,1.3.4c.5-.1.7-.7.7-1.1Z"/>
          <path class="cls-2" d="M23.4,4.1a.9.9,0,0,0-.6-.3,1,1,0,0,0-1,1.2c0,.2.2.2.2,0s.1-.4.3-.6a.7.7,0,0,1,.7-.3c.2.1.4.4.7.5h.1Z"/>
          <path class="cls-2" d="M22.5,2.7c-.2-.2-.5-.2-.6.1a.4.4,0,0,0-.1.3c0,.1,0,.1.1.2a.2.2,0,0,0,.2.2.4.4,0,0,0,.5-.2A.4.4,0,0,0,22.5,2.7Zm-.2.5h-.2a.4.4,0,0,1,.1-.3h.1C22.5,3,22.4,3.1,22.3,3.2Z"/>
          <path class="cls-2" d="M20,1.8h-.1l.4.5c0,.1-.1.1-.2.1l-.3.2c-.1-.1-.2-.3-.4-.4s-.2,0-.1.1a12.5,12.5,0,0,1,.8,1.2,4.6,4.6,0,0,1,.3,2c0,.1.3.1.3,0a1.3,1.3,0,0,0-.1-.6h.6v.4c-.1.1.2.2.2,0A3.3,3.3,0,0,0,20,1.8Zm1,1.6h-.3l-.3.2c-.1-.1-.1-.3-.2-.4h.7C20.9,3.3,21,3.3,21,3.4Zm-.9-.6h.4a.2.2,0,0,1,.2.2h-.3c-.1,0-.2,0-.2.1l-.3-.3Zm.8,1.9h-.3a.9.9,0,0,0-.1-.5h.7v.4ZM20.8,4l-.3.2c0-.2,0-.3-.1-.4h.7V4C21,3.9,20.9,4,20.8,4Z"/>
          <path class="cls-2" d="M25.3,4.1A3.6,3.6,0,0,1,24.2.9h-.1a.7.7,0,0,0-.3.6h-.4c0-.2.1-.4.1-.6h-.1c-.8.5.1,3.9,1,3.5s.1-.1,0-.2L24.1,4l.5-.2.5.5C25.2,4.5,25.4,4.2,25.3,4.1ZM23.4,1.8c.1,0,.2,0,.2-.1h.3V2h-.1c-.1-.1-.3,0-.4,0Zm0,.5h.5a.4.4,0,0,1,.1.3h-.5A.4.4,0,0,1,23.4,2.3Zm.3,1-.2-.4h.6c0,.1.1.2.1.3l-.5.2Zm.2.5h0V3.6h0l.4-.2h.2c0,.1.1.2.1.3Z"/>
          <path class="cls-2" d="M22,1.3l-.2.4h-.5l.5.2a.8.8,0,0,0,.5-.5C22.3,1.2,22.1,1.1,22,1.3Z"/>
          <path class="cls-2" d="M22.7,4.3c-.3,0-.4.3-.4.6h.3c0-.1,0-.3.2-.3s.2.1.3.1a.1.1,0,0,0,.1-.1C23.2,4.4,22.9,4.3,22.7,4.3Z"/>
          <path class="cls-2" d="M21,2.3c-.1.1-.1.3.1.3S21.2,2.3,21,2.3Z"/>
          <path class="cls-2" d="M21.5,2.7c-.1.1-.1.3.1.3S21.7,2.7,21.5,2.7Z"/>
          <path class="cls-2" d="M21.8,3.6a.1.1,0,0,0,0,.2h.1C22,3.7,21.9,3.6,21.8,3.6Z"/>
          <path class="cls-2" d="M21.6,4.1c-.1.1,0,.3.1.2S21.8,4.1,21.6,4.1Z"/>
          <path class="cls-2" d="M22.7,2.3c-.2,0-.1.3,0,.2S22.8,2.3,22.7,2.3Z"/>
          <path class="cls-2" d="M22.8,1.9h0C23,2.1,22.9,1.8,22.8,1.9Z"/>
          <path class="cls-2" d="M22.9,3.3c-.1,0-.1.2.1.2S23,3.2,22.9,3.3Z"/>
          <path class="cls-2" d="M23.3,3.6c-.1,0-.1.2,0,.1S23.4,3.5,23.3,3.6Z"/>
          <path class="cls-2" d="M19.7,3.2c-.2,0-.1.3.1.2S19.9,3.1,19.7,3.2Z"/>
          <path class="cls-2" d="M20.1,4.4c-.1,0-.1.3.1.2S20.3,4.3,20.1,4.4Z"/>
          <path class="cls-2" d="M19.9,3.9h0c.1.1.2.1.2,0h0C20.1,3.7,19.8,3.8,19.9,3.9Z"/>
          <path class="cls-2" d="M24.3,1.7c.2-.1.3.2.1.3A.2.2,0,0,1,24.3,1.7Z"/>
          <path class="cls-2" d="M24.7,2.9c.1,0,.2.2.1.2S24.5,3,24.7,2.9Z"/>
          <path class="cls-2" d="M24.6,2.4h0c0,.1-.1.2-.2.1h0C24.3,2.4,24.6,2.2,24.6,2.4Z"/>
        </g>
        <g>
          <path class="cls-2" d="M35.9,57.5c.2-.3.2-.7.5-.9h.8l.5.4c.2.1.3-.1.2-.2a1.4,1.4,0,0,0-1.4-.4c-.5.1-.6.7-.7,1.1A.1.1,0,0,0,35.9,57.5Z"/>
          <path class="cls-2" d="M35.1,54.5a.9.9,0,0,0,.7.3,1.1,1.1,0,0,0,1-1.2.1.1,0,0,0-.3,0,1.4,1.4,0,0,1-.2.6.8.8,0,0,1-.8.3c-.2-.1-.4-.5-.6-.5a.1.1,0,0,0-.1.1h0C34.8,54.2,35,54.4,35.1,54.5Z"/>
          <path class="cls-2" d="M36,55.9a.4.4,0,0,0,.7-.1.2.2,0,0,0,0-.3v-.2c-.1-.1-.1-.2-.2-.2a.5.5,0,0,0-.6.2C35.8,55.5,35.8,55.8,36,55.9Zm.2-.5c.1,0,.1-.1.2,0h0v.3h-.2C36.1,55.6,36.1,55.4,36.2,55.4Z"/>
          <path class="cls-2" d="M38.5,56.7h.1a2.1,2.1,0,0,0-.4-.6c.1,0,.2,0,.2-.1h.3l.5.4h.1a5.4,5.4,0,0,1-.9-1.2,13.8,13.8,0,0,1-.3-2c0-.1-.2-.1-.2,0v.6h-.5v-.4c0-.2-.2-.2-.3,0A3.2,3.2,0,0,0,38.5,56.7Zm-.9-1.5h.2l.4-.2c0,.1.1.2.1.4h-.7Zm.8.6H38l-.2-.3h.6c0,.1.1.2.2.3Zm-.8-1.9h.3a4.3,4.3,0,0,1,.1.5h-.6V54Zm.2.7c.1-.1.2-.1.2-.2a.6.6,0,0,1,.1.4h-.4c-.1,0-.2,0-.2.1a.8.8,0,0,1-.1-.4Z"/>
          <path class="cls-2" d="M33.3,54.5a4.2,4.2,0,0,1,1.1,3.2c-.1.1,0,.1,0,.1s.3-.4.3-.7.3,0,.4,0a1.3,1.3,0,0,1-.1.6h.1c.9-.5-.1-3.9-1-3.5s-.1.1,0,.1l.3.3-.5.2-.4-.5C33.4,54.1,33.1,54.4,33.3,54.5Zm1.9,2.3h-.5a.4.4,0,0,0-.1-.3h.5Zm-.1-.5h-.5c0-.1-.1-.2-.1-.3s.2,0,.2-.1h.4Zm-.2-1c0,.1.1.2.1.4h-.6c0-.1-.1-.2-.1-.3l.5-.2Zm-.3-.5h0c.1.1.1.1.1.2h0l-.3.2h-.2L34,55Z"/>
          <path class="cls-2" d="M36.5,57.3c.1-.1.1-.3.3-.4h.3c.1,0,.1,0,.1-.1s-.3-.2-.5-.2-.4.3-.4.5S36.4,57.4,36.5,57.3Z"/>
          <path class="cls-2" d="M35.9,54.3c.2,0,.4-.3.3-.6s-.2-.1-.3,0,0,.3-.1.3-.2-.1-.4-.1h0C35.4,54.2,35.7,54.3,35.9,54.3Z"/>
          <path class="cls-2" d="M37.5,56.3c.2-.1.1-.3,0-.3S37.4,56.3,37.5,56.3Z"/>
          <path class="cls-2" d="M37,55.8c.2,0,.1-.2,0-.2S36.9,55.9,37,55.8Z"/>
          <path class="cls-2" d="M36.7,55c.1,0,.1-.2,0-.2h-.1C36.6,54.9,36.6,55,36.7,55Z"/>
          <path class="cls-2" d="M36.9,54.5c.1-.1.1-.3,0-.2S36.8,54.5,36.9,54.5Z"/>
          <path class="cls-2" d="M35.9,56.3c.1-.1,0-.3-.1-.2S35.7,56.3,35.9,56.3Z"/>
          <path class="cls-2" d="M35.7,56.7h0C35.5,56.5,35.6,56.8,35.7,56.7Z"/>
          <path class="cls-2" d="M35.6,55.3c.2,0,.1-.2,0-.2S35.5,55.4,35.6,55.3Z"/>
          <path class="cls-2" d="M35.2,55c.2,0,.1-.2,0-.1S35.1,55.1,35.2,55Z"/>
          <path class="cls-2" d="M38.9,55.4c.1,0,.1-.3-.1-.3S38.7,55.5,38.9,55.4Z"/>
          <path class="cls-2" d="M38.4,54.2c.2,0,.1-.3,0-.2S38.3,54.3,38.4,54.2Z"/>
          <path class="cls-2" d="M38.6,54.7h0c0-.1-.1-.1-.1,0h0C38.5,54.9,38.7,54.8,38.6,54.7Z"/>
          <path class="cls-2" d="M34.2,56.9c-.1.1-.2-.2-.1-.3S34.4,56.8,34.2,56.9Z"/>
          <path class="cls-2" d="M33.9,55.7c-.2,0-.3-.2-.1-.3A.2.2,0,0,1,33.9,55.7Z"/>
          <path class="cls-2" d="M33.9,56.2h0c0-.1.2-.2.2-.1h0C34.2,56.2,34,56.3,33.9,56.2Z"/>
        </g>
        <g>
          <path class="cls-2" d="M15.6,3.8c-.2.3-.1.7-.3,1a1,1,0,0,1-.7.2c-.2.1-.4-.1-.7-.2s-.2.2,0,.2a1.2,1.2,0,0,0,1.4.1c.4-.3.4-.8.4-1.3Z"/>
          <path class="cls-2" d="M17.1,6.5l-.7-.2a1.2,1.2,0,0,0-.7,1.5c.1.1.3.1.3-.1a2,2,0,0,1,.1-.7.7.7,0,0,1,.6-.4,1.1,1.1,0,0,0,.8.2h0Z"/>
          <path class="cls-2" d="M15.9,5.3a.5.5,0,0,0-.7.3.8.8,0,0,0,.1.4h.4c.2.1.4-.1.4-.3A.5.5,0,0,0,15.9,5.3Zm-.1.6h-.2V5.7h.1C15.9,5.6,15.9,5.8,15.8,5.9Z"/>
          <path class="cls-2" d="M13.2,5.2s-.1,0,0,.1l.5.4h-.2l-.2.3-.6-.3c0-.1-.1,0,0,.1s.8.5,1.1,1a4.9,4.9,0,0,1,.8,1.8c0,.1.3.1.2-.1a1.4,1.4,0,0,0-.2-.6l.5-.2a.6.6,0,0,1,.1.4c0,.2.3.1.3,0A3.2,3.2,0,0,0,13.2,5.2Zm1.4,1.2-.3.2c-.1,0-.2.1-.2.3l-.3-.3.3-.2.3-.2Zm-1-.3.3-.3h0l.3.3h-.3c-.1.1-.1.2-.2.2l-.3-.2Zm1.2,1.6-.2.2-.2-.5c.1,0,.2,0,.2-.1H15a.4.4,0,0,0,.1.3Zm-.3-.6-.2.2L14.1,7h.2l.2-.2h.2l.2.3Z"/>
          <path class="cls-2" d="M18.9,6A3.9,3.9,0,0,1,17,3.2c0-.1,0-.1-.1-.1s-.2.4-.1.7l-.4.2V3.4a.1.1,0,0,0-.1-.1c-.7.8,1.1,3.8,1.9,3.2V6.3h-.3l.4-.4a1,1,0,0,0,.5.4C18.9,6.4,19.1,6.1,18.9,6ZM16.5,4.2h.4v.3h-.1l-.4.2Zm.1.5h0l.5-.2.2.3c-.1,0-.2,0-.2.1l-.3.2Zm.5,1a.8.8,0,0,0-.2-.4h0l.5-.3.2.3-.4.3Zm.4.3h-.2a.1.1,0,0,0,.1-.1l.3-.2h.1l.2.2Z"/>
          <path class="cls-2" d="M15,4.1c0,.1,0,.4-.1.4h-.4c0,.1-.1.1,0,.1s.3.2.5.2a.9.9,0,0,0,.3-.7Z"/>
          <path class="cls-2" d="M16.4,6.8a.7.7,0,0,0-.2.7c.1.1.3.1.3-.1s-.1-.2.1-.3H17C16.9,6.8,16.6,6.8,16.4,6.8Z"/>
          <path class="cls-2" d="M14.3,5.4c-.1.1,0,.3.1.2S14.5,5.3,14.3,5.4Z"/>
          <path class="cls-2" d="M14.9,5.7c-.1,0,0,.2.1.2S15,5.6,14.9,5.7Z"/>
          <path class="cls-2" d="M15.4,6.4c0,.1,0,.2.1.2h-.1Z"/>
          <path class="cls-2" d="M15.4,7c-.1,0,0,.2.1.1S15.5,6.9,15.4,7Z"/>
          <path class="cls-2" d="M15.9,4.9c-.1.1,0,.3.1.2S16.1,4.9,15.9,4.9Z"/>
          <path class="cls-2" d="M16,4.5h0c-.1,0,0,.1,0,.1h0C16.2,4.6,16,4.3,16,4.5Z"/>
          <path class="cls-2" d="M16.4,5.8c-.1.1,0,.2.1.2S16.5,5.7,16.4,5.8Z"/>
          <path class="cls-2" d="M16.8,6c-.1,0,0,.2.1.1S16.9,5.9,16.8,6Z"/>
          <path class="cls-2" d="M13.3,6.5c-.2.1-.1.4.1.3A.2.2,0,0,0,13.3,6.5Z"/>
          <path class="cls-2" d="M14,7.6a.1.1,0,1,0,.1.2C14.2,7.7,14.1,7.5,14,7.6Z"/>
          <path class="cls-2" d="M13.6,7.2h.1c0,.1.1,0,.1-.1h0C13.8,7,13.5,7.1,13.6,7.2Z"/>
          <path class="cls-2" d="M17.4,3.9a.1.1,0,1,1,.1.2A.1.1,0,1,1,17.4,3.9Z"/>
          <path class="cls-2" d="M18,5c.1-.1.3.1.2.2S17.9,5.1,18,5Z"/>
          <path class="cls-2" d="M17.8,4.5h0l-.2.2h0C17.5,4.6,17.7,4.4,17.8,4.5Z"/>
        </g>
        <g>
          <path class="cls-2" d="M43,54.8c.1-.3,0-.7.3-1s.4-.2.6-.3a1.5,1.5,0,0,1,.7.3.2.2,0,0,0,.1-.3,1.4,1.4,0,0,0-1.4,0,1.1,1.1,0,0,0-.4,1.3Z"/>
          <path class="cls-2" d="M41.5,52.1l.6.2a1.1,1.1,0,0,0,.7-1.5c-.1-.1-.3-.1-.3.1a.8.8,0,0,1-.7,1.1l-.7-.3H41Z"/>
          <path class="cls-2" d="M42.7,53.3a.4.4,0,0,0,.6-.3v-.4h-.2c0-.1-.1-.1-.2-.2a.7.7,0,0,0-.5.4C42.3,52.9,42.5,53.1,42.7,53.3Zm0-.6h.2c.1,0,.1.1.1.2a.1.1,0,0,1-.1.1h-.1A.2.2,0,0,1,42.7,52.7Z"/>
          <path class="cls-2" d="M45.3,53.4c.1,0,.1,0,.1-.1l-.5-.4H45l.3-.3.5.3h.1a10.9,10.9,0,0,1-1.1-1,4.9,4.9,0,0,1-.8-1.8c-.1-.1-.3-.1-.3.1s.1.4.2.6l-.5.2c0-.1-.1-.3-.1-.4s-.3-.1-.2,0A3.3,3.3,0,0,0,45.3,53.4ZM44,52.2l.2-.2.3-.3.2.3-.3.2H44Zm1,.3-.4.3h0l-.3-.3h.1c.1,0,.1-.1.2-.2a.2.2,0,0,0,.2-.2l.3.3Zm-1.3-1.6.3-.2c0,.2.1.3.2.5h-.6a.4.4,0,0,1-.1-.3C43.6,51,43.6,50.9,43.7,50.9Zm.3.6c.1-.1.2-.1.2-.2l.2.3h-.2l-.2.2h-.2c0-.1-.1-.2-.1-.3Z"/>
          <path class="cls-2" d="M39.7,52.6a3.8,3.8,0,0,1,1.8,2.8.1.1,0,0,0,.1.1c.2-.1.2-.4.1-.7l.4-.2a1.3,1.3,0,0,1,.1.6h.1c.7-.8-1.2-3.8-1.9-3.2s0,.1,0,.1l.4.2-.4.4-.6-.5C39.6,52.2,39.5,52.5,39.7,52.6Zm2.4,1.7-.3.2a.1.1,0,0,0-.1.1l-.2-.3h.1l.4-.2A.3.3,0,0,0,42.1,54.3Zm-.2-.4h0l-.5.2c0-.1-.1-.2-.1-.3h.2l.3-.2C41.8,53.7,41.9,53.8,41.9,53.9Zm-.5-1,.2.4h0l-.5.3c0-.1-.1-.2-.2-.3l.5-.3Zm-.4-.3h.2l-.3.3h-.2l-.2-.2Z"/>
          <path class="cls-2" d="M43.5,54.5c0-.2,0-.4.2-.5H44c.1,0,.1,0,.1-.1h-.5c-.3.1-.3.4-.4.7S43.5,54.6,43.5,54.5Z"/>
          <path class="cls-2" d="M42.1,51.7a.4.4,0,0,0,.2-.6c-.1-.1-.3-.1-.3,0s.1.3,0,.4-.3,0-.4,0h-.1A.4.4,0,0,0,42.1,51.7Z"/>
          <path class="cls-2" d="M44.2,53.2a.1.1,0,1,0-.1-.2C44,53.1,44.1,53.3,44.2,53.2Z"/>
          <path class="cls-2" d="M43.6,52.9c.2,0,0-.2-.1-.2S43.5,53,43.6,52.9Z"/>
          <path class="cls-2" d="M43.1,52.2c.1-.1.1-.2,0-.2H43C42.9,52.2,43,52.2,43.1,52.2Z"/>
          <path class="cls-2" d="M43.2,51.6c.1,0,0-.2-.1-.2S43,51.7,43.2,51.6Z"/>
          <path class="cls-2" d="M42.6,53.7c.1-.1,0-.3-.1-.2S42.5,53.7,42.6,53.7Z"/>
          <path class="cls-2" d="M42.6,54.1h0a.1.1,0,0,0-.1-.1h0C42.4,54,42.5,54.3,42.6,54.1Z"/>
          <path class="cls-2" d="M42.2,52.8c.1-.1,0-.2-.1-.2S42,52.9,42.2,52.8Z"/>
          <path class="cls-2" d="M41.7,52.6c.1-.1,0-.2-.1-.1S41.6,52.7,41.7,52.6Z"/>
          <path class="cls-2" d="M45.3,52c.1,0,0-.3-.2-.2S45.1,52.1,45.3,52Z"/>
          <path class="cls-2" d="M44.6,51c.1-.1,0-.3-.2-.2S44.4,51.1,44.6,51Z"/>
          <path class="cls-2" d="M44.9,51.4h0c-.1-.1-.2,0-.2.1h0C44.8,51.6,45,51.5,44.9,51.4Z"/>
          <path class="cls-2" d="M41.2,54.7c-.2.1-.3-.1-.2-.2S41.3,54.6,41.2,54.7Z"/>
          <path class="cls-2" d="M40.5,53.6c-.1.1-.2-.1-.1-.2A.1.1,0,1,1,40.5,53.6Z"/>
          <path class="cls-2" d="M40.7,54h0c0-.1.1-.1.2-.1h0A.1.1,0,1,1,40.7,54Z"/>
        </g>
        <g>
          <path class="cls-2" d="M9.4,8.2c0,.4.2.7,0,1a1.5,1.5,0,0,1-.6.5H8.1c-.1,0-.1.2,0,.3a1.5,1.5,0,0,0,1.4-.4c.3-.3.2-.9.1-1.3Z"/>
          <path class="cls-2" d="M11.6,10.4h-.7a1.2,1.2,0,0,0-.3,1.6.2.2,0,0,0,.3-.1,1.4,1.4,0,0,1-.2-.7c.1-.2.3-.6.6-.6s.5.2.8.1h0Z"/>
          <path class="cls-2" d="M10.1,9.6c-.2-.1-.5.1-.5.4s0,.3.1.4h.5a.5.5,0,0,0,.3-.5A.7.7,0,0,0,10.1,9.6Zm.1.6h-.1L9.9,10h.2A.2.2,0,0,1,10.2,10.2Z"/>
          <path class="cls-2" d="M7.5,10.2s-.1,0,0,.1l.6.2v.2l-.2.3H7.2c-.1-.1-.1,0,0,.1s.9.3,1.3.7a4.4,4.4,0,0,1,1.2,1.5c.1.1.3,0,.3-.2l-.4-.5c.2,0,.3-.2.5-.3s.1.2.1.4a.2.2,0,0,0,.3-.1A3.3,3.3,0,0,0,7.5,10.2Zm1.7.8-.2.2a.5.5,0,0,0-.2.4l-.3-.3.2-.2.3-.2Zm-1.1-.1c.1-.1.1-.2.3-.3h.3l-.2.2-.2.2H8Zm1.6,1.3c0,.1-.1.1-.2.2L9.2,12h.2l.3-.3a.5.5,0,0,1,.2.4Zm-.4-.5c-.1,0-.1.1-.2.2s-.1-.2-.2-.2v-.2l.2-.2h.1l.3.2Z"/>
          <path class="cls-2" d="M13.2,9.5a3.6,3.6,0,0,1-2.5-2.3h-.1c-.2.2-.1.4,0,.7l-.3.3a1.4,1.4,0,0,1-.2-.6H10c-.5.9,2.1,3.4,2.7,2.6V10h-.4l.3-.5.6.3C13.3,9.8,13.4,9.5,13.2,9.5ZM10.4,8.4a.2.2,0,0,0,.2-.2h.2c0,.1.1.1.1.2h0l-.4.3Zm.3.4h0l.4-.3.2.2c0,.1-.1.1-.1.2l-.3.2Zm.7.8-.3-.3h0c.1-.2.3-.2.4-.4l.3.2-.4.5Zm.5.3h-.2l.2-.3a.3.3,0,0,0,.1-.2l.3.2A1,1,0,0,0,11.9,9.9Z"/>
          <path class="cls-2" d="M9,8.6c0,.2.1.4,0,.5H8.6c.1.2.4.1.5,0a1,1,0,0,0,.2-.7Z"/>
          <path class="cls-2" d="M11.1,10.9c-.3.2-.2.5-.1.7a.2.2,0,0,0,.3-.1.3.3,0,0,1,0-.4h.4A.5.5,0,0,0,11.1,10.9Z"/>
          <path class="cls-2" d="M8.6,10.1a.1.1,0,1,0,.2.1C8.9,10.1,8.8,10,8.6,10.1Z"/>
          <path class="cls-2" d="M9.3,10.2c-.1.1,0,.2.1.1S9.4,10.1,9.3,10.2Z"/>
          <path class="cls-2" d="M10,10.8h.2S10,10.7,10,10.8Z"/>
          <path class="cls-2" d="M10.1,11.3c-.1.1,0,.3.1.2S10.2,11.2,10.1,11.3Z"/>
          <path class="cls-2" d="M10.1,9.2c-.1.1,0,.3.1.2S10.2,9.1,10.1,9.2Z"/>
          <path class="cls-2" d="M10,8.8h.1C10.2,8.8,10,8.6,10,8.8Z"/>
          <path class="cls-2" d="M10.7,9.9c-.1.1.1.3.2.2S10.8,9.8,10.7,9.9Z"/>
          <path class="cls-2" d="M11.2,10c-.1.1.1.2.2.1S11.3,9.9,11.2,10Z"/>
          <path class="cls-2" d="M7.9,11.5c-.1.1.1.3.2.2S8,11.3,7.9,11.5Z"/>
          <path class="cls-2" d="M8.9,12.3c-.1.1,0,.3.2.2S9,12.2,8.9,12.3Z"/>
          <path class="cls-2" d="M8.5,12h0c.1.1.1,0,.1-.1h0C8.5,11.7,8.3,11.9,8.5,12Z"/>
          <path class="cls-2" d="M11.2,7.9a.1.1,0,1,1,.2.1A.1.1,0,1,1,11.2,7.9Z"/>
          <path class="cls-2" d="M12.1,8.7c.1-.1.3.1.2.2S12,8.9,12.1,8.7Z"/>
          <path class="cls-2" d="M11.8,8.4h-.1C11.5,8.4,11.7,8.2,11.8,8.4Z"/>
        </g>
        <g>
          <path class="cls-2" d="M49.1,50.4c.1-.4-.1-.7,0-1s.4-.4.6-.5.5.1.7.1.2-.2,0-.3a1.3,1.3,0,0,0-1.3.4c-.4.3-.3.9-.1,1.3Z"/>
          <path class="cls-2" d="M46.9,48.2c.3,0,.5.1.8-.1a1,1,0,0,0,.2-1.5.1.1,0,1,0-.2.1c0,.2.1.4.1.7a.7.7,0,0,1-.5.6c-.3,0-.6-.2-.8-.1h0Z"/>
          <path class="cls-2" d="M48.4,49a.7.7,0,0,0,.6-.4.5.5,0,0,0-.2-.4h-.4a.5.5,0,0,0,0,1Zm-.1-.6a.1.1,0,0,0,.1-.1h.1a.4.4,0,0,1,.1.3h-.1C48.3,48.7,48.3,48.5,48.3,48.4Z"/>
          <path class="cls-2" d="M51,48.4c.1,0,.1,0,0-.1l-.6-.2c.1-.1.1-.2.2-.2s.1-.2.1-.3h.6c.1,0,.2,0,.1-.1s-.9-.3-1.4-.7a6.1,6.1,0,0,1-1.2-1.5c-.1-.1-.3,0-.2.2l.3.4-.4.4c-.1-.1-.1-.3-.2-.4s-.3,0-.2.1A3.1,3.1,0,0,0,51,48.4Zm-1.6-.8.2-.2a.5.5,0,0,0,.2-.4l.3.3-.3.2a.2.2,0,0,0-.2.2Zm1.1,0-.3.4h0l-.4-.2h.1l.2-.2c0-.1.1-.2.1-.3a.5.5,0,0,0,.4.2Zm-1.7-1.2.2-.2.3.4h-.2l-.3.3a.8.8,0,0,0-.2-.4A.2.2,0,0,0,48.8,46.4Zm.5.5c0-.1.1-.1.1-.2l.3.2c-.1.1-.2.1-.2.2s-.1.1-.1.2h-.2l-.2-.2Z"/>
          <path class="cls-2" d="M45.3,49.1a3.8,3.8,0,0,1,2.6,2.3H48a.5.5,0,0,0-.1-.7l.3-.3a1.4,1.4,0,0,1,.2.6h.1c.5-.9-2-3.4-2.6-2.6s0,.2.1.2h.4l-.3.5-.7-.3C45.2,48.8,45.1,49.1,45.3,49.1Zm2.8,1.1-.2.2h-.1l-.2-.2h.1L48,50C48,50.1,48.1,50.1,48.1,50.2Zm-.2-.4h-.1l-.4.3a.2.2,0,0,0-.2-.2l.2-.2a.2.2,0,0,0,.2-.2Zm-.8-.8.3.3h0c-.1.1-.3.2-.4.4l-.3-.2c.2-.1.3-.4.4-.5Zm-.4-.3h.1c0,.1-.1.2-.2.3h-.3Z"/>
          <path class="cls-2" d="M49.5,50a.7.7,0,0,1,.1-.5c0-.1.1-.1.2-.1h.1a.1.1,0,0,0,.1-.1.5.5,0,0,0-.6,0,.6.6,0,0,0-.1.7C49.3,50.1,49.5,50.1,49.5,50Z"/>
          <path class="cls-2" d="M47.5,47.7a.5.5,0,0,0,0-.7c-.1-.1-.3,0-.2.1s.1.2,0,.3h-.4C47,47.8,47.3,47.8,47.5,47.7Z"/>
          <path class="cls-2" d="M49.9,48.5c.1-.1-.1-.3-.2-.2S49.8,48.6,49.9,48.5Z"/>
          <path class="cls-2" d="M49.3,48.4c.1-.1-.1-.3-.2-.2S49.2,48.5,49.3,48.4Z"/>
          <path class="cls-2" d="M48.5,47.8c.1,0,.1-.1,0-.1h-.1S48.5,47.9,48.5,47.8Z"/>
          <path class="cls-2" d="M48.5,47.3c.1-.1-.1-.3-.2-.2S48.4,47.4,48.5,47.3Z"/>
          <path class="cls-2" d="M48.5,49.4c.1-.1-.1-.3-.2-.2S48.4,49.5,48.5,49.4Z"/>
          <path class="cls-2" d="M48.6,49.8h-.1C48.3,49.7,48.5,50,48.6,49.8Z"/>
          <path class="cls-2" d="M47.8,48.7c.1-.1-.1-.3-.1-.2S47.7,48.8,47.8,48.7Z"/>
          <path class="cls-2" d="M47.3,48.6c.1-.1,0-.2-.1-.1S47.2,48.7,47.3,48.6Z"/>
          <path class="cls-2" d="M50.6,47.1c.2-.1,0-.3-.2-.2S50.5,47.2,50.6,47.1Z"/>
          <path class="cls-2" d="M49.7,46.3c.1-.1-.1-.3-.2-.2S49.5,46.4,49.7,46.3Z"/>
          <path class="cls-2" d="M50.1,46.6h0c-.1-.1-.2,0-.2.1h0A.1.1,0,1,0,50.1,46.6Z"/>
          <path class="cls-2" d="M47.4,50.7c-.2.2-.4,0-.3-.2S47.5,50.6,47.4,50.7Z"/>
          <path class="cls-2" d="M46.4,49.8a.1.1,0,1,1-.2-.1C46.3,49.6,46.5,49.7,46.4,49.8Z"/>
          <path class="cls-2" d="M46.8,50.2h0c-.1-.1,0-.2.1-.1h0C47,50.1,46.9,50.4,46.8,50.2Z"/>
        </g>
        <g>
          <path class="cls-2" d="M4.7,14.1c0,.3.3.6.2.9s-.3.5-.5.6-.4.1-.6.2-.1.2,0,.2A1.1,1.1,0,0,0,5,15.3c.3-.4,0-.9-.2-1.3Z"/>
          <path class="cls-2" d="M7.3,15.6l-.7.2a1.1,1.1,0,0,0,.2,1.6c.1.1.3,0,.2-.2s-.3-.3-.3-.6.1-.6.3-.7h.8c.1-.1.1-.1,0-.1H7.3Z"/>
          <path class="cls-2" d="M5.7,15.2a.4.4,0,0,0-.4.6l.2.3H6c.2,0,.2-.3.2-.5S5.9,15.2,5.7,15.2Zm.2.6H5.8c-.1-.1-.2-.1-.2-.2h.1C5.8,15.5,5.9,15.6,5.9,15.8Z"/>
          <path class="cls-2" d="M3.3,16.4v.2H4a.4.4,0,0,0-.1.3c0,.1-.1.2-.1.3H3.2c-.1,0-.1.1,0,.1l1.4.3a4.8,4.8,0,0,1,1.6,1.2c.1.1.3-.1.2-.2L6,18.2l.3-.5.3.4c.1.1.3-.1.2-.2A3.5,3.5,0,0,0,3.3,16.4Zm1.8.4a.4.4,0,0,0-.1.3c-.1.1-.1.2-.1.4l-.4-.2c.1-.1.1-.2.2-.2l.2-.3Zm-1,.3c0-.2,0-.3.1-.4h.4l-.2.3v.3H4.1Zm1.9.7-.2.3-.4-.3.2-.2.2-.3.3.3C6,17.6,6,17.7,6,17.8Zm-.6-.3v.2L5,17.5c.1,0,.1-.1.1-.2s.1-.1.1-.2a.3.3,0,0,0,.1-.2l.3.2A.5.5,0,0,0,5.4,17.5Z"/>
          <path class="cls-2" d="M8.6,14.3a3.7,3.7,0,0,1-3-1.5H5.5c-.1.2,0,.4.2.6s-.1.3-.2.4l-.4-.5H5c-.2,1,2.9,2.7,3.3,1.8H7.8a4.3,4.3,0,0,0,.1-.5h.7A.2.2,0,1,0,8.6,14.3ZM5.7,14v-.2c0-.1.1-.1.1-.2s.2.1.2.2h0l-.3.4Zm.3.3H6c.1,0,.2-.2.3-.4l.3.2H6.5l-.2.4Zm1,.6-.4-.2h0c0-.2.2-.3.3-.5h.3a1.4,1.4,0,0,0-.2.6Zm.4.1H7.2l.2-.3v-.2h.3Z"/>
          <path class="cls-2" d="M4.3,14.6a.4.4,0,0,1,.1.5H4.1v.2l.5-.2c.2-.2.1-.5,0-.7S4.3,14.4,4.3,14.6Z"/>
          <path class="cls-2" d="M6.9,16.3a.5.5,0,0,0,.2.6c.1.1.3,0,.2-.2a.2.2,0,0,1-.1-.3h.3c0-.1.1-.1,0-.1S7,16.1,6.9,16.3Z"/>
          <path class="cls-2" d="M4.4,16.1c-.1.1.1.2.2.1S4.5,15.9,4.4,16.1Z"/>
          <path class="cls-2" d="M5,16c-.1.1.1.2.2.1S5.1,15.9,5,16Z"/>
          <path class="cls-2" d="M5.9,16.4c-.1.1,0,.1.1.1H5.9Z"/>
          <path class="cls-2" d="M6.1,16.9c-.1.1.1.2.2.1S6.1,16.8,6.1,16.9Z"/>
          <path class="cls-2" d="M5.5,14.9h.2A.1.1,0,1,0,5.5,14.9Z"/>
          <path class="cls-2" d="M5.3,14.5h.1C5.6,14.5,5.3,14.3,5.3,14.5Z"/>
          <path class="cls-2" d="M6.4,15.4c-.1.1.1.2.1.1S6.4,15.3,6.4,15.4Z"/>
          <path class="cls-2" d="M6.8,15.3c0,.1.1.2.2.1S6.9,15.2,6.8,15.3Z"/>
          <path class="cls-2" d="M4,17.6c-.1.2.2.3.3.1S4.1,17.4,4,17.6Z"/>
          <path class="cls-2" d="M5.2,18.1c-.1.2.1.3.2.2S5.3,18,5.2,18.1Z"/>
          <path class="cls-2" d="M4.7,18h0c.1,0,.2-.1.1-.2h0A.1.1,0,1,0,4.7,18Z"/>
          <path class="cls-2" d="M6.3,13.3c0-.2.3-.1.2.1A.1.1,0,1,1,6.3,13.3Z"/>
          <path class="cls-2" d="M7.4,13.9c0-.2.3-.1.2.1S7.3,14,7.4,13.9Z"/>
          <path class="cls-2" d="M7,13.6H7c0,.1,0,.2-.1.2h0C6.7,13.8,6.8,13.5,7,13.6Z"/>
        </g>
        <g>
          <path class="cls-2" d="M53.9,44.5c0-.3-.3-.6-.3-1a1.2,1.2,0,0,1,.5-.5c.2-.2.5-.1.7-.2s.1-.2,0-.2a1.4,1.4,0,0,0-1.3.7,1.3,1.3,0,0,0,.3,1.3A.1.1,0,0,0,53.9,44.5Z"/>
          <path class="cls-2" d="M51.2,42.9a.6.6,0,0,0,.7-.2,1.1,1.1,0,0,0-.2-1.6.2.2,0,0,0-.2.2.9.9,0,0,1,.3.7.5.5,0,0,1-.3.7h-.8C50.8,43,51.1,42.9,51.2,42.9Z"/>
          <path class="cls-2" d="M52.8,43.4a.6.6,0,0,0,.5-.6l-.2-.3h-.2a.2.2,0,0,0-.3,0c-.2,0-.3.3-.3.5A.7.7,0,0,0,52.8,43.4Zm-.2-.6h.2c0,.1.1.1.1.2s.1.1,0,.1h0A.3.3,0,0,1,52.6,42.8Z"/>
          <path class="cls-2" d="M55.2,42.2c.1-.1.1-.1,0-.2h-.6a.4.4,0,0,1,.1-.3v-.3h.7c-.5-.2-1-.1-1.5-.3a6.1,6.1,0,0,1-1.6-1.2c-.1-.1-.3.1-.2.2l.5.4a.5.5,0,0,0-.3.4l-.3-.3c-.1-.1-.3.1-.2.2A3.3,3.3,0,0,0,55.2,42.2Zm-1.8-.5c.1,0,.1-.1.2-.2s.1-.3.1-.4l.3.2-.2.2c0,.1-.1.2-.1.3Zm1.1-.2-.2.4H54a.3.3,0,0,0,.1-.2c0-.1.1-.2.1-.3h.4A.1.1,0,0,0,54.5,41.5Zm-1.9-.7c0-.1.1-.2.1-.3l.4.3c-.1,0-.1.1-.2.2s-.1.2-.2.3l-.3-.3C52.5,41,52.5,40.9,52.6,40.8Zm.5.3c.1,0,.1-.1.1-.2l.3.2v.2a.3.3,0,0,1-.1.2h-.4A.8.8,0,0,0,53.1,41.1Z"/>
          <path class="cls-2" d="M49.9,44.3A4,4,0,0,1,53,45.8h.1c.1-.2-.1-.5-.3-.7s.2-.2.3-.3l.3.5h.1c.2-1-2.9-2.8-3.2-1.8s0,.1.1.1h.4c-.1.2-.1.4-.2.6h-.7A.1.1,0,0,0,49.9,44.3Zm3,.3-.2.2c0,.1,0,.1-.1.2l-.2-.2h.1c.1-.1.1-.2.2-.4Zm-.4-.3h0l-.3.4-.3-.2c.1,0,.1-.1.2-.2a1,1,0,0,0,.1-.3Zm-.9-.6.4.2h0c-.1.2-.3.3-.3.5h-.4c.2-.2.2-.4.3-.6Zm-.5-.1h.2c0,.1-.1.2-.1.3s-.1.1-.1.2h-.3A.5.5,0,0,0,51.1,43.6Z"/>
          <path class="cls-2" d="M54.2,44c0-.2-.2-.3-.1-.5h.3c.1,0,.1,0,0-.1s-.4.1-.5.2a.9.9,0,0,0,.1.7C54,44.2,54.2,44.1,54.2,44Z"/>
          <path class="cls-2" d="M51.6,42.3c.2-.2.1-.5-.2-.7a.2.2,0,0,0-.2.2.5.5,0,0,1,.2.4H51A.4.4,0,0,0,51.6,42.3Z"/>
          <path class="cls-2" d="M54.2,42.5c0-.1-.2-.2-.2-.1A.1.1,0,1,0,54.2,42.5Z"/>
          <path class="cls-2" d="M53.5,42.6a.1.1,0,1,0-.2-.1C53.3,42.6,53.5,42.7,53.5,42.6Z"/>
          <path class="cls-2" d="M52.7,42.2c0-.1,0-.2-.1-.1h.1Z"/>
          <path class="cls-2" d="M52.5,41.7c0-.1-.1-.2-.2-.1S52.4,41.8,52.5,41.7Z"/>
          <path class="cls-2" d="M53,43.7c.1-.1-.1-.2-.2-.1S52.9,43.8,53,43.7Z"/>
          <path class="cls-2" d="M53.2,44.1h-.1C53,44.1,53.2,44.3,53.2,44.1Z"/>
          <path class="cls-2" d="M52.2,43.2c0-.1-.1-.2-.2-.1S52.1,43.3,52.2,43.2Z"/>
          <path class="cls-2" d="M51.7,43.3c.1-.1-.1-.2-.2-.1S51.6,43.4,51.7,43.3Z"/>
          <path class="cls-2" d="M54.5,41c.1-.2-.1-.3-.2-.2S54.4,41.1,54.5,41Z"/>
          <path class="cls-2" d="M53.4,40.4a.2.2,0,0,0-.3-.1C53.1,40.5,53.3,40.6,53.4,40.4Z"/>
          <path class="cls-2" d="M53.8,40.6h0c-.1,0-.1.1-.1.2h0C53.9,40.9,54,40.6,53.8,40.6Z"/>
          <path class="cls-2" d="M52.3,45.3c-.1.2-.3.1-.3-.1S52.4,45.2,52.3,45.3Z"/>
          <path class="cls-2" d="M51.2,44.7c-.1.2-.3,0-.3-.1A.2.2,0,0,1,51.2,44.7Z"/>
          <path class="cls-2" d="M51.6,45h0c-.1-.1,0-.2.1-.2h0C51.8,44.8,51.7,45.1,51.6,45Z"/>
        </g>
        <g>
          <path class="cls-2" d="M1.6,20.9c.1.4.4.6.4.9s-.1.5-.3.7-.4.2-.6.3,0,.3.1.2a1.3,1.3,0,0,0,1.1-.9c.1-.5-.3-.9-.6-1.2Z"/>
          <path class="cls-2" d="M4.5,21.8c-.2.1-.4.1-.6.4s.1,1.2.6,1.5.3-.2.1-.3a1,1,0,0,1-.4-.5.8.8,0,0,1,.1-.8c.2-.1.6-.1.8-.3s0-.1-.1-.1H5C4.9,21.6,4.7,21.8,4.5,21.8Z"/>
          <path class="cls-2" d="M2.9,21.8a.4.4,0,0,0-.3.6c0,.2.2.2.3.3h.4c.2-.1.2-.4.1-.6S3.1,21.8,2.9,21.8Zm.3.5H2.9C3.1,22,3.2,22.1,3.2,22.3Z"/>
          <path class="cls-2" d="M.9,23.6c-.1,0-.1.1,0,.1h.6v.3a.4.4,0,0,0,.1.3l-.7.2a.1.1,0,0,0,.1.1,7.1,7.1,0,0,1,1.5-.1,6.7,6.7,0,0,1,1.8.7.1.1,0,1,0,.1-.2l-.5-.3c.1-.1.1-.3.2-.5l.3.2c.2.1.3-.1.2-.2A3.2,3.2,0,0,0,.9,23.6Zm1.8-.1c0,.1-.1.2-.1.3v.4H2.3a.4.4,0,0,1,.1-.3c0-.1.1-.2.1-.3Zm-1,.5a.6.6,0,0,0,.1-.4h.4v.5H1.7Zm2.1.2c0,.1-.1.2,0,.3H3.3a.4.4,0,0,1,.1-.3c0-.1.1-.2.1-.3l.3.2ZM3.1,24v.3H2.8v-.6h.4Z"/>
          <path class="cls-2" d="M5.4,20.1a3.6,3.6,0,0,1-3.3-.6H2c0,.3.2.4.4.6s-.1.2-.1.4l-.5-.4H1.7c0,1,3.5,1.9,3.6,1s-.1-.2-.1-.1H4.8v-.6h.7A.2.2,0,0,0,5.4,20.1Zm-2.9.5a.3.3,0,0,0,.1-.2v-.2h.3l-.2.4Zm.4.3h0c.1,0,.2-.3.2-.4h.4a.4.4,0,0,0-.1.3.4.4,0,0,0-.1.3Zm1.1.3H3.6c0-.2.1-.4.1-.6h.4a1.5,1.5,0,0,0-.1.6Zm.5,0H4.3v-.5h.3C4.5,20.7,4.5,20.9,4.5,21.2Z"/>
          <path class="cls-2" d="M1.4,21.5c.1.2.2.3.2.5s-.1.1-.2.2H1.3c0,.1,0,.1.1.1s.4-.1.4-.3-.1-.4-.2-.6S1.3,21.4,1.4,21.5Z"/>
          <path class="cls-2" d="M4.3,22.5c-.1.3.1.5.4.6s.2-.1.1-.2l-.2-.3c0-.2.2-.2.3-.3h0C4.7,22.1,4.4,22.3,4.3,22.5Z"/>
          <path class="cls-2" d="M1.8,23c0,.1.2.2.2,0S1.8,22.8,1.8,23Z"/>
          <path class="cls-2" d="M2.4,22.7c0,.2.2.2.2.1S2.4,22.6,2.4,22.7Z"/>
          <path class="cls-2" d="M3.3,22.9a.1.1,0,0,0,.1.1H3.3Z"/>
          <path class="cls-2" d="M3.7,23.3c-.1.2.1.2.2.1S3.7,23.2,3.7,23.3Z"/>
          <path class="cls-2" d="M2.6,21.5c0,.1.2.2.2.1S2.6,21.4,2.6,21.5Z"/>
          <path class="cls-2" d="M2.3,21.2h.1C2.6,21.1,2.2,21,2.3,21.2Z"/>
          <path class="cls-2" d="M3.5,21.8c0,.1.2.2.2,0S3.6,21.7,3.5,21.8Z"/>
          <path class="cls-2" d="M4,21.6c0,.1.1.2.2.1S4,21.5,4,21.6Z"/>
          <path class="cls-2" d="M1.9,24.5c-.1.2.2.3.2.1S1.9,24.4,1.9,24.5Z"/>
          <path class="cls-2" d="M3.1,24.8c0,.1.2.2.3,0S3.2,24.6,3.1,24.8Z"/>
          <path class="cls-2" d="M2.6,24.7h0c.1,0,.1-.1.1-.2h0C2.5,24.4,2.4,24.7,2.6,24.7Z"/>
          <path class="cls-2" d="M2.9,19.8a.2.2,0,0,1,.3,0C3.1,20,2.9,20,2.9,19.8Z"/>
          <path class="cls-2" d="M4.1,20.1c.1-.2.3-.1.3,0S4.1,20.2,4.1,20.1Z"/>
          <path class="cls-2" d="M3.7,19.9h0c0,.1,0,.2-.1.2h0C3.5,20.1,3.5,19.8,3.7,19.9Z"/>
        </g>
        <g>
          <path class="cls-2" d="M57,37.6c-.1-.3-.5-.5-.5-.9a.7.7,0,0,1,.3-.6c.2-.2.4-.2.6-.3s.1-.3-.1-.3a1.4,1.4,0,0,0-1,1,1.2,1.2,0,0,0,.6,1.2A.1.1,0,0,0,57,37.6Z"/>
          <path class="cls-2" d="M54,36.8c.3-.1.5-.1.6-.4a1.1,1.1,0,0,0-.6-1.5.2.2,0,0,0-.1.3,1.2,1.2,0,0,1,.5.5.6.6,0,0,1-.2.7c-.2.2-.6.2-.7.4H54Z"/>
          <path class="cls-2" d="M55.7,36.8a.6.6,0,0,0,.3-.7l-.3-.2h-.5a.3.3,0,0,0-.1.5C55.2,36.8,55.5,36.8,55.7,36.8Zm-.4-.5h.3C55.5,36.6,55.3,36.4,55.3,36.3Z"/>
          <path class="cls-2" d="M57.7,35a.1.1,0,0,0-.1-.1H57v-.6l.6-.2c.1,0,.1-.1,0-.1a7.6,7.6,0,0,1-1.5.1,4.8,4.8,0,0,1-1.8-.7c-.2-.1-.3.1-.2.2l.5.3a4.3,4.3,0,0,0-.1.5l-.4-.2a.1.1,0,1,0-.1.2A3.2,3.2,0,0,0,57.7,35Zm-1.9.1a.4.4,0,0,0,.1-.3v-.4h.4a.6.6,0,0,0-.1.4.4.4,0,0,0-.1.3Zm1-.5a.6.6,0,0,1-.1.4h-.3v-.3s.1-.2,0-.2h.4Zm-2-.3V34l.5.2a.4.4,0,0,0-.1.3l-.2.3-.3-.2C54.8,34.6,54.7,34.4,54.8,34.3Zm.6.3v-.3h.4c-.1,0-.1.1-.1.2v.2a.3.3,0,0,1-.1.2h-.3A.4.4,0,0,0,55.4,34.6Z"/>
          <path class="cls-2" d="M53.1,38.4a3.8,3.8,0,0,1,3.3.7h.1c.1-.3-.1-.5-.4-.6s.1-.3.2-.4l.4.4h.1c0-1-3.5-1.9-3.6-1s.1.2.2.1h.3V38H53C52.8,38.2,52.9,38.5,53.1,38.4ZM56,38v.2c-.1.1-.1.1-.1.2h-.2c0-.1.1-.2.1-.4S56,37.9,56,38Zm-.4-.3h0a1.4,1.4,0,0,1-.2.4h-.3a.3.3,0,0,1,.1-.2c0-.1.1-.2.1-.3Zm-1-.3H55c0,.2-.2.4-.2.6h-.3c.1-.1.1-.4.1-.5Zm-.6,0h.3a.4.4,0,0,1-.1.3V38h-.3A.7.7,0,0,0,54,37.4Z"/>
          <path class="cls-2" d="M57.2,37.1c-.1-.2-.3-.3-.2-.5s0-.1.1-.2h.1v-.2a.9.9,0,0,0-.5.3c-.1.3.1.5.2.7A.2.2,0,0,0,57.2,37.1Z"/>
          <path class="cls-2" d="M54.2,36.1a.5.5,0,0,0-.3-.6c-.1-.1-.3.1-.2.2s.3.2.2.3-.1.2-.2.3-.1,0,0,.1A.4.4,0,0,0,54.2,36.1Z"/>
          <path class="cls-2" d="M56.7,35.6c.1-.1-.2-.2-.2,0S56.7,35.8,56.7,35.6Z"/>
          <path class="cls-2" d="M56.1,35.8h-.2C55.9,35.9,56.1,36,56.1,35.8Z"/>
          <path class="cls-2" d="M55.2,35.7c0-.1,0-.1-.1-.1h0a.1.1,0,0,0-.1.1h.2Z"/>
          <path class="cls-2" d="M54.9,35.3c0-.2-.2-.2-.2-.1S54.8,35.4,54.9,35.3Z"/>
          <path class="cls-2" d="M55.9,37.1c.1-.2-.1-.2-.2-.1S55.9,37.2,55.9,37.1Z"/>
          <path class="cls-2" d="M56.2,37.4h-.1C56,37.5,56.3,37.6,56.2,37.4Z"/>
          <path class="cls-2" d="M55,36.8c0-.1-.2-.2-.2,0S55,36.9,55,36.8Z"/>
          <path class="cls-2" d="M54.5,37c.1-.1-.1-.2-.1-.1S54.5,37.1,54.5,37Z"/>
          <path class="cls-2" d="M56.7,34.1c0-.2-.2-.3-.3-.1S56.6,34.2,56.7,34.1Z"/>
          <path class="cls-2" d="M55.4,33.8c.1-.1-.2-.2-.2,0S55.4,34,55.4,33.8Z"/>
          <path class="cls-2" d="M55.9,33.9h0c-.1,0-.1.1,0,.1h0C56,34.1,56.1,33.9,55.9,33.9Z"/>
          <path class="cls-2" d="M55.6,38.8c0,.2-.3.1-.2,0S55.7,38.6,55.6,38.8Z"/>
          <path class="cls-2" d="M54.4,38.5c0,.2-.3.1-.2,0S54.4,38.3,54.4,38.5Z"/>
          <path class="cls-2" d="M54.9,38.7h0c-.1-.1-.1-.2,0-.2h0C55.1,38.5,55,38.8,54.9,38.7Z"/>
        </g>
        <g>
          <path class="cls-2" d="M.3,28.4c.2.3.6.4.7.7a1.1,1.1,0,0,1-.1.8,1,1,0,0,1-.5.4c-.1.1,0,.3.2.2a1.4,1.4,0,0,0,.7-1.2c0-.5-.5-.8-.9-1Z"/>
          <path class="cls-2" d="M3.4,28.4c-.2.2-.4.3-.5.6a1.2,1.2,0,0,0,1,1.3c.1,0,.2-.3.1-.3a.9.9,0,0,1-.6-.4.8.8,0,0,1-.1-.8c.2-.1.6-.3.6-.5h0Z"/>
          <path class="cls-2" d="M1.8,28.9a.5.5,0,0,0-.1.7h.8c.1-.2.1-.5-.1-.6S2,28.8,1.8,28.9Zm.5.4H1.9c0-.1,0-.1.1-.1S2.2,29.1,2.3,29.3Z"/>
          <path class="cls-2" d="M.4,31.1c-.1.1,0,.2,0,.1L1,31c0,.1,0,.1.1.2a.4.4,0,0,0,.1.3l-.6.4a.1.1,0,0,0,.1.1l1.4-.5a5.8,5.8,0,0,1,1.9.2c.2,0,.3-.2.1-.2l-.6-.2a.7.7,0,0,0,.1-.5H4c.1.1.2-.2.1-.2A3.3,3.3,0,0,0,.4,31.1Zm1.7-.5v.3c0,.1.1.2.1.4H1.9v-.7Zm-.8.7v-.4h0l.3-.2h0v.3c0,.1,0,.2.1.2l-.4.2Zm2-.3a.4.4,0,0,1,.1.3H2.9v-.7h.4Zm-.6,0v.2H2.4V31c0-.1,0-.1-.1-.2a.3.3,0,0,1,.1-.2h.3Z"/>
          <path class="cls-2" d="M3.9,26.6a3.7,3.7,0,0,1-3.4.2H.4c0,.3.3.4.6.4a.9.9,0,0,0-.1.5l-.5-.3c-.1,0-.1,0-.1.1s3.8.9,3.7-.1-.1-.1-.2,0l-.3.2a4.3,4.3,0,0,0-.1-.5l.6-.3C4.2,26.8,4.1,26.5,3.9,26.6ZM1.2,27.9v-.5h.3a.6.6,0,0,0-.1.4Zm.4.1h.1v-.5h.4a.4.4,0,0,0-.1.3V28Zm1.1,0H2.3v-.6h.4c-.1.2,0,.4,0,.6Zm.5-.2H3a.6.6,0,0,0-.1-.4v-.2h.3Z"/>
          <path class="cls-2" d="M.3,29c.1.1.3.2.3.4s0,.1-.1.2h0c-.1.1,0,.1,0,.1a.4.4,0,0,0,.4-.4.7.7,0,0,0-.4-.6C.4,28.7.2,28.9.3,29Z"/>
          <path class="cls-2" d="M3.4,29.2a.5.5,0,0,0,.5.5.2.2,0,0,0,.1-.3c-.1,0-.3-.1-.3-.2s.1-.2.2-.3h0C3.7,28.7,3.4,29,3.4,29.2Z"/>
          <path class="cls-2" d="M1.1,30.3h.2C1.3,30.1,1.1,30.1,1.1,30.3Z"/>
          <path class="cls-2" d="M1.6,29.9c0,.2.2.2.2,0Z"/>
          <path class="cls-2" d="M2.5,29.8h.2C2.6,29.7,2.5,29.7,2.5,29.8Z"/>
          <path class="cls-2" d="M3,30.2c0,.1.2.1.2,0S3,30,3,30.2Z"/>
          <path class="cls-2" d="M1.5,28.7c0,.1.2.1.2,0S1.5,28.5,1.5,28.7Z"/>
          <path class="cls-2" d="M1.1,28.4h0c.1.1.1.1.1,0H1.1Z"/>
          <path class="cls-2" d="M2.5,28.7c0,.1.2.1.2,0Z"/>
          <path class="cls-2" d="M2.9,28.4c0,.1.1.1.1,0Z"/>
          <path class="cls-2" d="M1.6,31.8c0,.2.2.2.2,0S1.6,31.6,1.6,31.8Z"/>
          <path class="cls-2" d="M2.8,31.7a.1.1,0,0,0,.3,0A.1.1,0,0,0,2.8,31.7Z"/>
          <path class="cls-2" d="M2.3,31.8h0c.1,0,.1-.2,0-.2h0C2.2,31.5,2.2,31.8,2.3,31.8Z"/>
          <path class="cls-2" d="M1.3,26.9c0-.1.3-.2.3,0S1.4,27.1,1.3,26.9Z"/>
          <path class="cls-2" d="M2.6,26.9c0-.2.2-.2.3,0S2.6,27.1,2.6,26.9Z"/>
          <path class="cls-2" d="M2.1,26.9h0c.1,0,.1.1,0,.1h0C2,27.1,1.9,26.8,2.1,26.9Z"/>
        </g>
        <g>
          <path class="cls-2" d="M58.2,30.2c-.2-.3-.6-.4-.7-.8a.9.9,0,0,1,.1-.7l.5-.5c.1,0,0-.2-.1-.1a1.2,1.2,0,0,0-.8,1.2c0,.5.5.8.9,1A.1.1,0,0,0,58.2,30.2Z"/>
          <path class="cls-2" d="M55.1,30.1a.8.8,0,0,0,.5-.5c.2-.6-.4-1.2-.9-1.3s-.2.2-.1.3l.6.4c.1.2.2.5,0,.7s-.5.3-.6.6h.1Z"/>
          <path class="cls-2" d="M56.7,29.7a.4.4,0,0,0,.1-.7H56a.6.6,0,0,0,.1.6C56.2,29.8,56.5,29.8,56.7,29.7Zm-.4-.4h.3C56.5,29.5,56.3,29.5,56.3,29.3Z"/>
          <path class="cls-2" d="M58.2,27.5c0-.1,0-.2-.1-.1l-.6.2v-.5l.5-.4c.1,0,0-.1,0-.1l-1.5.5a6.2,6.2,0,0,1-1.9-.2c-.2-.1-.2.2-.1.2l.6.2a.4.4,0,0,0,0,.5h-.4c-.2-.1-.3.1-.1.2A3.4,3.4,0,0,0,58.2,27.5Zm-1.8.5c.1-.1,0-.2,0-.3a.6.6,0,0,0-.1-.4h.4v.3c0,.1-.1.2,0,.4Zm.8-.7a.6.6,0,0,1,.1.4h0l-.4.2h0v-.3a.4.4,0,0,0-.1-.3h.4Zm-2,.3v-.3h.5a.4.4,0,0,0-.1.3V28h-.4Zm.7,0a.4.4,0,0,0-.1-.3h.4c-.1.1,0,.2,0,.3V28h-.3Z"/>
          <path class="cls-2" d="M54.7,32a3.5,3.5,0,0,1,3.3-.3c.1.1.1,0,.1,0s-.2-.4-.5-.4v-.5l.6.3a.1.1,0,0,0,.1-.1c-.3-.9-3.9-.9-3.8.1h.2l.3-.2a.9.9,0,0,1,.1.5l-.6.3C54.3,31.8,54.5,32.1,54.7,32Zm2.7-1.3c-.1.1,0,.2,0,.3v.2h-.3a.6.6,0,0,1,.1-.4Zm-.5-.1h0a2,2,0,0,0-.1.5h-.3v-.6Zm-1.1,0h.4c.1.2,0,.4,0,.6h-.3c0-.2-.1-.4-.1-.6Zm-.5.1h.2a.6.6,0,0,1,.1.4v.2h-.3A.9.9,0,0,0,55.3,30.7Z"/>
          <path class="cls-2" d="M58.2,29.6c-.1-.1-.3-.2-.3-.4s0-.2.1-.2h0c-.2,0-.3.2-.3.4s.2.4.4.6S58.3,29.7,58.2,29.6Z"/>
          <path class="cls-2" d="M55.1,29.4a.4.4,0,0,0-.4-.5c-.2,0-.3.2-.1.3a.2.2,0,0,1,.2.2c0,.1-.1.2-.2.3a.1.1,0,0,0,.1.1A.4.4,0,0,0,55.1,29.4Z"/>
          <path class="cls-2" d="M57.4,28.3c0-.2-.2-.2-.2,0S57.4,28.5,57.4,28.3Z"/>
          <path class="cls-2" d="M56.9,28.7c0-.2-.2-.2-.2,0S56.9,28.8,56.9,28.7Z"/>
          <path class="cls-2" d="M56,28.8c0-.1-.1-.2-.2-.1H56Z"/>
          <path class="cls-2" d="M55.6,28.4h-.3A.1.1,0,1,0,55.6,28.4Z"/>
          <path class="cls-2" d="M57,29.9h-.2C56.8,30.1,57,30.1,57,29.9Z"/>
          <path class="cls-2" d="M57.4,30.2h-.1C57.2,30.3,57.5,30.3,57.4,30.2Z"/>
          <path class="cls-2" d="M56.1,29.9h-.2C55.9,30,56.1,30,56.1,29.9Z"/>
          <path class="cls-2" d="M55.7,30.2h-.2C55.5,30.3,55.7,30.3,55.7,30.2Z"/>
          <path class="cls-2" d="M57,26.8a.2.2,0,1,0-.3,0A.2.2,0,1,0,57,26.8Z"/>
          <path class="cls-2" d="M55.7,26.9c0-.2-.2-.2-.2,0S55.7,27.1,55.7,26.9Z"/>
          <path class="cls-2" d="M56.2,26.8h0c-.1,0-.1.2,0,.2h0C56.4,27,56.4,26.8,56.2,26.8Z"/>
          <path class="cls-2" d="M57.2,31.7c0,.1-.2.2-.3,0A.2.2,0,0,1,57.2,31.7Z"/>
          <path class="cls-2" d="M55.9,31.7c.1.1-.2.2-.2,0S55.9,31.5,55.9,31.7Z"/>
          <path class="cls-2" d="M56.4,31.7h0c-.1,0-.1-.1,0-.2h0C56.6,31.5,56.6,31.8,56.4,31.7Z"/>
        </g>
        <g>
          <path class="cls-2" d="M1.1,35.9c.3.3.7.2.9.6a.9.9,0,0,1,0,.7c0,.2-.2.4-.3.6s.1.2.2.1a1.4,1.4,0,0,0,.4-1.4,1.6,1.6,0,0,0-1.1-.7A.1.1,0,0,0,1.1,35.9Z"/>
          <path class="cls-2" d="M4.1,35.2a.6.6,0,0,0-.3.6c-.1.6.6,1.1,1.2,1s.1-.3,0-.3a1,1,0,0,1-.7-.2.7.7,0,0,1-.2-.7c.1-.2.4-.5.4-.7h0C4.3,34.9,4.2,35.1,4.1,35.2Z"/>
          <path class="cls-2" d="M2.7,36c-.2.2-.2.6,0,.7h.6c.1,0,.1-.1.2-.2s-.1-.5-.2-.6A.6.6,0,0,0,2.7,36Zm.5.2v.2H2.9C2.9,36.1,3.1,36.1,3.2,36.2Z"/>
          <path class="cls-2" d="M1.8,38.6s.1.1.1,0a1,1,0,0,0,.5-.4c0,.1.1.2.1.3s.1.2.2.2l-.4.5h.1a12.5,12.5,0,0,1,1.2-.8,4.2,4.2,0,0,1,1.9-.3c.2-.1.2-.3,0-.3H5c0-.2-.1-.3-.2-.5h.5c.1,0,.2-.2,0-.3A3.3,3.3,0,0,0,1.8,38.6Zm1.6-1v.2l.3.4H3.3a.4.4,0,0,0-.1-.3v-.3C3.2,37.6,3.3,37.6,3.4,37.6Zm-.6.9c-.1-.2-.1-.3-.2-.4h0l.3-.2h0a.4.4,0,0,1,.1.3l.2.2-.4.2Zm1.9-.8c0,.1,0,.2.1.2H4.3v-.3a.4.4,0,0,1-.1-.3h.4A.4.4,0,0,0,4.7,37.7Zm-.7.1a.3.3,0,0,0,.1.2H3.8a.3.3,0,0,0-.1-.2v-.2c-.1-.1-.1-.1-.1-.2h.3C3.9,37.6,4,37.7,4,37.8Z"/>
          <path class="cls-2" d="M4.1,33.3A4.1,4.1,0,0,1,.8,34.4h0c0,.3.3.3.6.3s.1.3.1.5H.9c-.1-.1-.1,0-.1,0s4-.1,3.6-1-.1,0-.2,0-.1.2-.2.3l-.3-.5.6-.4C4.4,33.4,4.2,33.2,4.1,33.3ZM1.8,35.2c0-.1-.1-.2-.1-.3a.3.3,0,0,0-.1-.2h.3c0,.2.1.3.1.5Zm.4,0h0v-.5h.3v.3c0,.1.1.2.1.3Zm1.1-.3H2.9c-.1-.2-.1-.4-.2-.5l.4-.2a1.4,1.4,0,0,0,.2.6Zm.4-.3h0c0,.1-.1.1-.1.2H3.5c0-.1-.1-.2-.1-.3v-.2h.3A.7.7,0,0,0,3.7,34.6Z"/>
          <path class="cls-2" d="M1.2,36.5c.2.1.4.1.4.3a.1.1,0,0,1,0,.2.1.1,0,0,1-.1.1h0a.1.1,0,0,0,.1.1c.2,0,.3-.3.3-.5a.9.9,0,0,0-.6-.4C1.2,36.2,1.1,36.4,1.2,36.5Z"/>
          <path class="cls-2" d="M4.3,35.9c0,.3.3.4.6.3s.1-.2,0-.2-.3,0-.4-.2l.2-.3a.1.1,0,0,0-.1-.1A.4.4,0,0,0,4.3,35.9Z"/>
          <path class="cls-2" d="M2.3,37.5c.1.2.3.1.2,0S2.3,37.4,2.3,37.5Z"/>
          <path class="cls-2" d="M2.7,37.1c.1.1.3,0,.2-.1S2.7,36.9,2.7,37.1Z"/>
          <path class="cls-2" d="M3.6,36.7h0Z"/>
          <path class="cls-2" d="M4.1,36.9c0,.2.2.1.2,0S4.1,36.8,4.1,36.9Z"/>
          <path class="cls-2" d="M2.3,35.9c0,.1.2.1.2-.1S2.2,35.7,2.3,35.9Z"/>
          <path class="cls-2" d="M1.9,35.7H2C2,35.6,1.7,35.6,1.9,35.7Z"/>
          <path class="cls-2" d="M3.2,35.7c.1.1.3,0,.2-.1S3.2,35.5,3.2,35.7Z"/>
          <path class="cls-2" d="M3.5,35.3c.1.1.2,0,.2-.1S3.5,35.2,3.5,35.3Z"/>
          <path class="cls-2" d="M3.2,38.9c0,.1.3.1.2-.1S3.1,38.7,3.2,38.9Z"/>
          <path class="cls-2" d="M4.3,38.5a.2.2,0,0,0,.3-.1C4.6,38.2,4.3,38.3,4.3,38.5Z"/>
          <path class="cls-2" d="M3.9,38.7h0c.1-.1.1-.2,0-.2H3.8C3.7,38.5,3.8,38.8,3.9,38.7Z"/>
          <path class="cls-2" d="M1.7,34.2c-.1-.1.2-.2.2-.1S1.7,34.4,1.7,34.2Z"/>
          <path class="cls-2" d="M2.9,33.9c-.1-.2.2-.3.2-.1S2.9,34,2.9,33.9Z"/>
          <path class="cls-2" d="M2.4,34h0a.1.1,0,0,1,.1.1h0C2.3,34.3,2.2,34,2.4,34Z"/>
        </g>
        <g>
          <path class="cls-2" d="M57.4,22.7c-.2-.3-.6-.2-.8-.6a.6.6,0,0,1-.1-.7c0-.2.3-.4.4-.6s-.1-.2-.2-.1a1.1,1.1,0,0,0-.4,1.3c.1.5.7.7,1.1.8S57.5,22.7,57.4,22.7Z"/>
          <path class="cls-2" d="M54.4,23.4c.2-.2.4-.3.4-.6a1.1,1.1,0,0,0-1.3-1c-.1,0-.1.2,0,.3a.8.8,0,0,1,.7.2c.2.1.4.5.2.7s-.4.4-.4.7a.1.1,0,0,0,.1.1h0Z"/>
          <path class="cls-2" d="M55.9,22.6a.5.5,0,0,0-.1-.7h-.5a.2.2,0,0,0-.2.2c-.1.2,0,.4.2.6A.7.7,0,0,0,55.9,22.6Zm-.5-.3a.1.1,0,0,1-.1-.1h.4C55.6,22.5,55.4,22.5,55.4,22.3Z"/>
          <path class="cls-2" d="M56.7,20c.1,0,0-.1-.1-.1s-.3.3-.5.5a.4.4,0,0,0-.1-.3.2.2,0,0,0-.2-.2l.5-.5h-.1c-.5.2-.8.6-1.3.8a4,4,0,0,1-1.9.3.1.1,0,1,0,0,.3h.6a1.1,1.1,0,0,0,.1.5h-.4c-.2,0-.2.2-.1.2A3.2,3.2,0,0,0,56.7,20Zm-1.5,1c0-.1-.1-.2-.1-.3l-.2-.3h.3c0,.1.1.2.1.3a.4.4,0,0,0,.1.3Zm.6-.9c0,.2.1.3.1.4h0l-.3.3h0c0-.1-.1-.2-.1-.3v-.2l.3-.2A.1.1,0,0,0,55.8,20.1Zm-1.9.8-.2-.3h.6a.1.1,0,0,0,0,.2c0,.2,0,.3.1.4H54C54,21.1,53.9,21,53.9,20.9Zm.6-.1a.4.4,0,0,0-.1-.3h.4c-.1.1,0,.2,0,.3s.1.1.1.2v.2h-.3C54.6,21,54.6,20.9,54.5,20.8Z"/>
          <path class="cls-2" d="M54.5,25.3a3.9,3.9,0,0,1,3.2-1.1h.1a.6.6,0,0,0-.7-.2v-.5h.6c-.5-.9-3.9.1-3.6,1h.2l.3-.3a1.7,1.7,0,0,0,.2.5,1,1,0,0,0-.5.4C54.1,25.2,54.3,25.4,54.5,25.3Zm2.3-1.9v.3c.1,0,.1.1.1.2h-.3v-.4Zm-.5,0h0a1.3,1.3,0,0,0,.1.5H56v-.3a.4.4,0,0,0-.1-.3Zm-1.1.3h.4c.1.1.1.4.2.5l-.3.2c0-.2-.2-.4-.2-.6Zm-.4.3h0l.2-.2h0l.2.3c0,.1,0,.1.1.2H55A.8.8,0,0,0,54.8,24Z"/>
          <path class="cls-2" d="M57.3,22.1c-.1-.1-.3-.1-.4-.3v-.2h0a.3.3,0,0,0-.2.4c0,.3.3.4.5.5S57.4,22.1,57.3,22.1Z"/>
          <path class="cls-2" d="M54.3,22.7a.6.6,0,0,0-.6-.4c-.2.1-.2.3,0,.3s.3,0,.3.2-.1.2-.1.3h0C54.2,23.2,54.3,22.9,54.3,22.7Z"/>
          <path class="cls-2" d="M56.2,21c0-.1-.2,0-.2.1S56.3,21.2,56.2,21Z"/>
          <path class="cls-2" d="M55.8,21.5c0-.1-.2,0-.2.1S55.9,21.7,55.8,21.5Z"/>
          <path class="cls-2" d="M54.9,21.9h-.1C54.9,22,55,21.9,54.9,21.9Z"/>
          <path class="cls-2" d="M54.4,21.7c0-.2-.2-.1-.2,0S54.5,21.8,54.4,21.7Z"/>
          <path class="cls-2" d="M56.3,22.7c-.1-.1-.3-.1-.3.1S56.3,22.9,56.3,22.7Z"/>
          <path class="cls-2" d="M56.7,22.8h-.1C56.5,23,56.8,22.9,56.7,22.8Z"/>
          <path class="cls-2" d="M55.3,22.9c0-.1-.2,0-.2.1S55.3,23.1,55.3,22.9Z"/>
          <path class="cls-2" d="M55,23.3c0-.1-.2,0-.2.1S55,23.4,55,23.3Z"/>
          <path class="cls-2" d="M55.4,19.7c-.1-.2-.3-.1-.3.1S55.4,19.9,55.4,19.7Z"/>
          <path class="cls-2" d="M54.2,20.1c0-.1-.3-.1-.3.1S54.2,20.3,54.2,20.1Z"/>
          <path class="cls-2" d="M54.6,19.9h0c0,.1,0,.2.1.2h0C54.9,20.1,54.8,19.8,54.6,19.9Z"/>
          <path class="cls-2" d="M56.9,24.3c0,.2-.2.3-.3.1S56.8,24.2,56.9,24.3Z"/>
          <path class="cls-2" d="M55.7,24.7c0,.2-.2.2-.3.1S55.6,24.6,55.7,24.7Z"/>
          <path class="cls-2" d="M56.1,24.6h0c-.1,0-.1-.1,0-.2h0C56.2,24.3,56.3,24.6,56.1,24.6Z"/>
        </g>
        <g>
          <path class="cls-2" d="M3.8,43c.3.2.7,0,.9.3A.8.8,0,0,1,5,44a1.4,1.4,0,0,1-.2.6c0,.2.1.2.2.1a1.4,1.4,0,0,0,.1-1.4,1.3,1.3,0,0,0-1.3-.4S3.7,43,3.8,43Z"/>
          <path class="cls-2" d="M6.5,41.5a.6.6,0,0,0-.2.7,1.1,1.1,0,0,0,1.5.6c.1,0,0-.3-.1-.2H7c-.2-.1-.5-.4-.4-.6s.3-.6.2-.8H6.7A1.1,1.1,0,0,0,6.5,41.5Z"/>
          <path class="cls-2" d="M5.3,42.7a.4.4,0,0,0,.3.6c.1.1.2,0,.3,0h.2c0-.1.1-.2.1-.3a.5.5,0,0,0-.3-.5A.7.7,0,0,0,5.3,42.7Zm.6.1H5.7c-.1,0-.1,0-.1-.1h0s-.1,0,0-.1Z"/>
          <path class="cls-2" d="M5.2,45.3c-.1.1,0,.1.1.1l.3-.5c.1,0,.1.1.2.2l.3.2a.5.5,0,0,0-.3.5c-.1.1,0,.2.1.1s.5-.8,1-1.1A5.3,5.3,0,0,1,8.6,44c.2-.1.1-.3,0-.3l-.6.2c0-.2-.1-.3-.2-.5h.4c.1,0,.1-.2,0-.2A3.3,3.3,0,0,0,5.2,45.3ZM6.4,44a.3.3,0,0,0,.1.2c.1.1.2.3.3.3l-.3.2a.3.3,0,0,0-.1-.2c-.1-.1-.1-.3-.2-.4Zm-.3,1-.3-.3h0l.2-.2h.1c0,.1.1.2.1.3l.2.2a.2.2,0,0,0-.2.2C6.1,45.1,6.1,45.1,6.1,45Zm1.6-1.2.2.2-.5.2c0-.1-.1-.2-.1-.3l-.2-.3h.4C7.5,43.6,7.6,43.7,7.7,43.8Zm-.6.3.2.2H6.9a.3.3,0,0,0-.1-.2H6.7a.3.3,0,0,0-.1-.2l.3-.2Z"/>
          <path class="cls-2" d="M5.9,39.7a3.7,3.7,0,0,1-2.8,1.9h0c.1.3.4.2.7.2s.1.2.2.3H3.3c.7.7,3.8-1.1,3.2-1.9s-.2,0-.2,0-.1.3-.1.4l-.4-.4a2.1,2.1,0,0,0,.4-.6C6.3,39.7,6.1,39.5,5.9,39.7ZM4.2,42.1a.3.3,0,0,0-.1-.2.3.3,0,0,0-.1-.2h.3c0,.2.1.3.1.4S4.3,42.1,4.2,42.1Zm.5-.1h0c-.1,0-.1-.3-.2-.4l.3-.2v.2l.2.3Zm.9-.6-.3.3h0c-.2-.1-.2-.3-.3-.4l.3-.3a.9.9,0,0,0,.3.5Zm.4-.3H5.8l-.2-.3H5.4l.3-.3A.9.9,0,0,0,6,41.1Z"/>
          <path class="cls-2" d="M4.1,43.5c.1.1.3,0,.4.2s.1.2,0,.2h.1a.3.3,0,0,0,.1-.5c-.1-.3-.4-.3-.6-.3S3.9,43.5,4.1,43.5Z"/>
          <path class="cls-2" d="M6.8,42.1c.1.3.5.3.7.2s.1-.3-.1-.2-.3,0-.3-.1,0-.3,0-.4,0-.1-.1,0S6.7,42,6.8,42.1Z"/>
          <path class="cls-2" d="M5.4,44.2c0,.2.3.1.2-.1S5.3,44.1,5.4,44.2Z"/>
          <path class="cls-2" d="M5.6,43.7c.1.1.3,0,.2-.2S5.6,43.5,5.6,43.7Z"/>
          <path class="cls-2" d="M6.4,43.1c0,.1.1.1.2,0h0a.1.1,0,0,0-.1-.1h0A.1.1,0,0,0,6.4,43.1Z"/>
          <path class="cls-2" d="M6.9,43.2c.1.1.3,0,.2-.1S6.9,43.1,6.9,43.2Z"/>
          <path class="cls-2" d="M4.9,42.6c.1.2.3.1.2-.1S4.8,42.5,4.9,42.6Z"/>
          <path class="cls-2" d="M4.5,42.6h.1C4.6,42.4,4.3,42.6,4.5,42.6Z"/>
          <path class="cls-2" d="M5.8,42.2c0,.1.2,0,.1-.1S5.7,42.1,5.8,42.2Z"/>
          <path class="cls-2" d="M6,41.7c0,.1.2,0,.1-.1S5.9,41.6,6,41.7Z"/>
          <path class="cls-2" d="M6.5,45.3c.1.2.4,0,.3-.1S6.4,45.2,6.5,45.3Z"/>
          <path class="cls-2" d="M7.6,44.6c0,.1.3,0,.2-.1S7.5,44.4,7.6,44.6Z"/>
          <path class="cls-2" d="M7.2,44.9h0c.1-.1,0-.2-.1-.1h0C6.9,44.8,7.1,45,7.2,44.9Z"/>
          <path class="cls-2" d="M3.9,41.2a.1.1,0,1,1,.2-.1A.1.1,0,1,1,3.9,41.2Z"/>
          <path class="cls-2" d="M5,40.6c-.1-.2.1-.3.2-.2S5.1,40.7,5,40.6Z"/>
          <path class="cls-2" d="M4.5,40.8h0c.1-.1.2,0,.1.1h0C4.5,41.1,4.4,40.8,4.5,40.8Z"/>
        </g>
        <g>
          <path class="cls-2" d="M54.8,15.6c-.3-.2-.7,0-1-.3s-.3-.5-.3-.7.2-.4.2-.6-.1-.2-.2-.1a1.2,1.2,0,0,0,0,1.4,1.1,1.1,0,0,0,1.2.4Z"/>
          <path class="cls-2" d="M52.1,17.1a.8.8,0,0,0,.1-.7,1,1,0,0,0-1.4-.6c-.2,0-.1.3,0,.2h.7a.7.7,0,0,1,.5.6c-.1.3-.3.5-.3.8h.1C51.9,17.5,52,17.2,52.1,17.1Z"/>
          <path class="cls-2" d="M53.2,15.9a.4.4,0,0,0-.2-.6c-.1-.1-.3,0-.4,0h-.1l-.2.3a.7.7,0,0,0,.4.5A.5.5,0,0,0,53.2,15.9Zm-.5-.1a.1.1,0,0,1-.1-.1H53C53,15.9,52.8,15.9,52.7,15.8Z"/>
          <path class="cls-2" d="M53.4,13.2h-.1a1,1,0,0,0-.4.5l-.2-.2-.2-.2.3-.5c0-.1-.1-.2-.1-.1s-.6.8-1,1.1a5.8,5.8,0,0,1-1.8.8c-.2,0-.1.3.1.2h.5l.3.5h-.4c-.2.1-.2.3,0,.3A3.2,3.2,0,0,0,53.4,13.2Zm-1.3,1.4a.4.4,0,0,0-.1-.3l-.3-.2.3-.3v.3c.1.1.1.3.2.3Zm.4-1,.2.3h0l-.2.3h0l-.2-.3-.2-.2.3-.3Zm-1.6,1.2a.2.2,0,0,1-.2-.2l.5-.2a.4.4,0,0,0,.1.3.4.4,0,0,0,.1.3H51Zm.6-.3-.2-.2h.3v.2h.1v.2l-.3.2Z"/>
          <path class="cls-2" d="M52.6,18.9A3.7,3.7,0,0,1,55.4,17c.1,0,.1,0,.1-.1a.6.6,0,0,0-.7-.1l-.2-.4h.6s.1-.1,0-.1-3.8,1.1-3.2,1.9.2,0,.2-.1l.2-.3.3.4-.4.6C52.2,18.9,52.5,19.1,52.6,18.9Zm1.7-2.4a.3.3,0,0,0,.1.2v.2c0,.1-.1.1-.2.1h0c-.1-.2-.1-.3-.2-.4Zm-.4.1h0a1.4,1.4,0,0,0,.2.4l-.3.2c0-.1-.1-.1-.1-.2s-.1-.2-.2-.3Zm-1,.6.3-.3c.1,0,.1,0,.1.1s.1.3.3.4l-.3.3-.4-.5Zm-.4.3h.2l.3.3h.1c-.1.1-.1.2-.2.2Z"/>
          <path class="cls-2" d="M54.5,15.1l-.5-.2v-.4h-.1c-.1.1-.2.4-.1.5a.7.7,0,0,0,.6.3C54.6,15.3,54.6,15.1,54.5,15.1Z"/>
          <path class="cls-2" d="M51.7,16.5a.4.4,0,0,0-.6-.2c-.2,0-.1.2,0,.2h.4c0,.1-.1.2-.1.4h.1C51.7,17,51.8,16.6,51.7,16.5Z"/>
          <path class="cls-2" d="M53.2,14.3c-.1-.1-.3,0-.2.2S53.3,14.5,53.2,14.3Z"/>
          <path class="cls-2" d="M52.9,14.9c-.1-.1-.3,0-.2.1S53,15.1,52.9,14.9Z"/>
          <path class="cls-2" d="M52.2,15.5h0Z"/>
          <path class="cls-2" d="M51.6,15.4c-.1-.1-.2,0-.2.1S51.7,15.5,51.6,15.4Z"/>
          <path class="cls-2" d="M53.6,16c0-.2-.2-.1-.2.1S53.7,16.1,53.6,16Z"/>
          <path class="cls-2" d="M54.1,16H54C54,16.2,54.2,16,54.1,16Z"/>
          <path class="cls-2" d="M52.8,16.4c-.1-.1-.3,0-.2.1S52.8,16.5,52.8,16.4Z"/>
          <path class="cls-2" d="M52.6,16.9h-.2C52.5,17,52.6,17,52.6,16.9Z"/>
          <path class="cls-2" d="M52,13.3a.1.1,0,1,0-.2.1A.1.1,0,1,0,52,13.3Z"/>
          <path class="cls-2" d="M51,14c-.1-.1-.3,0-.2.1S51.1,14.1,51,14Z"/>
          <path class="cls-2" d="M51.4,13.7h-.1s0,.2.1.1h0C51.6,13.8,51.5,13.5,51.4,13.7Z"/>
          <path class="cls-2" d="M54.6,17.4c.2.1-.1.3-.2.1A.1.1,0,1,1,54.6,17.4Z"/>
          <path class="cls-2" d="M53.6,18c.1.2-.1.3-.2.2S53.5,17.9,53.6,18Z"/>
          <path class="cls-2" d="M54,17.8h0a.1.1,0,0,1-.1-.1h0C54,17.5,54.2,17.8,54,17.8Z"/>
        </g>
        <g>
          <path class="cls-2" d="M8.2,49.1c.3.1.7-.1,1,0s.4.4.4.6a1.6,1.6,0,0,1,0,.7c0,.2.2.2.2.1a1.2,1.2,0,0,0-.3-1.4c-.3-.4-.9-.2-1.3-.1S8.1,49.1,8.2,49.1Z"/>
          <path class="cls-2" d="M10.4,47a.8.8,0,0,0,0,.7,1.1,1.1,0,0,0,1.6.2c.1-.1,0-.3-.1-.2s-.5.2-.7.1a.6.6,0,0,1-.6-.5c0-.2.2-.6,0-.8h-.1A4.3,4.3,0,0,0,10.4,47Z"/>
          <path class="cls-2" d="M9.6,48.4a.4.4,0,0,0,.4.6l.3-.2h.1a.4.4,0,0,0,.1-.3c0-.2-.2-.3-.4-.4A.5.5,0,0,0,9.6,48.4Zm.6,0h0c0,.1-.1.1-.2.1H9.9C9.9,48.4,10,48.3,10.2,48.4Z"/>
          <path class="cls-2" d="M10.1,51a.1.1,0,0,0,.1.1l.3-.6H11a6.4,6.4,0,0,0-.2.7.1.1,0,0,0,.2,0,7.5,7.5,0,0,1,.6-1.3,6.1,6.1,0,0,1,1.5-1.3c.2-.1.1-.3-.1-.2l-.5.3-.3-.4.3-.2c.2,0,.1-.3-.1-.2A3.5,3.5,0,0,0,10.1,51Zm.9-1.6a.2.2,0,0,0,.2.2l.3.2c0,.1-.1.2-.2.3s-.1-.2-.2-.2l-.2-.3C10.9,49.5,10.9,49.5,11,49.4Zm-.1,1.1-.3-.3h0c0-.1.1-.2.1-.3h.1c0,.1.1.1.2.2h.2l-.2.4C11,50.5,11,50.5,10.9,50.5Zm1.3-1.7a.2.2,0,0,0,.2.2l-.4.3-.2-.2a.2.2,0,0,0-.2-.2l.3-.3Zm-.5.5c0,.1.1.1.2.1l-.3.3c0-.1-.1-.1-.1-.2h-.2v-.2c0-.1.1-.1.2-.2S11.6,49.2,11.7,49.3Z"/>
          <path class="cls-2" d="M9.4,45.4a3.5,3.5,0,0,1-2.2,2.5s-.1.1,0,.1.4.1.7-.1a.5.5,0,0,0,.2.4l-.5.2c-.1,0-.1,0,0,.1s3.3-2.1,2.6-2.7-.2,0-.2.1a.6.6,0,0,1-.1.4l-.4-.3a1.4,1.4,0,0,0,.2-.7C9.8,45.2,9.5,45.2,9.4,45.4Zm-1,2.7H8.2a.3.3,0,0,0-.1-.2l.2-.2h0l.3.3Zm.4-.2h0l-.3-.4c0-.1.1-.2.2-.3v.2l.3.3Zm.8-.8-.3.3h0c-.2-.1-.3-.3-.4-.4l.2-.3a1,1,0,0,0,.5.4Zm.2-.4h0v.2h0l-.3-.2H9.2l.2-.3C9.5,46.4,9.6,46.6,9.8,46.7Z"/>
          <path class="cls-2" d="M8.6,49.6c.2,0,.4-.1.5,0V50h.1a.6.6,0,0,0,0-.6c-.2-.2-.5-.1-.7-.1S8.5,49.6,8.6,49.6Z"/>
          <path class="cls-2" d="M10.9,47.5a.5.5,0,0,0,.7,0c.1-.1,0-.3-.1-.2s-.3.1-.4,0,0-.2-.1-.4h0A.5.5,0,0,0,10.9,47.5Z"/>
          <path class="cls-2" d="M10,49.9c.2.1.3,0,.2-.2S9.9,49.8,10,49.9Z"/>
          <path class="cls-2" d="M10.2,49.3c.1.1.2-.1.1-.2S10.1,49.2,10.2,49.3Z"/>
          <path class="cls-2" d="M10.7,48.6c.1,0,.2,0,.2-.1h-.1C10.7,48.4,10.7,48.5,10.7,48.6Z"/>
          <path class="cls-2" d="M11.3,48.5c.1.1.2-.1.1-.2S11.2,48.4,11.3,48.5Z"/>
          <path class="cls-2" d="M9.2,48.5a.1.1,0,1,0,.1-.2C9.2,48.2,9.1,48.4,9.2,48.5Z"/>
          <path class="cls-2" d="M8.8,48.6h0C8.8,48.3,8.6,48.6,8.8,48.6Z"/>
          <path class="cls-2" d="M9.9,47.8c.1.1.2,0,.1-.1S9.8,47.7,9.9,47.8Z"/>
          <path class="cls-2" d="M10,47.3c.1.1.2,0,.1-.1S9.9,47.3,10,47.3Z"/>
          <path class="cls-2" d="M11.4,50.6c.2.2.4,0,.2-.1A.1.1,0,1,0,11.4,50.6Z"/>
          <path class="cls-2" d="M12.3,49.7a.1.1,0,1,0,.1-.2C12.3,49.4,12.2,49.6,12.3,49.7Z"/>
          <path class="cls-2" d="M12,50.1h0c0-.1-.1-.2-.1-.1h0C11.7,50,11.9,50.3,12,50.1Z"/>
          <path class="cls-2" d="M7.8,47.4c-.1-.1.1-.3.2-.2S8,47.5,7.8,47.4Z"/>
          <path class="cls-2" d="M8.7,46.5c-.1-.1.1-.3.2-.2S8.8,46.6,8.7,46.5Z"/>
          <path class="cls-2" d="M8.3,46.8h0c.1-.1.2,0,.2.1h0A.1.1,0,1,1,8.3,46.8Z"/>
        </g>
        <g>
          <path class="cls-2" d="M50.4,9.5c-.4-.1-.7.1-1.1-.1a.9.9,0,0,1-.4-.6c-.1-.2,0-.4,0-.6s-.2-.2-.2-.1A1.4,1.4,0,0,0,49,9.5c.4.4.9.2,1.4.1Z"/>
          <path class="cls-2" d="M48.1,11.6a.9.9,0,0,0,0-.7,1.1,1.1,0,0,0-1.6-.2c-.1,0,0,.3.2.2a.8.8,0,0,1,.7-.1.5.5,0,0,1,.5.5c0,.2-.1.6,0,.8H48A.7.7,0,0,0,48.1,11.6Z"/>
          <path class="cls-2" d="M48.9,10.2a.4.4,0,0,0-.4-.6h-.3c0,.1-.1.1-.1.2a.4.4,0,0,0-.1.3c0,.2.3.3.5.3S48.9,10.4,48.9,10.2Zm-.5,0h.3A.2.2,0,0,1,48.4,10.2Z"/>
          <path class="cls-2" d="M48.4,7.5h-.1a1.4,1.4,0,0,0-.2.6h-.2l-.3-.2a3.5,3.5,0,0,0,.1-.6s-.1-.1-.1,0-.4.9-.7,1.3a6.4,6.4,0,0,1-1.5,1.3c-.1,0,0,.3.1.2l.5-.3.4.4-.4.2c-.1,0,0,.3.1.2A3.2,3.2,0,0,0,48.4,7.5Zm-.8,1.7L47.4,9,47,8.8l.2-.3.2.2.3.3Zm0-1.1.4.3h0l-.2.3h0l-.2-.2h-.3l.2-.4ZM46.4,9.7h-.3l.5-.4c0,.1.1.2.1.3l.2.2-.3.2Zm.5-.4-.2-.2.2-.2.2.2h.1l.2.2-.3.2Z"/>
          <path class="cls-2" d="M49.1,13.2a3.9,3.9,0,0,1,2.2-2.5h.1a.5.5,0,0,0-.7.1l-.3-.4.6-.2h0c-.9-.5-3.4,2.1-2.6,2.7h.1c0-.1.1-.3.1-.4l.5.3-.3.6C48.7,13.3,49,13.4,49.1,13.2Zm1-2.7h.2l.2.2-.2.2h-.1l-.2-.3Zm-.4.2h.1a.5.5,0,0,0,.3.4l-.3.3v-.2l-.2-.3Zm-.7.8a.8.8,0,0,1,.2-.4h.1c.1,0,.2.3.4.4l-.3.2-.4-.3Zm-.3.4h0c0-.1.1-.1.1-.2h0l.4.2h.1c0,.1-.1.2-.1.3Z"/>
          <path class="cls-2" d="M49.9,9h-.5V8.6h-.2c-.1.1,0,.4.1.5s.4.2.7.2S50.1,9,49.9,9Z"/>
          <path class="cls-2" d="M47.6,11.1c-.1-.2-.5-.2-.7,0s0,.3.2.2.2-.1.3,0,.1.2.1.4h.1A.4.4,0,0,0,47.6,11.1Z"/>
          <path class="cls-2" d="M48.5,8.7c-.1-.1-.3,0-.2.1A.1.1,0,1,0,48.5,8.7Z"/>
          <path class="cls-2" d="M48.4,9.3c-.1-.1-.3.1-.2.2S48.5,9.4,48.4,9.3Z"/>
          <path class="cls-2" d="M47.8,10h-.1C47.8,10.2,47.8,10.1,47.8,10Z"/>
          <path class="cls-2" d="M47.2,10.1c-.1-.1-.2,0-.1.1S47.3,10.2,47.2,10.1Z"/>
          <path class="cls-2" d="M49.4,10.1c-.2-.1-.3.1-.2.2S49.5,10.2,49.4,10.1Z"/>
          <path class="cls-2" d="M49.8,10h-.1C49.7,10.3,49.9,10,49.8,10Z"/>
          <path class="cls-2" d="M48.6,10.8c-.1-.1-.2,0-.1.1S48.7,10.9,48.6,10.8Z"/>
          <path class="cls-2" d="M48.6,11.2a.2.2,0,0,0-.2.2C48.5,11.5,48.6,11.3,48.6,11.2Z"/>
          <path class="cls-2" d="M47.1,7.9c-.1-.1-.3.1-.2.2S47.2,8.1,47.1,7.9Z"/>
          <path class="cls-2" d="M46.3,8.9c-.1-.1-.3.1-.2.2S46.4,9,46.3,8.9Z"/>
          <path class="cls-2" d="M46.6,8.5h0c-.1.1,0,.2.1.1h0C46.8,8.5,46.6,8.3,46.6,8.5Z"/>
          <path class="cls-2" d="M50.7,11.2c.1.1,0,.3-.2.2S50.6,11.1,50.7,11.2Z"/>
          <path class="cls-2" d="M49.8,12.1c.1.1,0,.3-.1.2A.1.1,0,1,1,49.8,12.1Z"/>
          <path class="cls-2" d="M50.2,11.8h0c-.1.1-.2,0-.1-.1h0C50.1,11.5,50.4,11.7,50.2,11.8Z"/>
        </g>
        <g>
          <path class="cls-2" d="M14,53.9c.4,0,.7-.3,1-.2a.7.7,0,0,1,.6.4c.1.2.1.5.2.7s.2.1.2,0a1.4,1.4,0,0,0-.7-1.3,1.3,1.3,0,0,0-1.3.3Z"/>
          <path class="cls-2" d="M15.6,51.2a.8.8,0,0,0,.2.7,1.1,1.1,0,0,0,1.6-.1c.1-.2-.1-.3-.2-.2l-.6.3a.7.7,0,0,1-.7-.4c-.1-.2,0-.6-.2-.8h-.1Z"/>
          <path class="cls-2" d="M15.2,52.9a.5.5,0,0,0,.6.4l.3-.2v-.2c0-.1.1-.2,0-.3a.4.4,0,0,0-.5-.2C15.4,52.4,15.2,52.7,15.2,52.9Zm.5-.2h.1c0,.1-.1.1-.1.2h-.2C15.5,52.7,15.6,52.6,15.7,52.7Z"/>
          <path class="cls-2" d="M16.4,55.3h.1a2,2,0,0,0,.1-.7h.6a.9.9,0,0,0,0,.7c0,.1.1.1.1,0s.1-1,.3-1.5a6.1,6.1,0,0,1,1.2-1.6.1.1,0,1,0-.2-.1.8.8,0,0,0-.4.4l-.5-.3L18,52a.1.1,0,1,0-.1-.2A3.5,3.5,0,0,0,16.4,55.3Zm.4-1.8h.6c0,.1-.1.2-.1.3H17l-.3-.2A.3.3,0,0,0,16.8,53.5Zm.2,1-.4-.2h0c0-.1.1-.2.1-.3h.6c-.1.1-.1.2-.1.4Zm.8-1.9h.3l-.3.4h-.2l-.3-.2.2-.3Zm-.4.6h.3l-.2.3c0-.1-.1-.1-.2-.2h-.2l-.2-.2.2-.2Z"/>
          <path class="cls-2" d="M14.3,49.9A4,4,0,0,1,12.8,53c-.1,0-.1.1,0,.1s.4-.1.6-.3l.4.3-.5.3c-.1.1-.1.1,0,.1s2.7-2.8,1.8-3.2a.1.1,0,0,0-.1.1v.4l-.5-.2c0-.2.1-.4.1-.7A.2.2,0,0,0,14.3,49.9Zm-.3,3h-.4c0-.1.1-.2.1-.3a.1.1,0,0,1,.1.1l.3.2Zm.3-.3h0l-.4-.3c0-.1.1-.2.1-.3s.2.1.2.2h.3A.5.5,0,0,1,14.3,52.6Zm.6-1c-.1.1-.1.3-.2.4h0l-.5-.3c0-.1.1-.2.1-.3l.5.2Zm.1-.5h0v.2h-.6a.6.6,0,0,1,.1-.4A.5.5,0,0,0,15,51.1Z"/>
          <path class="cls-2" d="M14.6,54.2H15l.2.2v.2h0c.1,0,.1,0,.1-.1s0-.4-.1-.5a.8.8,0,0,0-.7.1C14.3,54,14.4,54.3,14.6,54.2Z"/>
          <path class="cls-2" d="M16.3,51.6a.4.4,0,0,0,.6-.1c.1-.1-.1-.3-.2-.2s-.2.2-.3.1l-.2-.3c0-.1,0-.1-.1-.1A.5.5,0,0,0,16.3,51.6Z"/>
          <path class="cls-2" d="M16,54.2c.2.1.3-.1.2-.2S15.9,54.1,16,54.2Z"/>
          <path class="cls-2" d="M16,53.6c.1,0,.2-.2.1-.2S15.9,53.5,16,53.6Z"/>
          <path class="cls-2" d="M16.4,52.7a.1.1,0,0,0,.1-.1h0c0-.1,0-.1-.1-.1h0C16.3,52.6,16.3,52.7,16.4,52.7Z"/>
          <path class="cls-2" d="M16.9,52.5c.1.1.2-.1.1-.2S16.8,52.4,16.9,52.5Z"/>
          <path class="cls-2" d="M14.8,53c.2.1.3-.1.2-.2S14.7,53,14.8,53Z"/>
          <path class="cls-2" d="M14.5,53.2h0C14.4,53,14.3,53.3,14.5,53.2Z"/>
          <path class="cls-2" d="M15.4,52.2c.1.1.2-.1.1-.2S15.2,52.1,15.4,52.2Z"/>
          <path class="cls-2" d="M15.3,51.7c.1.1.2-.1.1-.1S15.2,51.7,15.3,51.7Z"/>
          <path class="cls-2" d="M17.6,54.5a.1.1,0,1,0,.1-.2A.1.1,0,1,0,17.6,54.5Z"/>
          <path class="cls-2" d="M18.1,53.4c.2.1.3-.1.1-.2S18,53.3,18.1,53.4Z"/>
          <path class="cls-2" d="M18,53.9h0c0-.1-.1-.2-.2-.1h0C17.7,53.9,17.9,54,18,53.9Z"/>
          <path class="cls-2" d="M13.3,52.3c-.2-.1-.1-.3.1-.2S13.4,52.4,13.3,52.3Z"/>
          <path class="cls-2" d="M13.9,51.2c-.2-.1-.1-.3.1-.2S14,51.3,13.9,51.2Z"/>
          <path class="cls-2" d="M13.6,51.6h0c0-.1.2,0,.1.1h0C13.7,51.9,13.5,51.7,13.6,51.6Z"/>
        </g>
        <g>
          <path class="cls-2" d="M44.5,4.7c-.4,0-.6.3-1,.2s-.4-.2-.6-.4,0-.5-.1-.7h-.2a1.3,1.3,0,0,0,.6,1.3,1.4,1.4,0,0,0,1.3-.3C44.6,4.8,44.6,4.7,44.5,4.7Z"/>
          <path class="cls-2" d="M42.9,7.3a.7.7,0,0,0-.2-.6,1.1,1.1,0,0,0-1.6.1c-.1.1.1.3.2.2a1.5,1.5,0,0,1,.7-.3.6.6,0,0,1,.6.4c.1.2,0,.6.2.7a.1.1,0,0,0,.1.1h0C43,7.7,42.9,7.5,42.9,7.3Z"/>
          <path class="cls-2" d="M43.3,5.7c0-.3-.2-.5-.5-.4l-.3.2a.3.3,0,0,0-.1.2V6a.5.5,0,0,0,.6.2C43.2,6.2,43.3,5.9,43.3,5.7Zm-.5.2h-.1a.2.2,0,0,1,.2-.2H43C43.1,5.8,42.9,6,42.8,5.9Z"/>
          <path class="cls-2" d="M42.1,3.3H42a1.5,1.5,0,0,1-.1.7c0-.1-.1-.1-.2-.1h-.3V3.2c0-.1-.1-.1-.2,0a4,4,0,0,1-.3,1.5,4.2,4.2,0,0,1-1.1,1.5c-.1.2.1.4.2.2l.4-.4.4.3-.3.3c-.1.1,0,.3.2.2A3.2,3.2,0,0,0,42.1,3.3Zm-.4,1.8h-.6c0-.1.1-.2.1-.4l.3.2.3.2C41.8,5,41.8,5.1,41.7,5.1Zm-.2-1,.4.2h0v.3h-.6a.6.6,0,0,1,.1-.4ZM40.7,6h-.2l.3-.4H41l.3.2-.3.3Zm.4-.6h-.2V5h.4c.1.1.2.1.2.2l-.2.2Z"/>
          <path class="cls-2" d="M44.3,8.6a4,4,0,0,1,1.5-3h0a.6.6,0,0,0-.7.3c-.1-.2-.2-.2-.3-.3a.9.9,0,0,1,.5-.3h0c-1-.3-2.8,2.8-1.9,3.2h.2a.8.8,0,0,1-.1-.4L44,8v.6C43.9,8.8,44.3,8.8,44.3,8.6Zm.3-2.9h.2c0,.1.1.1.2.1l-.2.3h0l-.4-.3Zm-.4.3h.1l.4.3c-.1.1-.2.2-.2.3l-.2-.2L44,6.3Zm-.5,1a.5.5,0,0,1,.2-.4h0c.2,0,.3.2.5.3l-.2.3L43.7,7Zm-.1.5h-.1a.4.4,0,0,0,.1-.3h.6a.4.4,0,0,0-.1.3Z"/>
          <path class="cls-2" d="M44,4.4h-.5a.1.1,0,0,1-.1-.1V4.1h-.1a.5.5,0,0,0,.2.6.9.9,0,0,0,.7-.1C44.2,4.5,44.1,4.3,44,4.4Z"/>
          <path class="cls-2" d="M42.3,7a.5.5,0,0,0-.7.1c-.1.1.1.3.2.2s.2-.2.3-.1.1.2.2.3h.1C42.6,7.4,42.4,7.1,42.3,7Z"/>
          <path class="cls-2" d="M42.5,4.4a.1.1,0,1,0-.1.2C42.5,4.7,42.6,4.5,42.5,4.4Z"/>
          <path class="cls-2" d="M42.6,5c-.2,0-.3.2-.2.2S42.7,5.1,42.6,5Z"/>
          <path class="cls-2" d="M42.2,5.9c-.1-.1-.2,0-.2.1h.2Z"/>
          <path class="cls-2" d="M41.7,6.1c-.2-.1-.3.1-.1.2S41.8,6.2,41.7,6.1Z"/>
          <path class="cls-2" d="M43.7,5.6c-.1-.1-.2.1-.1.2S43.8,5.6,43.7,5.6Z"/>
          <path class="cls-2" d="M44.1,5.4H44C44.1,5.6,44.3,5.3,44.1,5.4Z"/>
          <path class="cls-2" d="M43.2,6.4c-.1-.1-.2.1-.1.2S43.3,6.4,43.2,6.4Z"/>
          <path class="cls-2" d="M43.2,6.9c-.1-.1-.1.1,0,.1S43.3,6.9,43.2,6.9Z"/>
          <path class="cls-2" d="M41,4.1c-.2-.1-.3.1-.2.2S41.1,4.1,41,4.1Z"/>
          <path class="cls-2" d="M40.4,5.2c-.1-.1-.2.1-.1.2A.1.1,0,1,0,40.4,5.2Z"/>
          <path class="cls-2" d="M40.6,4.7h0c0,.1.1.2.1.1h0C40.9,4.7,40.6,4.6,40.6,4.7Z"/>
          <path class="cls-2" d="M45.3,6.3c.1.1,0,.3-.1.2S45.1,6.2,45.3,6.3Z"/>
          <path class="cls-2" d="M44.7,7.4c.1.1,0,.3-.1.2S44.5,7.3,44.7,7.4Z"/>
          <path class="cls-2" d="M45,7h0c-.1.1-.2,0-.2-.1h0C44.8,6.7,45.1,6.9,45,7Z"/>
        </g>
        <g>
          <path class="cls-2" d="M20.9,57c.4-.1.5-.5.9-.5a1.5,1.5,0,0,1,.7.3c.2.2.2.4.3.6s.3.1.2-.1a1.3,1.3,0,0,0-1-1c-.4-.1-.9.3-1.1.6S20.9,57,20.9,57Z"/>
          <path class="cls-2" d="M21.8,54a.6.6,0,0,0,.3.6,1,1,0,0,0,1.5-.5c.1-.2-.1-.3-.2-.2s-.3.4-.5.5a.6.6,0,0,1-.8-.2c-.1-.2-.1-.6-.4-.7h-.1A.8.8,0,0,0,21.8,54Z"/>
          <path class="cls-2" d="M21.8,55.7a.4.4,0,0,0,.6.3l.3-.3v-.2a.4.4,0,0,0-.1-.3.6.6,0,0,0-.6-.1A.5.5,0,0,0,21.8,55.7Zm.4-.3h.2a.3.3,0,0,0-.1.2h-.1c-.1,0-.1,0-.1-.1S22.1,55.4,22.2,55.4Z"/>
          <path class="cls-2" d="M23.6,57.7h.1c0-.3-.1-.5-.1-.7h.6c0,.2.1.4.1.6s.2.1.2,0a7.6,7.6,0,0,1-.1-1.5,5.6,5.6,0,0,1,.7-1.8c.1-.2-.2-.3-.3-.2a1.4,1.4,0,0,1-.2.6l-.5-.2c0-.1.1-.2.2-.4s-.1-.2-.2-.1A3.2,3.2,0,0,0,23.6,57.7Zm-.1-1.8h.3c.1,0,.2.1.4,0a.6.6,0,0,0-.1.4h-.6Zm.5.9h-.5v-.3h.6v.4A.1.1,0,0,0,24,56.8Zm.2-2h.3l-.2.5h-.6a.8.8,0,0,0,.2-.4Zm-.2.6c.1,0,.2.1.3,0a.8.8,0,0,0-.1.4h-.7a.4.4,0,0,0,.1-.3Z"/>
          <path class="cls-2" d="M20.1,53.1a3.8,3.8,0,0,1-.6,3.4c-.1,0-.1,0,0,.1s.4-.2.6-.5l.4.2-.4.4c-.1.1,0,.1,0,.1s1.9-3.4.9-3.6-.1.1-.1.2l.2.4h-.6a2,2,0,0,0-.1-.7C20.4,52.8,20.1,52.9,20.1,53.1Zm.5,3h-.4c0-.1,0-.2.1-.2h0l.4.2A.3.3,0,0,0,20.6,56.1Zm.2-.5h0l-.5-.2a.4.4,0,0,0,.1-.3H21Zm.3-1V55h-.6v-.4Zm0-.5h0v.2h-.6v-.4Z"/>
          <path class="cls-2" d="M21.5,57.2c.2-.1.3-.3.5-.2h.3c.1-.2-.1-.4-.3-.5a.7.7,0,0,0-.6.3A.1.1,0,1,0,21.5,57.2Z"/>
          <path class="cls-2" d="M22.5,54.2a.4.4,0,0,0,.6-.3.2.2,0,0,0-.3-.1.2.2,0,0,1-.2.2c-.2-.1-.2-.2-.3-.3h-.1A.4.4,0,0,0,22.5,54.2Z"/>
          <path class="cls-2" d="M22.9,56.8c.2,0,.3-.2.1-.3S22.8,56.7,22.9,56.8Z"/>
          <path class="cls-2" d="M22.7,56.2c.2,0,.2-.2.1-.3S22.6,56.1,22.7,56.2Z"/>
          <path class="cls-2" d="M22.9,55.2c0,.1.1,0,.1-.1h-.2A.1.1,0,0,0,22.9,55.2Z"/>
          <path class="cls-2" d="M23.3,54.9c.1,0,.2-.2.1-.2S23.2,54.9,23.3,54.9Z"/>
          <path class="cls-2" d="M21.5,56c.1,0,.2-.2,0-.3S21.3,55.9,21.5,56Z"/>
          <path class="cls-2" d="M21.2,56.2h0C21.1,56,21,56.3,21.2,56.2Z"/>
          <path class="cls-2" d="M21.8,55c.1.1.1-.1,0-.2S21.6,55,21.8,55Z"/>
          <path class="cls-2" d="M21.6,54.6c.1,0,.1-.2,0-.2S21.5,54.5,21.6,54.6Z"/>
          <path class="cls-2" d="M24.5,56.7c.2,0,.3-.2.1-.3S24.3,56.7,24.5,56.7Z"/>
          <path class="cls-2" d="M24.7,55.5c.2,0,.3-.2.1-.3S24.6,55.4,24.7,55.5Z"/>
          <path class="cls-2" d="M24.7,56h0c0-.1-.1-.2-.2-.1h0C24.4,56,24.7,56.1,24.7,56Z"/>
          <path class="cls-2" d="M19.8,55.7c-.2-.1-.2-.3,0-.3S19.9,55.7,19.8,55.7Z"/>
          <path class="cls-2" d="M20.1,54.4c-.2,0-.2-.2,0-.2S20.2,54.5,20.1,54.4Z"/>
          <path class="cls-2" d="M19.9,54.9h0c0-.1.2-.1.2,0h0C20.1,55.1,19.8,55.1,19.9,54.9Z"/>
        </g>
        <g>
          <path class="cls-2" d="M37.6,1.6c-.3.1-.5.4-.9.5L36,1.8c-.1-.2-.1-.5-.3-.6s-.2-.1-.2,0a1.4,1.4,0,0,0,1,1.1c.5.1.9-.3,1.2-.6Z"/>
          <path class="cls-2" d="M36.8,4.6a.9.9,0,0,0-.4-.6,1.1,1.1,0,0,0-1.5.5c0,.2.2.3.2.2s.3-.4.6-.5.6-.1.7.2.2.5.4.7h.1C36.9,4.9,36.8,4.7,36.8,4.6Z"/>
          <path class="cls-2" d="M36.7,2.9c0-.3-.3-.4-.6-.3s-.2.2-.2.3v.5h.6A.5.5,0,0,0,36.7,2.9Zm-.4.3h-.1c0-.1,0-.2.1-.2h.2C36.5,3.1,36.4,3.2,36.3,3.2Z"/>
          <path class="cls-2" d="M35,.9h-.1a1.7,1.7,0,0,0,.1.7h-.6c-.1-.2-.1-.4-.2-.6h-.1a7.6,7.6,0,0,0,.1,1.5,6.7,6.7,0,0,1-.7,1.8c-.1.2.1.3.2.1l.3-.5.5.2-.3.4a.2.2,0,0,0,.3.1A3.6,3.6,0,0,0,35,.9Zm0,1.8h-.2a.3.3,0,0,0-.4,0V2.3h.7C35.1,2.6,35.1,2.7,35,2.7Zm-.4-.9H35c0,.2,0,.3.1.4h-.7V1.7Zm-.3,2H34c.1-.2.2-.3.2-.5h.6c-.1.1-.1.3-.2.4Zm.2-.6c-.1,0-.2-.1-.2,0s0-.3.1-.4.1.1.2.1H35c0,.1-.1.2-.1.3Z"/>
          <path class="cls-2" d="M38.4,5.5a4.1,4.1,0,0,1,.7-3.4h0a.6.6,0,0,0-.6.5l-.4-.2.4-.5a.1.1,0,0,0-.1-.1c-1,.1-1.9,3.5-.9,3.6s.1-.1.1-.1-.1-.2-.1-.4H38c0,.2.1.4.1.6S38.5,5.7,38.4,5.5Zm-.5-3h.5a.3.3,0,0,0-.1.2h-.1l-.4-.2C37.9,2.7,37.9,2.6,37.9,2.5Zm-.2.5h.5c0,.2-.1.3-.1.4s-.1-.1-.2-.1h-.3C37.6,3.2,37.7,3.1,37.7,3Zm-.3,1a.6.6,0,0,1,.1-.4h.6a.8.8,0,0,0-.1.4Zm0,.5h0V4.3H38v.3Z"/>
          <path class="cls-2" d="M37,1.4l-.4.2h-.2c0-.1,0-.1-.1-.1h-.1a.4.4,0,0,0,.3.4.6.6,0,0,0,.7-.2C37.3,1.5,37.2,1.3,37,1.4Z"/>
          <path class="cls-2" d="M36.1,4.3a.4.4,0,0,0-.6.4c-.1.1.1.2.2.1s.1-.2.3-.2l.2.3h.1C36.4,4.7,36.2,4.4,36.1,4.3Z"/>
          <path class="cls-2" d="M35.6,1.8a.2.2,0,0,0-.1.3C35.7,2.1,35.8,1.9,35.6,1.8Z"/>
          <path class="cls-2" d="M35.8,2.4c-.1,0-.2.2,0,.2S36,2.5,35.8,2.4Z"/>
          <path class="cls-2" d="M35.7,3.3c-.1,0-.2.1-.1.2h.1C35.8,3.5,35.7,3.4,35.7,3.3Z"/>
          <path class="cls-2" d="M35.2,3.7c-.1-.1-.1.1,0,.2S35.4,3.7,35.2,3.7Z"/>
          <path class="cls-2" d="M37.1,2.6c-.2,0-.2.2-.1.2S37.2,2.7,37.1,2.6Z"/>
          <path class="cls-2" d="M37.4,2.3h0c0,.1-.1.1,0,.1h0C37.5,2.6,37.5,2.3,37.4,2.3Z"/>
          <path class="cls-2" d="M36.8,3.6c-.1-.1-.2.1-.1.2S36.9,3.6,36.8,3.6Z"/>
          <path class="cls-2" d="M37,4c-.1,0-.2.2-.1.2S37.1,4,37,4Z"/>
          <path class="cls-2" d="M34,1.9c-.1-.1-.2.2,0,.3S34.2,1.9,34,1.9Z"/>
          <path class="cls-2" d="M33.8,3.1c-.2,0-.2.2-.1.3S34,3.2,33.8,3.1Z"/>
          <path class="cls-2" d="M33.8,2.6h0c0,.1.2.2.2.1h0C34.1,2.5,33.8,2.5,33.8,2.6Z"/>
          <path class="cls-2" d="M38.8,2.9c.2,0,.1.3-.1.3S38.6,2.9,38.8,2.9Z"/>
          <path class="cls-2" d="M38.5,4.2c.1,0,.1.2-.1.2S38.3,4.1,38.5,4.2Z"/>
          <path class="cls-2" d="M38.7,3.7h-.2C38.4,3.5,38.7,3.5,38.7,3.7Z"/>
        </g>
      </g>
    </g>
  </g>
</svg>
