<svg id="Layer_1" data-name="Layer 1" xmlns="http://www.w3.org/2000/svg" viewBox="0 0 625.2 1111.4"><defs><style>.cls-1{fill:#f3ae1c;}.cls-2{fill:#ac3a68;}.cls-3{fill:#e73c53;}.cls-4{fill:#f1e7c4;}.cls-5{fill:#4f2549;}.cls-6{fill:#7dc4a5;}</style></defs><title>Imagenes-fondo-animacion-480</title><path class="cls-1" d="M219.7,794.4l-7.4,4.4-7.4,4.4c13.4,11.4,17.8,23.7,24.8,37.2s12.8,9,12.8,9,6.7-2.8-1.9-15.5S223.4,811.6,219.7,794.4Z"/><ellipse class="cls-1" cx="192.5" cy="765.5" rx="41.8" ry="53.2" transform="translate(-359.2 201) rotate(-30.2)"/><path class="cls-2" d="M199,718.1s7.4,2.8,4.3,7.3-11.4-1.2-11.4-1.2,6.2,5.3,2.6,9.2-11.1-2.5-11.1-2.5,6.1,6.6.8,9.7-10.6-3.9-10.6-3.9,3.1,7.5.1,10.2-10-4.3-10-4.3,4.7,8.7-.4,10.5-7.8-8.2-7.8-8.2.2,9.1-3.1,11.1-4.4-7.6-4.4-7.6S170.7,738.7,199,718.1Z"/><path class="cls-3" d="M148,748.4s27.7-8.4,51-30.3c0,0-16.4-8.6-33.3,1.4S148,748.4,148,748.4Z"/><path class="cls-4" d="M148.2,744.8s27.4-8.5,47-28.4c0,0,.7-.1,3.8,1.7,0,0-20.9,20.6-51,30.3A29.6,29.6,0,0,1,148.2,744.8Z"/><path class="cls-4" d="M149.1,768.5s44.6-15.5,65.2-41.1c0,0,18.4,15.4,21.9,36.7,0,0-23.3,30.5-65.9,39.2A64.2,64.2,0,0,1,149.1,768.5Z"/><path class="cls-2" d="M150,771.8s40.3-10.4,66.9-42.1c0,0,13.5,11.6,18.3,29.9,0,0-23.2,30.7-68.2,40.7A60,60,0,0,1,150,771.8Z"/><path class="cls-5" d="M220.7,733.8s-17.1,37.8-68,45.6a48.8,48.8,0,0,0,9.5,15.8s48.4-12.4,70.6-42.1A47.7,47.7,0,0,0,220.7,733.8Z"/><path class="cls-6" d="M162.2,795.2s-.8-12.2,3.4-11.6,9.6,6.5,9.6,6.5-2-8.4,1.3-9.9c6.3-2.9,11.3,5.7,11.3,5.7s-4.2-11.5,2.3-12.8,10.5,6.4,10.5,6.4-3.3-10.8,2.2-12.4,10,4.8,10,4.8-4.8-11,.2-14.1c2.8-1.8,11.1,5,11.1,5s-5.3-11.9-1.4-13.5,10.1,3.8,10.1,3.8S211,783.5,162.2,795.2Z"/><circle class="cls-4" cx="159.6" cy="771.7" r="1.3"/><circle class="cls-4" cx="166.2" cy="787.7" r="1.3"/><circle class="cls-4" cx="179.2" cy="784" r="1.3"/><circle class="cls-4" cx="171" cy="767.8" r="1.3"/><circle class="cls-4" cx="180.9" cy="762.7" r="1.3"/><circle class="cls-4" cx="190.1" cy="757.2" r="1.3"/><circle class="cls-4" cx="198" cy="751.8" r="1.3"/><circle class="cls-4" cx="206.4" cy="745.3" r="1.3"/><circle class="cls-4" cx="213.5" cy="738.1" r="1.3"/><circle class="cls-4" cx="231.3" cy="759.9" r="1.3"/><circle class="cls-4" cx="223.5" cy="766.6" r="1.3"/><circle class="cls-4" cx="214.7" cy="774.8" r="1.3"/><circle class="cls-4" cx="207.1" cy="780.8" r="1.3"/><circle class="cls-4" cx="197.2" cy="785.2" r="1.3"/><circle class="cls-4" cx="186" cy="790.4" r="1.3"/><circle class="cls-4" cx="176.8" cy="794.4" r="1.3"/><circle class="cls-4" cx="168" cy="797.6" r="1.3"/><circle class="cls-4" cx="151.3" cy="751.6" r="1.3"/><circle class="cls-4" cx="161.2" cy="748.9" r="1.3"/><circle class="cls-4" cx="170.8" cy="743.3" r="1.3"/><circle class="cls-4" cx="182.1" cy="738" r="1.3"/><circle class="cls-4" cx="191.4" cy="731" r="1.3"/><circle class="cls-4" cx="199.7" cy="724.2" r="1.3"/><circle class="cls-4" cx="192.1" cy="777.8" r="1.3"/><circle class="cls-4" cx="203.4" cy="771.1" r="1.3"/><circle class="cls-4" cx="214.9" cy="762" r="1.3"/><circle class="cls-4" cx="225.9" cy="753.3" r="1.3"/><path class="cls-5" d="M148,762.3s38.9-9.8,61.1-38.9a21.3,21.3,0,0,1,5.2,4s-11.8,20.9-65.1,41.4C149.2,768.8,147.9,764.1,148,762.3Z"/><path class="cls-5" d="M150.7,736.2s23.4-5.1,34.8-21.5C185.5,714.7,163,711.6,150.7,736.2Z"/><path class="cls-6" d="M154.8,729.4s11.9-2.3,25.2-15C180,714.4,163.4,715.6,154.8,729.4Z"/><path class="cls-3" d="M184.7,812.4s33.1-4.4,52.5-31.3c0,0-1.3,22-17.9,30.4C199,821.6,184.7,812.4,184.7,812.4Z"/><path class="cls-5" d="M231.6,799.4s-17.5,2.5-28,16.7C203.6,816.1,222.2,816,231.6,799.4Z"/><path class="cls-6" d="M229.1,803.2s-13.9,3-20.9,12.3A30.5,30.5,0,0,0,229.1,803.2Z"/><path class="cls-4" d="M179.4,809.7s36.4-2.7,58-34.6a21.2,21.2,0,0,1-.2,6s-17.4,27-52.5,31.3C184.7,812.4,180.9,810.6,179.4,809.7Z"/><path class="cls-2" d="M237.4,775.1s-4.2-3.4-6.4-2.5,1.6,9,1.6,9-5.1-5.1-8.2-3.1,1.4,9.4,1.4,9.4-5.5-4.8-8.9-2.9.8,10.1.8,10.1-5.7-6.7-10.2-3.9-.6,10.3-.6,10.3-5.5-6.8-8.5-5.5-.5,9.3-.5,9.3-3.6-7.6-7.8-5.4-2.3,8.4-2.3,8.4-3.4-6.9-6.1-6.3-2.3,7.7-2.3,7.7S215.3,807.7,237.4,775.1Z"/><circle class="cls-4" cx="234" cy="775.7" r="1.3"/><circle class="cls-4" cx="227.8" cy="782.4" r="1.3"/><circle class="cls-4" cx="220.5" cy="789.6" r="1.3"/><circle class="cls-4" cx="210.2" cy="795.8" r="1.3"/><circle class="cls-4" cx="192" cy="804.2" r="1.3"/><circle class="cls-4" cx="181.8" cy="806.4" r="1.3"/><circle class="cls-4" cx="200.1" cy="801.8" r="1.3"/><path class="cls-4" d="M153.7,782.4s51.6-14.8,69.7-45.6a37.6,37.6,0,0,0-2.7-3s-14.2,29.7-68.4,45.1A12.3,12.3,0,0,0,153.7,782.4Z"/></svg>