<svg id="Layer_1" data-name="Layer 1" xmlns="http://www.w3.org/2000/svg" viewBox="0 0 625.2 1111.4"><defs><style>.cls-1{fill:#f3ae1c;}.cls-2{fill:#ac3a68;}.cls-3{fill:#e73c53;}.cls-4{fill:#f1e7c4;}.cls-5{fill:#4f2549;}.cls-6{fill:#7dc4a5;}</style></defs><title>Imagenes-fondo-animacion-480</title><path class="cls-1" d="M400.9,793.1l7.4,4.5,7.4,4.5c-13.4,11.8-17.8,24.4-24.9,38.3s-12.8,9.2-12.8,9.2-6.8-2.9,1.8-15.9S397.2,810.7,400.9,793.1Z"/><ellipse class="cls-1" cx="428.3" cy="763.4" rx="54.4" ry="42.2" transform="translate(-446.9 780.7) rotate(-61.8)"/><path class="cls-2" d="M421.8,714.7s-7.5,2.9-4.5,7.6,11.6-1.2,11.6-1.2-6.2,5.4-2.6,9.4,11.1-2.6,11.1-2.6-6.1,6.8-.8,10,10.7-4,10.7-4-3.2,7.6-.1,10.4,10-4.4,10-4.4-4.7,8.9.4,10.8,7.9-8.4,7.9-8.4-.2,9.4,3,11.4,4.6-7.8,4.6-7.8S450.2,735.9,421.8,714.7Z"/><path class="cls-3" d="M473.1,745.9s-27.9-8.7-51.3-31.2c0,0,16.4-8.8,33.4,1.5C473.7,727.4,473.1,745.9,473.1,745.9Z"/><path class="cls-4" d="M472.8,742.2s-27.5-8.7-47.2-29.2c0,0-.8-.1-3.8,1.7,0,0,20.9,21.3,51.3,31.2C473.1,745.9,473,743.4,472.8,742.2Z"/><path class="cls-4" d="M471.9,766.5s-44.9-15.9-65.6-42.2c0,0-18.5,15.9-22,37.7,0,0,23.5,31.3,66.3,40.3C450.6,802.3,466.6,790,471.9,766.5Z"/><path class="cls-2" d="M471,769.9s-40.5-10.7-67.3-43.2c0,0-13.6,11.9-18.4,30.7,0,0,23.3,31.5,68.6,41.7A60.9,60.9,0,0,0,471,769.9Z"/><path class="cls-5" d="M399.9,730.9s17.2,38.8,68.4,46.8a49.7,49.7,0,0,1-9.6,16.2s-48.7-12.7-71-43.2A49.3,49.3,0,0,1,399.9,730.9Z"/><path class="cls-6" d="M458.7,793.9s.9-12.5-3.4-11.9-9.7,6.7-9.7,6.7,2.1-8.6-1.3-10.2c-6.3-3-11.4,5.9-11.4,5.9s4.3-11.9-2.2-13.2-10.6,6.6-10.6,6.6,3.3-11.1-2.2-12.7-10.1,4.9-10.1,4.9,4.9-11.3-.1-14.5c-2.9-1.8-11.2,5.2-11.2,5.2s5.3-12.3,1.4-13.9-10.2,3.9-10.2,3.9S409.6,782,458.7,793.9Z"/><ellipse class="cls-4" cx="461.3" cy="769.8" rx="1.3" ry="1.3"/><ellipse class="cls-4" cx="454.7" cy="786.2" rx="1.3" ry="1.3"/><ellipse class="cls-4" cx="441.6" cy="782.5" rx="1.3" ry="1.3"/><ellipse class="cls-4" cx="449.9" cy="765.8" rx="1.3" ry="1.3"/><ellipse class="cls-4" cx="440" cy="760.6" rx="1.3" ry="1.3"/><ellipse class="cls-4" cx="430.6" cy="754.9" rx="1.3" ry="1.3"/><ellipse class="cls-4" cx="422.7" cy="749.3" rx="1.3" ry="1.3"/><ellipse class="cls-4" cx="414.2" cy="742.7" rx="1.3" ry="1.3"/><ellipse class="cls-4" cx="407.2" cy="735.3" rx="1.3" ry="1.3"/><ellipse class="cls-4" cx="389.2" cy="757.7" rx="1.3" ry="1.3"/><ellipse class="cls-4" cx="397.1" cy="764.6" rx="1.3" ry="1.3"/><ellipse class="cls-4" cx="406" cy="773" rx="1.3" ry="1.3"/><ellipse class="cls-4" cx="413.5" cy="779.1" rx="1.3" ry="1.3"/><ellipse class="cls-4" cx="423.5" cy="783.7" rx="1.3" ry="1.3"/><ellipse class="cls-4" cx="434.8" cy="789" rx="1.3" ry="1.3"/><ellipse class="cls-4" cx="444" cy="793.1" rx="1.3" ry="1.3"/><ellipse class="cls-4" cx="452.9" cy="796.4" rx="1.3" ry="1.3"/><ellipse class="cls-4" cx="469.7" cy="749.2" rx="1.3" ry="1.3"/><ellipse class="cls-4" cx="459.7" cy="746.4" rx="1.3" ry="1.3"/><ellipse class="cls-4" cx="450.1" cy="740.6" rx="1.3" ry="1.3"/><ellipse class="cls-4" cx="438.7" cy="735.2" rx="1.3" ry="1.3"/><ellipse class="cls-4" cx="429.4" cy="728" rx="1.3" ry="1.3"/><ellipse class="cls-4" cx="421" cy="721.1" rx="1.3" ry="1.3"/><ellipse class="cls-4" cx="428.6" cy="776.1" rx="1.3" ry="1.3"/><ellipse class="cls-4" cx="417.3" cy="769.2" rx="1.3" ry="1.3"/><ellipse class="cls-4" cx="405.7" cy="759.8" rx="1.3" ry="1.3"/><ellipse class="cls-4" cx="394.6" cy="751" rx="1.3" ry="1.3"/><path class="cls-5" d="M473,760.1s-39.1-10-61.4-39.9a19.9,19.9,0,0,0-5.3,4.1s11.9,21.5,65.5,42.5C471.8,766.8,473.1,762,473,760.1Z"/><path class="cls-5" d="M470.3,733.3s-23.6-5.2-35-22C435.3,711.3,457.9,708.1,470.3,733.3Z"/><path class="cls-6" d="M466.2,726.4s-12-2.4-25.4-15.4C440.8,711,457.5,712.2,466.2,726.4Z"/><path class="cls-3" d="M436.1,811.6s-33.3-4.6-52.8-32.2c0,0,1.3,22.7,18,31.2C421.7,821,436.1,811.6,436.1,811.6Z"/><path class="cls-5" d="M388.9,798.2s17.6,2.6,28.2,17.2C417.1,815.4,398.3,815.3,388.9,798.2Z"/><path class="cls-6" d="M391.4,802.2s14,3,21,12.6A30.5,30.5,0,0,1,391.4,802.2Z"/><path class="cls-4" d="M441.5,808.8s-36.7-2.7-58.5-35.5a19.6,19.6,0,0,0,.3,6.1s17.5,27.8,52.8,32.2C436.1,811.6,439.9,809.8,441.5,808.8Z"/><path class="cls-2" d="M383,773.3s4.3-3.5,6.5-2.5-1.6,9.1-1.6,9.1,5.2-5.2,8.3-3.1-1.4,9.6-1.4,9.6,5.5-4.9,8.9-3-.9,10.4-.9,10.4,5.9-6.9,10.4-4,.6,10.6.6,10.6,5.5-7,8.5-5.7.5,9.6.5,9.6,3.7-7.8,7.8-5.5,2.4,8.6,2.4,8.6,3.3-7.1,6.1-6.5,2.4,7.9,2.4,7.9S405.3,806.8,383,773.3Z"/><ellipse class="cls-4" cx="386.5" cy="773.9" rx="1.3" ry="1.3"/><ellipse class="cls-4" cx="392.8" cy="780.8" rx="1.3" ry="1.3"/><ellipse class="cls-4" cx="400.1" cy="788.2" rx="1.3" ry="1.3"/><ellipse class="cls-4" cx="410.5" cy="794.5" rx="1.3" ry="1.3"/><ellipse class="cls-4" cx="428.7" cy="803.2" rx="1.3" ry="1.3"/><ellipse class="cls-4" cx="439" cy="805.4" rx="1.3" ry="1.3"/><ellipse class="cls-4" cx="420.6" cy="800.7" rx="1.3" ry="1.3"/><path class="cls-4" d="M467.3,780.8s-51.9-15.2-70.2-46.8a25.4,25.4,0,0,1,2.8-3.1s14.2,30.4,68.8,46.3A12.2,12.2,0,0,1,467.3,780.8Z"/></svg>