<svg xmlns="http://www.w3.org/2000/svg" xmlns:xlink="http://www.w3.org/1999/xlink" viewBox="0 0 136.7 176.9">
  <defs>
    <style>
      .cls-1 {
        fill: none;
      }

      .cls-2 {
        isolation: isolate;
      }

      .cls-3 {
        clip-path: url(#clip-path);
      }

      .cls-4 {
        fill: #699840;
      }

      .cls-5 {
        fill: #ba272b;
      }

      .cls-19, .cls-20, .cls-6 {
        fill: #f19124;
      }

      .cls-7 {
        fill: #9f6326;
      }

      .cls-8 {
        fill: #f5be7e;
      }

      .cls-9 {
        fill: #221f20;
      }

      .cls-10 {
        clip-path: url(#clip-path-2);
      }

      .cls-11, .cls-13, .cls-17 {
        fill: #211f1f;
      }

      .cls-12 {
        fill: #bb242f;
      }

      .cls-13 {
        opacity: 0.3;
        mix-blend-mode: multiply;
      }

      .cls-14, .cls-18 {
        font-size: 15.38px;
      }

      .cls-14, .cls-15, .cls-16 {
        fill: #231f20;
        stroke: #231f20;
        stroke-width: 2.9px;
      }

      .cls-14, .cls-15, .cls-16, .cls-17 {
        stroke-linecap: round;
        stroke-linejoin: round;
      }

      .cls-14, .cls-15, .cls-16, .cls-18, .cls-19, .cls-20, .cls-21, .cls-27 {
        font-family: MexicanTequila-Regular, Mexican Tequila;
      }

      .cls-15, .cls-19 {
        font-size: 15.38px;
      }

      .cls-16, .cls-20, .cls-21 {
        font-size: 15.38px;
      }

      .cls-17 {
        stroke: #211f1f;
        stroke-width: 2.9px;
      }

      .cls-18, .cls-21, .cls-22, .cls-27 {
        fill: #fff;
      }

      .cls-23 {
        fill: #8dc044;
      }

      .cls-24 {
        fill: #379546;
      }

      .cls-25 {
        fill: #99c774;
      }

      .cls-26 {
        fill: #f18e9b;
      }

      .cls-27 {
        font-size: 12.28px;
      }
    </style>
    <clipPath id="clip-path">
      <path class="cls-1" d="M50.1,68.2S73,64.8,87.8,61.4l31.7-6.2,8.1-3.8,5.4-9.6-3.8-14.6-12.9-5L94.8,25.3,63.8,0,47.7,1.2,31.7,36,7.8,39.3l-13.5,10L2.1,68l21.6,7,12.9-1.6Z"/>
    </clipPath>
    <clipPath id="clip-path-2">
      <path class="cls-1" d="M42,61.6s17.4-7,47.8-8.5,46.9,62.8,46.9,62.8l-30.9,18.6L33.2,149.7,17,119.5l4.1-40.6Z"/>
    </clipPath>
  </defs>
  <title>Logotipo-2-480</title>
  <g class="cls-2">
    <g id="Layer_1" data-name="Layer 1">
      <g>
        <g>
          <g>
            <g>
              <g class="cls-3">
                <g>
                  <g>
                    <path class="cls-4" d="M51.1,34.8c.3-1,.7-2,1-3.1h.3a15.6,15.6,0,0,0,1.6,2,20.9,20.9,0,0,0,1.4,1.7l1.8-.5c-1.7-2.6-3.4-5.1-5.3-7.5-.7,1.8-1.4,3.6-1.9,5.4a37.4,37.4,0,0,0-1.2,4.5,2.8,2.8,0,0,0-.1.9l1.9-.9A22.1,22.1,0,0,1,51.1,34.8Z"/>
                    <path class="cls-4" d="M64.9,33.4a71.7,71.7,0,0,0-4.6-7.5c-1.1,2.7-.7,5.7-1.4,8.5l1.8-.4a13.2,13.2,0,0,1,.4-3.4c0-.1.1-.2.2-.1s1.6,2,2.2,3Z"/>
                    <path class="cls-4" d="M51.7,22.1a78.9,78.9,0,0,0,5.1,7.7,35.3,35.3,0,0,1,2.6-9.5.2.2,0,0,1,.4-.1,24.8,24.8,0,0,1,5.6,8.3c.9-3,1.8-6.1,2.6-9.2.1-.3.4-.4.6-.1s2.4,2.6,3.5,3.9L70.4,18a11.3,11.3,0,0,0-5-1.3c-.2.8-.3,1.7-.5,2.5l-.3,1.3a1.4,1.4,0,0,1-.2.7.2.2,0,0,1-.3,0c-1-1.4-2.1-2.7-3-4.1a8.6,8.6,0,0,0-1.7.3l-2.2.4a36.8,36.8,0,0,0-1.8,5.3c0,.2-.2.2-.3.1a27,27,0,0,1-2.5-4l-3.5,1.6v9a52.8,52.8,0,0,1,2.4-7.7C51.5,22,51.7,22,51.7,22.1Z"/>
                    <path class="cls-4" d="M67.2,33.2l2.7-.2a30.1,30.1,0,0,1,.9-4.1h.3c1.2,1.4,2.4,2.8,3.5,4.3l1.2.2c-.5-1.2-1-2.4-1.4-3.6a49.8,49.8,0,0,0-4.9-5.4C68.6,27.3,68,30.2,67.2,33.2Z"/>
                  </g>
                  <g>
                    <path class="cls-5" d="M56.9,17.9l-4,1.3c.7,1.2,1.5,2.4,2.3,3.6A21.9,21.9,0,0,1,56.9,17.9Z"/>
                    <path class="cls-5" d="M61.3,17c1,1.2,2,2.5,2.9,3.8a3.8,3.8,0,0,0,.3-1,3.6,3.6,0,0,1,.2-1.1c.1-.7.3-1.3.4-2Z"/>
                    <path class="cls-6" d="M51.9,27.1a83.9,83.9,0,0,1,5.6,7.7l1.2-.3c.6-3,.3-6.1,1.4-8.9,0-.1.2-.1.2-.1a53.5,53.5,0,0,1,4.9,7.8H67A72.8,72.8,0,0,1,69.3,24c0-.1.2-.1.2,0A34.5,34.5,0,0,1,74,28.8l-1.2-3.5c-1.5-1.7-2.9-3.4-4.3-5.2-1.1,3-1.9,6.2-2.7,9.3,0,.3-.4.4-.6.1a34,34,0,0,0-5.5-8.6,25.4,25.4,0,0,0-2.5,9.8c0,.2-.3.3-.5.1s-1.9-2.8-2.8-4.2l-1.4-2.4L51.9,23c-.2-.4-.1-.5-.3-.1s-.1.9-.2,1.2a5.6,5.6,0,0,1-.4,1.2c-.2.8-.4,1.7-.7,2.6l-1.2,3.9c-.1,1.3-.1,2.5-.2,3.8a60.4,60.4,0,0,1,2.8-8.5C51.8,27.1,51.9,27,51.9,27.1Z"/>
                    <path class="cls-5" d="M70.1,33l4.1.2c-1.1-1.3-2.1-2.7-3.2-3.9Z"/>
                    <path class="cls-5" d="M51.5,34.8c-.2.8-.3,1.6-.5,2.3l4.1-1.6a31.7,31.7,0,0,1-2.8-3.4A27.6,27.6,0,0,0,51.5,34.8Z"/>
                    <path class="cls-5" d="M60.9,34l2.3-.4-1.9-2.7C61.1,31.9,61,33,60.9,34Z"/>
                  </g>
                  <path class="cls-4" d="M111.4,35.1c-3,.8-6.1,1.5-9.1,2.1C86,40.6,69.5,43.1,53,45.4c-8.9,1.3-17.9,2-26.9,2.8l-11.8,1c-3.1.2-12.1-.7-12,4a18.7,18.7,0,0,0,5.1,6.1,31.4,31.4,0,0,1,.1-7.5.3.3,0,0,1,.4-.2A57,57,0,0,1,14.4,56a23.1,23.1,0,0,0,1.9-5.6c.1-.2.3-.4.5-.2a25,25,0,0,1,5.7,4.6,54.8,54.8,0,0,0,2.3-5.6c.1-.2.3-.3.5-.1,1.9,1.6,3.9,3.2,5.8,5L34.3,48c0-.1.3-.3.4-.1l5,4.8c.9-1.8,2.3-3.4,3.2-5.2a.2.2,0,0,1,.4-.1,38.7,38.7,0,0,1,5.5,4.3l2.7-5.5c.1-.2.3-.2.5-.1l4.3,4.4c.7-1.8,1.5-3.6,2.3-5.3s.3-.3.5-.1a48.2,48.2,0,0,1,5.1,4.1,39.7,39.7,0,0,1,2.2-5.3c.1-.1.3-.2.4-.1a39.7,39.7,0,0,1,5.8,4,38.7,38.7,0,0,1,2.5-5.5.4.4,0,0,1,.5-.2,52.4,52.4,0,0,1,5,4.4l2.2-5.1c.1-.1.3-.2.4-.1l4.4,4.2L90,39.9c.1-.2.3-.2.5-.1l5.7,3.8c.7-1.7,1.5-3.5,2.3-5.2.1-.2.3-.3.4-.2l4.8,3.8c.9-1.8,1.6-3.6,2.3-5.4a.4.4,0,0,1,.5-.2,29.8,29.8,0,0,1,4.4,4.3l3.5-5.8c.1-.2.4-.1.5,0a35.1,35.1,0,0,1,2.4,6.1,28.5,28.5,0,0,0,5.3-5.1c.1-.2.5-.1.5.1a30.8,30.8,0,0,1-.9,8.5,16.4,16.4,0,0,0,2.6-5.1c0-.1-.1-.3-.1-.4C124.8,31.2,116,33.9,111.4,35.1Z"/>
                  <path class="cls-5" d="M122.6,36.8a30.8,30.8,0,0,1-5.3,4.9c-.2.1-.4,0-.4-.2a30.1,30.1,0,0,0-2.3-5.9c-1.1,1.9-2.2,3.8-3.5,5.7a.2.2,0,0,1-.3,0h-.1a33.5,33.5,0,0,0-4.3-4.1c-.7,1.9-1.5,3.7-2.3,5.5-.1.2-.3.3-.5.1l-4.7-3.8c-.8,1.8-1.6,3.5-2.3,5.3a.4.4,0,0,1-.5.1l-5.7-3.9c-.9,1.9-1.7,3.7-2.4,5.6a.4.4,0,0,1-.5.2L83.2,42c-.8,1.6-1.5,3.3-2.2,5a.3.3,0,0,1-.4,0c-.1.1-.2.1-.2,0-1.7-1.3-3.2-2.8-4.9-4.2A41.1,41.1,0,0,0,73,48.5c0,.1-.3.2-.5.1a45.7,45.7,0,0,0-5.7-4.1,34.9,34.9,0,0,0-2.2,5.3c-.1.2-.4.3-.5.2s-3.3-2.9-5.1-4.3c-.8,1.8-1.6,3.6-2.3,5.4,0,.2-.3.2-.5.1l-4.4-4.5c-.9,1.8-1.7,3.7-2.7,5.4a.3.3,0,0,1-.6.2,27.2,27.2,0,0,0-5.3-4.2c-1,1.7-2.4,3.3-3.1,5.2-.1.2-.4.3-.5.2l-5-4.9c-1.1,2-2.2,4-3.2,6.1-.1.2-.3.3-.4.1-2-1.5-3.9-3.3-5.8-5a54.8,54.8,0,0,0-2.3,5.6.4.4,0,0,1-.5.2l-5.6-4.7c-.6,1.9-1.3,3.8-2,5.6a.4.4,0,0,1-.5.2,55.8,55.8,0,0,1-6.4-4.4,38.6,38.6,0,0,0,.2,7.6l1,.8c2.1-2.8,6.3-2.7,9.5-3.2,4.9-.6,9.8-1.4,14.7-2.1q26-3.7,51.7-8.6l13-2.4c4.2-.8,8.3-1.8,12.6-2.5s6.6-.5,8.5,2.3a4.4,4.4,0,0,1,.6,3.2l1.4-1.4h0c.3-1.3.7-2.5,1-3.8A31.7,31.7,0,0,0,122.6,36.8Z"/>
                  <g>
                    <path class="cls-6" d="M69.9,16.5C67.9,10.9,64,1.7,57,2.9s-7.9,10.7-7.9,17c3.2-2.2,7.2-2.9,10.9-3.7S66.8,15.1,69.9,16.5Z"/>
                    <path class="cls-6" d="M77.7,37.6c-.5-.9-.9-1.9-1.4-2.9a49.1,49.1,0,0,0-27.7,4.4c-.1.9-.3,1.8-.4,2.7,5.9-.7,11.8-1.5,17.6-2.4C69.8,38.9,73.8,38.2,77.7,37.6Z"/>
                    <path class="cls-6" d="M10.5,49c5-.3,10-.8,14.9-1.4,20-2.2,39.9-4.9,59.7-8.3,7.7-1.3,15.4-2.7,22.9-4.5,3.7-.8,7.4-2.4,11.1-2.5a6.3,6.3,0,0,1,6.1,3.4,5,5,0,0,0-1-2.4c-2.6-3.3-8.5-1.4-11.9-.7q-28.5,5.7-57.5,9.6c-9.8,1.3-19.6,2.4-29.4,3.4L10.9,47,8,47.2H7.7a16,16,0,0,0-2.9.5,5.4,5.4,0,0,0-3.1,1.8,2.5,2.5,0,0,0,0,2.4C2.6,48.8,7.7,49.2,10.5,49Z"/>
                    <path class="cls-6" d="M113.2,42.1a35.5,35.5,0,0,0-6.4,1l-6.7,1.3c-15.5,3-31,5.8-46.5,8.3-7.8,1.3-15.5,2.5-23.3,3.6L18.4,57.9c-2.9.4-7,.5-9,3L11,62c8.7,5.3,19,6.1,28.9,5.6l5.9-.4,2-.5a40.7,40.7,0,0,0-6,.6,46.9,46.9,0,0,1,6.5-1.4,35.3,35.3,0,0,0-7.2.8A56.5,56.5,0,0,1,48.2,65a51.9,51.9,0,0,0-7.9,1.2A54.4,54.4,0,0,1,47.9,64a44.9,44.9,0,0,0-8.1,1.7,37.8,37.8,0,0,1,8.1-2.4,39.1,39.1,0,0,0-9,2,49.5,49.5,0,0,1,8.5-2.7A37.8,37.8,0,0,0,38,64.8a43.9,43.9,0,0,1,8.7-2.7,31.3,31.3,0,0,0-9.5,1.8,60,60,0,0,1,9.2-2.6l-9.7,1.2-4.3,1.1-4.2,1.1-1.8.5a4.2,4.2,0,0,0-1.2.3c-.8.5-.6,1.1.4,1.2s.1.3,0,.2A1.6,1.6,0,0,1,24,65.8c0-.1,0-.2.1-.2,6.1-1.9,12.4-3.6,18.7-5.1,11.4-2.8,22.9-5,34.5-6.7,5.7-.8,11.4-1.5,17.1-2l8.9-.8c2.4-.1,4.8-.4,7.1.3a.3.3,0,0,1,.1.6l-2.7,1.8c-.2.1-.4-.1-.2-.3l1.9-1.6c-2.8-.5-5.6-.1-8.4.1s-6.6.5-9.8.9l-3.2.3,8.4-.6c-3.4.6-6.7,1.3-10,2.1a59.9,59.9,0,0,1,9.5-.4,34,34,0,0,0-9.5,1.3,46.1,46.1,0,0,1,9.1-.1,34.8,34.8,0,0,0-9.6.9,45.1,45.1,0,0,1,9-.1,47,47,0,0,0-9.2.9,39.3,39.3,0,0,1,8.4-.2,44.8,44.8,0,0,0-8.2,1,41.5,41.5,0,0,1,7.9-.2A39.7,39.7,0,0,0,86.1,59a58.3,58.3,0,0,1,7.2-.6,27.4,27.4,0,0,0-7,1.6,40.1,40.1,0,0,1,5-.7l5.3-1.4c7.6-2.2,16.1-4.4,22.2-9.7a3.7,3.7,0,0,0-.3-3.8A6.3,6.3,0,0,0,113.2,42.1Z"/>
                  </g>
                  <path class="cls-7" d="M25,65.4c-.1.1-.3.1-.3.3a.3.3,0,0,0,0,.4c.8,1.4,2.6,1.6,4.2,1.7l5,.3c4.6.3,9.3.6,13.8-.2a3.6,3.6,0,0,0,1.7-.7c1.3-1.2.3-3.6.2-5.1s-1.1-2.1-3.2-1.9a83.8,83.8,0,0,0-13.9,2.9Z"/>
                  <path class="cls-7" d="M84.4,58.5a2.6,2.6,0,0,0,.8,1.9,2.4,2.4,0,0,0,1.9.2l4-.7c3.8-.7,7.8-1.3,11.4-2.9a23.9,23.9,0,0,0,7.4-4.9c.1,0,.2-.1.2-.3l-.3-.3a6.9,6.9,0,0,0-3.2-.4c-3.6,0-7.2.8-10.7.9a40,40,0,0,0-9.2,1.2c-.9.2-1.6.3-2,1.2S84.3,57.2,84.4,58.5Z"/>
                  <path class="cls-8" d="M54.9,4.3A8.6,8.6,0,0,0,52,7.4a10.5,10.5,0,0,0-1.4,2.8c-1,2.6-.9,5.6-.7,8.5a24.6,24.6,0,0,1,3.8-1.4,13,13,0,0,1,.5-6.5A6.1,6.1,0,0,0,53,14.2a8.6,8.6,0,0,1,.9-4.7,6.9,6.9,0,0,0-1.4,3.9c-.3-1.7.5-3.3,1.3-4.8a5.8,5.8,0,0,0-1.7,3.6,12.8,12.8,0,0,1,2.4-5.8,5.2,5.2,0,0,1,5.6-1.8A4.7,4.7,0,0,0,54.9,4.3Z"/>
                  <g>
                    <path class="cls-9" d="M124.7,32.2c-2.2-2.2-5.8-2-8.6-1.6-5.5.9-10.9,2.2-16.4,3.2-7.1,1.3-14.2,2.6-21.3,3.7a89.1,89.1,0,0,0-3.8-12.1c-1.4-4-2.7-8.1-4.5-12S63.8,1.2,57.2,2.1s-8.8,8.2-9,13.8.2,8.8,0,13.2-1,8.6-1.5,12.9c-6.4.8-12.7,1.5-19.1,2.1L8.9,45.7,6.8,46c-2.2.1-5.1.6-6.2,2.7s.5,4.8,1.8,6.6C7.2,62.4,15,66.6,23.2,68.2s18.8.9,28.1-.3c.1.8.3,1.6.4,2.3h0a2.9,2.9,0,0,0,.1,1.3l.6,1.2.9,1.2.6.5h0c1,2.2,2.1,4.3,2.9,6.6a13.6,13.6,0,0,1-1.2,1.2c-.8.7-2.8,1.4-3.1-.3h-.1v.2a.7.7,0,0,0,.1.5,2.4,2.4,0,0,0,2.6,1.6,5.5,5.5,0,0,0,2.3-1.1c.3,1,.5,2.1.8,3.1a4.6,4.6,0,0,0,1.7,2.6,19,19,0,0,0,6.5,3.3,6.9,6.9,0,0,0,3.2.4l1.5-.2a7.6,7.6,0,0,0,2.1-.3A5.8,5.8,0,0,0,76,90.9c2.2-1.5,4.2-2.9,5.6-5.1a5.1,5.1,0,0,0,1-2.9c0-1.3-.2-2.5-.2-3.8a5.9,5.9,0,0,0,3.2.6,2.4,2.4,0,0,0,2.1-2.3,1.1,1.1,0,0,0-.1-.5h-.1c.1,1.7-1.9,1.6-2.9,1.2a9.8,9.8,0,0,1-2.2-1.3c.2-2.2.6-4.4.8-6.6h0a2.1,2.1,0,0,0,.4-.6,6.9,6.9,0,0,0,.5-1.3,6.8,6.8,0,0,0,.2-1.4,3,3,0,0,0-.2-1.3h0c-.2-1-.3-2-.4-3l4.1-1c5.3-1.3,10.5-2.7,15.8-4.3s9.3-2.9,13.4-5.6a21.6,21.6,0,0,0,7.7-8.7C126.1,39.7,127.4,35,124.7,32.2ZM75.8,33.4l-1.2-.2c-1.1-1.5-2.3-2.9-3.5-4.3h-.3a30.1,30.1,0,0,0-.9,4.1l-2.7.2c.8-3,1.4-5.9,2.3-8.8a49.8,49.8,0,0,1,4.9,5.4C74.8,31,75.3,32.2,75.8,33.4Zm-1.6-.2L70.1,33l.9-3.7C72.1,30.5,73.1,31.9,74.2,33.2ZM57,2.9c7-1.2,10.9,8,12.9,13.6-3.1-1.4-6.6-.9-9.9-.3s-7.7,1.5-10.9,3.7C49.1,13.6,49.5,4.2,57,2.9Zm8.1,13.8c-.1.7-.3,1.3-.4,2a3.6,3.6,0,0,0-.2,1.1,3.8,3.8,0,0,1-.3,1c-.9-1.3-1.9-2.6-2.9-3.8Zm-8.2,1.2a21.9,21.9,0,0,0-1.7,4.9c-.8-1.2-1.6-2.4-2.3-3.6Zm-7.8,3.3v-.4l3.5-1.6a27,27,0,0,0,2.5,4c.1.1.3.1.3-.1a36.8,36.8,0,0,1,1.8-5.3l2.2-.4a8.6,8.6,0,0,1,1.7-.3c.9,1.4,2,2.7,3,4.1a.2.2,0,0,0,.3,0,1.4,1.4,0,0,0,.2-.7l.3-1.3c.2-.8.3-1.7.5-2.5a11.3,11.3,0,0,1,5,1.3l1.7,5.1c-1.1-1.3-2.3-2.7-3.5-3.9s-.5-.2-.6.1c-.8,3.1-1.7,6.2-2.6,9.2a24.8,24.8,0,0,0-5.6-8.3.2.2,0,0,0-.4.1,35.3,35.3,0,0,0-2.6,9.5,78.9,78.9,0,0,1-5.1-7.7c0-.1-.2-.1-.2,0a52.8,52.8,0,0,0-2.4,7.7Zm0,10.6,1.2-3.9c.3-.9.5-1.8.7-2.6a5.6,5.6,0,0,0,.4-1.2c.1-.3.1-.9.2-1.2s.1-.3.3.1l.6,1.2,1.4,2.4c.9,1.4,1.8,2.9,2.8,4.2s.5.1.5-.1a25.4,25.4,0,0,1,2.5-9.8,34,34,0,0,1,5.5,8.6c.2.3.6.2.6-.1.8-3.1,1.6-6.3,2.7-9.3,1.4,1.8,2.8,3.5,4.3,5.2L74,28.8A34.5,34.5,0,0,0,69.5,24c0-.1-.2-.1-.2,0A72.8,72.8,0,0,0,67,33.2H65.2a53.5,53.5,0,0,0-4.9-7.8s-.2,0-.2.1c-1.1,2.8-.8,5.9-1.4,8.9l-1.2.3a83.9,83.9,0,0,0-5.6-7.7c0-.1-.1,0-.2,0a60.4,60.4,0,0,0-2.8,8.5C49,34.3,49,33.1,49.1,31.8Zm12.2-1.3c-.1-.1-.2,0-.2.1a13.2,13.2,0,0,0-.4,3.4l-1.8.4c.7-2.8.3-5.8,1.4-8.5a71.7,71.7,0,0,1,4.6,7.5H63.5C62.9,32.5,62,31.5,61.3,30.5Zm1.9,3.1-2.3.4c.1-1,.2-2.1.4-3.1ZM48.8,37.3A37.4,37.4,0,0,1,50,32.8c.5-1.8,1.2-3.6,1.9-5.4,1.9,2.4,3.6,4.9,5.3,7.5l-1.8.5A20.9,20.9,0,0,1,54,33.7a15.6,15.6,0,0,1-1.6-2h-.3c-.3,1.1-.7,2.1-1,3.1a22.1,22.1,0,0,0-.5,2.5l-1.9.9A2.8,2.8,0,0,1,48.8,37.3Zm6.3-1.8L51,37.1c.2-.7.3-1.5.5-2.3a27.6,27.6,0,0,1,.8-2.7A31.7,31.7,0,0,0,55.1,35.5Zm-6.5,3.6a49.1,49.1,0,0,1,27.7-4.4c.5,1,.9,2,1.4,2.9-3.9.6-7.9,1.3-11.9,1.8-5.8.9-11.7,1.7-17.6,2.4C48.3,40.9,48.5,40,48.6,39.1ZM1.7,52a2.5,2.5,0,0,1,0-2.4,5.4,5.4,0,0,1,3.1-1.8,16,16,0,0,1,2.9-.5H8l2.9-.2,14.5-1.4c9.8-1,19.6-2.1,29.4-3.4q29-3.9,57.5-9.6c3.4-.7,9.3-2.6,11.9.7a5,5,0,0,1,1,2.4,6.3,6.3,0,0,0-6.1-3.4c-3.7.1-7.4,1.7-11.1,2.5-7.5,1.8-15.2,3.2-22.9,4.5-19.8,3.4-39.7,6.1-59.7,8.3-4.9.6-9.9,1.1-14.9,1.4C7.7,49.2,2.6,48.8,1.7,52Zm82,12.6-.2-.2h0a15.5,15.5,0,0,1-.4-2.1c-.1-.2-.1-.4-.2-.6s-.1-.4-.1-.6-.1-.4-.2-.6V60c-.1-.6-.1-1.2-.2-1.8a1.3,1.3,0,0,0-.1-.6V56.5c.1.4.1.7.2,1.1s.1-.6.2-.9v.9A32.8,32.8,0,0,0,83.7,64.6Zm-32-.3c.1.4.1.7.2,1.1v1.2a24.3,24.3,0,0,0,0,2.7h0a29,29,0,0,0-.9-5.9,14.6,14.6,0,0,1-.5-2c.3.6.7,1.1,1.1,1.8S51.7,63.9,51.7,64.3Zm30.1-4.4a11.1,11.1,0,0,0-.2-1.9.8.8,0,0,1,.2.4c.1.4.2,1,.4,1.6s.1.7.2,1.1.1.4.2.6a1.3,1.3,0,0,0,.1.6,2.9,2.9,0,0,0,.2.9,8.5,8.5,0,0,1-.8-2.2l-.3-1v-.2Zm.5-.7v-.7a3.4,3.4,0,0,0,.1,1A.4.4,0,0,1,82.3,59.2ZM53.6,73.7a4.4,4.4,0,0,1-.8-1.1,2.4,2.4,0,0,1-.6-1.1,5,5,0,0,1-.2-1.2c0-.2.1-.4.1-.6a4.3,4.3,0,0,1,.1-.5,8.8,8.8,0,0,0,.3-2.1,7.6,7.6,0,0,0-.1-1.6c0-.5-.1-.8-.1-1a.6.6,0,0,0-.1-.4v1.4a10.1,10.1,0,0,1-.4,3.6h0c.2-.9.3-1.7.4-2.5V65.4a5.2,5.2,0,0,1-.2-1.1c-.1-.2-.1-.4-.2-.6a4.1,4.1,0,0,0-.1-1.1,3.5,3.5,0,0,0,.6,1.4,2.4,2.4,0,0,1,.1-2.3h.1a3.9,3.9,0,0,1,.8-1,.8.8,0,0,1-.2.5,6.4,6.4,0,0,0-.4,2.4,10.9,10.9,0,0,0,.1,1.8c0,.4.1,1,.6,1.1h0a2.3,2.3,0,0,1,.4-1,5.4,5.4,0,0,0,0,1.8,5.6,5.6,0,0,0,.7,1.8,2.2,2.2,0,0,0,.5.8l.9.7a6.2,6.2,0,0,0,2.3.7l-2.1-1a.1.1,0,0,0-.1-.1l.8.3a8.8,8.8,0,0,0,4.1.1c-3.9-.2-4.7-1.1-5.1-1.9a2.4,2.4,0,0,0,1.7.9h0a2.5,2.5,0,0,0,1.5.5,4.3,4.3,0,0,0,1.6-.1H59.1l-.8-.2a4.3,4.3,0,0,0,1.6,0,4.2,4.2,0,0,1-2.2-.5h1.7a4.7,4.7,0,0,1-1.5-.6,6.2,6.2,0,0,0,3.3-.4,4.6,4.6,0,0,0,1.6-1.1.1.1,0,0,1-.1.1,2,2,0,0,1-1,1.2l-1.1.3h0l1.1-.3a2,2,0,0,0,1.2-1.2c.1-.2.1-.4.2-.5s.3-.9.5-1.3c.4,1.1-.4,2.4-1.2,3.1a3.3,3.3,0,0,0,1.5-2.8c.6,1.2-.5,2.7-1.3,3.5a3.6,3.6,0,0,0,1.8-3.1c.4.9-.2,2-.5,2.8a2.2,2.2,0,0,0,.7-.9l.2.3a1.3,1.3,0,0,1-.1.6.6.6,0,0,1-.1.4v.4c0,.2.3.4.3.7h.1l.7-.6a1.9,1.9,0,0,0-.2.7,2.6,2.6,0,0,0-.3,1,.4.4,0,0,0-.1.3h0l.2-.2.5-1c0-.1.1-.2.1-.3h0v1.7a9.2,9.2,0,0,0,0,3.3.1.1,0,0,1-.1-.1,7.9,7.9,0,0,0-4,1h0a3.3,3.3,0,0,0-.5-1.2l-.2-.3h0a.8.8,0,0,0,.1.4,5.3,5.3,0,0,1,.3,1.1v.2h-.3v-.2a5.9,5.9,0,0,0-.4-.8l-.7-.9a.3.3,0,0,0-.1-.2l.5.3a1.7,1.7,0,0,0-.6-.6l-.3-.2-.3-.3-.4-.3h-.2l.2.2.3.4.3.2.3.3h.1a.4.4,0,0,1,.1.3l.5,1.1.3.7v.4h0l-.3.2a5.7,5.7,0,0,0-1.2-1.8v-.2a1.9,1.9,0,0,0-.6-.7l-.3-.2L58,74l-1.1-.5h-.5l.4.2.5.3H57l-.7-.2-.6-.3-.9-.3h.9l-.9-.3-.5-.2-.6-.4a3.5,3.5,0,0,1-.7-1.2,2.2,2.2,0,0,0,.1.8,2.5,2.5,0,0,0,.4.7l.6.4.5.2h.1l.8.6.6.3.8.2.7.2.6.3-.8-.3L55.5,74l-.7-.2-.5-.3h-.2a.1.1,0,0,0-.1-.1h0a.1.1,0,0,0,.1.1v.2l.5.4.7.3,1.9.4,1,.2.5.3.3.3h0l-.3-.2-.9-.2-.3-.2-1.5-.3a3.4,3.4,0,0,1-1.4-.2.9.9,0,0,1-.6-.3A1,1,0,0,1,53.6,73.7Zm9.1-13.1h0Zm3.8,14.6h0a.4.4,0,0,1,.1.3h0Zm.4-.2v.2l.5.6-.4-.2A1.4,1.4,0,0,1,66.9,75Zm1.8-1.1a3.6,3.6,0,0,0,.4.9,18.7,18.7,0,0,1-.4-3.2c.3,1,.5,2.1.8,3.1s.2.8.5.9a.9.9,0,0,0,.9-.1,2.5,2.5,0,0,0,.9-2.2v1.2a.8.8,0,0,0-.1.4h0a5.4,5.4,0,0,0-1.5,1.5,1.4,1.4,0,0,0-.5.9l-.7-.7-.7-.4-1-1.2a5.9,5.9,0,0,1-.4-.8c0-.2-.1-.4-.1-.6s.6,1.6,1.4,1.8S68.9,74.5,68.7,73.9ZM76.4,78c.1.1.1.1.1.2V78a2.8,2.8,0,0,1,1.3-.3H78a2,2,0,0,1,.2,1l-.2-.2c-.1-.3-.4-.7-.7-.6h-.2c-.4.2-.3.7-.3,1s-.7-.7-1.1-.4a1.8,1.8,0,0,0-.3,1.3c-.2-.3-.4-.8-.7-.9l.4-.3c0,.1.1.1.1.2v-.2h.1Zm3.7-2.8c0-.5.1-1,.1-1.5a4.5,4.5,0,0,1,.8-2.3l.4-.2a4.8,4.8,0,0,0-.7,2,8.8,8.8,0,0,0,0,2.3Zm0-1.7a8.6,8.6,0,0,0-.1,1.6l-.5-.3a5.8,5.8,0,0,1,.6-3l.5-.3A3.7,3.7,0,0,0,80.1,73.5Zm-2.8,10a.4.4,0,0,1-.1-.3.8.8,0,0,1-.1-.4c0-.4,0-.7-.2-.9s.3-.1.4-.3.1-.2.2-.4h.4a.4.4,0,0,1,.1.3c0,.3-.1.6-.1.8l-.3.8-.2.3Zm-20-2.4a18.8,18.8,0,0,1,4.2-3.8,5.8,5.8,0,0,1,5.1-.4h0a6.6,6.6,0,0,0-5.3.7,21.2,21.2,0,0,0-3.9,3.4Zm.5-4a14.2,14.2,0,0,1,.8,1.8l-.5.6a9.2,9.2,0,0,0-.9-2.8A6.6,6.6,0,0,0,56,75h.4A4.1,4.1,0,0,1,57.8,77.1Zm-.9-2h.5A6.9,6.9,0,0,1,59,78.4l-.4.4a15.9,15.9,0,0,0-.7-2A3.7,3.7,0,0,0,56.9,75.1Zm4.2,5.2h.4l.2-.2h1.1c-.1.2-.1.3-.2.4l.3-.3.2-.2h1c0,.1-.1.2,0,.4a.5.5,0,0,1,.2-.4h.5l1.4.3a1.9,1.9,0,0,0-.3,1c-.1-.4-.3-.9-.6-1s-1,.5-1.1,1.1a2,2,0,0,0-.6-1.1c-.5-.2-.8.2-.9.6s-.2-.7-.6-.8-.7.4-.8.8h0A1.2,1.2,0,0,1,61.1,80.3Zm-2.8.3c-.1.1-.2,0-.1,0a9.3,9.3,0,0,1,2.3-2.1,4.5,4.5,0,0,1,2.7-1h0A9,9,0,0,0,58.3,80.6Zm9.8-.2a3.6,3.6,0,0,0-.2,1,4.6,4.6,0,0,0-.3-.9Zm-6.5-2.1h0A18.8,18.8,0,0,0,59.3,80a20,20,0,0,0-1.9,2.2.1.1,0,0,1-.1-.1C58.4,80.7,59.8,79,61.6,78.3Zm-1.9,2.9c.4,1,.9,2.1,2,2.2h.2a3.1,3.1,0,0,0,.2.8,7.1,7.1,0,0,0-1.4-1,2.3,2.3,0,0,1-1-1.2,1.4,1.4,0,0,1-.2-.6Zm1.8,1.4a1.7,1.7,0,0,1-.1-.7,4.3,4.3,0,0,1,.1-.5.7.7,0,0,1,.1-.5c.1-.4.5-.6.7-.2s.1.5.3.7h-.1a3.7,3.7,0,0,0,0,1.8h-.4A1,1,0,0,1,61.5,82.6Zm.7,1h.4l.3.2.5.3a.9.9,0,0,0,.2.8,1.5,1.5,0,0,1-.1.7h-.3a3.4,3.4,0,0,1-.9-1.4c0-.1-.1-.2-.1-.4Zm.6-.6a2.9,2.9,0,0,1,.1-1.6,1.4,1.4,0,0,1,.2-.7c.3-.2.6.2.7.4a6.5,6.5,0,0,1,.4,1.3,1.7,1.7,0,0,0,.1.7.1.1,0,0,1-.1.1C63.9,84,63,83.6,62.8,83Zm1,1,.7-.4a.8.8,0,0,0,.4.4,1,1,0,0,0,.2.7,2.8,2.8,0,0,1-.1.9c0,.1,0,.3-.2.3s-.3-.3-.4-.4S63.5,84.5,63.8,84Zm.7-2.5c.1-.3.1-1,.6-.8s.4.4.5.7h0c.1.6.7,2.1-.4,2.2S64.5,82.1,64.5,81.5Zm.8,2.5h0a1.6,1.6,0,0,0,.8-.5l.4.4a1.1,1.1,0,0,0,.2,1.2v.3c0,.2.1.8-.3.6a3.4,3.4,0,0,1-.8-.9C65.4,84.8,65.1,84.3,65.3,84Zm.9-2.5c.1-.3.1-.9.4-1.1h.6a6.1,6.1,0,0,1,.4.6h0a7,7,0,0,1,.3,1.4,1,1,0,0,1-1.1,1.1h-.1C66.1,83.4,66.2,82,66.2,81.5Zm.6,2.5h.3a1,1,0,0,0,1-.6c.1,0,.1.1.1.2a2.8,2.8,0,0,0,.5,1.7c0,.4,0,.7-.3.8s-.8-.2-1-.5A2.3,2.3,0,0,1,66.8,84Zm1.5-2.7c0-.3,0-.8.3-1h.2c.4-.1.7.5.8.8h0l.3,1.1v.5c0,.5-.4,1.1-1,1l-.4-.2h0A3.1,3.1,0,0,1,68.3,81.3Zm.3,2.5h.6a1.9,1.9,0,0,0,.9-.5,2.4,2.4,0,0,0,.2.8c0,.4.1.8.1,1.2h0c0,.3-.1.6-.4.6s-.7-.3-.8-.5A2.8,2.8,0,0,1,68.6,83.8Zm.6-3.8.2-.3a1.3,1.3,0,0,0,.5-.9,2.7,2.7,0,0,0,.7.8l-.4.2a2.3,2.3,0,0,0-.4,1.1C69.7,80.5,69.5,80.1,69.2,80Zm2.7-.1a2.2,2.2,0,0,0-.1.9,1.7,1.7,0,0,0-.6-1Zm2-.7a3.7,3.7,0,0,0-.1,1.1,2.2,2.2,0,0,0-.5-.8Zm-3.4,5a2.5,2.5,0,0,1-.1-.8l1,.2.6-.3a4.1,4.1,0,0,1-.1,1.9c-.1.2-.3.7-.6.7s-.5-.2-.6-.4v-.3C70.6,84.9,70.5,84.5,70.5,84.2Zm1.1-1a1.1,1.1,0,0,1-1.4-.7V82a3.7,3.7,0,0,1-.1-1.1h0c0-.4.1-.9.5-.9s.7.5.9.8S72.3,82.8,71.6,83.2Zm.6-.3h0a1.3,1.3,0,0,0,1.2.3h.3a2,2,0,0,1-.1,1.7c-.1.3-.3.8-.7.8a.7.7,0,0,1-.6-.7A3.1,3.1,0,0,0,72.2,82.9Zm1.5-.3h-.1a1,1,0,0,1-1.4-.7,7.6,7.6,0,0,1-.1-1.5h0a1.7,1.7,0,0,1,.1-.7l.8-.2a2.2,2.2,0,0,1,.5.8C73.7,80.9,74.2,82.2,73.7,82.6Zm.3.2c.1-.2.2-.3.2-.5a1.5,1.5,0,0,0,.8.2h.1a1.1,1.1,0,0,1,.1,1.1,2.2,2.2,0,0,1-.5,1.1c-.3.4-.4-.1-.5-.4a.8.8,0,0,0-.1-.4A1.4,1.4,0,0,0,74,82.8Zm1.2-.7c-1.2.5-1.1-1.4-1.1-2h0c0-.3,0-.7.2-.8s.7.4.8.7S75.8,81.9,75.2,82.1Zm.3.3.3-.5a1.1,1.1,0,0,0,.8.2c.4.4.1,1.1-.1,1.6s-.4.7-.6.3a1.6,1.6,0,0,1-.3-.8A1.9,1.9,0,0,0,75.5,82.4Zm.4-.9h-.1a1.7,1.7,0,0,0-.1-.7,5.7,5.7,0,0,1,0-1.3v-.3c.1-.2.2-.4.4-.4s.5.4.5.6a3.5,3.5,0,0,1,.6,1.4C77.3,81.3,76.5,82.2,75.9,81.5Zm1.6-.6a2.6,2.6,0,0,0-.5-1.7h-.1a1.3,1.3,0,0,0,.1-.6c.1-.3,0-.4.4-.4s.3.1.5.4a1.9,1.9,0,0,1,.2.7l.3.6C78.4,80.3,78.2,81.2,77.5,80.9Zm.7.2.3-.3a2.9,2.9,0,0,0,1.1-2.9H80a3.4,3.4,0,0,1-.1,1,2.2,2.2,0,0,1-.6,1.5l-1,1.4v-.3A1.1,1.1,0,0,0,78.2,81.1Zm-.1-7.7c0-.1,0-.1.1-.2h0A.1.1,0,0,0,78.1,73.4Zm-.4.8h-.3v-.2h0v.2H77a1.1,1.1,0,0,1,.1-.5l.3-.5.2-.3a.8.8,0,0,0,.2-.4l.3-.6a.3.3,0,0,1,.1-.2c.1-.1.1-.2.2-.2l.7-.5-.3.4a3,3,0,0,0-.4,1A4.8,4.8,0,0,0,77.7,74.2Zm-.9-.2h-.2c.1-.2.2-.3.2-.4Zm-1.7.6a6,6,0,0,0-2.7.6,3,3,0,0,0-1.8,2A4,4,0,0,1,74,75.1h0a3.9,3.9,0,0,0-2.1.8,2.3,2.3,0,0,0-.7.7,2.1,2.1,0,0,1,1.2-.5h.1a2.3,2.3,0,0,0-1.2.6l-.3.4.5-.3h.1c-.4.2-1.3.9-.7,1.3s0,.1,0,.1h0a.9.9,0,0,1-.5-1.2,3.6,3.6,0,0,1,1.7-2.1,5,5,0,0,1,3-.5Zm-2.9,0h-.1a2.8,2.8,0,0,0,.1-.9h.1C72.3,74.1,72.2,74.4,72.2,74.6Zm-6,.8h-.3a16.2,16.2,0,0,1,.1-2.2A8.2,8.2,0,0,0,66.2,75.4Zm-7.9-.7h0Zm-3,.7a11.4,11.4,0,0,1,1.4,3.9,21.2,21.2,0,0,0-2.5-4.7l.4.2h.9c1.5,1,2.1,2.8,2.5,4.5h0l-.5.7-.3.4a13.6,13.6,0,0,0-1.9-5.2Zm2.9,8.1a.7.7,0,0,1,.1.5,5.6,5.6,0,0,0-.4-1.2h.2A1.9,1.9,0,0,1,58.2,83.5Zm23.7-1.4a6.7,6.7,0,0,1-.3,1.8v-.4a4.5,4.5,0,0,0-.1-1.1h0c0-.2,0-.3-.1-.4h0v.4a2.4,2.4,0,0,1-.4,1.2c0,.1-.1.3-.1.4a.8.8,0,0,0-.2.4l-.7.7-.5.9a2.7,2.7,0,0,1-.8.7,2.4,2.4,0,0,0,.9-.6,4.1,4.1,0,0,0,.5-.9l.7-.7a.8.8,0,0,0,.2-.4c.1-.2.1-.3.2-.4a4.4,4.4,0,0,0,.2-1,1.1,1.1,0,0,1,0,.8,1.2,1.2,0,0,1-.3.9c-.2.3-.3.5-.5.6v.3l.2-.2c.1-.2.3-.3.6-.5s.1-.2.1-.3h0l.4-.4.3-.4a4.3,4.3,0,0,1-.6,1.8,15.9,15.9,0,0,1-5.3,5H76l.3-.4.5-.4h.1l.9-.6a3.5,3.5,0,0,0,1.2-1l.5-.6.4-.7.3-.4a2.3,2.3,0,0,0,.7-1,12.1,12.1,0,0,1-1.6,1.6l-.8.8.9-.6c.1-.1.3-.2.4-.4a7.4,7.4,0,0,1-2.1,2.2l-.6.5.7-.7.3-.4-.4.3-.9.8-.6.6-.6.7-.3.3-.7.4-1.7.5h-.6l-2.4.3a5,5,0,0,1-2.1-.1h-.2l-.4-.2-.8-.4-.7-.4-1.1-.5-.5-.2.4.2,1.1.6.8.4.4.3-.7-.2a14.2,14.2,0,0,1-6.4-3.4,3.7,3.7,0,0,1-.8-1.5,1,1,0,0,0,.4.5l.5.5.6.5,1,.8.8.5.3.2-.3-.2-.7-.6a2.7,2.7,0,0,0-.8-.7,3.4,3.4,0,0,1,1.2.6l.4.4.3.3a.5.5,0,0,0,.4.2l.7.4-.7-.5-.6-.5a2.1,2.1,0,0,1-.4-.6l-.4-.6-.5-.5.5.2.5.5-.4-.6-.6-.3-1-.7-.6-.7v-.2h0c0,.1,0,.1.1.2a2,2,0,0,0,.4.8l.9.6.6.8.4.5-.5-.4-1-.5-.7-.6-.5-.7-.3-.8-.2-.5v-.5a6.8,6.8,0,0,0-.2-1.4c0-.2-.1-.4-.1-.6l1.1-1a4.4,4.4,0,0,0,.9,1.8l1.2.8.9.7h0c.2.3.9,1.4,1.3.9a.7.7,0,0,0,.1-.5l.5.7c.3.2.6.4.8,0a1.1,1.1,0,0,0,.2-.8,2.5,2.5,0,0,0,1.1,1.2c.5.2.6-.3.5-.9a2.2,2.2,0,0,0,.6.7c.7.6,1.4.2,1.4-.4l.7.5c.3.2.7.3.9,0a.1.1,0,0,0,.1-.1c.1,0,.1,0,.1.1a1,1,0,0,0,1-.3,1.6,1.6,0,0,0,.4-.7.8.8,0,0,0,1.5,0,2,2,0,0,0,.4-.8c.1.5.3,1,.8.6a2.3,2.3,0,0,0,.7-1.4h0a.9.9,0,0,0,.3.7c.3.3.6,0,.8-.3a2.4,2.4,0,0,0,.3-.7l.2.3c.2.2.4.1.6,0a3.6,3.6,0,0,0,.4-.9v-.3l.7-.9.9-1.1A5,5,0,0,0,80,78l.7.3.7.3a4.1,4.1,0,0,0,.1,1.1,6.9,6.9,0,0,0,.2,1.3,1.4,1.4,0,0,0,.2.6Zm-.1-1.7a.6.6,0,0,0-.1-.4,5.1,5.1,0,0,0-.2-1.3l.3.2Zm.2-4.9a11.4,11.4,0,0,1,.2-4.1h0a13,13,0,0,0-.4,4.8l-1.1-.7A7.3,7.3,0,0,1,81.9,71h.3l.3-.3h.1l.4-.3A18.4,18.4,0,0,0,82,75.5Zm2-8.8a6.1,6.1,0,0,1-.3,1.3,9.3,9.3,0,0,1-.4,1.3l-.4.5-.5.5-1.3.6-1.3.7-.3.2-.7.5-.3.4a5.2,5.2,0,0,1,.6-1.3,6.7,6.7,0,0,1,1.8-1.6l.9-.4.5-.3c0,.1-.1.2-.2.3l-.7.4-.7.4a1.6,1.6,0,0,0-.6.8,3.4,3.4,0,0,1,1.5-.9l.7-.4.2-.2h.1a.5.5,0,0,0,.2-.4l.3-.6v-.5a1,1,0,0,0,.1-.4,1.1,1.1,0,0,0-.2.4,6.3,6.3,0,0,1-.4.9h-.2l-.7.3-.9.3-.5.3c.2-.2.2-.4.3-.5a1.7,1.7,0,0,0,.2-.5v0l-.3.4-.5.6-.4.3a.5.5,0,0,1-.4.2l-.7.4.6-.7a1.2,1.2,0,0,0,.5-.5,1.9,1.9,0,0,0,.2-.7l-.4.5-.5.4a3.5,3.5,0,0,0-.8,1,.9.9,0,0,0-.1.5h-.1c-.1.1-.1.2-.2.4s-.1.4-.2.6l-.2.3v.3l-.3.5-.4.6H76l.6-1.5a3.1,3.1,0,0,0,.2-.8v-.2h0v.2a1.3,1.3,0,0,1-.3.7c-.1.3-.3.7-.4,1.1a.7.7,0,0,0-.1.5,6.3,6.3,0,0,0-3,.4h0a1.9,1.9,0,0,0-.1-.8,1.9,1.9,0,0,0-.2-.8.3.3,0,0,0-.1-.2h0v.2c.1.2.1.5.2.8v.9a9.1,9.1,0,0,0-1-2.9,6.6,6.6,0,0,0-1.8-2.3c-.1,0-.1-.1-.1-.2l-1.1-.8c-.2,0-.4-.1-.6,0h-.4a.1.1,0,0,0-.1.1h1l.4.3h-.2a1.1,1.1,0,0,0-.8.1,2.1,2.1,0,0,0-1,.9,5.6,5.6,0,0,0-1.1,2,8.6,8.6,0,0,0,0-1.6,3,3,0,0,1,.4-.8,2.5,2.5,0,0,1,.4-.7l.6-.5a1.3,1.3,0,0,0-.8.3l-.5.7a.9.9,0,0,0-.3.6l-.4.2c0,.1-.3.4-.4.3V70c-.1-.1-.2-.2-.1-.4v-.2a2.8,2.8,0,0,0,.1-.9l-.3-.5a3,3,0,0,0,.5-1.5,7,7,0,0,0-.2-3.2,3,3,0,0,0-.8-1.6,5,5,0,0,0-.8-1.2h-.2a.1.1,0,0,0-.1-.1c-.1-.1-.2-.1-.2-.2l-.6-.3-.5-.3h-.6a4.8,4.8,0,0,0-1.7,0h0l1.6.2H59.5a3.8,3.8,0,0,0-1.6.3h.8l-1.5.4-1.3.7A5.9,5.9,0,0,0,54.3,63a1.4,1.4,0,0,0-.2.6v0l.3-.5a6.3,6.3,0,0,1,1.7-1.3,4.5,4.5,0,0,1,1.2-.6h.5A6.9,6.9,0,0,0,54,65.2c-.2.1-.3.3-.4.4a4.3,4.3,0,0,1-.1.5v.2c-.1.1-.2-.1-.2-.1s-.4-1.4-.4-2A16.2,16.2,0,0,1,53,62c.1-.5.5-1,.5-1.4l.9-.7c2.3-1.5,5-2,7.7-2.5l4.7-.8a40.4,40.4,0,0,1,9.2-.8A5.8,5.8,0,0,1,79.8,57l-.5-1.1a10.1,10.1,0,0,1,2.5,3.9v.3a8.4,8.4,0,0,0,.2,1c.1.4.2.9.4,1.5a3.6,3.6,0,0,0,.4.9h-.1c-.2.1-.2.4-.1.6s.2.6-.1.5-.3-.5-.3-.6a3.6,3.6,0,0,1-.2-1.4,11.6,11.6,0,0,0-.4-1.8c0-.3-.1-.9-.4-1h-.1v.7c.1.2.1.9-.2.7h0v.4h-.2c0-.1-.1-.1-.2-.1a6.7,6.7,0,0,0-4.9-3.1H76l1.4.2a4.6,4.6,0,0,1,2,.8l.4.3.2.2v-.2l-.5-.4a4.8,4.8,0,0,0-1.9-1.1L76.1,58H74.5l-.9.2-.5.2h-.7a4,4,0,0,0-1.9,1.1.3.3,0,0,1,.1-.2c0-.1.1-.2.2-.4s.1-.1.2-.2h.1a4.1,4.1,0,0,1,1.2-.9h-.7l-.7.5-.2.2-.2.2-.3.4a1.4,1.4,0,0,0-.2.6c-.1.1-.1.1-.1.2h0a10.4,10.4,0,0,1,.3-1.2.8.8,0,0,0,.1-.4h0c0,.1-.1.2-.2.3a3.3,3.3,0,0,0-.5,1.2,5,5,0,0,0-.2,1.8v1.1a8.2,8.2,0,0,0,.7,3.1,4.6,4.6,0,0,0,1.9,2c-.5-.7-1.4-1.6-1.2-2.5a3.6,3.6,0,0,0,2.6,2.4c-1.1-.6-2.5-1.6-2.3-3a3.2,3.2,0,0,0,2.3,2.2,3.4,3.4,0,0,1-2.1-2.4,2,2,0,0,0,.4.8c.2.2.3.5.6.7l.4.3h.4l1,.3h0a1.6,1.6,0,0,1-.9-.3h-.4l-.4-.3-.6-.6a2.5,2.5,0,0,1-.4-.7,5.2,5.2,0,0,0,1,1.1,7,7,0,0,0,1.9.6,6.1,6.1,0,0,0,3.3-.5,2.5,2.5,0,0,1-1.3.9A4.9,4.9,0,0,0,78,66a4.1,4.1,0,0,1-2,1.2,7.6,7.6,0,0,0,2.5-.9h-.1a4.6,4.6,0,0,1-1.8,1l-1.4.3h-.1a5,5,0,0,0,1.6-.2,5.8,5.8,0,0,0,1.9-1l.8-.9a.4.4,0,0,1,.1-.3.3.3,0,0,0,.1-.2c-.2.8-.7,1.9-4.3,3.2a9,9,0,0,0,3.8-1.2,5.5,5.5,0,0,0,1.7-1.7,4.5,4.5,0,0,0,.3-2.3,6.6,6.6,0,0,0-.5-1.5l.3.2h0a.3.3,0,0,0,.1-.2c0-.1-.1-.3,0-.2h.1a2.2,2.2,0,0,0,.1-.8c0-.2-.1-.5,0-.6s.1,0,.1.1a3.3,3.3,0,0,1,.4,1.3,10,10,0,0,1,.2,1.6,2.9,2.9,0,0,0,.7,1.8h0c.2-.2.2-.3.1-.5v-.4c-.1-.1,0-.2.1-.2a5.6,5.6,0,0,1,.5.8.8.8,0,0,0,.2.5l.3.5A5,5,0,0,1,84,66.7Zm34.8-18.5c-6.1,5.3-14.6,7.5-22.2,9.7l-5.3,1.4a40.1,40.1,0,0,0-5,.7,27.4,27.4,0,0,1,7-1.6,58.3,58.3,0,0,0-7.2.6,39.7,39.7,0,0,1,7.8-1.3,41.5,41.5,0,0,0-7.9.2,44.8,44.8,0,0,1,8.2-1,39.3,39.3,0,0,0-8.4.2,47,47,0,0,1,9.2-.9,45.1,45.1,0,0,0-9,.1,34.8,34.8,0,0,1,9.6-.9,46.1,46.1,0,0,0-9.1.1A34,34,0,0,1,96,54.2a59.9,59.9,0,0,0-9.5.4c3.3-.8,6.6-1.5,10-2.1l-8.4.6,3.2-.3c3.2-.4,6.5-.6,9.8-.9s5.6-.6,8.4-.1l-1.9,1.6c-.2.2,0,.4.2.3l2.7-1.8a.3.3,0,0,0-.1-.6c-2.3-.7-4.7-.4-7.1-.3l-8.9.8c-5.7.5-11.4,1.2-17.1,2-11.6,1.7-23.1,3.9-34.5,6.7-6.3,1.5-12.6,3.2-18.7,5.1-.1,0-.1.1-.1.2a1.6,1.6,0,0,0,1.6,1.1c.1.1.1-.1,0-.2s-1.2-.7-.4-1.2a4.2,4.2,0,0,1,1.2-.3l1.8-.5,4.2-1.1,4.3-1.1,9.7-1.2a60,60,0,0,0-9.2,2.6,31.3,31.3,0,0,1,9.5-1.8A43.9,43.9,0,0,0,38,64.8a37.8,37.8,0,0,1,9.4-2.2,49.5,49.5,0,0,0-8.5,2.7,39.1,39.1,0,0,1,9-2,37.8,37.8,0,0,0-8.1,2.4A44.9,44.9,0,0,1,47.9,64a54.4,54.4,0,0,0-7.6,2.2A51.9,51.9,0,0,1,48.2,65a56.5,56.5,0,0,0-7.1,1.7,35.3,35.3,0,0,1,7.2-.8,46.9,46.9,0,0,0-6.5,1.4,40.7,40.7,0,0,1,6-.6l-2,.5-5.9.4C30,68.1,19.7,67.3,11,62L9.4,60.9c2-2.5,6.1-2.6,9-3l11.9-1.6c7.8-1.1,15.5-2.3,23.3-3.6,15.5-2.5,31-5.3,46.5-8.3l6.7-1.3a35.5,35.5,0,0,1,6.4-1,6.3,6.3,0,0,1,5.3,2.3A3.7,3.7,0,0,1,118.8,48.2Zm2.3-2.2-1.4,1.4a4.4,4.4,0,0,0-.6-3.2c-1.9-2.8-5.6-2.8-8.5-2.3s-8.4,1.7-12.6,2.5L85,46.8q-25.8,4.8-51.7,8.6c-4.9.7-9.8,1.5-14.7,2.1-3.2.5-7.4.4-9.5,3.2l-1-.8a38.6,38.6,0,0,1-.2-7.6,55.8,55.8,0,0,0,6.4,4.4.4.4,0,0,0,.5-.2c.7-1.8,1.4-3.7,2-5.6l5.6,4.7a.4.4,0,0,0,.5-.2,54.8,54.8,0,0,1,2.3-5.6c1.9,1.7,3.8,3.5,5.8,5,.1.2.3.1.4-.1,1-2.1,2.1-4.1,3.2-6.1l5,4.9c.1.1.4,0,.5-.2.7-1.9,2.1-3.5,3.1-5.2a27.2,27.2,0,0,1,5.3,4.2.3.3,0,0,0,.6-.2c1-1.7,1.8-3.6,2.7-5.4l4.4,4.5c.2.1.5.1.5-.1.7-1.8,1.5-3.6,2.3-5.4,1.8,1.4,3.5,2.8,5.1,4.3s.4,0,.5-.2a34.9,34.9,0,0,1,2.2-5.3,45.7,45.7,0,0,1,5.7,4.1c.2.1.5,0,.5-.1a41.1,41.1,0,0,1,2.5-5.7c1.7,1.4,3.2,2.9,4.9,4.2,0,.1.1.1.2,0a.3.3,0,0,0,.4,0c.7-1.7,1.4-3.4,2.2-5l4.3,4.2A.4.4,0,0,0,88,46c.7-1.9,1.5-3.7,2.4-5.6l5.7,3.9a.4.4,0,0,0,.5-.1c.7-1.8,1.5-3.5,2.3-5.3l4.7,3.8c.2.2.4.1.5-.1.8-1.8,1.6-3.6,2.3-5.5a33.5,33.5,0,0,1,4.3,4.1h.1a.2.2,0,0,0,.3,0c1.3-1.9,2.4-3.8,3.5-5.7a30.1,30.1,0,0,1,2.3,5.9c0,.2.2.3.4.2a30.8,30.8,0,0,0,5.3-4.9,31.7,31.7,0,0,1-.5,5.3c-.3,1.3-.7,2.5-1,3.8Zm3.6-6a17.9,17.9,0,0,1-2.5,4.5,30.8,30.8,0,0,0,.9-8.5c0-.2-.4-.3-.5-.1a28.5,28.5,0,0,1-5.3,5.1,35.1,35.1,0,0,0-2.4-6.1c-.1-.1-.4-.2-.5,0l-3.5,5.8a29.8,29.8,0,0,0-4.4-4.3.4.4,0,0,0-.5.2c-.7,1.8-1.4,3.6-2.3,5.4l-4.8-3.8c-.1-.1-.3,0-.4.2-.8,1.7-1.6,3.5-2.3,5.2l-5.7-3.8c-.2-.1-.4-.1-.5.1l-2.4,5.6-4.4-4.2c-.1-.1-.3,0-.4.1l-2.2,5.1a52.4,52.4,0,0,0-5-4.4.4.4,0,0,0-.5.2,38.7,38.7,0,0,0-2.5,5.5,39.7,39.7,0,0,0-5.8-4c-.1-.1-.3,0-.4.1a39.7,39.7,0,0,0-2.2,5.3,48.2,48.2,0,0,0-5.1-4.1c-.2-.2-.4-.1-.5.1s-1.6,3.5-2.3,5.3L52,46.1c-.2-.1-.4-.1-.5.1l-2.7,5.5a38.7,38.7,0,0,0-5.5-4.3.2.2,0,0,0-.4.1c-.9,1.8-2.3,3.4-3.2,5.2l-5-4.8c-.1-.2-.4,0-.4.1l-3.2,6.1c-1.9-1.8-3.9-3.4-5.8-5-.2-.2-.4-.1-.5.1a54.8,54.8,0,0,1-2.3,5.6,25,25,0,0,0-5.7-4.6c-.2-.1-.5,0-.5.2A23.1,23.1,0,0,1,14.4,56a57,57,0,0,0-6.5-4.4.3.3,0,0,0-.4.2,31.4,31.4,0,0,0-.1,7.5,18.7,18.7,0,0,1-5.1-6.1c-.1-4.7,8.9-3.8,12-4l11.8-1c9-.8,18-1.5,26.9-2.8,16.5-2.3,33-4.8,49.3-8.2,3-.6,6.1-1.3,9.1-2.1,4.6-1.2,13.4-3.9,13.3,3.9h0A1.4,1.4,0,0,1,124.7,40Z"/>
                    <path class="cls-9" d="M60.4,74l.6.4a1,1,0,0,1,.4.5l.5.8c0,.1,0,.2.1.2h0a.3.3,0,0,0-.1-.2,1.2,1.2,0,0,0-.4-.9,1,1,0,0,0-.4-.5l-.6-.4-.7-.4-.6-.4.6.5Z"/>
                    <path class="cls-9" d="M64.1,86.7l-.4-.3-.6-.2h0a.9.9,0,0,0,.6.4l.6.6.6.9-.4-1C64.4,87,64.3,86.8,64.1,86.7Z"/>
                    <path class="cls-9" d="M66.3,87.3a.3.3,0,0,1-.1-.2c-.1-.1-.2-.2-.2-.3H64.9l.3.2H66c0,.1.1.2.1.3s.1.2.1.3l.6,1.1a5.6,5.6,0,0,0-.4-1.2Z"/>
                    <path class="cls-9" d="M68.1,87.5l-.3-.5-.2-.2H67c.2.1.5,0,.7.3a4.6,4.6,0,0,1,.5,1l.5,1.2L68.4,88Z"/>
                    <path class="cls-9" d="M70.2,88.9a.8.8,0,0,0-.1-.4,1.4,1.4,0,0,1-.2-.6,1.7,1.7,0,0,1-.1-.7c-.1-.2-.1-.4-.3-.5h0a.7.7,0,0,1,.1.5,1.3,1.3,0,0,1,.1.6c.1.2.1.5.2.7l.2.4v.3l.3.7c-.1-.2-.1-.5-.2-.7A.6.6,0,0,0,70.2,88.9Z"/>
                    <path class="cls-9" d="M77.9,84l-.6.4-.3.4c-.1.1-.1.3-.2.5s-.1.7-.1,1.1a6.1,6.1,0,0,0,.3-1.1,2.2,2.2,0,0,1,.5-.8l.4-.5c.1-.1.1-.1.1-.2h0C78,83.9,77.9,83.9,77.9,84Z"/>
                    <path class="cls-9" d="M76.4,84.8a.3.3,0,0,1-.1.2l-.3.2h-.6a.1.1,0,0,1-.1.1c0,.1-.1.2-.1.3v.6a5.6,5.6,0,0,0,0,1.3c.1-.5.1-.9.2-1.3a.4.4,0,0,1,.1-.3v-.3a.3.3,0,0,1,.1-.2h.6l.2-.3.2-.2h-.1Z"/>
                    <path class="cls-9" d="M74.3,85.7H74c-.1,0-.2,0-.2.1l-.2.2c-.1.2-.1.4-.2.6v1.9c.1-.4.1-.9.2-1.3a2,2,0,0,1,.2-1.1c.1-.3.4-.3.6-.5a.1.1,0,0,0,.1-.1h-.2Z"/>
                    <path class="cls-9" d="M72.4,86.3h-.3c-.1,0-.1,0-.1.1a.8.8,0,0,0-.2.5,1.7,1.7,0,0,1,.1.7,2,2,0,0,1-.1.7V89c0,.3.1.6.1.8V88.3a2,2,0,0,0,.1-.7c0-.3-.1-.5-.1-.7a.7.7,0,0,1,.1-.5h.3Z"/>
                    <polygon class="cls-9" points="70.5 77.8 70.5 77.8 70.5 77.8 70.5 77.8"/>
                  </g>
                </g>
              </g>
              <path class="cls-9" d="M49.3,68.1s8.5-.2,37.7-6.5L85.4,60l-1.6-4.3-2.2-.9-10.8.5-11.4,2-7.9,2.1-2.7.9.6,4.6Z"/>
            </g>
            <g class="cls-10">
              <circle class="cls-11" cx="72" cy="93.5" r="42.2"/>
              <circle class="cls-12" cx="72" cy="93.5" r="40.5"/>
            </g>
            <path class="cls-13" d="M45.2,60.3A197.1,197.1,0,0,1,85.7,53l6,2.9s-31.1-.4-51.4,10.3Z"/>
          </g>
          <g>
            <text class="cls-14" transform="translate(54.3 81.2) rotate(-5.9)">LOS</text>
            <text class="cls-15" transform="translate(41.7 93.3) rotate(-5.1)">cuates</text>
            <text class="cls-16" transform="translate(43.7 115.4) rotate(-2.9)">CHIDOS</text>
            <g>
              <text class="cls-16" transform="translate(56.5 103.6) rotate(-2.9)">MAS</text>
              <polygon class="cls-17" points="70.7 92.2 75.5 92 75.5 90.4 71 91.3 70.7 92.2"/>
            </g>
          </g>
          <g>
            <text class="cls-18" transform="translate(54.3 81.2) rotate(-5.9)">LOS</text>
            <text class="cls-19" transform="translate(41.7 93.3) rotate(-5.1)">cuates</text>
            <text class="cls-20" transform="translate(43.7 115.4) rotate(-2.9)">CHIDOS</text>
            <g>
              <text class="cls-21" transform="translate(56.5 103.6) rotate(-2.9)">MAS</text>
              <polygon class="cls-22" points="70.7 92.2 75.5 92 75.5 90.4 71 91.3 70.7 92.2"/>
            </g>
          </g>
          <g>
            <path class="cls-23" d="M27.3,108.8a4.4,4.4,0,0,1,1.9,1.7,16.2,16.2,0,0,1,.9,3.8,17.9,17.9,0,0,0,3.2,6.1,6.3,6.3,0,0,0,3.8,2.6,9.1,9.1,0,0,0,3.6-.6,3.7,3.7,0,0,0-1.9,2h0a3.2,3.2,0,0,1,1-1,7.3,7.3,0,0,0-1.8,4,2.9,2.9,0,0,1-.2-.9,3.3,3.3,0,0,1,.8-2.7h-.1a4.4,4.4,0,0,0-1.1,2.9c0-.1-.1-.2-.1-.3a2.4,2.4,0,0,1,.5-2.4c0-.1,0-.1-.1-.1a3.1,3.1,0,0,0-.9,1.8l-.9-1.2c-1.4-1.8-3.3-3.4-4.6-5.3s-1.2-4.8-2.1-7.3a4.3,4.3,0,0,0-3.1-3h-.2C26.2,108.3,26.7,108.3,27.3,108.8Z"/>
            <path class="cls-24" d="M39.9,131.9a8.3,8.3,0,0,1-.4-1.5,8.2,8.2,0,0,1,.3-3.1h-.1a5.2,5.2,0,0,0-.7,2.5,6.2,6.2,0,0,1-.1-1.3,6.6,6.6,0,0,1,.1-1.4,8,8,0,0,1,.8-1.6,4.7,4.7,0,0,1,3.4-2.6h0a4.1,4.1,0,0,0-2.9,1.3,5.1,5.1,0,0,1,2.1-1.5,11.4,11.4,0,0,1,6.1.2,19.1,19.1,0,0,1,6.8,3.5,67.7,67.7,0,0,1,6.1,5.9l.8,1.2,1.3,1.7a8.5,8.5,0,0,0,2.8,2.2c.1,0,.1-.1,0-.1a10.3,10.3,0,0,1-2.8-2.7l-.3-.6a24.3,24.3,0,0,0,3,2.4,72.6,72.6,0,0,1,6.3,4.6c1.3,1,2.5,2.2,3.8,3.3l-.8-.6a9.1,9.1,0,0,0-4.1-1.9s-.1,0,0,.1a12,12,0,0,1,4.2,2.5l1.8,1.1,1.5.6a15.6,15.6,0,0,0,10.4,1.3c-.4.9-3.6,1.5-4.2,1.7a35.3,35.3,0,0,1-11.2.2,11.2,11.2,0,0,1-3.7-1.6L68.3,146a8,8,0,0,0-3.3-1.7c-.1,0-.1.1,0,.1a8.3,8.3,0,0,1,3,2c-1.8-.8-3.8-.9-5.6-1.6a40.2,40.2,0,0,1-6.5-3.4c-1.1-1-2-2.1-1.8-3.5H54a3.3,3.3,0,0,0,.6,2.7,30.5,30.5,0,0,0-4-2.1l-1.7-.7a2.9,2.9,0,0,1-.6-1.1h-.1l.3,1h-.1a2,2,0,0,1-.5-1.9c0-.1-.1-.1-.1,0a4.9,4.9,0,0,0,0,1.7l-3.1-1a11.2,11.2,0,0,1-4.4-3.7Z"/>
            <path class="cls-9" d="M25.1,108.5l.3.5a.2.2,0,0,0,.2.2c3.4-.4,3.3,4,3.6,6.3a10,10,0,0,0,2.2,4.8,49.3,49.3,0,0,1,4.2,4.9,27,27,0,0,1,2.4,4.4c.1.4.1.7.2,1,1.5,4.7,6.2,6.8,10.5,8.2a43.2,43.2,0,0,1,8,4.1,28.6,28.6,0,0,0,7.2,3.6,19.3,19.3,0,0,1,4.1,1.2c1.2.6,2.2,1.3,3.4,1.8a16.9,16.9,0,0,0,6.7,1.1,49.2,49.2,0,0,0,7.7-1.1c1.1-.3,4.6-1,4.2-2.7s-.3-.3-.4-.2c-5.5,1.4-10.1-.7-14.2-4.3-1.9-1.6-3.9-3-5.9-4.4a68.1,68.1,0,0,1-6.5-5.3c-2.1-1.7-3.8-3.7-5.8-5.5a25.3,25.3,0,0,0-5.8-3.8c-2.3-1.1-5.1-2.1-7.7-1.7s-3.1.2-4.9.6-5.3-2.3-6.6-4.8a22.3,22.3,0,0,1-1.6-4.3,11.6,11.6,0,0,0-1-2.8c-.9-1.4-2.6-2.7-4.3-2A.2.2,0,0,0,25.1,108.5Zm19.6,28a11.2,11.2,0,0,1-4.4-3.7l-.4-.9a8.3,8.3,0,0,1-.4-1.5,8.2,8.2,0,0,1,.3-3.1h-.1a5.2,5.2,0,0,0-.7,2.5,6.2,6.2,0,0,1-.1-1.3,6.6,6.6,0,0,1,.1-1.4,8,8,0,0,1,.8-1.6,4.7,4.7,0,0,1,3.4-2.6h0a4.1,4.1,0,0,0-2.9,1.3,5.1,5.1,0,0,1,2.1-1.5,11.4,11.4,0,0,1,6.1.2,19.1,19.1,0,0,1,6.8,3.5,67.7,67.7,0,0,1,6.1,5.9l.8,1.2,1.3,1.7a8.5,8.5,0,0,0,2.8,2.2c.1,0,.1-.1,0-.1a10.3,10.3,0,0,1-2.8-2.7l-.3-.6a24.3,24.3,0,0,0,3,2.4,72.6,72.6,0,0,1,6.3,4.6c1.3,1,2.5,2.2,3.8,3.3l-.8-.6a9.1,9.1,0,0,0-4.1-1.9s-.1,0,0,.1a12,12,0,0,1,4.2,2.5l1.8,1.1,1.5.6a15.6,15.6,0,0,0,10.4,1.3c-.4.9-3.6,1.5-4.2,1.7a35.3,35.3,0,0,1-11.2.2,11.2,11.2,0,0,1-3.7-1.6L68.3,146a8,8,0,0,0-3.3-1.7c-.1,0-.1.1,0,.1a8.3,8.3,0,0,1,3,2c-1.8-.8-3.8-.9-5.6-1.6a40.2,40.2,0,0,1-6.5-3.4c-1.1-1-2-2.1-1.8-3.5H54a3.3,3.3,0,0,0,.6,2.7,30.5,30.5,0,0,0-4-2.1l-1.7-.7a2.9,2.9,0,0,1-.6-1.1h-.1l.3,1h-.1a2,2,0,0,1-.5-1.9c0-.1-.1-.1-.1,0a4.9,4.9,0,0,0,0,1.7ZM25.9,108.8c.3-.5.8-.5,1.4,0a4.4,4.4,0,0,1,1.9,1.7,16.2,16.2,0,0,1,.9,3.8,17.9,17.9,0,0,0,3.2,6.1,6.3,6.3,0,0,0,3.8,2.6,9.1,9.1,0,0,0,3.6-.6,3.7,3.7,0,0,0-1.9,2h0a3.2,3.2,0,0,1,1-1,7.3,7.3,0,0,0-1.8,4,2.9,2.9,0,0,1-.2-.9,3.3,3.3,0,0,1,.8-2.7h-.1a4.4,4.4,0,0,0-1.1,2.9c0-.1-.1-.2-.1-.3a2.4,2.4,0,0,1,.5-2.4c0-.1,0-.1-.1-.1a3.1,3.1,0,0,0-.9,1.8l-.9-1.2c-1.4-1.8-3.3-3.4-4.6-5.3s-1.2-4.8-2.1-7.3a4.3,4.3,0,0,0-3.1-3Z"/>
            <path class="cls-25" d="M42.9,124.3a3.4,3.4,0,0,1,3.6-.7,1.4,1.4,0,0,0-1.9.8c1.7-.7,3.7-.3,5.5.3a23,23,0,0,1,9.3,6.3c1.3,1.4,2.4,3,3.6,4.3a10.5,10.5,0,0,0,4.7,3.1,6.7,6.7,0,0,1-2-.1,16.8,16.8,0,0,1,5.2,3l-1.5-.4a55.5,55.5,0,0,0,9.5,5.9l-3.6-.6-3.2-1.3c-4.8-2.2-8.7-5.9-12.8-9.1s-8.7-6.3-13.9-7a4,4,0,0,1,2.4-.2,2.8,2.8,0,0,0-2.2-.3,8.5,8.5,0,0,1-2.2.4C40.7,128.7,41.5,125.5,42.9,124.3Z"/>
          </g>
          <g>
            <path class="cls-5" d="M104.5,129.4a8.3,8.3,0,0,0,.4-1.5,7.5,7.5,0,0,0-.3-3c-.1-.1,0-.1,0-.1a4.5,4.5,0,0,1,.7,2.5,5.7,5.7,0,0,0,.1-1.3,6.2,6.2,0,0,0-.1-1.3,8,8,0,0,0-.8-1.6,4.5,4.5,0,0,0-3.3-2.5c-.1,0-.1-.1,0-.1a4.2,4.2,0,0,1,2.8,1.2,5.2,5.2,0,0,0-2.1-1.4,10.7,10.7,0,0,0-5.9.2,18.3,18.3,0,0,0-6.6,3.5,53.9,53.9,0,0,0-5.9,5.8l-.8,1.2a18.3,18.3,0,0,1-1.3,1.6,7.3,7.3,0,0,1-2.7,2.2c0,.1-.1,0,0-.1a8.7,8.7,0,0,0,2.7-2.7l.4-.5a34,34,0,0,1-3,2.3c-2.1,1.4-4.1,3-6.1,4.6s-2.5,2.2-3.7,3.3l.8-.6a9.7,9.7,0,0,1,3.9-2h.1a15.5,15.5,0,0,0-4.1,2.5,10.8,10.8,0,0,1-1.8,1.1l-1.4.6a15.1,15.1,0,0,1-10.2,1.4c.4.8,3.5,1.5,4.2,1.6a28.5,28.5,0,0,0,4.1.4,22.1,22.1,0,0,0,6.8-.3A13,13,0,0,0,75,145l1.8-1.6a6.2,6.2,0,0,1,3.3-1.7h0a7.5,7.5,0,0,0-2.9,2c1.7-.8,3.7-.8,5.4-1.6a47.1,47.1,0,0,0,6.3-3.3c1-1,2-2.1,1.7-3.5s.1-.1.1,0a3.7,3.7,0,0,1-.5,2.7,35.9,35.9,0,0,1,3.8-2.1l1.7-.7a2,2,0,0,0,.6-1.1h.1l-.3.9h.1a2.2,2.2,0,0,0,.5-1.9h.1a3.3,3.3,0,0,1-.1,1.7l3.1-1a13.6,13.6,0,0,0,4.3-3.6Z"/>
            <path class="cls-23" d="M116.6,106.7a4.2,4.2,0,0,0-1.8,1.7c-.7,1.1-.6,2.5-.9,3.7a16.3,16.3,0,0,1-3.1,6,6.2,6.2,0,0,1-3.7,2.6,11.2,11.2,0,0,1-3.5-.6,3.9,3.9,0,0,1,1.9,1.9h-.1a2.4,2.4,0,0,0-.9-1.1,8.1,8.1,0,0,1,1.8,4c.1-.3.1-.6.2-.9a3.3,3.3,0,0,0-.8-2.7s0-.1.1,0a3.9,3.9,0,0,1,1,2.8l.2-.3a3,3,0,0,0-.5-2.4c-.1,0,0-.1,0-.1a2.3,2.3,0,0,1,.9,1.8l.9-1.2c1.3-1.8,3.2-3.3,4.5-5.2s1.1-4.7,1.9-7.2a4.4,4.4,0,0,1,3-2.9h.2C117.6,106.2,117.2,106.2,116.6,106.7Z"/>
            <path class="cls-9" d="M118.5,106.2c-1.6-.6-3.3.6-4.1,1.9a15.7,15.7,0,0,0-1,2.8,19,19,0,0,1-1.5,4.2c-1.3,2.5-3.3,5.4-6.4,4.8s-3.2-1.1-4.9-.6-5.2.7-7.5,1.8a22.7,22.7,0,0,0-5.6,3.7c-1.9,1.7-3.6,3.7-5.6,5.4a80.2,80.2,0,0,1-6.3,5.3,57.9,57.9,0,0,0-5.8,4.3c-3.9,3.5-8.4,5.6-13.7,4.3-.2-.1-.4,0-.4.2s3,2.3,4,2.6a49.5,49.5,0,0,0,7.6,1,16.3,16.3,0,0,0,6.5-1.2,20.6,20.6,0,0,0,3.3-1.7,19.3,19.3,0,0,1,4.1-1.2,26.7,26.7,0,0,0,6.9-3.6,47.9,47.9,0,0,1,7.8-4c4.2-1.5,8.8-3.5,10.2-8.2a6.4,6.4,0,0,0,.2-.9,45,45,0,0,1,2.3-4.3c1.2-1.8,2.7-3.2,4-4.9a9,9,0,0,0,2.2-4.6c.2-2.3.1-6.6,3.5-6.3.1.1.2,0,.2-.1s.1-.3.2-.5S118.7,106.2,118.5,106.2ZM99.8,133.9l-3.1,1a3.3,3.3,0,0,0,.1-1.7h-.1a2.2,2.2,0,0,1-.5,1.9h-.1l.3-.9h-.1a2,2,0,0,1-.6,1.1l-1.7.7a35.9,35.9,0,0,0-3.8,2.1,3.7,3.7,0,0,0,.5-2.7c0-.1-.1-.1-.1,0s-.7,2.5-1.7,3.5a47.1,47.1,0,0,1-6.3,3.3c-1.7.8-3.7.8-5.4,1.6a7.5,7.5,0,0,1,2.9-2h0a6.2,6.2,0,0,0-3.3,1.7L75,145a13,13,0,0,1-3.6,1.5,22.1,22.1,0,0,1-6.8.3,28.5,28.5,0,0,1-4.1-.4c-.7-.1-3.8-.8-4.2-1.6a15.1,15.1,0,0,0,10.2-1.4l1.4-.6a10.8,10.8,0,0,0,1.8-1.1,15.5,15.5,0,0,1,4.1-2.5h-.1a9.7,9.7,0,0,0-3.9,2l-.8.6c1.2-1.1,2.4-2.3,3.7-3.3s4-3.2,6.1-4.6a34,34,0,0,0,3-2.3l-.4.5a8.7,8.7,0,0,1-2.7,2.7c-.1.1,0,.2,0,.1a7.3,7.3,0,0,0,2.7-2.2,18.3,18.3,0,0,0,1.3-1.6l.8-1.2a53.9,53.9,0,0,1,5.9-5.8,18.3,18.3,0,0,1,6.6-3.5,10.7,10.7,0,0,1,5.9-.2,5.2,5.2,0,0,1,2.1,1.4,4.2,4.2,0,0,0-2.8-1.2c-.1,0-.1.1,0,.1a4.5,4.5,0,0,1,3.3,2.5,8,8,0,0,1,.8,1.6,6.2,6.2,0,0,1,.1,1.3,5.7,5.7,0,0,1-.1,1.3,4.5,4.5,0,0,0-.7-2.5s-.1,0,0,.1a7.5,7.5,0,0,1,.3,3,8.3,8.3,0,0,1-.4,1.5l-.4.9A13.6,13.6,0,0,1,99.8,133.9Zm17.9-27.2a4.4,4.4,0,0,0-3,2.9c-.8,2.5-.4,5-1.9,7.2s-3.2,3.4-4.5,5.2l-.9,1.2a2.3,2.3,0,0,0-.9-1.8s-.1.1,0,.1a3,3,0,0,1,.5,2.4l-.2.3a3.9,3.9,0,0,0-1-2.8c-.1-.1-.1,0-.1,0a3.3,3.3,0,0,1,.8,2.7c-.1.3-.1.6-.2.9a8.1,8.1,0,0,0-1.8-4,2.4,2.4,0,0,1,.9,1.1h.1a3.9,3.9,0,0,0-1.9-1.9,11.2,11.2,0,0,0,3.5.6,6.2,6.2,0,0,0,3.7-2.6,16.3,16.3,0,0,0,3.1-6c.3-1.2.2-2.6.9-3.7a4.2,4.2,0,0,1,1.8-1.7c.6-.5,1-.5,1.3,0Z"/>
            <path class="cls-26" d="M98.7,121a11.2,11.2,0,0,0-8.2,2.5,8.5,8.5,0,0,1,5-.6,12,12,0,0,0-3.8.5,12.3,12.3,0,0,1,2.7.2,9.5,9.5,0,0,0-5.8,2,20.9,20.9,0,0,0-4.4,4.5c-1.3,1.8-2.6,3.8-4.7,4.8l1.7-.3a58.4,58.4,0,0,0-6.5,3.5l1.2-.4a14.3,14.3,0,0,1-2.3,2.6,11.4,11.4,0,0,1-3,1.8L66,144.5a38,38,0,0,0,19.6-10.9c1.3-1.4,2.7-2.9,4.6-3.1a2.9,2.9,0,0,0-1.6-.1l2.2-.4-1.7-.2,4.5-2.5c1.8-1,3.9-2.1,5.9-1.6a7.6,7.6,0,0,0-2.3-1.3,6.9,6.9,0,0,1,2.5-.2,2.2,2.2,0,0,0-1.3-.4,2.5,2.5,0,0,1,2.7.7c.3.2.5.6.9.7s1.2-.5,1.2-1.1S100.3,121.1,98.7,121Z"/>
          </g>
        </g>
        <text class="cls-27" transform="translate(17.3 167.2) rotate(-1.6)">porque la risa<tspan x="0" y="9.7">abre el apetito...</tspan></text>
      </g>
    </g>
  </g>
</svg>
