<svg id="Layer_1" data-name="Layer 1" xmlns="http://www.w3.org/2000/svg" viewBox="0 0 92.6 129"><defs><style>.cls-1{fill:#f3ae1c;}.cls-2{fill:#ac3a68;}.cls-3{fill:#e73c53;}.cls-4{fill:#f1e7c4;}.cls-5{fill:#4f2549;}.cls-6{fill:#7dc4a5;}</style></defs><title>Maracas</title><path class="cls-1" d="M68.5,76l-7,4.2-7,4.1c12.7,10.9,16.9,22.6,23.6,35.4s12.1,8.6,12.1,8.6,6.3-2.7-1.7-14.7S72.1,92.3,68.5,76Z"/><ellipse class="cls-1" cx="42.7" cy="48.5" rx="39.7" ry="50.5" transform="matrix(0.86, -0.5, 0.5, 0.86, -18.63, 28.1)"/><path class="cls-2" d="M48.8,3.5s7.1,2.7,4.2,7S42.1,9.3,42.1,9.3s5.9,5.1,2.5,8.8S34,15.7,34,15.7s5.8,6.2.8,9.2-10-3.7-10-3.7,2.9,7.1,0,9.7-9.4-4.1-9.4-4.1,4.4,8.2-.4,9.9-7.5-7.8-7.5-7.8.3,8.8-2.8,10.6S.4,32.3.4,32.3,22,23.1,48.8,3.5Z"/><path class="cls-3" d="M.4,32.3s26.3-8,48.4-28.8c0,0-15.5-8.2-31.5,1.4C-.2,15.2.4,32.3.4,32.3Z"/><path class="cls-4" d="M.7,28.9s25.9-8.1,44.5-27c0,0,.8-.1,3.6,1.6,0,0-19.7,19.6-48.4,28.8C.4,32.3.5,30,.7,28.9Z"/><path class="cls-4" d="M1.5,51.4s42.4-14.7,62-39.1c0,0,17.5,14.7,20.7,34.9,0,0-22.1,29-62.6,37.3A61.4,61.4,0,0,1,1.5,51.4Z"/><path class="cls-2" d="M2.4,54.6s38.2-9.9,63.5-40c0,0,12.9,11,17.4,28.3,0,0-22,29.2-64.8,38.7A56,56,0,0,1,2.4,54.6Z"/><path class="cls-5" d="M69.5,18.4S53.3,54.3,4.9,61.7a46.3,46.3,0,0,0,9.1,15S59.9,65,81.1,36.8A45.8,45.8,0,0,0,69.5,18.4Z"/><path class="cls-6" d="M14,76.7s-.9-11.5,3.2-11,9.1,6.2,9.1,6.2-1.9-7.9,1.2-9.4c6-2.8,10.8,5.4,10.8,5.4s-4-10.9,2.1-12.1,10.1,6.1,10.1,6.1-3.2-10.3,2-11.8S62,54.6,62,54.6s-4.6-10.4.2-13.4C64.9,39.6,72.7,46,72.7,46s-5-11.3-1.3-12.9,9.7,3.7,9.7,3.7S60.3,65.7,14,76.7Z"/><circle class="cls-4" cx="11.5" cy="54.4" r="1.2"/><circle class="cls-4" cx="17.8" cy="69.6" r="1.2"/><circle class="cls-4" cx="30.1" cy="66.1" r="1.2"/><circle class="cls-4" cx="22.3" cy="50.8" r="1.2"/><circle class="cls-4" cx="31.7" cy="45.9" r="1.2"/><circle class="cls-4" cx="40.5" cy="40.6" r="1.2"/><circle class="cls-4" cx="47.9" cy="35.5" r="1.2"/><circle class="cls-4" cx="55.9" cy="29.3" r="1.2"/><circle class="cls-4" cx="62.6" cy="22.5" r="1.2"/><circle class="cls-4" cx="79.6" cy="43.2" r="1.2"/><circle class="cls-4" cx="72.2" cy="49.6" r="1.2"/><circle class="cls-4" cx="63.8" cy="57.4" r="1.2"/><circle class="cls-4" cx="56.6" cy="63" r="1.2"/><circle class="cls-4" cx="47.2" cy="67.3" r="1.2"/><circle class="cls-4" cx="36.5" cy="72.2" r="1.2"/><circle class="cls-4" cx="27.8" cy="76" r="1.2"/><circle class="cls-4" cx="19.4" cy="79" r="1.2"/><circle class="cls-4" cx="3.6" cy="35.3" r="1.2"/><circle class="cls-4" cx="13" cy="32.8" r="1.2"/><circle class="cls-4" cx="22.1" cy="27.4" r="1.2"/><circle class="cls-4" cx="32.8" cy="22.4" r="1.2"/><circle class="cls-4" cx="41.7" cy="15.7" r="1.2"/><circle class="cls-4" cx="49.6" cy="9.3" r="1.2"/><circle class="cls-4" cx="42.3" cy="60.2" r="1.2"/><circle class="cls-4" cx="53.1" cy="53.8" r="1.2"/><circle class="cls-4" cx="64" cy="45.2" r="1.2"/><circle class="cls-4" cx="74.5" cy="37" r="1.2"/><path class="cls-5" d="M.4,45.5s37-9.3,58.1-37a22.7,22.7,0,0,1,5,3.8S52.2,32.2,1.6,51.7C1.6,51.7.3,47.2.4,45.5Z"/><path class="cls-5" d="M3,20.7S25.3,15.9,36.1.3C36.1.3,14.7-2.7,3,20.7Z"/><path class="cls-6" d="M6.9,14.3S18.2,12.1,30.9,0C30.9,0,15.1,1.2,6.9,14.3Z"/><path class="cls-3" d="M35.3,93.1s31.4-4.2,49.9-29.8c0,0-1.2,21-17,28.9C48.9,101.8,35.3,93.1,35.3,93.1Z"/><path class="cls-5" d="M79.9,80.7S63.2,83.1,53.2,96.6C53.2,96.6,71,96.5,79.9,80.7Z"/><path class="cls-6" d="M77.5,84.4S64.3,87.2,57.7,96.1A29.1,29.1,0,0,0,77.5,84.4Z"/><path class="cls-4" d="M30.2,90.6S64.9,88,85.4,57.7a18.5,18.5,0,0,1-.2,5.6S68.7,89,35.3,93.1Z"/><path class="cls-2" d="M85.4,57.7s-4-3.3-6.1-2.4,1.5,8.5,1.5,8.5S75.9,59,73,60.9s1.3,8.9,1.3,8.9-5.2-4.6-8.4-2.8.8,9.6.8,9.6-5.5-6.3-9.8-3.6-.5,9.7-.5,9.7-5.3-6.4-8.1-5.2-.5,8.8-.5,8.8-3.4-7.2-7.3-5.1-2.3,8-2.3,8-3.1-6.5-5.8-6-2.2,7.4-2.2,7.4S64.3,88.7,85.4,57.7Z"/><circle class="cls-4" cx="82.1" cy="58.2" r="1.2"/><circle class="cls-4" cx="76.2" cy="64.6" r="1.2"/><circle class="cls-4" cx="69.3" cy="71.5" r="1.2"/><circle class="cls-4" cx="59.5" cy="77.3" r="1.2"/><circle class="cls-4" cx="42.3" cy="85.3" r="1.2"/><circle class="cls-4" cx="32.5" cy="87.4" r="1.2"/><circle class="cls-4" cx="49.9" cy="83" r="1.2"/><path class="cls-4" d="M5.8,64.6s49.1-14,66.3-43.3a22,22,0,0,0-2.6-2.9S56,46.6,4.5,61.3A12.7,12.7,0,0,0,5.8,64.6Z"/></svg>