<svg id="Layer_1" data-name="Layer 1" xmlns="http://www.w3.org/2000/svg" viewBox="0 0 720 45.4">
  <defs>
    <style>
      .cls-1 {
        fill: #ffd207;
      }
    </style>
  </defs>
  <title>Patron-Footer-480</title>
  <g>
    <polygon class="cls-1" points="39.9 20.9 55.7 5.5 49.3 5.5 37.1 17.3 24.9 5.5 22.3 5.5 20.4 7.4 34.3 20.9 39.9 20.9"/>
    <polygon class="cls-1" points="48.2 21 64.1 5.5 57.5 5.5 41.6 21 48.2 21"/>
    <polygon class="cls-1" points="4.6 21 18.6 7.3 16.8 5.5 13.9 5.5 1.8 17.4 -10.4 5.5 -16.9 5.5 -1 21 4.6 21"/>
    <polygon class="cls-1" points="8.5 20.9 8.5 21 13.4 20.9 19.4 15.1 25.5 21 30.4 21 30.3 20.9 30.4 20.9 19.4 10.3 8.5 20.9 8.5 20.9"/>
    <polygon class="cls-1" points="98.3 21 114.1 5.5 92.4 5.5 76.5 21 98.3 21"/>
    <polygon class="cls-1" points="189.8 21 205.6 5.5 188.9 5.5 175 21 189.8 21"/>
    <polygon class="cls-1" points="165.8 20.9 171.2 20.9 171.3 20.9 187.2 5.5 183.2 5.5 180.7 5.5 180.6 5.5 168.5 17.3 156.4 5.5 156.3 5.5 153.8 5.5 149.8 5.5 165.7 20.9 165.8 20.9"/>
    <polygon class="cls-1" points="70.9 21 86.8 5.5 81.1 5.5 65.3 21 70.9 21"/>
    <polygon class="cls-1" points="59.7 21 75.6 5.5 67.7 5.5 51.8 21 59.7 21"/>
    <polygon class="cls-1" points="162 21 148.1 5.5 131.3 5.5 147.2 21 162 21"/>
    <polygon class="cls-1" points="260.5 21 244.6 5.5 222.8 5.5 238.7 21 260.5 21"/>
    <polygon class="cls-1" points="558.5 21 542.6 5.5 520.8 5.5 536.7 21 558.5 21"/>
    <polygon class="cls-1" points="694.2 21 710.1 5.5 688.3 5.5 672.4 21 694.2 21"/>
    <polygon class="cls-1" points="569.7 21 553.8 5.5 548.1 5.5 564 21 569.7 21"/>
    <polygon class="cls-1" points="593.4 21 577.5 5.5 570.8 5.5 586.7 21 593.4 21"/>
    <polygon class="cls-1" points="463.8 20.9 469.2 20.9 469.3 20.9 485.2 5.5 481.2 5.5 478.7 5.5 478.6 5.5 466.5 17.3 454.4 5.5 454.2 5.5 451.8 5.5 447.8 5.5 463.6 20.9 463.8 20.9"/>
    <polygon class="cls-1" points="487.7 21 503.6 5.5 486.8 5.5 473 21 487.7 21"/>
    <polygon class="cls-1" points="583.1 21 567.2 5.5 559.4 5.5 575.2 21 583.1 21"/>
    <polygon class="cls-1" points="600.5 21 614.5 7.3 612.7 5.5 609.9 5.5 597.7 17.4 585.5 5.5 579.1 5.5 595 21 600.5 21"/>
    <polygon class="cls-1" points="655.6 21 671.5 5.5 663.6 5.5 647.8 21 655.6 21"/>
    <polygon class="cls-1" points="666.9 21 682.7 5.5 677.1 5.5 661.2 21 666.9 21"/>
    <polygon class="cls-1" points="644.2 21 660 5.5 653.4 5.5 637.5 21 644.2 21"/>
    <polygon class="cls-1" points="635.8 20.9 651.7 5.5 645.2 5.5 633 17.3 620.9 5.5 618.3 5.5 616.3 7.4 630.3 20.9 635.8 20.9"/>
    <polygon class="cls-1" points="604.5 20.9 604.4 21 609.4 20.9 615.4 15.1 621.4 21 626.3 21 626.3 20.9 626.3 20.9 615.4 10.3 604.4 20.9 604.5 20.9"/>
    <polygon class="cls-1" points="306.5 20.9 306.5 21 311.4 20.9 317.4 15.1 323.4 21 328.3 21 328.3 20.9 328.3 20.9 317.4 10.3 306.5 20.9 306.5 20.9"/>
    <polygon class="cls-1" points="271.7 21 255.8 5.5 250.2 5.5 266 21 271.7 21"/>
    <polygon class="cls-1" points="302.5 21 316.6 7.3 314.8 5.5 311.9 5.5 299.8 17.4 287.6 5.5 281.1 5.5 297 21 302.5 21"/>
    <polygon class="cls-1" points="295.4 21 279.5 5.5 272.9 5.5 288.7 21 295.4 21"/>
    <polygon class="cls-1" points="285.2 21 269.3 5.5 261.4 5.5 277.3 21 285.2 21"/>
    <polygon class="cls-1" points="337.8 20.9 353.7 5.5 347.2 5.5 335.1 17.3 322.9 5.5 320.3 5.5 318.4 7.4 332.3 20.9 337.8 20.9"/>
    <polygon class="cls-1" points="459.9 21 446.1 5.5 429.3 5.5 445.2 21 459.9 21"/>
    <polygon class="cls-1" points="396.2 21 412.1 5.5 390.3 5.5 374.5 21 396.2 21"/>
    <polygon class="cls-1" points="368.9 21 384.8 5.5 379.1 5.5 363.2 21 368.9 21"/>
    <polygon class="cls-1" points="357.7 21 373.5 5.5 365.7 5.5 349.8 21 357.7 21"/>
    <polygon class="cls-1" points="346.2 21 362.1 5.5 355.4 5.5 339.6 21 346.2 21"/>
    <polygon class="cls-1" points="30.3 24.7 30.4 24.6 25.5 24.7 19.5 30.5 13.4 24.6 8.5 24.6 8.5 24.7 8.5 24.7 19.4 35.3 30.4 24.7 30.3 24.7"/>
    <polygon class="cls-1" points="536.7 24.7 520.8 40.1 542.6 40.1 558.5 24.7 536.7 24.7"/>
    <polygon class="cls-1" points="564 24.7 548.1 40.1 553.8 40.1 569.7 24.7 564 24.7"/>
    <path class="cls-1" d="M512.2.4,489.1,22.8l23.1,22.4,23-22.4ZM493.8,22.8,512.2,4.9l18.4,17.9L512.2,40.7Z"/>
    <polygon class="cls-1" points="575.2 24.7 559.4 40.1 567.2 40.1 583.1 24.7 575.2 24.7"/>
    <polygon class="cls-1" points="586.7 24.7 570.8 40.1 577.5 40.1 593.4 24.7 586.7 24.7"/>
    <path class="cls-1" d="M512.2,9.7,498.7,22.8l13.5,13.1,13.4-13.1ZM501.4,22.8l10.8-10.5,10.7,10.5L512.2,33.3Z"/>
    <polygon class="cls-1" points="469.2 24.6 463.8 24.6 463.6 24.6 447.8 40.1 451.5 40.1 454.2 40.1 454.4 40.1 466.5 28.3 478.6 40.1 478.7 40.1 481.4 40.1 485.2 40.1 469.3 24.6 469.2 24.6"/>
    <path class="cls-1" d="M420.7.4l-23,22.4,23,22.4,23.1-22.4ZM402.3,22.8,420.7,4.9l18.4,17.9L420.7,40.7Z"/>
    <path class="cls-1" d="M420.7,9.7,407.3,22.8l13.4,13.1,13.5-13.1ZM410,22.8l10.7-10.5,10.8,10.5L420.7,33.3Z"/>
    <polygon class="cls-1" points="445.2 24.7 429.3 40.1 446.1 40.1 459.9 24.7 445.2 24.7"/>
    <polygon class="cls-1" points="473 24.7 486.8 40.1 503.6 40.1 487.7 24.7 473 24.7"/>
    <polygon class="cls-1" points="595 24.7 579.1 40.1 585.5 40.1 597.7 28.3 609.9 40.1 612.5 40.1 614.4 38.2 600.5 24.7 595 24.7"/>
    <polygon class="cls-1" points="512.2 16.2 505.4 22.8 512.2 29.4 518.9 22.8 512.2 16.2"/>
    <path class="cls-1" d="M718.7.4l-23,22.4,23,22.4,23-22.4ZM700.3,22.8,718.7,4.9l18.4,17.9L718.7,40.7Z"/>
    <path class="cls-1" d="M718.7,9.7,705.3,22.8l13.4,13.1,13.5-13.1ZM708,22.8l10.7-10.5,10.7,10.5L718.7,33.3Z"/>
    <polygon class="cls-1" points="718.7 16.2 711.9 22.8 718.7 29.4 725.5 22.8 718.7 16.2"/>
    <polygon class="cls-1" points="420.7 16.2 414 22.8 420.7 29.4 427.5 22.8 420.7 16.2"/>
    <polygon class="cls-1" points="637.5 24.7 653.4 40.1 660 40.1 644.2 24.7 637.5 24.7"/>
    <polygon class="cls-1" points="672.4 24.7 688.3 40.1 710.1 40.1 694.2 24.7 672.4 24.7"/>
    <polygon class="cls-1" points="626.3 24.7 626.3 24.6 621.4 24.7 615.4 30.5 609.4 24.6 604.4 24.6 604.5 24.7 604.4 24.7 615.4 35.3 626.3 24.7 626.3 24.7"/>
    <polygon class="cls-1" points="630.3 24.6 616.2 38.3 618 40.1 620.9 40.1 633 28.2 645.2 40.1 651.7 40.1 635.8 24.6 630.3 24.6"/>
    <polygon class="cls-1" points="647.8 24.7 663.6 40.1 671.5 40.1 655.6 24.7 647.8 24.7"/>
    <polygon class="cls-1" points="661.2 24.7 677.1 40.1 682.7 40.1 666.9 24.7 661.2 24.7"/>
    <polygon class="cls-1" points="41.6 24.7 57.5 40.1 64.1 40.1 48.2 24.7 41.6 24.7"/>
    <path class="cls-1" d="M122.8.4,99.7,22.8l23.1,22.4,23-22.4ZM104.4,22.8,122.8,4.9l18.4,17.9L122.8,40.7Z"/>
    <path class="cls-1" d="M122.8,9.7,109.3,22.8l13.5,13.1,13.4-13.1ZM112,22.8l10.8-10.5,10.7,10.5L122.8,33.3Z"/>
    <polygon class="cls-1" points="122.8 16.2 116 22.8 122.8 29.4 129.5 22.8 122.8 16.2"/>
    <polygon class="cls-1" points="147.2 24.7 131.3 40.1 148.1 40.1 162 24.7 147.2 24.7"/>
    <polygon class="cls-1" points="214.2 16.2 207.4 22.8 214.2 29.4 221 22.8 214.2 16.2"/>
    <polygon class="cls-1" points="171.2 24.6 165.8 24.6 165.7 24.6 149.8 40.1 153.5 40.1 156.3 40.1 156.4 40.1 168.5 28.3 180.6 40.1 180.7 40.1 183.4 40.1 187.2 40.1 171.3 24.6 171.2 24.6"/>
    <polygon class="cls-1" points="374.5 24.7 390.3 40.1 412.1 40.1 396.2 24.7 374.5 24.7"/>
    <polygon class="cls-1" points="34.3 24.6 20.3 38.3 22.1 40.1 24.9 40.1 37.1 28.2 49.3 40.1 55.7 40.1 39.9 24.6 34.3 24.6"/>
    <polygon class="cls-1" points="-1 24.7 -16.9 40.1 -10.4 40.1 1.8 28.3 13.9 40.1 16.6 40.1 18.5 38.2 4.6 24.7 -1 24.7"/>
    <polygon class="cls-1" points="65.3 24.7 81.1 40.1 86.8 40.1 70.9 24.7 65.3 24.7"/>
    <polygon class="cls-1" points="76.5 24.7 92.4 40.1 114.1 40.1 98.3 24.7 76.5 24.7"/>
    <polygon class="cls-1" points="51.8 24.7 67.7 40.1 75.6 40.1 59.7 24.7 51.8 24.7"/>
    <polygon class="cls-1" points="175 24.7 188.9 40.1 205.6 40.1 189.8 24.7 175 24.7"/>
    <polygon class="cls-1" points="339.6 24.7 355.4 40.1 362.1 40.1 346.2 24.7 339.6 24.7"/>
    <polygon class="cls-1" points="332.3 24.6 318.2 38.3 320 40.1 322.9 40.1 335.1 28.2 347.2 40.1 353.7 40.1 337.8 24.6 332.3 24.6"/>
    <path class="cls-1" d="M214.2,9.7,200.8,22.8l13.4,13.1,13.5-13.1ZM203.5,22.8l10.7-10.5,10.7,10.5L214.2,33.3Z"/>
    <polygon class="cls-1" points="297 24.7 281.1 40.1 287.6 40.1 299.8 28.3 311.9 40.1 314.5 40.1 316.5 38.2 302.5 24.7 297 24.7"/>
    <polygon class="cls-1" points="349.8 24.7 365.7 40.1 373.5 40.1 357.7 24.7 349.8 24.7"/>
    <polygon class="cls-1" points="363.2 24.7 379.1 40.1 384.8 40.1 368.9 24.7 363.2 24.7"/>
    <polygon class="cls-1" points="328.3 24.7 328.3 24.6 323.4 24.7 317.4 30.5 311.4 24.6 306.5 24.6 306.5 24.7 306.5 24.7 317.4 35.3 328.3 24.7 328.3 24.7"/>
    <polygon class="cls-1" points="238.7 24.7 222.8 40.1 244.6 40.1 260.5 24.7 238.7 24.7"/>
    <path class="cls-1" d="M214.2.4l-23,22.4,23,22.4,23-22.4ZM195.8,22.8,214.2,4.9l18.4,17.9L214.2,40.7Z"/>
    <polygon class="cls-1" points="288.7 24.7 272.9 40.1 279.5 40.1 295.4 24.7 288.7 24.7"/>
    <polygon class="cls-1" points="266 24.7 250.2 40.1 255.8 40.1 271.7 24.7 266 24.7"/>
    <polygon class="cls-1" points="277.3 24.7 261.4 40.1 269.3 40.1 285.2 24.7 277.3 24.7"/>
  </g>
</svg>
