<svg id="Layer_1" data-name="Layer 1" xmlns="http://www.w3.org/2000/svg" viewBox="0 0 58.7 58.8"><defs><style>.cls-1{fill:#fff;}.cls-2{fill:#e5232a;}</style></defs><title>Redes-Sociales-Diseno-480</title><path class="cls-1" d="M58.5,29.5a29,29,0,1,1-29-29A29,29,0,0,1,58.5,29.5Zm-29-25a25,25,0,1,0,25,25A25,25,0,0,0,29.5,4.5Z"/><path class="cls-2" d="M29.5,4A25.5,25.5,0,1,0,54.9,29.5,25.5,25.5,0,0,0,29.5,4Zm0,50.5a25,25,0,1,1,25-25A25,25,0,0,1,29.5,54.5Z"/><path class="cls-2" d="M29.5.2A29.3,29.3,0,1,0,58.7,29.5,29.3,29.3,0,0,0,29.5.2Zm0,58A28.7,28.7,0,1,1,58.2,29.5,28.8,28.8,0,0,1,29.5,58.2Z"/><path class="cls-2" d="M29.5,4c-1.1-.6-1.2-2.3-2.7-2.3a1.5,1.5,0,0,0-1.4,1,.8.8,0,0,0,.4,1.1H26c.2.1.2-.2,0-.3s-.2-.6.3-.4a.6.6,0,0,1,.3.8l-.7.4-.4.3h0l.6-.2.6-.3a.5.5,0,0,0,.3-.5l.5.2v.2c0,.1.1.2.2.1a.1.1,0,0,1,.2,0h.3l.3-.2h.1c.1.1.1,0,.2,0h.5C29.6,4.4,29.7,4.1,29.5,4ZM26.2,2.7h-.5a.6.6,0,0,1,.6-.3A.3.3,0,0,0,26.2,2.7Zm.5.3-.4-.2.2-.2h.1l.3.2h0a.1.1,0,0,0-.1.1A.1.1,0,0,0,26.7,3Zm.6.5H27c0-.1-.1-.2-.2-.3s.2-.2.3-.2l.3.5h-.1Z"/><path class="cls-2" d="M29.4,55c1.1.6,1.2,2.3,2.7,2.3a1.5,1.5,0,0,0,1.4-1.1.7.7,0,0,0-.4-1h-.2a.1.1,0,0,0,0,.3c.4.2.2.7-.3.5a.7.7,0,0,1-.3-.9l.7-.4c.2,0,.4-.1.4-.2h-.6l-.6.4a.5.5,0,0,0-.3.5l-.5-.2v-.3h-.7l-.3.2h-.3c-.1-.2-.3-.1-.3,0h-.2C29.4,54.6,29.2,54.9,29.4,55Zm3.3,1.2a.4.4,0,0,0,.5-.1.4.4,0,0,1-.6.3C32.7,56.4,32.7,56.3,32.7,56.2Zm-.5-.2.4.2h-.2a.1.1,0,0,1-.1.1l-.3-.2h0a.1.1,0,0,1,.1-.1A.1.1,0,0,0,32.2,56Zm-.6-.6a.2.2,0,0,0,.3,0,.5.5,0,0,0,.2.4c0,.1-.2.2-.3.2l-.3-.5h.1Z"/><path class="cls-2" d="M22.9,4.8c-1.2-.2-1.8-1.9-3.2-1.5a1.8,1.8,0,0,0-1.1,1.4.7.7,0,0,0,.7.9h.2c.1,0,.1-.3-.1-.3s-.3-.5.1-.5a.6.6,0,0,1,.6.7,1.2,1.2,0,0,1-.6.6c-.1.1-.3.2-.3.4h0a.9.9,0,0,0,.5-.3l.6-.4a1.3,1.3,0,0,0,.1-.6h.5v.2h.2V5.4h.4c.2-.1.2-.2.2-.3h.2a.1.1,0,0,0,.1-.1h.1a.2.2,0,0,0,.3-.1h.2A.2.2,0,0,0,22.9,4.8Zm-3.5-.3-.5.2c0-.2.3-.4.5-.4A.1.1,0,0,0,19.4,4.5Zm.5.1h-.4c0-.1.1-.1.1-.2H20a.1.1,0,0,1,.1.1h-.2Zm.7.4h-.3a.5.5,0,0,0-.2-.4.2.2,0,0,1,.2-.2c.2.1.3.3.4.4h-.1Z"/><path class="cls-2" d="M36,54.1c1.2.3,1.8,1.9,3.2,1.5a1.5,1.5,0,0,0,1.1-1.3.7.7,0,0,0-.7-.9h-.2c-.1,0-.1.2.1.3s.3.5-.1.5-.7-.4-.6-.8l.6-.6a.5.5,0,0,0,.3-.3h0l-.5.3-.6.5a1.1,1.1,0,0,0-.1.5H38a.3.3,0,0,0-.1-.2c0-.1-.2-.2-.2-.1a.1.1,0,0,0-.1.1h-.1c-.1,0-.1,0-.1.1a.1.1,0,0,0-.1-.1h-.1c-.2,0-.2.1-.2.3h-.4c-.1-.1-.3-.1-.3.1h-.2C35.9,53.8,35.8,54.1,36,54.1Zm3.5.4a.5.5,0,0,0,.5-.3c0,.3-.3.4-.5.5S39.6,54.5,39.5,54.5Zm-.5-.2.4.2a.3.3,0,0,0-.1.2h-.2c-.1,0-.2,0-.2-.1h0A.3.3,0,0,0,39,54.3Zm-.7-.3h.3c0,.1.1.2.2.3l-.2.3c-.2-.1-.3-.3-.4-.4h.1Z"/><path class="cls-2" d="M16.7,7.4c-1.2,0-2.2-1.4-3.4-.6a1.6,1.6,0,0,0-.8,1.6.7.7,0,0,0,.9.6h.2c.2,0,.1-.3-.1-.3s-.5-.4,0-.5.8.2.7.6-.3.5-.4.7-.3.3-.2.4h.1c.1,0,.2-.2.3-.4a.7.7,0,0,0,.4-.6.5.5,0,0,0,0-.5h.5l.2.2h.7a.4.4,0,0,0,.1-.3H16c.1-.1.2-.1.2-.2s0,.1.1.1l.2-.2h.3A.2.2,0,1,0,16.7,7.4ZM13.2,8a.5.5,0,0,0-.4.3.7.7,0,0,1,.4-.6Zm.6-.1h-.4V7.7h.5v.2A.1.1,0,0,0,13.8,7.9Zm.8.2h-.3L14,8a.4.4,0,0,1,.1-.3l.6.3h-.1Z"/><path class="cls-2" d="M42.2,51.6c1.2-.1,2.2,1.4,3.4.6a1.7,1.7,0,0,0,.8-1.6.8.8,0,0,0-.9-.7c-.1,0-.2,0-.2.1s-.1.3.1.2.5.5,0,.5-.8-.1-.7-.5a4.3,4.3,0,0,1,.4-.7c.1-.2.3-.3.2-.5h-.1l-.3.4c-.2.2-.4.4-.4.6a.6.6,0,0,0,0,.6H44c-.1-.1-.1-.2-.2-.2s-.2-.1-.2,0h-.5c-.1,0-.1.2-.1.3h-.4c-.1-.1-.2,0-.2.2h-.3C41.9,51.3,41.9,51.6,42.2,51.6Zm3.5-.6.4-.3a.7.7,0,0,1-.4.5Zm-.6,0a.3.3,0,0,0,.4,0v.3H45C45.1,51.1,45.1,51.1,45.1,51Zm-.8-.1.3-.2.3.3a.4.4,0,0,1-.1.3l-.6-.3c0-.1,0-.1-.1-.1Z"/><path class="cls-2" d="M11.4,11.4c-1.2.4-2.4-.7-3.5.3a1.9,1.9,0,0,0-.3,1.8.8.8,0,0,0,1.1.4h.2c.1-.1,0-.3-.2-.2s-.6-.3-.2-.5a.6.6,0,0,1,.9.3,1.9,1.9,0,0,1-.3.8c0,.2-.1.4,0,.5h0c.2-.1.2-.3.3-.5a1.4,1.4,0,0,0,.2-.7.4.4,0,0,0-.1-.5l.5-.2h.4v-.2h.3c.2-.1.1-.2.1-.3h.1V12h.1c.2.1.3-.1.2-.2s.2,0,.2-.1S11.6,11.3,11.4,11.4ZM8.2,12.9l-.3.4c-.1-.2.1-.5.2-.6S8.2,12.8,8.2,12.9Zm.6-.2H8.3c0-.1,0-.1.1-.2h.4Zm.8,0a.2.2,0,0,0-.2.2L9,12.7c-.1-.1,0-.2,0-.3l.6.2h0Z"/><path class="cls-2" d="M47.5,47.6c1.2-.4,2.4.7,3.5-.4a1.7,1.7,0,0,0,.3-1.7.8.8,0,0,0-1.1-.4H50c-.1.1,0,.3.2.2s.6.3.2.5a.7.7,0,0,1-.9-.4,4.1,4.1,0,0,1,.3-.8c0-.1.1-.3,0-.4h0c-.2.1-.2.3-.3.5a1.4,1.4,0,0,0-.2.6.6.6,0,0,0,.1.6l-.5.2c0-.1-.1-.1-.1-.2h-.6c-.2.1-.1.2-.1.3H48c-.1,0-.1.1-.1.2a.1.1,0,0,1-.1-.1c-.2,0-.3.2-.2.3h-.2C47.1,47.3,47.3,47.6,47.5,47.6Zm3.2-1.5.3-.5c.1.3-.1.5-.2.7Zm-.6.2.5-.2a.4.4,0,0,1-.1.3h-.4v-.2C50.2,46.4,50.1,46.3,50.1,46.3Zm-.7,0c0-.1.1-.1.1-.2h.4c.1.1,0,.2,0,.4l-.6-.2h-.1C49.2,46.3,49.3,46.3,49.4,46.3Z"/><path class="cls-2" d="M7.4,16.7c-1.1.7-2.6-.1-3.3,1.2a1.5,1.5,0,0,0,.1,1.7.8.8,0,0,0,1.2.2.1.1,0,0,1,.1-.1c.1-.2-.1-.4-.2-.2s-.7-.2-.3-.4a.5.5,0,0,1,.9.1c.1.2,0,.6,0,.8s-.1.4,0,.5H6a1.3,1.3,0,0,0,.1-.6,1.7,1.7,0,0,0,.1-.7.9.9,0,0,0-.3-.5l.4-.3h.2c.1,0,.2,0,.2-.1v-.2h.1a.1.1,0,0,0,.1-.1H7c.1-.2,0-.3,0-.4H7a.1.1,0,0,0,.1-.1s.1-.1,0-.1h.1c.2-.1.2-.2.2-.3s.1-.1.2-.1S7.6,16.6,7.4,16.7ZM4.6,19a.6.6,0,0,0-.1.4c-.2-.2-.1-.4,0-.6A.3.3,0,0,1,4.6,19Zm.5-.4-.4.3v-.3h0l.3-.2h.1v.2Zm.8-.2c-.1.1-.1.2-.2.2H5.3v-.3c.2,0,.4-.1.6,0h0Z"/><path class="cls-2" d="M51.5,42.3c1.1-.7,2.6.1,3.3-1.2a1.7,1.7,0,0,0-.1-1.8.8.8,0,0,0-1.2-.1h-.1c-.1.1.1.3.2.2s.7.1.3.4a.6.6,0,0,1-.9-.1,2.7,2.7,0,0,1,0-.9c0-.1.1-.3,0-.4h-.1c-.1.1-.1.4-.1.5a2.2,2.2,0,0,0-.1.8c0,.2.2.3.3.4s-.2.3-.4.4h-.2c-.1-.1-.2,0-.2.1H52a.1.1,0,0,1-.1.1c-.1.1,0,.2,0,.3h-.1c0,.1-.1.1,0,.2h-.1c-.2,0-.2.2-.2.3h-.2C51.2,42.1,51.3,42.4,51.5,42.3ZM54.3,40a.7.7,0,0,0,.1-.5c.2.2.1.5,0,.7S54.3,40.1,54.3,40Zm-.5.3.4-.2v.4h-.4Zm-.8.3.2-.3h.4v.3h-.7A.1.1,0,0,1,53,40.6Z"/><path class="cls-2" d="M4.8,22.8c-.8,1-2.5.6-2.9,2.1a1.7,1.7,0,0,0,.7,1.6.7.7,0,0,0,1.1-.2.1.1,0,0,1,.1-.1c.1-.2-.2-.3-.3-.1s-.6,0-.4-.4.7-.4.9-.1a1.5,1.5,0,0,1,.2.9.8.8,0,0,0,.2.4h.1v-.5a6.4,6.4,0,0,0-.2-.7.8.8,0,0,0-.4-.4c0-.2.2-.3.3-.4h.3c.1,0,.1-.1.1-.2a.1.1,0,0,0-.1-.1c.1,0,.1,0,.1-.1h0c.1,0,.1,0,.1-.1h.1c0-.2,0-.3-.1-.3h.1c0-.1,0-.1.1-.1s.1-.2,0-.3h.2A.2.2,0,0,0,4.8,22.8Zm-2,2.9a1.3,1.3,0,0,0-.1.6.6.6,0,0,1-.1-.7Zm.4-.4-.4.3a.3.3,0,0,1-.1-.2h0L3,25H3c0,.1,0,.1.1.1S3.1,25.3,3.2,25.3Zm.6-.4c0,.1-.1.2-.1.3H3.3c-.1,0-.1-.2-.1-.3l.6-.2h.1C3.9,24.8,3.8,24.8,3.8,24.9Z"/><path class="cls-2" d="M54.1,36.1c.8-.9,2.5-.6,2.9-2a1.6,1.6,0,0,0-.7-1.6.7.7,0,0,0-1.1.1c0,.1,0,.1-.1.2s.2.3.3.1.7,0,.4.3-.7.4-.9.1a1.1,1.1,0,0,1-.2-.8.8.8,0,0,0-.2-.4h-.1v.6c.1.2.1.5.2.7a.8.8,0,0,0,.4.4c0,.1-.2.3-.3.4h-.3c-.1-.1-.1,0-.1.1s0,.1.1.1-.1.1-.1.2h-.2a.4.4,0,0,0,.1.3h0a.3.3,0,0,0-.1.2H54c-.1.1-.1.3,0,.3l-.2.2C53.7,36.1,53.9,36.3,54.1,36.1Zm2-2.9a.7.7,0,0,0,.1-.5.6.6,0,0,1,.1.7C56.3,33.3,56.2,33.3,56.1,33.2Zm-.4.5a.8.8,0,0,0,.4-.4c0,.1.1.2.1.3h0l-.3.2h0c0-.1,0-.1-.1-.2Zm-.6.4c0-.1.1-.2.1-.3h.4c.1,0,.1.1.1.3h-.6Z"/><path class="cls-2" d="M3.9,29.4c-.5,1.2-2.2,1.3-2.2,2.7a1.6,1.6,0,0,0,1,1.5.7.7,0,0,0,1-.5.1.1,0,0,0,.1-.1c.1-.2-.2-.3-.3-.1s-.6.2-.4-.2.5-.6.8-.4a2,2,0,0,1,.4.8c.1.1.1.3.3.3h0c.1-.2-.1-.4-.1-.5l-.3-.7-.5-.3c-.1-.1.1-.3.2-.5h.2c.1,0,.2-.1.1-.2H4.1a.1.1,0,0,0,.1-.1h0c.1-.1,0-.2-.1-.2h0v-.2h.1a.2.2,0,0,0-.1-.3v-.2C4.3,29.4,4,29.2,3.9,29.4ZM2.7,32.8a1.1,1.1,0,0,0,.1.5.7.7,0,0,1-.3-.6Zm.3-.6-.3.4H2.6v-.4a.1.1,0,0,1,.1-.1H3Zm.5-.5V32H3.1c-.1,0-.1-.1-.2-.2l.6-.4h.1Z"/><path class="cls-2" d="M55,29.5c.5-1.1,2.2-1.2,2.2-2.7a1.5,1.5,0,0,0-1-1.4.7.7,0,0,0-1,.4.3.3,0,0,0-.1.2c-.1.2.2.2.3.1s.6-.2.5.2-.6.6-.9.3a2.5,2.5,0,0,1-.4-.7c-.1-.1-.1-.3-.3-.4h0c-.1.1.1.4.1.5l.3.7.5.2c.1.2-.1.3-.2.5h-.2c-.1,0-.2.2-.1.2a.1.1,0,0,0,.1.1c0,.1-.1.1-.1.2h0c-.1.2,0,.2.1.3h0v.2h-.1c-.1.1,0,.2.1.3s-.1.1-.1.2S54.9,29.7,55,29.5Zm1.2-3.3a.7.7,0,0,0-.1-.5.6.6,0,0,1,.3.6C56.4,26.2,56.3,26.2,56.2,26.2Zm-.3.5.3-.4c0,.1.1.1.1.2h0v.3a.1.1,0,0,0-.1.1v-.2Zm-.5.6V27h.4c.1,0,.1.1.2.2l-.6.3a.1.1,0,0,1-.1.1Z"/><path class="cls-2" d="M4.8,36c-.3,1.3-1.9,1.8-1.5,3.2a1.7,1.7,0,0,0,1.4,1.2.7.7,0,0,0,.8-.7.3.3,0,0,0,.1-.2.1.1,0,1,0-.3,0c-.1.5-.6.4-.5-.1s.3-.7.7-.5.4.4.6.6l.3.2h.1a.9.9,0,0,0-.3-.5,1.2,1.2,0,0,0-.5-.5c-.1-.2-.3-.2-.5-.2s0-.3,0-.5h.3c.1,0,.1-.1,0-.2H5.4a.2.2,0,0,0-.2-.2h0c0-.1,0-.2-.1-.2h.1c.1-.1,0-.2-.1-.3v-.2C5.2,35.9,4.8,35.8,4.8,36Zm-.3,3.6a.5.5,0,0,0,.2.4c-.3,0-.4-.2-.5-.5Zm.1-.6a.6.6,0,0,0-.1.4c-.1,0-.2,0-.2-.1H4.2a.4.4,0,0,1,.1-.3h.3Zm.4-.7v.3l-.3.2c-.1,0-.2,0-.2-.2s.2-.3.4-.4a.1.1,0,0,1,.1-.1Z"/><path class="cls-2" d="M54.1,22.9c.3-1.2,1.9-1.8,1.5-3.2a1.8,1.8,0,0,0-1.4-1.1.7.7,0,0,0-.8.7c-.1.1-.1.1-.1.2a.2.2,0,1,0,.3,0c.1-.5.6-.4.5.1s-.3.7-.7.5-.4-.4-.6-.6-.2-.3-.3-.3a.1.1,0,0,0-.1.1l.3.5a1.2,1.2,0,0,0,.5.5.4.4,0,0,0,.5.1c.1.2,0,.4,0,.6h-.3a.2.2,0,0,0,0,.3h.1v.2h0v.2l.2.2h0v.2h-.1c-.1.1,0,.2.1.2v.3C53.7,23.1,54.1,23.1,54.1,22.9Zm.3-3.5a.8.8,0,0,0-.2-.5.8.8,0,0,1,.5.5Zm-.1.6a.9.9,0,0,0,.1-.5.2.2,0,0,1,.2.2c.1,0,.1,0,.1.1a.4.4,0,0,1-.1.3h0c-.1,0-.1,0-.1-.1Zm-.4.6v-.2l.3-.3a.2.2,0,0,1,.2.2l-.4.5h-.1Z"/><path class="cls-2" d="M7.3,42.2c.1,1.3-1.3,2.2-.6,3.5a1.6,1.6,0,0,0,1.6.7.8.8,0,0,0,.7-.9v-.2c-.1-.2-.3-.1-.3.1s-.4.5-.5.1a.6.6,0,0,1,.6-.8l.7.5c.1.1.2.2.4.1h0c0-.2-.3-.3-.4-.4l-.6-.4a.4.4,0,0,0-.5,0,.7.7,0,0,1-.1-.5c0-.1.1-.1.2-.2s.1-.1,0-.2H8.2a.1.1,0,0,0,.1-.1H8.2c0-.2-.1-.2-.2-.2H7.9c0-.1,0-.1-.1-.2h0c.1-.2,0-.3-.1-.3v-.2C7.6,42,7.3,42,7.3,42.2Zm.6,3.5a.8.8,0,0,0,.4.4.7.7,0,0,1-.6-.4Zm0-.6v.5H7.7a.1.1,0,0,1-.1-.1v-.3h.3Zm.2-.7c0,.1,0,.1.1.2s-.2.2-.2.3-.2,0-.3-.1l.3-.5H8A.3.3,0,0,1,8.1,44.4Z"/><path class="cls-2" d="M51.6,16.8c-.1-1.3,1.3-2.2.6-3.5a1.5,1.5,0,0,0-1.6-.7.7.7,0,0,0-.7.9h0c.1.2.3.1.3-.1s.4-.4.5,0a.5.5,0,0,1-.6.7c-.2,0-.5-.3-.7-.4a.5.5,0,0,0-.4-.2h0c0,.1.3.3.4.4l.6.4h.5a.7.7,0,0,1,.1.5h-.2a.1.1,0,0,0,0,.2h.2a.1.1,0,0,0,.1.1h.4c-.1.2,0,.3.1.3v.2C51.3,17,51.6,17,51.6,16.8ZM51,13.3l-.4-.4a.5.5,0,0,1,.6.4C51.1,13.2,51,13.2,51,13.3Zm0,.6v-.5h.3v.3H51Zm-.2.7c0-.1,0-.2-.1-.2a.5.5,0,0,0,.2-.4l.3.2-.3.5h0C50.9,14.7,50.8,14.7,50.8,14.6Z"/><path class="cls-2" d="M11.4,47.5c.4,1.2-.8,2.5.3,3.5a1.5,1.5,0,0,0,1.7.3.8.8,0,0,0,.4-1.1h0c-.1-.2-.4,0-.3.1s-.3.6-.5.2,0-.8.4-.8a1.1,1.1,0,0,1,.8.2h.5l-.5-.3-.7-.2c-.2,0-.4,0-.5.2s-.2-.3-.3-.5.2-.1.2-.2,0-.2-.1-.2h-.1c0-.1,0-.1-.1-.1h-.5a.1.1,0,0,0-.1-.1h0c0-.2-.1-.2-.2-.2s-.1-.1-.1-.2S11.3,47.3,11.4,47.5Zm1.5,3.2c.1.2.2.3.4.3a.7.7,0,0,1-.7-.2Zm-.2-.5a.6.6,0,0,0,.1.4h-.4v-.3h.3Zm0-.8c0,.1.1.1.2.2a.5.5,0,0,0-.2.4h-.3c0-.2.1-.4.1-.6h.1Z"/><path class="cls-2" d="M47.5,11.5c-.4-1.2.8-2.5-.3-3.5a1.4,1.4,0,0,0-1.7-.3.7.7,0,0,0-.4,1v.2c.1.2.4,0,.3-.2s.3-.6.5-.1a.6.6,0,0,1-.4.8l-.8-.2a.4.4,0,0,0-.5-.1h0l.5.2c.2.2.5.2.7.3l.5-.2c.2.1.2.3.3.5l-.2.2c-.1.1,0,.2.1.2h.2c.1,0,.1,0,.1.1h.5a.2.2,0,0,0,.2.2c.1,0,.1.1.1.2S47.6,11.7,47.5,11.5ZM46,8.2,45.6,8a.7.7,0,0,1,.7.2Zm.2.6c0-.2,0-.3-.1-.4h.4v.3h-.3Zm0,.8V9c.1-.1.2,0,.3.1a4.3,4.3,0,0,1-.1.5c0,.1-.1.1-.1.2S46.3,9.6,46.2,9.6Z"/><path class="cls-2" d="M16.6,51.6c.7,1,0,2.5,1.3,3.3a1.5,1.5,0,0,0,1.7-.2.7.7,0,0,0,.1-1.1c0-.1,0-.1-.1-.2s-.3.1-.2.3-.1.6-.4.2a.6.6,0,0,1,.2-.9,1.2,1.2,0,0,1,.8.1h-.8l-.5.2c-.1,0-.2-.2-.3-.4a.3.3,0,0,1,.1-.2.2.2,0,0,0-.2-.2h-.8c0-.1-.1-.1-.2-.1h0c0-.2-.2-.2-.3-.1s0-.2-.1-.2S16.5,51.4,16.6,51.6Zm2.3,2.7c.2.1.3.2.5.1a.5.5,0,0,1-.7,0C18.8,54.4,18.9,54.4,18.9,54.3Zm-.3-.5c.1.1.1.3.2.4h-.3c-.1-.1-.2-.2-.2-.3h0a.1.1,0,0,0,.1.1Zm-.2-.7h.2c0,.1-.1.3,0,.4s-.2.1-.4,0V53a.1.1,0,0,1,.1-.1C18.3,53,18.3,53,18.4,53.1Z"/><path class="cls-2" d="M42.3,7.4c-.7-1,0-2.6-1.3-3.3a1.5,1.5,0,0,0-1.7.2.7.7,0,0,0-.1,1.1h.1c.1.2.3-.1.2-.2s.1-.6.4-.3.2.8-.2.9h-.8c-.1,0-.3-.1-.4.1h0l.5.2h.7a.5.5,0,0,0,.5-.3l.3.4a.4.4,0,0,1-.1.3c0,.1.1.2.2.1h.8c0,.1.1.1.2.1h0a.2.2,0,0,0,.3.1v.2C42.1,7.8,42.4,7.6,42.3,7.4ZM40,4.7l-.5-.2h.7C40.1,4.6,40,4.6,40,4.7Zm.3.5a.5.5,0,0,0-.2-.4h.3l.2.2h-.1C40.4,5.1,40.3,5.1,40.3,5.2Zm.2.7h-.2c0-.2.1-.3,0-.4h.4v.6Z"/><path class="cls-2" d="M22.8,54.1c.9.9.6,2.5,2,2.9a1.6,1.6,0,0,0,1.7-.6.7.7,0,0,0-.2-1.1h-.1c-.2-.1-.3.1-.2.2s.1.7-.3.4-.4-.7-.1-.9a1.2,1.2,0,0,1,.8-.2c.2,0,.4,0,.4-.2h0c-.1-.1-.4,0-.6,0h-.7a.5.5,0,0,0-.3.4c-.2,0-.3-.1-.5-.3s.1-.1.1-.2a.2.2,0,0,0-.2-.2h-.1a.1.1,0,0,0-.1-.1h-.3c-.1-.1-.2,0-.3.1h-.1c0-.1-.1-.1-.2,0h0c-.1-.2-.2-.2-.3-.1H23C22.9,53.7,22.6,54,22.8,54.1Zm2.9,2.1h.5c-.1.2-.4.2-.7.1Zm-.4-.4c0,.1.2.2.3.3h-.4L25,56h.3Zm-.4-.7c0,.1.1.1.2.1a.6.6,0,0,0,.1.4h-.3a1.4,1.4,0,0,1-.2-.6h.2Z"/><path class="cls-2" d="M36.1,4.8c-.9-.8-.6-2.5-2-2.8a1.6,1.6,0,0,0-1.7.6.7.7,0,0,0,.2,1.1h.1c.2.1.3-.2.2-.3s-.1-.6.3-.3a.6.6,0,0,1,.1.9l-.8.2c-.2,0-.4,0-.4.1h.6l.7-.2c.2,0,.3-.2.3-.4s.3.2.5.3v.3c0,.1.1.2.2.1h.1a.1.1,0,0,1,.1.1h.3c.1.1.2,0,.3-.1h.6c.1.1.1.2.2.2S36.3,5,36.1,4.8Zm-2.9-2h-.5a.6.6,0,0,1,.7-.2Zm.4.4a.5.5,0,0,0-.3-.3h.4l.2.2h-.3Zm.4.6h-.2c0-.2,0-.3-.1-.4H34a.8.8,0,0,1,.2.5V4C34.2,3.9,34.1,3.9,34,3.8Z"/><path class="cls-2" d="M30.4.6c-.3.2-.4.6-.8.7a.9.9,0,0,1-.7-.1c-.2-.1-.3-.4-.5-.5s-.2,0-.2.1a1.3,1.3,0,0,0,1.2.7,1.2,1.2,0,0,0,1-.8Z"/><path class="cls-2" d="M30.3,3.7a.8.8,0,0,0-.5-.5,1.1,1.1,0,0,0-1.3.9c0,.2.2.2.3.1a2.1,2.1,0,0,1,.4-.6c.2-.1.5-.2.7,0s.3.5.6.6h.1Z"/><path class="cls-2" d="M29.8,2.1c-.1-.3-.4-.3-.6-.1l-.2.3c0,.1,0,.1.1.2a.4.4,0,0,0,.1.3.7.7,0,0,0,.6-.1A.4.4,0,0,0,29.8,2.1Zm-.3.4h-.2c0-.1.1-.2.1-.3h.2A.2.2,0,0,1,29.5,2.5Z"/><path class="cls-2" d="M27.6.6h-.1l.3.6h-.6L26.9.9h-.1c.1.5.4.9.5,1.5A6.3,6.3,0,0,1,27,4.3c0,.2.3.2.3.1s.1-.4.1-.6H28l-.2.4c0,.2.2.3.3.1A3.2,3.2,0,0,0,27.6.6Zm.6,1.8a.2.2,0,0,0-.3,0h-.4V2.1h.3c.1,0,.2.1.3,0S28.2,2.3,28.2,2.4Zm-.7-.8h.4c.1.1.1.2.1.4h-.6V1.6Zm.2,2h-.3a.7.7,0,0,0,.1-.5h.6a.8.8,0,0,1-.1.4C28,3.5,27.8,3.6,27.7,3.6Zm.1-.7h-.3V2.6h.7v.3Z"/><path class="cls-2" d="M32.1,4.1A4,4,0,0,1,31.9.7h0c-.3,0-.4.2-.5.5H31a1.4,1.4,0,0,0,.2-.6c.1,0,0-.1,0-.1s-.9,3.9,0,3.8a.3.3,0,0,0,.1-.2c-.1-.1-.2-.2-.2-.3l.5-.2.3.7C32,4.5,32.2,4.3,32.1,4.1ZM30.9,1.4h.5a.4.4,0,0,1-.1.3h-.5C30.9,1.6,30.9,1.5,30.9,1.4Zm-.1.5h0c.1,0,.3.1.5,0v.4h-.5Zm0,1.1c0-.2-.1-.3-.1-.4h.6a.8.8,0,0,1,.1.4Zm.1.5h0c0-.1,0-.2-.1-.2h.4c.1,0,.2,0,.2-.1a.4.4,0,0,1,.1.3Z"/><path class="cls-2" d="M29.7.6c-.1.1-.2.3-.3.3h-.2a.1.1,0,0,1-.1-.1h0c-.1,0-.1,0-.1.1a.4.4,0,0,0,.4.3.7.7,0,0,0,.5-.4C30,.6,29.8.5,29.7.6Z"/><path class="cls-2" d="M29.6,3.7a.4.4,0,0,0-.5.4c0,.2.2.2.2.1s.1-.3.3-.3l.3.3a.1.1,0,0,0,.1-.1A.4.4,0,0,0,29.6,3.7Z"/><path class="cls-2" d="M28.5,1.3a.2.2,0,1,0,0,.3C28.6,1.6,28.6,1.3,28.5,1.3Z"/><path class="cls-2" d="M28.8,1.9c-.1,0-.1.2,0,.2S29,1.9,28.8,1.9Z"/><path class="cls-2" d="M28.9,2.8s-.1.1,0,.1H29C29.1,2.9,29,2.8,28.9,2.8Z"/><path class="cls-2" d="M28.6,3.2c-.1,0-.1.2,0,.2S28.7,3.2,28.6,3.2Z"/><path class="cls-2" d="M30.1,1.7a.1.1,0,0,0,0,.3C30.2,2,30.2,1.7,30.1,1.7Z"/><path class="cls-2" d="M30.3,1.4h0C30.5,1.6,30.5,1.3,30.3,1.4Z"/><path class="cls-2" d="M30.1,2.7c-.2,0-.2.2,0,.2S30.2,2.7,30.1,2.7Z"/><path class="cls-2" d="M30.3,3.1c-.1,0-.1.2,0,.2S30.5,3.1,30.3,3.1Z"/><path class="cls-2" d="M27,1.8a.2.2,0,1,0,0,.3C27.1,2.1,27.1,1.8,27,1.8Z"/><path class="cls-2" d="M27.1,3.1c-.2,0-.2.2,0,.2S27.2,3.1,27.1,3.1Z"/><path class="cls-2" d="M27,2.6h0c0,.1.1.1.2,0h0C27.2,2.4,26.9,2.4,27,2.6Z"/><path class="cls-2" d="M31.8,1.6c.2,0,.2.2.1.3S31.7,1.6,31.8,1.6Z"/><path class="cls-2" d="M31.9,2.8c.1,0,.1.3,0,.3S31.7,2.9,31.9,2.8Z"/><path class="cls-2" d="M31.9,2.3h0c0,.1-.1.2-.2.1h0C31.6,2.2,31.9,2.2,31.9,2.3Z"/><path class="cls-2" d="M28.6,58.4c.3-.1.3-.5.7-.7l.7.2c.3.1.3.3.5.5s.3-.1.2-.2a1.2,1.2,0,0,0-1.2-.7c-.5,0-.8.5-1,.9S28.5,58.5,28.6,58.4Z"/><path class="cls-2" d="M28.6,55.4a.7.7,0,0,0,.5.4,1,1,0,0,0,1.3-.9c.1-.1-.2-.2-.2-.1a.9.9,0,0,1-.4.6.8.8,0,0,1-.8.1c-.2-.2-.3-.6-.5-.6s-.1,0-.1,0h0C28.4,55.1,28.6,55.2,28.6,55.4Z"/><path class="cls-2" d="M29.1,57a.5.5,0,0,0,.7.1.6.6,0,0,0,.1-.4h0c0-.1-.1-.2-.2-.3h-.6A.9.9,0,0,0,29.1,57Zm.3-.5h.2c0,.1,0,.2-.1.2s0,.1-.1.1h-.1A.2.2,0,0,1,29.4,56.5Z"/><path class="cls-2" d="M31.3,58.4c0,.1.1,0,.1,0l-.3-.6h.6l.3.6c.1,0,.2,0,.2-.1a3.9,3.9,0,0,1-.5-1.4,4.6,4.6,0,0,1,.2-2c0-.1-.2-.2-.3,0a4.3,4.3,0,0,1-.1.5H31a.6.6,0,0,1,.1-.4.2.2,0,0,0-.3-.1A3.4,3.4,0,0,0,31.3,58.4Zm-.5-1.7h.6a.4.4,0,0,0,.1.3h-.7Zm.7.8H31c0-.1-.1-.2-.1-.3h.6c0,.1.1.2.1.4Zm-.3-2.1h.3c0,.2-.1.3-.1.5h-.6a.4.4,0,0,1,.1-.3Zm-.1.7h.3v.3h-.7a.4.4,0,0,1,.1-.3Z"/><path class="cls-2" d="M26.8,54.9a3.7,3.7,0,0,1,.2,3.4.1.1,0,0,0,.1.1c.2,0,.3-.3.4-.6h.4a.8.8,0,0,1-.2.5h0c1-.3,1-3.8,0-3.7s-.1.1,0,.2.1.2.2.3h-.6a2.5,2.5,0,0,0-.2-.7C27,54.6,26.7,54.7,26.8,54.9ZM28,57.6h-.5a.4.4,0,0,0,.1-.3h.5C28.1,57.5,28,57.5,28,57.6Zm.1-.5h-.5v-.4h.6A.4.4,0,0,1,28.1,57.1Zm0-1c.1.1.1.2.1.4h0c-.2,0-.4-.1-.6,0a.6.6,0,0,0-.1-.4c.2.1.5,0,.6,0Zm-.1-.5h0v.2h-.6c0-.1-.1-.2-.1-.3Z"/><path class="cls-2" d="M29.2,58.5a.8.8,0,0,1,.4-.4H30c0-.2-.3-.4-.4-.4a.7.7,0,0,0-.6.4C28.9,58.4,29.1,58.6,29.2,58.5Z"/><path class="cls-2" d="M29.4,55.4c.2,0,.4-.2.5-.5s-.3-.2-.3-.1-.1.3-.2.3-.2-.2-.3-.2H29C28.9,55.1,29.2,55.4,29.4,55.4Z"/><path class="cls-2" d="M30.5,57.7c.1,0,.1-.3,0-.3A.2.2,0,1,0,30.5,57.7Z"/><path class="cls-2" d="M30.1,57.2c.1,0,.1-.3,0-.3A.2.2,0,0,0,30.1,57.2Z"/><path class="cls-2" d="M30,56.2a.1.1,0,0,0,.1-.1h-.2A.1.1,0,0,0,30,56.2Z"/><path class="cls-2" d="M30.3,55.8c.2,0,.2-.2,0-.2S30.2,55.8,30.3,55.8Z"/><path class="cls-2" d="M28.8,57.3c.2,0,.2-.2,0-.2S28.7,57.3,28.8,57.3Z"/><path class="cls-2" d="M28.6,57.6h0C28.5,57.4,28.5,57.8,28.6,57.6Z"/><path class="cls-2" d="M28.9,56.3c.1,0,.1-.2,0-.2S28.7,56.3,28.9,56.3Z"/><path class="cls-2" d="M28.6,55.9c.1,0,.1-.2,0-.2S28.5,55.9,28.6,55.9Z"/><path class="cls-2" d="M32,57.2c.1,0,.1-.3,0-.3A.2.2,0,1,0,32,57.2Z"/><path class="cls-2" d="M31.9,56c.1,0,.1-.3,0-.3A.1.1,0,0,0,31.9,56Z"/><path class="cls-2" d="M32,56.5h-.2C31.7,56.6,32,56.6,32,56.5Z"/><path class="cls-2" d="M27.1,57.5a.1.1,0,0,1,0-.3C27.2,57.2,27.3,57.4,27.1,57.5Z"/><path class="cls-2" d="M27.1,56.2c-.2,0-.2-.2-.1-.3S27.2,56.2,27.1,56.2Z"/><path class="cls-2" d="M27,56.7h0c0-.1.2-.1.2,0h0C27.3,56.8,27,56.9,27,56.7Z"/><path class="cls-2" d="M22.8,1.3c-.2.3-.2.7-.5.9h-.7c-.3-.1-.4-.3-.6-.4a.2.2,0,0,0-.2.2,1.3,1.3,0,0,0,1.4.4c.5-.1.7-.7.7-1.1Z"/><path class="cls-2" d="M23.6,4.3,23,4a1,1,0,0,0-1,1.2c0,.2.2.2.2,0s.1-.4.3-.6a.7.7,0,0,1,.7-.3c.2.2.4.5.7.5h0C23.9,4.6,23.7,4.4,23.6,4.3Z"/><path class="cls-2" d="M22.7,2.9A.4.4,0,0,0,22,3v.4a.1.1,0,0,0,.1.1.2.2,0,0,0,.2.2.4.4,0,0,0,.5-.2C23,3.3,22.9,3.1,22.7,2.9Zm-.2.5a.1.1,0,0,1-.1.1h-.1V3.2h.2C22.6,3.2,22.6,3.4,22.5,3.4Z"/><path class="cls-2" d="M20.2,2.1c-.1-.1-.1,0-.1.1l.4.5h-.2L20,3l-.4-.5c-.1,0-.2,0-.1.1s.6.7.8,1.3a5.8,5.8,0,0,1,.3,1.9c0,.1.3.2.3,0a1.3,1.3,0,0,0-.1-.6h.6a.6.6,0,0,1-.1.4c0,.2.3.2.3.1A3.3,3.3,0,0,0,20.2,2.1Zm1,1.5h-.3l-.3.2-.2-.3h.7A.3.3,0,0,0,21.2,3.6ZM20.3,3h.4c.1.1.2.2.2.3h-.3c-.1,0-.2,0-.2.1l-.3-.3Zm.8,1.9h-.3a1.1,1.1,0,0,0-.1-.5h.7v.4Zm-.2-.6h-.2a.6.6,0,0,0-.1-.4h.7v.3Z"/><path class="cls-2" d="M25.5,4.3a3.6,3.6,0,0,1-1.1-3.2c0-.1,0-.1-.1-.1a.8.8,0,0,0-.3.7h-.4c0-.2.1-.4.1-.6s0-.1-.1,0,.1,3.9,1,3.6.1-.2,0-.2l-.3-.3.5-.2.4.5C25.4,4.7,25.6,4.5,25.5,4.3ZM23.6,2H24a.4.4,0,0,1,.1.3h-.5Zm0,.5h.5a.4.4,0,0,1,.1.3h-.5A.8.8,0,0,1,23.6,2.5Zm.3,1-.2-.3h.6c0,.1.1.2.1.3l-.5.2Zm.2.5h0c0-.1-.1-.1-.1-.2h0l.4-.2a.1.1,0,0,0,.1-.1l.2.3Z"/><path class="cls-2" d="M22.2,1.5a.8.8,0,0,1-.2.4h-.5c.1.2.4.3.5.2s.4-.3.5-.5S22.3,1.4,22.2,1.5Z"/><path class="cls-2" d="M22.9,4.5a.5.5,0,0,0-.4.6c0,.1.3.1.3,0s0-.3.1-.3h.5C23.4,4.6,23.1,4.5,22.9,4.5Z"/><path class="cls-2" d="M21.2,2.6c-.1,0-.1.2.1.2S21.4,2.5,21.2,2.6Z"/><path class="cls-2" d="M21.7,3c-.1,0-.1.2.1.2S21.8,2.9,21.7,3Z"/><path class="cls-2" d="M22,3.8c0,.1-.1.2,0,.2h.1C22.2,3.9,22.1,3.8,22,3.8Z"/><path class="cls-2" d="M21.8,4.4c-.1,0-.1.2.1.2S21.9,4.3,21.8,4.4Z"/><path class="cls-2" d="M22.9,2.5c-.2.1-.1.3,0,.2S23,2.5,22.9,2.5Z"/><path class="cls-2" d="M23,2.1h0C23.2,2.3,23.1,2,23,2.1Z"/><path class="cls-2" d="M23.1,3.5c-.1,0-.1.2.1.2S23.2,3.4,23.1,3.5Z"/><path class="cls-2" d="M23.5,3.8c-.1,0-.1.2,0,.2S23.6,3.8,23.5,3.8Z"/><path class="cls-2" d="M19.9,3.4c-.2,0-.1.3.1.3S20.1,3.4,19.9,3.4Z"/><path class="cls-2" d="M20.3,4.6c-.1,0-.1.3.1.2S20.5,4.6,20.3,4.6Z"/><path class="cls-2" d="M20.1,4.1h0c0,.1.2.1.2,0h0C20.3,3.9,20,4,20.1,4.1Z"/><path class="cls-2" d="M24.5,1.9c.2,0,.3.2.1.3S24.4,2,24.5,1.9Z"/><path class="cls-2" d="M24.9,3.1a.2.2,0,0,1,.1.3C24.8,3.4,24.7,3.2,24.9,3.1Z"/><path class="cls-2" d="M24.4,2.6h0c0,.1-.1.2-.1.1h0C24.2,2.6,24.4,2.5,24.4,2.6Z"/><path class="cls-2" d="M36.1,57.7c.2-.3.2-.7.5-.9h.8l.5.4c.2.1.3-.1.2-.2a1.4,1.4,0,0,0-1.4-.4c-.5.2-.6.7-.7,1.1A.1.1,0,0,0,36.1,57.7Z"/><path class="cls-2" d="M35.3,54.7a.9.9,0,0,0,.7.3,1.1,1.1,0,0,0,1-1.2c-.1-.2-.3-.2-.3,0a6.4,6.4,0,0,0-.2.7,1.1,1.1,0,0,1-.8.2c-.2-.1-.4-.4-.6-.4H35C35,54.5,35.2,54.6,35.3,54.7Z"/><path class="cls-2" d="M36.2,56.1a.5.5,0,0,0,.7,0c.1-.2.1-.3,0-.4v-.2c-.1-.1-.1-.2-.3-.2a.4.4,0,0,0-.5.2C36,55.7,36,56,36.2,56.1Zm.2-.5h.2v.3h-.1c0,.1-.1,0-.1,0S36.3,55.7,36.4,55.6Z"/><path class="cls-2" d="M38.7,57a.1.1,0,0,0,.1-.1l-.4-.5h.2l.3-.2.5.4c0,.1.1,0,.1-.1a5.4,5.4,0,0,1-.9-1.2,6.3,6.3,0,0,1-.3-1.9c0-.2-.2-.2-.2,0v.5h-.5v-.4c0-.1-.3-.2-.3,0A3.5,3.5,0,0,0,38.7,57Zm-1-1.6H38l.4-.2a.6.6,0,0,0,.1.4h-.7A.3.3,0,0,0,37.7,55.4Zm.9.6-.4.2h0l-.2-.3h.3l.3-.2c0,.1.1.2.2.4Zm-.8-1.9h.3c0,.2.1.3.1.5h-.6c0-.1-.1-.3-.1-.4Zm.2.7h.2c0,.1.1.2.1.3s-.2,0-.2.1h-.4a.4.4,0,0,1-.1-.3Z"/><path class="cls-2" d="M33.5,54.7a3.9,3.9,0,0,1,1,3.2.1.1,0,0,0,.1.1c.3-.1.3-.3.3-.6h.4a1.3,1.3,0,0,1-.1.6h.1c.8-.6-.1-4-1-3.6s-.1.1,0,.2l.3.2-.5.3-.4-.6C33.5,54.4,33.3,54.6,33.5,54.7ZM35.3,57h-.4c0-.1,0-.2-.1-.2h.5Zm0-.5h-.5c0-.1-.1-.2-.1-.3h.6Zm-.2-1c0,.1.1.2.1.4h0l-.6.2c0-.2-.1-.3-.1-.4l.5-.2Zm-.3-.5h0a.3.3,0,0,1,.1.2h0l-.3.2h-.2l-.2-.3A.7.7,0,0,0,34.8,55Z"/><path class="cls-2" d="M36.7,57.5c.1-.1.1-.3.3-.4h.2a.1.1,0,0,0,.1.1h0c.1,0,.1,0,.1-.1a.4.4,0,0,0-.5-.2c-.2,0-.4.3-.5.5A.2.2,0,0,0,36.7,57.5Z"/><path class="cls-2" d="M36.1,54.5c.2,0,.4-.3.3-.6s-.2-.1-.3,0,0,.3-.1.3-.3,0-.4-.1-.1,0,0,.1A.4.4,0,0,0,36.1,54.5Z"/><path class="cls-2" d="M37.7,56.5c.2-.1.1-.3-.1-.3A.2.2,0,0,0,37.7,56.5Z"/><path class="cls-2" d="M37.2,56.1c.2-.1.1-.3,0-.3S37.1,56.1,37.2,56.1Z"/><path class="cls-2" d="M36.9,55.2c.1,0,.1-.1,0-.2h-.1A.1.1,0,0,0,36.9,55.2Z"/><path class="cls-2" d="M37.1,54.7c.1-.1.1-.3,0-.2S37,54.7,37.1,54.7Z"/><path class="cls-2" d="M36,56.5c.2,0,.1-.2,0-.2S35.9,56.5,36,56.5Z"/><path class="cls-2" d="M35.9,56.9h0C35.7,56.7,35.8,57.1,35.9,56.9Z"/><path class="cls-2" d="M35.8,55.6c.2-.1.1-.3,0-.2S35.7,55.6,35.8,55.6Z"/><path class="cls-2" d="M35.4,55.3c.2-.1.1-.2,0-.2S35.3,55.3,35.4,55.3Z"/><path class="cls-2" d="M39,55.6c.2,0,.1-.3,0-.2S38.9,55.7,39,55.6Z"/><path class="cls-2" d="M38.6,54.4c.2,0,.1-.2,0-.2S38.5,54.5,38.6,54.4Z"/><path class="cls-2" d="M38.8,54.9h0c0-.1-.1-.1-.1,0h0C38.6,55.1,38.9,55,38.8,54.9Z"/><path class="cls-2" d="M34.4,57.1c-.2.1-.3-.2-.1-.2S34.6,57.1,34.4,57.1Z"/><path class="cls-2" d="M34.1,55.9c-.2.1-.3-.2-.1-.2S34.2,55.8,34.1,55.9Z"/><path class="cls-2" d="M34.4,56.4h0c0-.1.1-.2.2-.1h0C34.7,56.5,34.4,56.6,34.4,56.4Z"/><path class="cls-2" d="M15.8,4c-.2.3-.1.7-.3,1a1.1,1.1,0,0,1-.7.3l-.7-.2c-.1-.1-.2.1-.1.2a1.6,1.6,0,0,0,1.5,0c.4-.2.4-.8.4-1.3Z"/><path class="cls-2" d="M17.3,6.7a.9.9,0,0,0-.7-.1A1.1,1.1,0,0,0,15.9,8c.1.1.3.1.3-.1a1.6,1.6,0,0,1,0-.7.8.8,0,0,1,.7-.4,1.9,1.9,0,0,0,.8.3h0Z"/><path class="cls-2" d="M16.1,5.6a.4.4,0,0,0-.7.2.6.6,0,0,0,.1.4h.1c.1.1.1.2.3.2a.4.4,0,0,0,.4-.4A.4.4,0,0,0,16.1,5.6Zm-.1.5a.1.1,0,1,1-.2,0V5.9h.1C16.1,5.8,16.1,6,16,6.1Z"/><path class="cls-2" d="M13.4,5.4s-.1.1,0,.1a1,1,0,0,0,.5.4l-.2.2-.2.2L12.9,6h-.1l1.2,1a5.8,5.8,0,0,1,.8,1.8c0,.1.3.1.2-.1a.8.8,0,0,0-.2-.5l.5-.3a.8.8,0,0,1,.1.4.2.2,0,0,0,.3,0A3.2,3.2,0,0,0,13.4,5.4Zm1.4,1.2-.3.2-.3.3L14,6.8l.3-.2h.5Zm-1.1-.3.4-.2h0l.3.2h0l-.3.2a.2.2,0,0,0-.2.2l-.3-.3A.1.1,0,0,0,13.7,6.3ZM15,7.9l-.2.2c-.1-.2-.2-.3-.2-.5h.5l.2.4Zm-.3-.6-.2.2-.2-.3h.2l.2-.2h.2l.2.2Z"/><path class="cls-2" d="M19.1,6.2a3.9,3.9,0,0,1-1.9-2.8.1.1,0,0,0-.1-.1A.6.6,0,0,0,17,4l-.4.2V3.6c0-.1-.1-.1-.1,0s1.1,3.8,1.9,3.2,0-.2-.1-.2L18,6.4l.4-.4.5.5C19.1,6.6,19.3,6.3,19.1,6.2ZM16.7,4.5l.2-.2h.2v.3h-.1l-.4.2Zm.1.4h0l.5-.2.2.3h-.2l-.3.2A.8.8,0,0,1,16.8,4.9Zm.5,1c-.1-.1-.1-.2-.2-.4h0l.5-.3.2.3-.4.4Zm.4.3h-.1l.2-.3H18l.2.2Z"/><path class="cls-2" d="M15.2,4.3a.7.7,0,0,1-.1.5h-.4s-.1,0,0,.1.3.2.5.1a.7.7,0,0,0,.3-.6C15.5,4.2,15.3,4.2,15.2,4.3Z"/><path class="cls-2" d="M16.6,7.1a.5.5,0,0,0-.2.6c.1.2.3.1.3,0s-.1-.3.1-.4h.4A.5.5,0,0,0,16.6,7.1Z"/><path class="cls-2" d="M14.5,5.6c-.1.1,0,.3.1.2S14.7,5.5,14.5,5.6Z"/><path class="cls-2" d="M15.1,5.9c-.1.1,0,.3.1.2S15.2,5.8,15.1,5.9Z"/><path class="cls-2" d="M15.6,6.6c0,.1,0,.2.1.2h-.1Z"/><path class="cls-2" d="M15.6,7.2c-.1.1,0,.2.1.2S15.7,7.1,15.6,7.2Z"/><path class="cls-2" d="M16.1,5.2c-.1,0,0,.2.1.1S16.2,5.1,16.1,5.2Z"/><path class="cls-2" d="M16.1,4.7h.1C16.4,4.8,16.2,4.6,16.1,4.7Z"/><path class="cls-2" d="M16.6,6c-.1.1,0,.3.1.2S16.7,5.9,16.6,6Z"/><path class="cls-2" d="M17,6.2c-.1.1,0,.2.1.2S17.1,6.1,17,6.2Z"/><path class="cls-2" d="M13.5,6.8c-.2.1-.1.3.1.2S13.6,6.7,13.5,6.8Z"/><path class="cls-2" d="M14.2,7.8a.1.1,0,1,0,.1.2C14.4,8,14.3,7.7,14.2,7.8Z"/><path class="cls-2" d="M13.8,7.4h0c.1.1.2,0,.2-.1h0C14,7.2,13.7,7.3,13.8,7.4Z"/><path class="cls-2" d="M17.5,4.1c.2-.1.3.2.2.3S17.4,4.2,17.5,4.1Z"/><path class="cls-2" d="M18.2,5.2a.1.1,0,1,1,.1.2C18.2,5.5,18.1,5.3,18.2,5.2Z"/><path class="cls-2" d="M18,4.8h0c0,.1-.1.1-.2.1h0A.1.1,0,1,1,18,4.8Z"/><path class="cls-2" d="M43.2,55c.1-.3,0-.7.2-1l.7-.2.7.2c.1,0,.2-.2.1-.2a1.2,1.2,0,0,0-1.4-.1,1.1,1.1,0,0,0-.4,1.3S43.1,55.1,43.2,55Z"/><path class="cls-2" d="M41.6,52.3a1.1,1.1,0,0,0,.7.2A1.1,1.1,0,0,0,43,51c-.1-.1-.3-.1-.3.1s.1.5,0,.7-.4.5-.7.4-.5-.3-.7-.2h-.1Z"/><path class="cls-2" d="M42.9,53.5a.4.4,0,0,0,.6-.3v-.3l-.2-.2c0-.1-.1-.1-.2-.1s-.4.1-.5.3S42.7,53.4,42.9,53.5Zm0-.6h.2a.3.3,0,0,0,.1.2H43A.2.2,0,0,1,42.9,52.9Z"/><path class="cls-2" d="M45.5,53.6c.1.1.1,0,.1-.1l-.6-.4h.2l.2-.3c.2.1.4.3.6.3s.1,0,.1-.1-.8-.5-1.1-1a5.3,5.3,0,0,1-.8-1.7c-.1-.2-.3-.1-.3,0s.1.4.2.6l-.5.2c0-.1-.1-.3-.1-.4s-.3-.1-.2,0A3.3,3.3,0,0,0,45.5,53.6Zm-1.3-1.2.2-.2.3-.2.2.3h-.3l-.3.2A.3.3,0,0,0,44.2,52.4Zm1,.3-.4.3h0l-.3-.2h.3c.1-.1.2-.1.2-.2l.3.2A.1.1,0,0,1,45.2,52.7Zm-1.3-1.6a.2.2,0,0,0,.2-.2l.3.5h-.3l-.3.2a.8.8,0,0,1-.1-.4Zm.3.6a.2.2,0,0,0,.2-.2l.2.3-.2.2H44c0-.1-.1-.2-.1-.3Z"/><path class="cls-2" d="M39.8,52.8a3.7,3.7,0,0,1,1.9,2.9h.1c.2-.1.2-.4.1-.7a.5.5,0,0,0,.4-.2,1.5,1.5,0,0,1,.1.6c0,.1,0,.1.1.1s-1.2-3.8-1.9-3.2-.1.1,0,.2H41c-.2.1-.3.3-.4.4l-.6-.4C39.8,52.5,39.7,52.7,39.8,52.8Zm2.5,1.8h-.5a.4.4,0,0,0-.1-.3h.5A.3.3,0,0,0,42.3,54.6Zm-.2-.5h0l-.5.2c0-.1-.1-.2-.1-.3H42C42,53.9,42.1,54,42.1,54.1Zm-.5-.9c.1.1.2.2.2.3h0c-.1.2-.3.2-.5.3l-.2-.3a.9.9,0,0,0,.5-.3Zm-.4-.4h.2l-.3.2-.2.2c0-.1-.1-.2-.2-.3A.9.9,0,0,0,41.2,52.8Z"/><path class="cls-2" d="M43.7,54.7a.4.4,0,0,1,.2-.4h.4c-.1-.2-.4-.2-.6-.1s-.2.4-.3.6S43.7,54.9,43.7,54.7Z"/><path class="cls-2" d="M42.3,52c.3-.1.3-.5.2-.7s-.3-.1-.3.1.1.2,0,.3h-.5C41.8,52,42.1,52,42.3,52Z"/><path class="cls-2" d="M44.4,53.4c.1-.1,0-.3-.1-.2A.1.1,0,1,0,44.4,53.4Z"/><path class="cls-2" d="M43.8,53.1c.2,0,0-.2-.1-.1S43.7,53.2,43.8,53.1Z"/><path class="cls-2" d="M43.3,52.4c.1,0,0-.1,0-.2h-.1C43.1,52.4,43.2,52.4,43.3,52.4Z"/><path class="cls-2" d="M43.4,51.8c.1,0,0-.2-.1-.1S43.2,51.9,43.4,51.8Z"/><path class="cls-2" d="M42.8,53.9c.1-.1,0-.3-.1-.2S42.7,54,42.8,53.9Z"/><path class="cls-2" d="M42.8,54.3h-.1C42.6,54.2,42.7,54.5,42.8,54.3Z"/><path class="cls-2" d="M42.3,53c.2,0,.1-.2-.1-.2S42.2,53.1,42.3,53Z"/><path class="cls-2" d="M41.9,52.8c.1,0,0-.2-.1-.1S41.8,52.9,41.9,52.8Z"/><path class="cls-2" d="M45.5,52.3c.1-.1,0-.4-.2-.3S45.3,52.4,45.5,52.3Z"/><path class="cls-2" d="M44.8,51.2c.1-.1,0-.3-.2-.2S44.6,51.3,44.8,51.2Z"/><path class="cls-2" d="M44.6,51.6h0c-.1-.1-.2,0-.2.1h0A.1.1,0,1,0,44.6,51.6Z"/><path class="cls-2" d="M41.4,54.9c-.2.1-.3-.1-.2-.2S41.5,54.8,41.4,54.9Z"/><path class="cls-2" d="M40.7,53.8a.1.1,0,1,1-.1-.2A.1.1,0,1,1,40.7,53.8Z"/><path class="cls-2" d="M40.9,54.3h0c0-.1.1-.2.2-.1h0C41.2,54.3,41,54.4,40.9,54.3Z"/><path class="cls-2" d="M9.6,8.4c0,.4.2.7,0,1s-.4.4-.6.5H8.3c-.1,0-.1.1,0,.2a1.4,1.4,0,0,0,1.4-.3,1.4,1.4,0,0,0,0-1.4Z"/><path class="cls-2" d="M11.8,10.7c-.3-.1-.5-.2-.7,0a1.1,1.1,0,0,0-.3,1.6c.1.1.3-.1.3-.2a1.4,1.4,0,0,1-.2-.7c.1-.2.3-.5.5-.5h.4Z"/><path class="cls-2" d="M10.3,9.8c-.2,0-.5.2-.5.4s0,.3.1.4h.2c0,.1.1.1.3.1a.5.5,0,0,0,.3-.5A.7.7,0,0,0,10.3,9.8Zm.1.6h-.2c0-.1-.1-.2-.1-.3h.1C10.4,10.1,10.5,10.3,10.4,10.4Z"/><path class="cls-2" d="M7.7,10.4s-.1.1,0,.1l.6.2v.2l-.2.3H7.3c.5.3,1,.3,1.4.7a4.4,4.4,0,0,1,1.2,1.5.2.2,0,0,0,.3-.1l-.4-.5.4-.4a.8.8,0,0,1,.2.4.2.2,0,0,0,.3-.1A3.3,3.3,0,0,0,7.7,10.4Zm1.6.8a.2.2,0,0,1-.2.2c0,.1-.1.3-.1.4l-.3-.2.2-.3.3-.2Zm-1,0c.1-.1.1-.3.3-.4h0l.3.2h0l-.2.2-.2.3-.3-.2A.1.1,0,0,1,8.3,11.2Zm1.6,1.2-.2.2-.3-.4h.2l.3-.3.2.4C10,12.2,10,12.3,9.9,12.4Zm-.4-.5-.2.2-.2-.2c0-.1.1-.1.1-.2l.2-.2h.1l.3.2Q9.5,11.8,9.5,11.9Z"/><path class="cls-2" d="M13.4,9.7a4,4,0,0,1-2.6-2.3h0c-.2.2-.1.5,0,.7l-.3.3a1.4,1.4,0,0,1-.2-.6h-.1c-.5.9,2.1,3.4,2.6,2.6a.1.1,0,0,0,0-.2h-.4l.3-.5.6.3C13.5,10,13.6,9.7,13.4,9.7ZM10.6,8.6h.2l.2-.2v.2h0l-.4.2A.3.3,0,0,0,10.6,8.6Zm.3.4h0l.4-.3.2.3h-.2l-.2.2Zm.7.8-.3-.2h0c.1-.1.3-.2.4-.4l.3.2-.4.5Zm.5.3h-.2l.2-.3h.4A1,1,0,0,0,12.1,10.1Z"/><path class="cls-2" d="M9.2,8.9c0,.1.1.3-.1.4H8.8c0,.1-.1.1,0,.1s.4.1.5,0a.8.8,0,0,0,.2-.7C9.4,8.7,9.2,8.7,9.2,8.9Z"/><path class="cls-2" d="M11.3,11.2c-.3.1-.2.5-.1.6s.3,0,.3-.1-.2-.2,0-.3h.3a.1.1,0,0,0,.1-.1C11.7,11,11.4,11,11.3,11.2Z"/><path class="cls-2" d="M8.8,10.3c-.1.1.1.3.2.2S9,10.2,8.8,10.3Z"/><path class="cls-2" d="M9.5,10.4c-.1.1,0,.3.1.2S9.6,10.3,9.5,10.4Z"/><path class="cls-2" d="M10.2,11c-.1,0,0,.2.1.1h-.1Z"/><path class="cls-2" d="M10.3,11.5c-.1.1,0,.3.1.2S10.4,11.5,10.3,11.5Z"/><path class="cls-2" d="M10.3,9.4c-.1.1,0,.3.1.2S10.4,9.3,10.3,9.4Z"/><path class="cls-2" d="M10.2,9.1h0C10.4,9.2,10.2,9,10.2,9.1Z"/><path class="cls-2" d="M10.9,10.1c-.1.1.1.3.2.2S11,10.1,10.9,10.1Z"/><path class="cls-2" d="M11.4,10.2c-.1.1.1.2.1.1S11.5,10.1,11.4,10.2Z"/><path class="cls-2" d="M8.1,11.7c-.1.1.1.3.2.2S8.2,11.6,8.1,11.7Z"/><path class="cls-2" d="M9.1,12.5c-.1.1,0,.3.2.2S9.2,12.4,9.1,12.5Z"/><path class="cls-2" d="M8.7,12.2h0c0,.1.1,0,.1-.1h0C8.7,11.9,8.5,12.2,8.7,12.2Z"/><path class="cls-2" d="M11.4,8.1c.1-.1.3,0,.2.2S11.3,8.2,11.4,8.1Z"/><path class="cls-2" d="M12.3,9a.1.1,0,1,1,.2.1A.1.1,0,1,1,12.3,9Z"/><path class="cls-2" d="M12,8.6h0c0,.1-.1.2-.1.1h0C11.7,8.7,11.9,8.4,12,8.6Z"/><path class="cls-2" d="M49.3,50.6c.1-.3-.2-.7,0-1a1.5,1.5,0,0,1,.6-.5h.7c.1,0,.2-.2,0-.2a1.1,1.1,0,0,0-1.3.3c-.4.3-.3.9-.1,1.3S49.3,50.7,49.3,50.6Z"/><path class="cls-2" d="M47.1,48.4a.8.8,0,0,0,.7,0,1.1,1.1,0,0,0,.3-1.6c-.1-.1-.3,0-.2.1s.1.5.1.7a.6.6,0,0,1-.5.6c-.3,0-.6-.2-.8-.1h.4Z"/><path class="cls-2" d="M48.6,49.2c.3.1.5-.1.6-.4l-.2-.4a.1.1,0,0,1-.1-.1h-.3a.4.4,0,0,0-.4.4A.7.7,0,0,0,48.6,49.2Zm-.1-.6c.1,0,.1,0,.1-.1h.1v.2h-.1C48.5,48.9,48.5,48.7,48.5,48.6Z"/><path class="cls-2" d="M51.2,48.7c.1,0,.1-.1,0-.2l-.6-.2.2-.2c0-.1.1-.2.1-.3l.6.2c.1,0,.1-.1.1-.2l-1.4-.6A9.5,9.5,0,0,1,49,45.6c-.1-.1-.3,0-.2.2l.3.5-.4.3-.2-.4a.2.2,0,0,0-.3.1A3.6,3.6,0,0,0,51.2,48.7Zm-1.6-.9c.1,0,.1-.1.2-.2s.1-.2.2-.3l.3.2-.3.2c-.1.1-.2.1-.2.2Zm1.1.1-.3.3H50a.1.1,0,0,1,.1-.1l.2-.2c0-.1.1-.1.1-.2h.4C50.7,47.8,50.7,47.8,50.7,47.9ZM49,46.6c.1,0,.1-.1.2-.2l.3.4c-.1,0-.1.1-.2.2l-.3.2-.2-.3C48.9,46.8,49,46.7,49,46.6Zm.5.5a.3.3,0,0,0,.1-.2l.3.3h-.2c-.1.1-.1.1-.1.2h-.2a.2.2,0,0,1-.2-.2Z"/><path class="cls-2" d="M45.5,49.4a3.6,3.6,0,0,1,2.6,2.2s0,.1.1,0,.1-.4-.1-.7.2-.2.3-.3a1.4,1.4,0,0,1,.2.6h.1c.5-.8-2-3.3-2.6-2.6s0,.2.1.2h.3l-.2.5-.7-.2C45.4,49,45.3,49.3,45.5,49.4Zm2.8,1c-.1,0-.1.1-.2.2H48c-.1-.1-.2-.1-.2-.2h.1l.3-.3C48.2,50.3,48.3,50.3,48.3,50.4Zm-.2-.4H48l-.4.3-.2-.2h.2l.2-.3Zm-.8-.8.3.3h0c-.1.2-.3.3-.4.4l-.3-.2a1,1,0,0,0,.4-.5Zm-.5-.2H47c0,.1-.1.2-.2.3s-.1.1-.1.2l-.3-.2C46.6,49.3,46.8,49.1,46.8,49Z"/><path class="cls-2" d="M49.7,50.2a.7.7,0,0,1,.1-.5c0-.1.1-.1.2-.1h.1c.1,0,.1-.1,0-.1a.5.5,0,0,0-.5,0,.6.6,0,0,0-.1.7C49.5,50.4,49.7,50.3,49.7,50.2Z"/><path class="cls-2" d="M47.7,47.9a.5.5,0,0,0,0-.7.2.2,0,0,0-.3.1c.1.1.2.3.1.4h-.4c0,.1-.1.1,0,.1S47.5,48,47.7,47.9Z"/><path class="cls-2" d="M50.1,48.7c.1-.1-.1-.2-.2-.1A.1.1,0,1,0,50.1,48.7Z"/><path class="cls-2" d="M49.5,48.6c.1-.1-.1-.2-.2-.1S49.4,48.7,49.5,48.6Z"/><path class="cls-2" d="M48.7,48c.1,0,.1-.1,0-.1h-.1C48.6,48.1,48.7,48.1,48.7,48Z"/><path class="cls-2" d="M48.7,47.5c.1-.1-.1-.3-.2-.2S48.6,47.6,48.7,47.5Z"/><path class="cls-2" d="M48.7,49.6c.1-.1-.1-.3-.2-.2S48.6,49.7,48.7,49.6Z"/><path class="cls-2" d="M48.4,50.3h0C48.2,50.2,48.4,50.4,48.4,50.3Z"/><path class="cls-2" d="M48,48.9c.1-.1-.1-.2-.2-.2S47.9,49,48,48.9Z"/><path class="cls-2" d="M47.5,48.8c.1-.1,0-.2-.1-.1S47.4,48.9,47.5,48.8Z"/><path class="cls-2" d="M50.8,47.3c.1-.1-.1-.3-.2-.2S50.7,47.5,50.8,47.3Z"/><path class="cls-2" d="M49.9,46.5c.1-.1-.1-.3-.2-.2S49.7,46.6,49.9,46.5Z"/><path class="cls-2" d="M50.3,46.8h0c-.1,0-.2,0-.2.1h0A.1.1,0,1,0,50.3,46.8Z"/><path class="cls-2" d="M47.5,50.9a.1.1,0,1,1-.2-.1C47.4,50.6,47.7,50.8,47.5,50.9Z"/><path class="cls-2" d="M46.6,50.1c-.1.1-.3-.1-.2-.2S46.7,49.9,46.6,50.1Z"/><path class="cls-2" d="M47,50.5h0c-.1-.1,0-.2.1-.2h0C47.2,50.4,47,50.6,47,50.5Z"/><path class="cls-2" d="M4.9,14.3c0,.3.3.6.2,1l-.5.6H4c-.2,0-.1.2,0,.2a1.3,1.3,0,0,0,1.2-.7c.3-.4,0-.9-.2-1.2S4.9,14.2,4.9,14.3Z"/><path class="cls-2" d="M7.5,15.9a.8.8,0,0,0-.7.2A1.1,1.1,0,0,0,7,17.7c.1.1.3-.1.2-.2a.9.9,0,0,1-.3-.7c0-.2.1-.6.3-.6s.6,0,.8-.2H7.5Z"/><path class="cls-2" d="M5.9,15.5c-.3,0-.5.2-.4.5s.1.2.2.3h.5a1.1,1.1,0,0,0,.2-.6A.5.5,0,0,0,5.9,15.5Zm.2.5a.1.1,0,0,1-.1.1H6a.2.2,0,0,1-.2-.2h.1C6,15.7,6.1,15.9,6.1,16Z"/><path class="cls-2" d="M3.5,16.7c-.1,0-.1.1,0,.1h.7c-.1,0-.1.1-.1.2a.4.4,0,0,0-.1.3H3.4c-.1,0-.1.1,0,.2a3.5,3.5,0,0,1,1.4.3A4.2,4.2,0,0,1,6.4,19c.1.1.3-.1.2-.2l-.4-.4.3-.4.3.3c.1.1.3-.1.2-.2A3.2,3.2,0,0,0,3.5,16.7Zm1.8.4c-.1,0-.1.1-.1.2a.6.6,0,0,0-.1.4H4.7l.2-.3c.1-.1.2-.2.2-.3Zm-1.1.2c.1-.2.1-.3.2-.4h.4l-.2.2v.3H4.2Zm1.9.7a.4.4,0,0,1-.1.3L5.6,18c.1,0,.1-.1.2-.2l.2-.3.3.3C6.2,17.8,6.2,18,6.1,18Zm-.5-.3v.2H5.2a.4.4,0,0,0,.1-.3h.1v-.2l.3.2C5.7,17.4,5.6,17.6,5.6,17.7Z"/><path class="cls-2" d="M8.8,14.5a3.7,3.7,0,0,1-3-1.5H5.7c-.2.2,0,.5.2.7l-.2.3a1,1,0,0,1-.4-.5H5.2c-.2,1,2.9,2.8,3.3,1.9a.2.2,0,0,0-.2-.2H8c0-.2.1-.4.1-.6h.7A.2.2,0,0,0,8.8,14.5Zm-2.9-.3v-.4l.2.2h0l-.3.4C6,14.3,5.9,14.3,5.9,14.2Zm.3.4h0c.1,0,.2-.2.3-.4l.3.2v.2c-.1.1-.2.2-.2.3Zm.9.5-.3-.2h0c0-.2.2-.3.2-.5h.4l-.3.6Zm.5.1H7.4l.2-.4v-.2h.3Z"/><path class="cls-2" d="M4.5,14.8c.1.2.2.3.1.5H4.3c.2.1.4-.1.5-.2s.1-.5,0-.7A.2.2,0,0,0,4.5,14.8Z"/><path class="cls-2" d="M7.1,16.5a.7.7,0,0,0,.2.7c.1,0,.3-.1.2-.2s-.2-.2-.1-.4.2-.1.3-.1h0C7.6,16.2,7.2,16.3,7.1,16.5Z"/><path class="cls-2" d="M4.6,16.3c-.1.1.1.2.2.1S4.6,16.1,4.6,16.3Z"/><path class="cls-2" d="M5.2,16.2c-.1.2.1.3.2.1S5.3,16.1,5.2,16.2Z"/><path class="cls-2" d="M6.1,16.6c-.1.1,0,.2.1.1h0S6.1,16.5,6.1,16.6Z"/><path class="cls-2" d="M6.3,17.1c-.1.1.1.2.1.1S6.3,17,6.3,17.1Z"/><path class="cls-2" d="M5.7,15.1c0,.1.1.2.2.1S5.8,15,5.7,15.1Z"/><path class="cls-2" d="M5.5,14.7h0s.1.1.1,0h0C5.8,14.7,5.5,14.5,5.5,14.7Z"/><path class="cls-2" d="M6.6,15.6c-.1.1.1.2.1.1S6.6,15.5,6.6,15.6Z"/><path class="cls-2" d="M7,15.5c0,.1.1.2.2.1S7.1,15.4,7,15.5Z"/><path class="cls-2" d="M4.2,17.8c-.1.2.2.3.3.2S4.3,17.7,4.2,17.8Z"/><path class="cls-2" d="M5.4,18.4c-.1.1.1.2.2.1S5.4,18.2,5.4,18.4Z"/><path class="cls-2" d="M4.9,18.2h0c.1,0,.2-.1.1-.2H5C4.9,17.9,4.7,18.2,4.9,18.2Z"/><path class="cls-2" d="M6.5,13.5c0-.2.3,0,.2.1S6.4,13.7,6.5,13.5Z"/><path class="cls-2" d="M7.6,14.1c0-.1.3,0,.2.1S7.5,14.3,7.6,14.1Z"/><path class="cls-2" d="M7.2,14h0c0,.1,0,.2-.1.2h0C6.9,14.2,7,13.9,7.2,14Z"/><path class="cls-2" d="M54.1,44.8c0-.4-.3-.7-.3-1a1,1,0,0,1,.5-.6c.2-.2.5-.1.7-.2s.1-.2-.1-.2a1.3,1.3,0,0,0-1.2.7c-.3.4,0,.9.3,1.3Z"/><path class="cls-2" d="M51.4,43.2a.8.8,0,0,0,.7-.2,1,1,0,0,0-.2-1.6c-.1-.1-.3.1-.2.2a.7.7,0,0,1,.3.6.5.5,0,0,1-.3.7c-.2.1-.6,0-.8.2h.5Z"/><path class="cls-2" d="M53,43.6a.6.6,0,0,0,.5-.6l-.3-.3h-.1a.2.2,0,0,0-.3,0,.5.5,0,0,0-.3.5A.7.7,0,0,0,53,43.6Zm-.2-.6a.1.1,0,0,0,.1-.1H53a.3.3,0,0,0,.1.2H53C52.9,43.3,52.8,43.2,52.8,43Z"/><path class="cls-2" d="M55.4,42.4c.1,0,.1-.1,0-.1h-.6a.4.4,0,0,1,.1-.3v-.3h.6a.1.1,0,0,0,.1-.1c-.5-.2-1-.1-1.5-.3A6.1,6.1,0,0,1,52.5,40c-.1-.1-.3.1-.2.2l.5.4a.5.5,0,0,0-.3.5l-.3-.4c-.1-.1-.3.1-.2.2A3.3,3.3,0,0,0,55.4,42.4ZM53.6,42l.2-.3c0-.1.1-.2.1-.4l.3.2-.2.3-.2.3C53.8,42,53.7,42,53.6,42Zm1.1-.2c-.1.1-.1.2-.2.4h-.4l.2-.3c0-.1.1-.2.1-.3h.4ZM52.8,41c0-.1.1-.2.1-.3l.4.3c-.1.1-.1.2-.2.2l-.2.3-.3-.2Zm.5.4a.4.4,0,0,0,.1-.3l.3.2a.3.3,0,0,0-.1.2c0,.1,0,.1-.1.2a.3.3,0,0,0-.1.2l-.3-.2C53.2,41.6,53.3,41.5,53.3,41.4Z"/><path class="cls-2" d="M50.1,44.5A4,4,0,0,1,53.2,46c0,.1,0,.1.1,0s-.1-.4-.3-.6l.3-.4.3.5c0,.1.1,0,.1,0s-2.9-2.7-3.2-1.8,0,.1.1.1H51c-.1.1-.1.3-.2.5h-.7A.1.1,0,0,0,50.1,44.5Zm3,.3c-.1.1-.1.2-.2.2s0,.2-.1.2h-.2l.3-.3Zm-.4-.3h0c0,.1-.2.3-.3.4l-.3-.2a.1.1,0,0,0,.1-.1c.1-.1.2-.2.2-.3Zm-.9-.6.4.2h0c-.1.2-.3.4-.3.5h-.4c.2-.2.2-.4.3-.5Zm-.5-.1h.2c0,.1-.1.2-.1.3v.2H51Z"/><path class="cls-2" d="M54.4,44.2a.4.4,0,0,1-.1-.5h.3c.1-.1.1-.1,0-.1s-.4,0-.5.1a.9.9,0,0,0,0,.7C54.2,44.5,54.4,44.4,54.4,44.2Z"/><path class="cls-2" d="M51.8,42.5c.2-.2.1-.5-.2-.6s-.2,0-.2.2.2.2.2.3l-.4.2h0A.5.5,0,0,0,51.8,42.5Z"/><path class="cls-2" d="M54.4,42.7a.2.2,0,0,0-.3-.1C54.1,42.8,54.3,42.9,54.4,42.7Z"/><path class="cls-2" d="M53.7,42.8c.1-.1-.1-.2-.2-.1S53.6,42.9,53.7,42.8Z"/><path class="cls-2" d="M52.9,42.4a.1.1,0,0,0-.1-.1h-.1C52.7,42.5,52.8,42.5,52.9,42.4Z"/><path class="cls-2" d="M52.7,41.9c0-.1-.2-.2-.2-.1S52.6,42,52.7,41.9Z"/><path class="cls-2" d="M53.2,43.9c.1-.1-.1-.2-.2-.1S53.1,44.1,53.2,43.9Z"/><path class="cls-2" d="M53.4,44.3h-.1C53.1,44.3,53.4,44.5,53.4,44.3Z"/><path class="cls-2" d="M52.4,43.4c0-.1-.1-.2-.2-.1S52.3,43.5,52.4,43.4Z"/><path class="cls-2" d="M51.9,43.5c0-.1-.1-.2-.2-.1S51.8,43.6,51.9,43.5Z"/><path class="cls-2" d="M54.7,41.2a.1.1,0,1,0-.2-.1A.1.1,0,1,0,54.7,41.2Z"/><path class="cls-2" d="M53.6,40.7c0-.2-.2-.3-.3-.2S53.5,40.8,53.6,40.7Z"/><path class="cls-2" d="M54,40.8h0c-.1,0-.1.1-.1.2h0A.1.1,0,1,0,54,40.8Z"/><path class="cls-2" d="M52.5,45.5c-.1.2-.3.1-.3-.1A.2.2,0,0,1,52.5,45.5Z"/><path class="cls-2" d="M51.4,44.9c-.1.2-.3.1-.3-.1A.2.2,0,0,1,51.4,44.9Z"/><path class="cls-2" d="M51.8,45.4h0a.1.1,0,0,1,0-.2h.1C52,45.2,51.9,45.5,51.8,45.4Z"/><path class="cls-2" d="M1.8,21.2c.1.3.4.5.4.9s-.1.5-.3.6-.4.2-.6.4,0,.2.1.2.9-.4,1-1-.2-.9-.6-1.2S1.7,21.1,1.8,21.2Z"/><path class="cls-2" d="M4.7,22l-.6.4a1.1,1.1,0,0,0,.6,1.5.2.2,0,0,0,.1-.3.7.7,0,0,1-.4-.5c-.1-.2-.1-.6.1-.7s.6-.2.7-.4.1-.1,0-.1H4.7Z"/><path class="cls-2" d="M3.1,22a.5.5,0,0,0-.3.7c0,.1.2.2.3.2h.4c.2-.1.2-.3.1-.5A.5.5,0,0,0,3.1,22Zm.3.5a.1.1,0,0,1-.1.1h0c-.1,0-.2,0-.2-.1a.1.1,0,0,0-.1-.1h.1C3.2,22.2,3.4,22.4,3.4,22.5Z"/><path class="cls-2" d="M1.1,23.8c-.1,0-.1.1,0,.1h.6v.6l-.6.2h.1a7.1,7.1,0,0,1,1.5-.1,6.7,6.7,0,0,1,1.8.7.1.1,0,1,0,.1-.2l-.5-.3c.1-.1.1-.3.2-.5l.3.2c.1.1.3-.1.2-.2A3.4,3.4,0,0,0,1.1,23.8Zm1.8-.1a.4.4,0,0,0-.1.3v.4H2.5a.4.4,0,0,1,.1-.3c0-.1.1-.3.1-.4Zm-1,.5a.6.6,0,0,0,.1-.4h.4c0,.1-.1.2-.1.3v.3H1.9Zm2.1.3c0,.1-.1.2-.1.3l-.4-.2a.4.4,0,0,1,.1-.3c0-.1.1-.2.1-.3l.3.2Zm-.7-.2v.2H3v-.2c.1-.1.1-.1.1-.2v-.2h.4C3.4,24,3.4,24.1,3.3,24.3Z"/><path class="cls-2" d="M5.6,20.4a3.9,3.9,0,0,1-3.3-.7H2.2c-.1.3.2.5.4.6a.6.6,0,0,0-.1.4L2,20.3H1.9c0,.9,3.5,1.8,3.6.9s-.1-.2-.1-.1H5v-.5h.7C5.9,20.6,5.8,20.3,5.6,20.4Zm-2.9.5v-.5h.3a.5.5,0,0,0-.2.4Zm.4.2h0a.8.8,0,0,0,.2-.5h.4c-.1,0-.1.1-.1.2a.4.4,0,0,0-.1.3Zm1.1.3H3.8c0-.2.1-.4.1-.6h.4c-.1.1-.1.4-.1.6Zm.5,0H4.5v-.5h.3A1.3,1.3,0,0,0,4.7,21.4Z"/><path class="cls-2" d="M1.6,21.8a.5.5,0,0,1,.2.4c0,.1-.1.1-.2.2h0l.4-.3c.1-.3-.1-.5-.2-.7S1.5,21.6,1.6,21.8Z"/><path class="cls-2" d="M4.5,22.7a.5.5,0,0,0,.3.6c.2.1.3-.1.2-.2s-.3-.2-.2-.3.2-.2.3-.2h0A.5.5,0,0,0,4.5,22.7Z"/><path class="cls-2" d="M2,23.2c-.1.1.2.2.2,0S2,23,2,23.2Z"/><path class="cls-2" d="M2.6,23c0,.1.2.2.2,0S2.6,22.8,2.6,23Z"/><path class="cls-2" d="M3.5,23.1c0,.1.1.2.1.1h.1C3.6,23,3.5,23,3.5,23.1Z"/><path class="cls-2" d="M3.9,23.6h.2C4.1,23.5,3.9,23.4,3.9,23.6Z"/><path class="cls-2" d="M2.8,21.7c0,.2.2.2.2.1S2.8,21.6,2.8,21.7Z"/><path class="cls-2" d="M2.5,21.4h.1C2.7,21.3,2.4,21.2,2.5,21.4Z"/><path class="cls-2" d="M3.7,22c0,.1.2.2.2.1S3.8,21.9,3.7,22Z"/><path class="cls-2" d="M4.2,21.8c0,.1.1.2.2.1S4.2,21.7,4.2,21.8Z"/><path class="cls-2" d="M2.1,24.8c-.1.1.2.2.2,0S2.1,24.6,2.1,24.8Z"/><path class="cls-2" d="M3.3,25c0,.1.2.2.2.1S3.3,24.8,3.3,25Z"/><path class="cls-2" d="M2.8,25h.1C2.7,24.7,2.6,25,2.8,25Z"/><path class="cls-2" d="M3.1,20c0-.2.3-.1.3,0S3.1,20.2,3.1,20Z"/><path class="cls-2" d="M4.3,20.3c0-.2.3-.1.3,0S4.3,20.5,4.3,20.3Z"/><path class="cls-2" d="M3.8,20.1h.1c0,.1,0,.2-.1.2h0C3.7,20.3,3.7,20.1,3.8,20.1Z"/><path class="cls-2" d="M57.2,37.9c-.1-.4-.5-.5-.5-.9a.9.9,0,0,1,.3-.7c.1-.2.4-.2.6-.3s0-.3-.1-.2a1.2,1.2,0,0,0-1,.9,1.2,1.2,0,0,0,.6,1.2Z"/><path class="cls-2" d="M54.2,37a.5.5,0,0,0,.6-.4,1,1,0,0,0-.6-1.4c-.1-.1-.2.1-.1.2l.5.5a1.2,1.2,0,0,1-.2.8c-.2.1-.6.1-.7.3h0C53.8,37.2,54.1,37.1,54.2,37Z"/><path class="cls-2" d="M55.9,37c.2-.1.4-.4.3-.6l-.3-.3h-.5c-.2.1-.2.4-.1.6A.5.5,0,0,0,55.9,37Zm-.4-.5a.1.1,0,0,1,.1-.1h.3a.1.1,0,0,1-.1.1C55.7,36.8,55.5,36.7,55.5,36.5Z"/><path class="cls-2" d="M57.9,35.2a.1.1,0,0,0-.1-.1h-.6v-.6h.6c.1-.1.1-.2,0-.2a7.6,7.6,0,0,1-1.5.1,4.8,4.8,0,0,1-1.8-.7c-.2-.1-.3.2-.2.2l.5.3a.9.9,0,0,0-.1.5l-.4-.2c-.1-.1-.3.1-.2.2A3.3,3.3,0,0,0,57.9,35.2Zm-1.9.1a.4.4,0,0,0,.1-.3v-.4h.4a.4.4,0,0,0-.1.3.4.4,0,0,0-.1.3Zm1-.5c0,.2,0,.3-.1.4h-.3V35c0-.1.1-.2,0-.3H57Zm-2-.2v-.3l.5.2c-.1,0-.1.1-.1.2l-.2.3h-.3A.4.4,0,0,1,55,34.6Zm.6.2v-.3H56V35a.3.3,0,0,0-.1.2h-.3C55.5,35,55.6,34.9,55.6,34.8Z"/><path class="cls-2" d="M53.3,38.7a3.5,3.5,0,0,1,3.3.6c.1.1.1,0,.1,0s-.1-.4-.4-.6.1-.2.2-.4.3.3.4.4H57c0-1-3.5-1.9-3.6-.9h.2l.3-.2v.6h-.7C53,38.4,53.1,38.7,53.3,38.7Zm2.9-.5v.2a.3.3,0,0,0-.1.2h-.2c0-.1.1-.3.1-.4S56.2,38.1,56.2,38.2Zm-.4-.2h0a1.2,1.2,0,0,0-.2.5h-.3c0-.1,0-.2.1-.2a.6.6,0,0,1,.1-.4Zm-1-.3h.4c0,.1-.2.3-.2.5h-.3c0-.2,0-.5.1-.6Zm-.6,0h.3c0,.1-.1.2-.1.4v.2h-.3A.7.7,0,0,0,54.2,37.7Z"/><path class="cls-2" d="M57.3,37.3c0-.2-.2-.3-.2-.5h.2a.1.1,0,0,1,.1-.1h0c-.2-.1-.4.1-.5.3s.1.5.2.6S57.4,37.4,57.3,37.3Z"/><path class="cls-2" d="M54.4,36.3c.1-.2-.1-.5-.3-.6s-.3.2-.2.2.3.2.2.3-.2.2-.2.3-.1.1,0,.1S54.3,36.5,54.4,36.3Z"/><path class="cls-2" d="M56.9,35.9c.1-.2-.2-.3-.2-.1S56.9,36,56.9,35.9Z"/><path class="cls-2" d="M56.3,36.1c.1-.2-.1-.2-.2-.1S56.3,36.2,56.3,36.1Z"/><path class="cls-2" d="M55.4,35.9c0-.1,0-.1-.1-.1h0C55.3,36,55.4,36,55.4,35.9Z"/><path class="cls-2" d="M55.1,35.5c0-.1-.2-.2-.2-.1S55,35.6,55.1,35.5Z"/><path class="cls-2" d="M56.1,37.3c.1-.1-.2-.2-.2,0S56.1,37.4,56.1,37.3Z"/><path class="cls-2" d="M56.4,37.6h-.1C56.2,37.7,56.5,37.8,56.4,37.6Z"/><path class="cls-2" d="M55.2,37c0-.1-.2-.2-.2,0S55.2,37.2,55.2,37Z"/><path class="cls-2" d="M54.7,37.2c.1-.1-.1-.1-.1,0Z"/><path class="cls-2" d="M56.9,34.3c0-.2-.3-.3-.3-.1S56.8,34.4,56.9,34.3Z"/><path class="cls-2" d="M55.6,34c.1-.1-.2-.2-.2,0S55.6,34.2,55.6,34Z"/><path class="cls-2" d="M56.1,34.1h0c-.1,0-.1.1,0,.2h0C56.2,34.4,56.3,34.1,56.1,34.1Z"/><path class="cls-2" d="M55.8,39c0,.2-.3.2-.2,0S55.9,38.9,55.8,39Z"/><path class="cls-2" d="M54.6,38.7c0,.2-.3.2-.2,0S54.6,38.6,54.6,38.7Z"/><path class="cls-2" d="M55.1,38.9h0c-.1,0-.1-.2,0-.2h0C55.3,38.7,55.2,39,55.1,38.9Z"/><path class="cls-2" d="M.5,28.6c.2.3.6.4.7.8a.9.9,0,0,1-.1.7l-.5.5c-.1.1,0,.2.1.1a1.2,1.2,0,0,0,.8-1.2c0-.5-.5-.8-.9-.9S.5,28.6.5,28.6Z"/><path class="cls-2" d="M3.6,28.7a.8.8,0,0,0-.5.5,1.2,1.2,0,0,0,1,1.3.2.2,0,0,0,.1-.3.9.9,0,0,1-.6-.4.5.5,0,0,1-.1-.7c.2-.2.5-.3.6-.6h0A.9.9,0,0,0,3.6,28.7Z"/><path class="cls-2" d="M2,29.1a.5.5,0,0,0-.1.7l.4.2a.1.1,0,0,0,.1-.1h.3a.5.5,0,0,0-.1-.6C2.5,29,2.2,29,2,29.1Zm.8.4H2.5a.1.1,0,0,0-.1-.1h.1A.2.2,0,0,1,2.8,29.5Z"/><path class="cls-2" d="M.6,31.4c-.1,0,0,.1,0,.1l.6-.3c0,.1,0,.2.1.2a.6.6,0,0,0,.1.4.9.9,0,0,0-.6.3.1.1,0,0,0,.1.1l1.4-.5a5.8,5.8,0,0,1,1.9.2c.2.1.3-.2.1-.2H3.7a1.3,1.3,0,0,0,.1-.6h.4c.1.1.2-.1.1-.2A3.2,3.2,0,0,0,.6,31.4Zm1.7-.6v.3c0,.1.1.3.1.4H2a.4.4,0,0,0,.1-.3v-.3Zm-.8.7c0-.1-.1-.3,0-.4h0l.3-.2h0v.3a.4.4,0,0,0,.1.3H1.5Zm2-.3c0,.1.1.2.1.3H3.1v-.7h.4Zm-.6,0v.3H2.6v-.3a.3.3,0,0,1-.1-.2c0-.1.1-.1.1-.2h.3A.3.3,0,0,0,2.9,31.2Z"/><path class="cls-2" d="M4.1,26.8a3.7,3.7,0,0,1-3.4.3H.6c0,.3.3.4.6.5s-.1.2-.1.4l-.5-.3c-.1,0-.1,0-.1.1s3.8.9,3.7,0-.1-.1-.2-.1l-.3.2c0-.2-.1-.3-.1-.5l.6-.3C4.4,27,4.3,26.8,4.1,26.8ZM1.4,28.1v-.5h.2v.4Zm.4.1h0c.1-.1.1-.4.1-.6h.3v.5Zm1.1,0H2.5v-.6h.4c-.1.2,0,.4,0,.6Zm.5-.1H3.2a.8.8,0,0,0-.1-.4v-.2h.3Z"/><path class="cls-2" d="M.5,29.2c.1.2.3.2.3.4s0,.2-.1.2H.6a.1.1,0,0,0,.1.1.4.4,0,0,0,.4-.4c0-.2-.2-.4-.4-.6S.4,29.1.5,29.2Z"/><path class="cls-2" d="M3.6,29.4a.5.5,0,0,0,.5.5.2.2,0,0,0,.1-.3c-.2,0-.3,0-.3-.2l.2-.3h0A.5.5,0,0,0,3.6,29.4Z"/><path class="cls-2" d="M1.3,30.5c0,.2.2.2.2,0S1.3,30.3,1.3,30.5Z"/><path class="cls-2" d="M1.8,30.1c0,.2.2.2.2,0S1.8,30,1.8,30.1Z"/><path class="cls-2" d="M2.7,30.1h.2C2.8,29.9,2.7,30,2.7,30.1Z"/><path class="cls-2" d="M3.2,30.4c0,.1.2.1.2,0Z"/><path class="cls-2" d="M1.7,28.9c0,.1.2.1.2,0S1.7,28.7,1.7,28.9Z"/><path class="cls-2" d="M1.3,28.7h.1C1.5,28.5,1.2,28.5,1.3,28.7Z"/><path class="cls-2" d="M2.7,28.9c0,.2.2.2.2,0Z"/><path class="cls-2" d="M3.1,28.6h.1C3.2,28.5,3.1,28.5,3.1,28.6Z"/><path class="cls-2" d="M1.8,32c0,.2.2.2.2,0S1.8,31.8,1.8,32Z"/><path class="cls-2" d="M3,31.9a.1.1,0,0,0,.3,0A.1.1,0,0,0,3,31.9Z"/><path class="cls-2" d="M2.5,32h0c.1,0,.1-.2,0-.2h0C2.4,31.8,2.4,32.1,2.5,32Z"/><path class="cls-2" d="M1.5,27.2c0-.2.3-.3.3-.1S1.5,27.3,1.5,27.2Z"/><path class="cls-2" d="M2.8,27.1c0-.1.2-.2.2,0S2.8,27.3,2.8,27.1Z"/><path class="cls-2" d="M2.3,27.1h0c.1,0,.1.1,0,.2h0C2.2,27.3,2.1,27,2.3,27.1Z"/><path class="cls-2" d="M58.4,30.4c-.2-.3-.6-.4-.7-.7a1.1,1.1,0,0,1,.1-.8c.1-.2.4-.3.5-.4s0-.3-.1-.2a1.3,1.3,0,0,0-.8,1.2c0,.5.5.8.9,1S58.4,30.5,58.4,30.4Z"/><path class="cls-2" d="M55.3,30.4c.2-.2.4-.3.5-.6s-.4-1.2-1-1.3-.2.3,0,.3l.6.4c.1.2.2.6,0,.8s-.5.3-.6.5h.1Z"/><path class="cls-2" d="M56.9,29.9a.5.5,0,0,0,.1-.7h-.5l-.3.2c-.1.1,0,.4.1.5S56.7,30,56.9,29.9Zm-.4-.3c-.1-.1,0-.1,0-.2h.3C56.7,29.8,56.5,29.7,56.5,29.6Z"/><path class="cls-2" d="M58.4,27.7h-.1l-.6.2v-.2a.4.4,0,0,1-.1-.3l.5-.3c.1-.1,0-.2-.1-.2s-.8.4-1.4.5a4.1,4.1,0,0,1-1.9-.2c-.2,0-.2.2-.1.3h.6a.9.9,0,0,0-.1.5h-.4c-.1-.1-.2.2-.1.2A3.3,3.3,0,0,0,58.4,27.7Zm-1.8.5v-.3a.4.4,0,0,0-.1-.3h.4v.3a.6.6,0,0,0-.1.4Zm.8-.7c0,.2.1.3.1.4h-.4v-.3s0-.2-.1-.2l.4-.2Zm-2,.3a.4.4,0,0,0-.1-.3h.6c-.1,0-.1.1-.1.2v.4h-.4Zm.7,0a.3.3,0,0,0-.1-.2h.4c-.1,0-.1.1,0,.2v.4H56C56.1,28.1,56.1,28,56.1,27.8Z"/><path class="cls-2" d="M54.9,32.2a3.5,3.5,0,0,1,3.3-.2c.1,0,.1,0,.1-.1a.5.5,0,0,0-.5-.4V31l.6.3s.1,0,0-.1-3.8-.9-3.7.1h.2l.3-.2a1.1,1.1,0,0,1,.1.5l-.6.3C54.5,32,54.7,32.3,54.9,32.2ZM57.6,31c-.1,0-.1.1,0,.2a.3.3,0,0,1-.1.2h-.2v-.4Zm-.5-.2h0a2,2,0,0,0-.1.5h-.3v-.6Zm-1.1,0h.4c.1.2,0,.4,0,.6h-.3c0-.1-.1-.4-.1-.5Zm-.5.2h.2c0,.2.1.3.1.4v.2h-.3A.6.6,0,0,0,55.5,31Z"/><path class="cls-2" d="M58.4,29.8c-.1-.1-.3-.2-.3-.4v-.2h.1a.1.1,0,0,0-.1-.1c-.2,0-.3.3-.3.4s.2.5.3.6S58.5,29.9,58.4,29.8Z"/><path class="cls-2" d="M55.3,29.6c.1-.3-.2-.5-.5-.5s-.2.2,0,.3a.2.2,0,0,1,.2.2c0,.2-.1.2-.2.3s0,.1.1.1S55.3,29.8,55.3,29.6Z"/><path class="cls-2" d="M57.6,28.5c0-.1-.2-.1-.2,0S57.6,28.7,57.6,28.5Z"/><path class="cls-2" d="M57.1,28.9c0-.2-.2-.2-.2,0S57.1,29,57.1,28.9Z"/><path class="cls-2" d="M56.2,29c0-.1-.1-.1-.2-.1h0C56.1,29.1,56.2,29.1,56.2,29Z"/><path class="cls-2" d="M55.7,28.6c0-.1-.2-.1-.2,0S55.7,28.8,55.7,28.6Z"/><path class="cls-2" d="M57.2,30.1c0-.1-.2-.1-.2,0S57.2,30.3,57.2,30.1Z"/><path class="cls-2" d="M57.6,30.4h-.1C57.4,30.5,57.7,30.5,57.6,30.4Z"/><path class="cls-2" d="M56.3,30.1c0-.1-.2-.1-.2,0Z"/><path class="cls-2" d="M55.9,30.4h-.2C55.7,30.5,55.9,30.5,55.9,30.4Z"/><path class="cls-2" d="M57.2,27a.1.1,0,0,0-.3,0A.1.1,0,1,0,57.2,27Z"/><path class="cls-2" d="M55.9,27.1c0-.1-.2-.1-.2,0S55.9,27.3,55.9,27.1Z"/><path class="cls-2" d="M56.4,27h0c-.1.1-.1.2,0,.2h0C56.6,27.3,56.6,27,56.4,27Z"/><path class="cls-2" d="M57.4,31.9a.2.2,0,0,1-.3,0A.2.2,0,0,1,57.4,31.9Z"/><path class="cls-2" d="M56.1,31.9c.1.2-.2.2-.2,0S56.1,31.7,56.1,31.9Z"/><path class="cls-2" d="M56.6,32h0c-.1-.1-.1-.2,0-.2h0C56.8,31.7,56.8,32,56.6,32Z"/><path class="cls-2" d="M1.3,36.1c.3.3.6.3.9.6a.9.9,0,0,1,0,.7c0,.3-.2.4-.3.6s.1.2.1.1a1.4,1.4,0,0,0,.5-1.3,1.2,1.2,0,0,0-1.2-.7C1.3,36,1.2,36.1,1.3,36.1Z"/><path class="cls-2" d="M4.3,35.4a1.3,1.3,0,0,0-.4.6,1.1,1.1,0,0,0,1.3,1c.1,0,.1-.2,0-.3a.8.8,0,0,1-.7-.2.6.6,0,0,1-.2-.7c.1-.2.4-.4.4-.7H4.6Z"/><path class="cls-2" d="M2.9,36.2c-.2.2-.2.6,0,.7h.4a.1.1,0,0,0,.1-.1c.2,0,.2-.1.3-.2s-.1-.4-.2-.5A.5.5,0,0,0,2.9,36.2Zm.5.3h0a.2.2,0,0,1-.3,0H3c0-.1,0-.1.1-.1S3.3,36.4,3.4,36.5Z"/><path class="cls-2" d="M2,38.8a.1.1,0,0,0,.1.1l.5-.4a.3.3,0,0,1,.1.2c.1.1.1.2.2.2l-.4.5c-.1.1,0,.1,0,.1s.8-.6,1.3-.8a4.2,4.2,0,0,1,1.9-.3.1.1,0,1,0,0-.3H5.1a1.1,1.1,0,0,0-.1-.5h.5c.1,0,.1-.2,0-.2A3.2,3.2,0,0,0,2,38.8Zm1.6-1v.3c.1.1.2.2.2.3l-.3.2a.6.6,0,0,0-.1-.4v-.3Zm-.6.9a.8.8,0,0,1-.2-.4h0l.3-.3h0a.4.4,0,0,1,.1.3c.1.1.1.2.2.2l-.4.2Zm1.9-.8a.4.4,0,0,0,.1.3H4.5a.3.3,0,0,0-.1-.2v-.4h.4A.4.4,0,0,0,4.9,37.9Zm-.7.1c0,.1.1.2.1.3H4a.4.4,0,0,0-.1-.3.3.3,0,0,0-.1-.2v-.2h.3C4.1,37.8,4.2,37.9,4.2,38Z"/><path class="cls-2" d="M4.2,33.5A3.7,3.7,0,0,1,1,34.6H1c0,.2.3.3.6.3a.8.8,0,0,0,.1.4H1.1c-.1,0-.1,0-.1.1s4-.1,3.6-1-.1-.1-.2,0-.1.2-.2.2l-.3-.4.6-.5C4.6,33.6,4.4,33.4,4.2,33.5ZM2.3,35.4c0-.1-.1-.2-.1-.3v-.2h.2c0,.1.1.3.1.4Zm.1,0h0v-.6h.3V35c0,.1.1.2.1.3Zm1.1-.3-.4.2h0c-.1-.1-.1-.4-.2-.5l.4-.2a1.1,1.1,0,0,0,.2.6Zm.4-.2H3.7c0-.1-.1-.2-.1-.3s-.1-.1-.1-.2h.2C3.8,34.5,3.8,34.7,3.9,34.9Z"/><path class="cls-2" d="M1.4,36.7c.2.1.4.2.4.3s0,.2,0,.3a.1.1,0,0,0-.1.1h0s.1.1.1,0,.3-.3.3-.4-.3-.4-.6-.5S1.3,36.7,1.4,36.7Z"/><path class="cls-2" d="M4.5,36.1c0,.3.3.4.5.4s.2-.3.1-.3-.3,0-.4-.2.1-.2.2-.3a.1.1,0,0,0-.1-.1A.4.4,0,0,0,4.5,36.1Z"/><path class="cls-2" d="M2.5,37.8c0,.1.3.1.2-.1S2.5,37.6,2.5,37.8Z"/><path class="cls-2" d="M2.9,37.3c.1.1.3.1.2-.1S2.9,37.1,2.9,37.3Z"/><path class="cls-2" d="M3.8,36.9c0,.1.1.1.2.1H3.9A.1.1,0,0,0,3.8,36.9Z"/><path class="cls-2" d="M4.3,37.2c0,.1.2,0,.2-.1S4.3,37,4.3,37.2Z"/><path class="cls-2" d="M2.5,36.1c0,.1.2.1.2-.1S2.4,36,2.5,36.1Z"/><path class="cls-2" d="M2.1,36h.1C2.2,35.8,1.9,35.9,2.1,36Z"/><path class="cls-2" d="M3.4,35.9c.1.1.3.1.2-.1S3.4,35.8,3.4,35.9Z"/><path class="cls-2" d="M3.7,35.5c.1.1.2.1.2,0S3.7,35.4,3.7,35.5Z"/><path class="cls-2" d="M3.3,39.1c.1.2.4.1.3-.1S3.3,38.9,3.3,39.1Z"/><path class="cls-2" d="M4.5,38.7c.1.1.3.1.3-.1S4.5,38.5,4.5,38.7Z"/><path class="cls-2" d="M4.1,38.9h0c.1-.1,0-.2-.1-.2H4C3.9,38.7,4,39,4.1,38.9Z"/><path class="cls-2" d="M1.9,34.5c-.1-.2.2-.3.2-.1S1.9,34.6,1.9,34.5Z"/><path class="cls-2" d="M3.1,34.1c-.1-.1.2-.2.2-.1S3.1,34.3,3.1,34.1Z"/><path class="cls-2" d="M2.6,34.2h0c.1,0,.1.1.1.2h0C2.5,34.5,2.4,34.2,2.6,34.2Z"/><path class="cls-2" d="M57.6,22.9c-.2-.2-.6-.2-.8-.5a.8.8,0,0,1-.1-.8c0-.2.3-.4.4-.6s-.1-.2-.2-.1a1.2,1.2,0,0,0-.4,1.4c.1.4.6.6,1.1.7S57.7,22.9,57.6,22.9Z"/><path class="cls-2" d="M54.6,23.6A.7.7,0,0,0,55,23a1.1,1.1,0,0,0-1.3-1c-.1,0-.1.3,0,.3l.7.2c.2.2.4.5.2.7s-.4.5-.4.7,0,.1.1.1h0Z"/><path class="cls-2" d="M56.1,22.8a.5.5,0,0,0-.1-.7h-.4a.1.1,0,0,1-.1.1l-.3.2a.7.7,0,0,0,.3.6C55.6,23,55.9,22.9,56.1,22.8Zm-.6-.2v-.2h.3c.1,0,.1,0,.1.1h-.4Z"/><path class="cls-2" d="M56.9,20.3c0-.1,0-.2-.1-.1l-.5.4c0-.1,0-.2-.1-.2l-.2-.3c.2-.1.3-.3.5-.5a.1.1,0,0,0-.1-.1,10.1,10.1,0,0,1-1.3.9,10.8,10.8,0,0,1-1.9.3c-.2,0-.2.2,0,.2h.6a.7.7,0,0,0,.1.5h-.4c-.2,0-.2.2-.1.3A3.3,3.3,0,0,0,56.9,20.3Zm-1.5.9c0-.1-.1-.1-.1-.2s-.1-.3-.2-.4h.3c0,.1.1.2.1.3a.4.4,0,0,0,.1.3Zm.5-.9c.1.2.2.3.2.5h0l-.3.2h0v-.3a.3.3,0,0,1-.1-.2l.3-.2Zm-1.8.8-.2-.2h.6c-.1.1,0,.2,0,.3v.3h-.3Zm.6-.1c0-.1,0-.2-.1-.2h.3c0,.1.1.1.1.2s.1.1.1.2v.2h-.3A.6.6,0,0,0,54.7,21Z"/><path class="cls-2" d="M54.7,25.5a3.9,3.9,0,0,1,3.2-1.1H58c-.1-.3-.4-.3-.7-.3s0-.3-.1-.4h.6a.1.1,0,0,0,.1-.1c-.5-.9-4,.1-3.6,1a.1.1,0,0,0,.2,0c.1-.1.2-.2.2-.3l.3.5a1,1,0,0,0-.5.4C54.3,25.4,54.5,25.7,54.7,25.5ZM57,23.6v.3c.1.1.1.1.1.2h-.3v-.5Zm-.5.1h0a1.3,1.3,0,0,0,.1.5h-.4V24a.4.4,0,0,0-.1-.3Zm-1.1.2h.4c.1.2.1.4.2.6h-.3a1.4,1.4,0,0,1-.2-.6Zm-.4.3h0l.2-.2h0l.2.3c0,.1,0,.1.1.2l-.3.2A1.4,1.4,0,0,0,55,24.2Z"/><path class="cls-2" d="M57.5,22.3c-.2-.1-.4-.1-.4-.3v-.2h0c-.2,0-.3.3-.2.5s.3.4.5.4S57.6,22.4,57.5,22.3Z"/><path class="cls-2" d="M54.5,22.9c-.1-.2-.4-.4-.6-.3s-.2.2,0,.2.3.1.3.2-.1.2-.1.4h0C54.3,23.4,54.5,23.1,54.5,22.9Z"/><path class="cls-2" d="M56.4,21.3c0-.2-.3-.1-.2,0S56.5,21.4,56.4,21.3Z"/><path class="cls-2" d="M56,21.8c0-.2-.2-.1-.2,0S56,21.9,56,21.8Z"/><path class="cls-2" d="M55.1,22.1c0-.1-.1-.1-.1,0h0C55.1,22.2,55.2,22.2,55.1,22.1Z"/><path class="cls-2" d="M54.6,21.9c0-.2-.2-.1-.2,0S54.7,22,54.6,21.9Z"/><path class="cls-2" d="M56.4,22.9c0-.1-.2,0-.2.1S56.5,23.1,56.4,22.9Z"/><path class="cls-2" d="M56.9,23.1Z"/><path class="cls-2" d="M55.5,23.2c0-.2-.2-.1-.2,0S55.5,23.3,55.5,23.2Z"/><path class="cls-2" d="M55.2,23.5c0-.1-.2,0-.2.1S55.2,23.6,55.2,23.5Z"/><path class="cls-2" d="M55.6,19.9c-.1-.1-.3-.1-.3.1S55.6,20.1,55.6,19.9Z"/><path class="cls-2" d="M54.4,20.4c-.1-.2-.3-.1-.3,0S54.4,20.5,54.4,20.4Z"/><path class="cls-2" d="M54.8,20.1h0c0,.1,0,.2.1.2h0C55.1,20.3,55,20,54.8,20.1Z"/><path class="cls-2" d="M57.1,24.6a.2.2,0,0,1-.3.1C56.7,24.5,57,24.4,57.1,24.6Z"/><path class="cls-2" d="M55.8,24.9c.1.2-.1.3-.2.1S55.8,24.8,55.8,24.9Z"/><path class="cls-2" d="M56.3,25.2h0c-.1,0-.1-.1,0-.2h0C56.4,24.9,56.5,25.2,56.3,25.2Z"/><path class="cls-2" d="M4,43.2c.3.2.7,0,.9.3a1.1,1.1,0,0,1,.3.7,2.5,2.5,0,0,1-.2.7c0,.1.1.2.2,0a1.4,1.4,0,0,0,.1-1.4A1.6,1.6,0,0,0,4,43.1C3.9,43.1,3.9,43.2,4,43.2Z"/><path class="cls-2" d="M6.7,41.7a.6.6,0,0,0-.2.7,1.2,1.2,0,0,0,1.5.7.2.2,0,0,0-.1-.3H7.2c-.2-.1-.5-.3-.4-.6s.3-.5.2-.8H6.9A.8.8,0,0,0,6.7,41.7Z"/><path class="cls-2" d="M5.5,42.9c-.1.2,0,.6.3.6a.2.2,0,0,0,.3,0,.1.1,0,0,0,.1-.1c.1-.1.2-.2.2-.3s-.1-.4-.3-.4A.5.5,0,0,0,5.5,42.9Zm.6.1H5.8c-.1-.1-.1-.1,0-.1S6,42.9,6.1,43Z"/><path class="cls-2" d="M5.3,45.6s.1.1.1,0a1,1,0,0,0,.4-.5l.2.2.2.2-.3.6a.1.1,0,0,0,.2,0c.3-.3.5-.8.9-1.1a7.1,7.1,0,0,1,1.8-.8c.2,0,.1-.3,0-.2H8.2a.8.8,0,0,0-.2-.4h.4c.1-.1.1-.3-.1-.3A3.4,3.4,0,0,0,5.3,45.6Zm1.3-1.4c0,.1.1.2.1.3l.3.2-.3.3c0-.1-.1-.2-.1-.3s-.1-.3-.2-.3Zm-.3,1L6,44.9H6l.2-.3h.1c0,.1.1.2.1.3s.1.1.2.2l-.3.3ZM7.9,44c0,.1.1.1.2.2l-.5.2a.3.3,0,0,0-.1-.2c-.1-.2-.1-.3-.2-.4h.4Zm-.6.3c0,.1.1.1.2.2a.5.5,0,0,0-.4.2.4.4,0,0,0-.1-.3H6.9v-.2l.3-.2A.5.5,0,0,0,7.3,44.3Z"/><path class="cls-2" d="M6.1,39.9a3.7,3.7,0,0,1-2.8,1.9h0c.1.2.4.2.7.1s.1.2.1.4H3.5c.7.7,3.8-1.1,3.2-1.9s-.2,0-.2.1-.1.2-.1.3-.3-.3-.4-.4l.4-.5C6.5,39.9,6.3,39.7,6.1,39.9ZM4.4,42.3c0-.1-.1-.1-.1-.2s-.1-.1-.1-.2h.2c.1,0,.1,0,.1.1s.1.2.1.4Zm.5-.1h0c-.1,0-.1-.3-.2-.4l.3-.2v.2l.2.3Zm.9-.6-.3.3h0c-.2-.2-.2-.4-.3-.5l.3-.2.3.4Zm.4-.3h0c-.1,0-.1.1-.2.2H6c-.1-.1-.2-.2-.2-.3H5.6l.3-.2C5.9,41,6,41.1,6.2,41.3Z"/><path class="cls-2" d="M4.3,43.8h.4a.2.2,0,0,1,0,.3h0s.1.1.1,0a.3.3,0,0,0,.1-.5.7.7,0,0,0-.6-.3C4.1,43.5,4.1,43.7,4.3,43.8Z"/><path class="cls-2" d="M7,42.4a.6.6,0,0,0,.7.2c.1-.1.1-.3-.1-.3H7.3c-.1-.1,0-.2,0-.4H7.2C7,41.8,6.9,42.2,7,42.4Z"/><path class="cls-2" d="M5.6,44.5c0,.1.2,0,.2-.2S5.5,44.3,5.6,44.5Z"/><path class="cls-2" d="M5.8,43.9c.1.1.3,0,.2-.1S5.8,43.8,5.8,43.9Z"/><path class="cls-2" d="M6.6,43.3c0,.1.1.1.1,0H6.6Z"/><path class="cls-2" d="M7.1,43.4c.1.1.3,0,.2-.1S7.1,43.3,7.1,43.4Z"/><path class="cls-2" d="M5.1,42.9c.1.1.3,0,.2-.2S5,42.7,5.1,42.9Z"/><path class="cls-2" d="M4.7,42.8h0C4.8,42.6,4.5,42.8,4.7,42.8Z"/><path class="cls-2" d="M6,42.4c0,.1.2,0,.1-.1S5.9,42.3,6,42.4Z"/><path class="cls-2" d="M6.2,42c0,.1.2,0,.1-.1S6.1,41.9,6.2,42Z"/><path class="cls-2" d="M6.7,45.5c.1.2.3,0,.3-.1S6.6,45.4,6.7,45.5Z"/><path class="cls-2" d="M7.8,44.8c0,.2.3,0,.2-.1A.1.1,0,1,0,7.8,44.8Z"/><path class="cls-2" d="M7.4,45.1h0a.1.1,0,0,0-.1-.1h0C7.1,45,7.3,45.3,7.4,45.1Z"/><path class="cls-2" d="M4.1,41.4a.1.1,0,1,1,.2-.1A.1.1,0,1,1,4.1,41.4Z"/><path class="cls-2" d="M5.2,40.8c-.1-.2.1-.3.2-.2S5.3,40.9,5.2,40.8Z"/><path class="cls-2" d="M4.7,41h0c.1,0,.2.1.1.1h0C4.7,41.3,4.6,41,4.7,41Z"/><path class="cls-2" d="M55,15.8c-.4-.1-.7,0-1-.3a.8.8,0,0,1-.3-.7c0-.2.2-.4.2-.6s-.1-.2-.2-.1a1.2,1.2,0,0,0,0,1.4,1.1,1.1,0,0,0,1.2.4Z"/><path class="cls-2" d="M52.3,17.3a.8.8,0,0,0,.1-.7c-.1-.6-.9-.8-1.4-.6s-.1.3,0,.3a.8.8,0,0,1,.7,0,.7.7,0,0,1,.5.6,4.1,4.1,0,0,0-.3.8.1.1,0,0,0,.1.1h0Z"/><path class="cls-2" d="M53.4,16.1c.2-.2,0-.5-.2-.6h-.5l-.2.3a.7.7,0,0,0,.4.5C53.1,16.5,53.3,16.3,53.4,16.1Zm-.5,0v-.2h.1Z"/><path class="cls-2" d="M53.6,13.5h-.1l-.4.5-.2-.2-.2-.2L53,13h-.1c-.4.3-.6.8-1,1.1a7.1,7.1,0,0,1-1.8.8c-.2.1-.1.3.1.3l.5-.2.3.5h-.5c-.1,0-.1.2.1.2A3.4,3.4,0,0,0,53.6,13.5Zm-1.3,1.3c0-.1,0-.2-.1-.2l-.3-.3.3-.2v.3l.2.3Zm.4-1a.5.5,0,0,1,.2.4h0c0,.1-.1.2-.2.3h0c-.1-.1-.1-.2-.2-.2l-.2-.2.3-.3A.1.1,0,0,0,52.7,13.8Zm-1.6,1.3-.2-.3.4-.2a.4.4,0,0,1,.1.3l.2.3h-.4A.3.3,0,0,0,51.1,15.1Zm.6-.3-.2-.2.3-.2v.2a.3.3,0,0,1,.1.2c.1,0,.1.1.1.2h-.3Z"/><path class="cls-2" d="M52.8,19.1a4,4,0,0,1,2.8-1.9h.1c-.2-.3-.5-.2-.7-.1s-.2-.3-.2-.4h.6s.1-.1,0-.1-3.8,1.1-3.2,1.9a.1.1,0,0,0,.2,0,.5.5,0,0,1,.2-.4l.3.4-.4.6C52.4,19.1,52.7,19.3,52.8,19.1Zm1.7-2.4a.3.3,0,0,0,.1.2.3.3,0,0,1,.1.2h-.2c-.1-.2-.1-.3-.2-.4Zm-.4.2h0l.2.5H54v-.2l-.2-.3Zm-1,.5.3-.2h.1c.1.1.1.3.3.5l-.3.2-.4-.5Zm-.4.4h0c.1-.1.1-.2.2-.2h0l.3.3a.1.1,0,0,0,.1.1c-.1.1-.2.2-.2.3A1,1,0,0,0,52.7,17.8Z"/><path class="cls-2" d="M54.7,15.3c-.2-.1-.4,0-.5-.2v-.2h0c0-.1,0-.1-.1-.1s-.2.4-.1.5.4.3.6.3S54.8,15.3,54.7,15.3Z"/><path class="cls-2" d="M51.9,16.7c-.1-.3-.4-.3-.7-.2s0,.3.1.3a.3.3,0,0,1,.4,0c0,.2-.1.3-.1.4h.1A.5.5,0,0,0,51.9,16.7Z"/><path class="cls-2" d="M53.4,14.6a.1.1,0,1,0-.2.1C53.2,14.8,53.5,14.7,53.4,14.6Z"/><path class="cls-2" d="M53.1,15.2c-.1-.2-.3-.1-.2.1S53.2,15.3,53.1,15.2Z"/><path class="cls-2" d="M52.3,15.7h-.1C52.3,15.8,52.4,15.8,52.3,15.7Z"/><path class="cls-2" d="M51.8,15.6c-.1-.1-.3,0-.2.1S51.9,15.7,51.8,15.6Z"/><path class="cls-2" d="M53.8,16.2c0-.2-.2,0-.2.1S53.9,16.3,53.8,16.2Z"/><path class="cls-2" d="M54.3,16.2h-.1C54.1,16.4,54.4,16.3,54.3,16.2Z"/><path class="cls-2" d="M53,16.6c-.1-.1-.3,0-.2.1S53,16.7,53,16.6Z"/><path class="cls-2" d="M52.8,17.1c-.1-.1-.2,0-.2.1S52.8,17.2,52.8,17.1Z"/><path class="cls-2" d="M52.2,13.5c-.1-.1-.3,0-.2.1S52.3,13.7,52.2,13.5Z"/><path class="cls-2" d="M51.2,14.2a.2.2,0,0,0-.3.1C51,14.5,51.2,14.4,51.2,14.2Z"/><path class="cls-2" d="M51.5,14h0c0,.1,0,.2.1.2h0C51.8,14.2,51.7,13.9,51.5,14Z"/><path class="cls-2" d="M54.8,17.6c.1.1-.1.3-.2.2S54.7,17.5,54.8,17.6Z"/><path class="cls-2" d="M53.8,18.3c.1.1-.2.2-.2.1A.1.1,0,1,1,53.8,18.3Z"/><path class="cls-2" d="M54.2,18h0c-.1.1-.2,0-.1-.1h0C54.2,17.8,54.4,18,54.2,18Z"/><path class="cls-2" d="M8.4,49.3c.3.1.7-.1,1,.1a.8.8,0,0,1,.4.6c.1.2,0,.4,0,.7H10a1.2,1.2,0,0,0-.3-1.4c-.3-.3-.9-.2-1.3-.1S8.3,49.3,8.4,49.3Z"/><path class="cls-2" d="M10.6,47.2a.9.9,0,0,0,0,.7,1.1,1.1,0,0,0,1.6.3.2.2,0,0,0-.1-.3c-.3.1-.5.2-.7.1a.6.6,0,0,1-.6-.5c0-.2.2-.5,0-.8h-.1C10.6,46.8,10.6,47.1,10.6,47.2Z"/><path class="cls-2" d="M9.8,48.7c-.1.2.1.5.4.5h.3c.1-.1.1-.1.1-.2a.4.4,0,0,0,.1-.3c0-.2-.2-.3-.4-.3S9.8,48.4,9.8,48.7Zm.5-.1c.1,0,.1,0,.1.1h0a.2.2,0,0,1-.2.2c-.1,0-.1,0-.1-.1h0C10.1,48.6,10.2,48.5,10.3,48.6Z"/><path class="cls-2" d="M10.3,51.3h.1l.3-.6h.2l.3.2c-.1.2-.1.4-.2.6s.1.1.1,0,.4-.9.7-1.3a5.7,5.7,0,0,1,1.5-1.2c.2-.1.1-.4-.1-.3l-.5.4-.3-.5.3-.2c.2,0,.1-.3-.1-.2A3.3,3.3,0,0,0,10.3,51.3Zm.9-1.7a.2.2,0,0,0,.2.2l.3.2-.2.3c-.1-.1-.2-.1-.2-.2l-.3-.3Zm-.1,1.1-.3-.3h0c0-.1.1-.2.1-.3H11a.2.2,0,0,0,.2.2c0,.1.1.1.2.2l-.2.3Zm1.2-1.6h.3c-.2.1-.3.3-.4.4s-.1-.2-.2-.3l-.2-.2.3-.2C12.2,49,12.3,49,12.3,49.1Zm-.5.4.3.2-.3.2c0-.1-.1-.1-.1-.2s-.2,0-.2-.1h-.2l.3-.3C11.6,49.3,11.8,49.4,11.8,49.5Z"/><path class="cls-2" d="M9.6,45.6a3.7,3.7,0,0,1-2.2,2.5c-.1,0-.1.1,0,.1s.4.1.7,0l.2.3-.5.2c-.1,0-.1.1,0,.1s3.3-2.1,2.6-2.7h-.2c0,.2,0,.3-.1.4l-.4-.3a1.4,1.4,0,0,0,.2-.6C10,45.5,9.7,45.4,9.6,45.6Zm-1,2.8-.2-.2c-.1-.1-.1-.1-.1-.2l.2-.2h0l.3.4C8.7,48.3,8.6,48.3,8.6,48.4Zm.4-.3H9c-.1-.1-.2-.3-.4-.4l.3-.3a.3.3,0,0,0,.1.2l.3.3Zm.8-.8-.3.4h0c-.2-.1-.3-.3-.4-.4l.2-.3.4.3Zm.2-.4h0c0,.1,0,.1-.1.2h0l-.3-.2H9.4l.2-.3A.8.8,0,0,0,10,46.9Z"/><path class="cls-2" d="M8.8,49.8h.5a.4.4,0,0,1,.1.3h.1a.5.5,0,0,0,0-.5,1,1,0,0,0-.7-.2C8.6,49.6,8.7,49.8,8.8,49.8Z"/><path class="cls-2" d="M11.1,47.7a.5.5,0,0,0,.7,0c.1,0,0-.3-.1-.2s-.3.1-.4,0,0-.2-.1-.3,0-.1-.1-.1A.6.6,0,0,0,11.1,47.7Z"/><path class="cls-2" d="M10.2,50.1c.2.2.3,0,.2-.1S10.1,50,10.2,50.1Z"/><path class="cls-2" d="M10.4,49.5c.1.1.2,0,.1-.1S10.3,49.4,10.4,49.5Z"/><path class="cls-2" d="M10.9,48.8h.2a.1.1,0,0,0-.1-.1h0C10.9,48.6,10.9,48.7,10.9,48.8Z"/><path class="cls-2" d="M11.5,48.7c.1.1.2,0,.1-.1S11.4,48.6,11.5,48.7Z"/><path class="cls-2" d="M9.4,48.7c.1.1.2,0,.1-.1S9.3,48.6,9.4,48.7Z"/><path class="cls-2" d="M9,48.8H9C9,48.6,8.8,48.8,9,48.8Z"/><path class="cls-2" d="M10.1,48c.1.1.2,0,.1-.1S10,48,10.1,48Z"/><path class="cls-2" d="M10.2,47.6s.2-.1.1-.2S10.1,47.5,10.2,47.6Z"/><path class="cls-2" d="M11.6,50.9c.2.1.4-.1.2-.2S11.5,50.7,11.6,50.9Z"/><path class="cls-2" d="M12.5,49.9a.1.1,0,1,0,.1-.2A.1.1,0,1,0,12.5,49.9Z"/><path class="cls-2" d="M12.2,50.3h0c0-.1-.1-.2-.2-.1h0A.1.1,0,1,0,12.2,50.3Z"/><path class="cls-2" d="M8,47.6c-.1-.1.1-.3.2-.2S8.2,47.7,8,47.6Z"/><path class="cls-2" d="M8.9,46.7c-.1-.1,0-.3.2-.2S9,46.8,8.9,46.7Z"/><path class="cls-2" d="M8.5,47h0c.1,0,.2,0,.2.1h0A.1.1,0,1,1,8.5,47Z"/><path class="cls-2" d="M50.5,9.7c-.3-.1-.6.1-1,0s-.3-.4-.4-.6a1.6,1.6,0,0,1,0-.7c0-.2-.2-.2-.2-.1a1.4,1.4,0,0,0,.3,1.4,1.1,1.1,0,0,0,1.3.1C50.6,9.8,50.6,9.7,50.5,9.7Z"/><path class="cls-2" d="M48.3,11.8a.8.8,0,0,0,0-.7,1.1,1.1,0,0,0-1.6-.2c-.1.1,0,.3.2.2h.7a.5.5,0,0,1,.5.5c0,.2-.1.6,0,.8h.1A.7.7,0,0,0,48.3,11.8Z"/><path class="cls-2" d="M49.1,10.4a.4.4,0,0,0-.4-.6l-.3.2h-.1a.4.4,0,0,0-.1.3c0,.2.3.4.5.4A.4.4,0,0,0,49.1,10.4Zm-.5.1v-.2h.4Z"/><path class="cls-2" d="M48.6,7.8h-.1l-.3.6h-.5a1.4,1.4,0,0,0,.2-.6c0-.1-.1-.2-.1-.1s-.4.9-.7,1.3A6.1,6.1,0,0,1,45.6,10a.1.1,0,1,0,.1.2l.5-.3c.1.1.2.3.4.4l-.4.2c-.1.1-.1.3.1.2A3.1,3.1,0,0,0,48.6,7.8Zm-.9,1.6c0-.1-.1-.1-.1-.2L47.2,9c.1-.1.2-.2.2-.3l.2.3.3.2Zm.1-1.1.3.3h.1c-.1.1-.1.2-.2.4h0a.2.2,0,0,1-.2-.2h-.3c.1-.1.1-.3.2-.4A.1.1,0,0,0,47.8,8.3ZM46.6,10l-.3-.2.4-.3.2.2.2.3-.3.2A.2.2,0,0,0,46.6,10Zm.5-.5h-.2l.2-.3.2.2h.1l.2.2-.3.2C47.3,9.7,47.2,9.6,47.1,9.5Z"/><path class="cls-2" d="M49.3,13.5a3.9,3.9,0,0,1,2.2-2.6h.1a.5.5,0,0,0-.7.1l-.3-.4.6-.2h0c-.9-.4-3.4,2.1-2.6,2.7h.1c0-.1.1-.2.1-.4l.5.3-.3.7C48.9,13.6,49.2,13.6,49.3,13.5Zm1-2.8a.2.2,0,0,1,.2.2h.2l-.2.2h-.1l-.2-.3A.1.1,0,0,1,50.3,10.7Zm-.4.2H50a.5.5,0,0,0,.3.4l-.3.3v-.2l-.3-.2Zm-.7.8.2-.3h0l.5.4-.3.3-.4-.4Zm-.3.4h0v-.2h0l.3.2c.1,0,.2,0,.2.1v.2Z"/><path class="cls-2" d="M50.1,9.2c-.1,0-.3.1-.5,0V9h-.2a.6.6,0,0,0,.1.6c.1.2.4.1.7.1S50.3,9.2,50.1,9.2Z"/><path class="cls-2" d="M47.8,11.3a.5.5,0,0,0-.7,0c-.1.1,0,.3.2.2h.3a.6.6,0,0,1,.1.4h.1C48,11.8,47.9,11.5,47.8,11.3Z"/><path class="cls-2" d="M48.7,8.9c-.1-.1-.3.1-.2.2S48.8,9,48.7,8.9Z"/><path class="cls-2" d="M48.6,9.5c-.1-.1-.3.1-.2.2S48.7,9.6,48.6,9.5Z"/><path class="cls-2" d="M48,10.2c-.1,0-.2,0-.2.1h.1C48,10.4,48,10.3,48,10.2Z"/><path class="cls-2" d="M47.4,10.3c-.1-.1-.2.1-.1.2S47.5,10.4,47.4,10.3Z"/><path class="cls-2" d="M49.5,10.3c-.1-.1-.2.1-.1.2S49.6,10.4,49.5,10.3Z"/><path class="cls-2" d="M50,10.2h0c-.1,0-.1,0-.1.1h0C49.9,10.4,50.1,10.2,50,10.2Z"/><path class="cls-2" d="M48.8,11c-.1-.1-.2,0-.1.1S48.9,11.1,48.8,11Z"/><path class="cls-2" d="M48.8,11.5c-.1-.1-.2,0-.2.1S48.8,11.6,48.8,11.5Z"/><path class="cls-2" d="M47.3,8.2c-.1-.2-.3,0-.2.2S47.4,8.3,47.3,8.2Z"/><path class="cls-2" d="M46.5,9.1c-.1-.1-.3.1-.2.2S46.6,9.2,46.5,9.1Z"/><path class="cls-2" d="M46.7,8.7h0c0,.1.1.2.2.1h0C47,8.8,46.8,8.6,46.7,8.7Z"/><path class="cls-2" d="M50.9,11.4c.1.1,0,.4-.2.2S50.8,11.3,50.9,11.4Z"/><path class="cls-2" d="M50,12.3c.1.2,0,.3-.1.2A.1.1,0,1,1,50,12.3Z"/><path class="cls-2" d="M50.4,12h0c-.1.1-.2,0-.1-.1h0C50.3,11.7,50.5,11.9,50.4,12Z"/><path class="cls-2" d="M14.2,54.1c.4,0,.6-.3,1-.2s.5.3.6.5a1.3,1.3,0,0,1,.1.6c.1.2.3.1.3,0a1.4,1.4,0,0,0-.7-1.3c-.4-.2-.9.1-1.3.3Z"/><path class="cls-2" d="M15.8,51.5a1,1,0,0,0,.2.7,1.1,1.1,0,0,0,1.6-.2c.1-.1-.1-.3-.2-.2s-.4.3-.6.3a.8.8,0,0,1-.7-.3c-.1-.3,0-.6-.2-.8s0-.1-.1,0h0Z"/><path class="cls-2" d="M15.4,53.1c0,.3.3.5.5.4s.3-.1.3-.2.1-.1.1-.2.1-.2,0-.3-.3-.2-.5-.2S15.4,52.9,15.4,53.1Zm.5-.2c.1,0,.1,0,.1.1h0a.3.3,0,0,1-.1.2h-.1a.1.1,0,0,1-.1-.1C15.7,53,15.8,52.8,15.9,52.9Z"/><path class="cls-2" d="M16.6,55.5h.1a1.7,1.7,0,0,0,.1-.7h.6a.6.6,0,0,0,0,.6c0,.1.1.1.1,0s.1-1,.3-1.5a5.8,5.8,0,0,1,1.1-1.5c.2-.2,0-.3-.1-.2l-.4.4-.5-.3.3-.3c.1-.1,0-.3-.1-.2A3.3,3.3,0,0,0,16.6,55.5Zm.4-1.8h.6c0,.1-.1.2-.1.4l-.3-.2-.3-.2Zm.2,1-.4-.2h0a.4.4,0,0,1,.1-.3h.5v.4Zm.8-1.9h.3l-.3.5-.3-.2a.2.2,0,0,0-.2-.2c0-.1.1-.2.2-.3Zm-.4.6h.3l-.2.3h-.6l.2-.3Z"/><path class="cls-2" d="M14.5,50.2a3.8,3.8,0,0,1-1.5,3c-.1,0-.1.1,0,.1s.4,0,.6-.2l.4.2-.5.4c-.1,0-.1,0,0,.1s2.7-2.9,1.8-3.3-.1.1-.1.2V51h-.5c0-.3.1-.5.1-.7A.1.1,0,1,0,14.5,50.2Zm-.3,2.9h-.4a.3.3,0,0,1,.1-.2H14l.3.3Zm.3-.3h0l-.4-.3c0-.1.1-.2.1-.3h.2l.3.2C14.7,52.6,14.6,52.7,14.5,52.8Zm.6-1c-.1.2-.2.3-.2.4h0a.9.9,0,0,1-.5-.3.4.4,0,0,1,.1-.3l.5.2Zm.1-.5h0a.4.4,0,0,1-.1.3h-.5v-.3Z"/><path class="cls-2" d="M14.8,54.4c.1,0,.3-.1.4,0s.1.1.2.2h.1c.1-.2,0-.5-.1-.5a.6.6,0,0,0-.7,0C14.5,54.3,14.6,54.5,14.8,54.4Z"/><path class="cls-2" d="M16.4,51.9a.6.6,0,0,0,.7-.2c.1-.1-.1-.3-.2-.2s-.2.2-.3.1l-.2-.3h-.1C16.2,51.4,16.3,51.7,16.4,51.9Z"/><path class="cls-2" d="M16.2,54.4c.2.1.3-.1.2-.2S16.1,54.3,16.2,54.4Z"/><path class="cls-2" d="M16.2,53.8c.1,0,.2-.1.1-.2S16.1,53.7,16.2,53.8Z"/><path class="cls-2" d="M16.6,52.9c0,.1.1,0,.1-.1h-.1C16.5,52.8,16.5,52.9,16.6,52.9Z"/><path class="cls-2" d="M17.1,52.7c.1.1.2-.1.1-.2S17,52.6,17.1,52.7Z"/><path class="cls-2" d="M15,53.3c.2,0,.3-.2.1-.2S14.9,53.2,15,53.3Z"/><path class="cls-2" d="M14.7,53.4h0C14.6,53.2,14.5,53.5,14.7,53.4Z"/><path class="cls-2" d="M15.5,52.4c.2.1.3-.1.1-.1S15.4,52.4,15.5,52.4Z"/><path class="cls-2" d="M15.5,51.9c.1.1.2-.1.1-.1S15.4,51.9,15.5,51.9Z"/><path class="cls-2" d="M17.8,54.8c.1,0,.3-.2.1-.3S17.6,54.7,17.8,54.8Z"/><path class="cls-2" d="M18.3,53.6c.2.1.3-.1.1-.2S18.2,53.5,18.3,53.6Z"/><path class="cls-2" d="M18.2,54.1h0c0-.1-.1-.2-.2-.1h0A.1.1,0,1,0,18.2,54.1Z"/><path class="cls-2" d="M13.4,52.5c-.1,0,0-.3.2-.2S13.6,52.6,13.4,52.5Z"/><path class="cls-2" d="M14.1,51.4c-.2,0-.1-.3.1-.2S14.2,51.5,14.1,51.4Z"/><path class="cls-2" d="M14.3,51.8h0a.1.1,0,0,1,.1.1h0C14.4,52.1,14.1,52,14.3,51.8Z"/><path class="cls-2" d="M44.7,4.9c-.4,0-.6.3-1,.2s-.4-.2-.6-.4,0-.5-.1-.7-.2-.1-.2,0a1.3,1.3,0,0,0,.6,1.3A1.2,1.2,0,0,0,44.7,5C44.8,5,44.8,4.9,44.7,4.9Z"/><path class="cls-2" d="M43.1,7.6a.8.8,0,0,0-.2-.7,1.1,1.1,0,0,0-1.6.1c-.1.2.1.3.2.2l.6-.3a.7.7,0,0,1,.7.4c.1.2,0,.6.2.8h.1C43.2,7.9,43.1,7.7,43.1,7.6Z"/><path class="cls-2" d="M43.5,5.9a.4.4,0,0,0-.5-.4l-.3.2c0,.1-.1.1-.1.2v.3c.1.2.4.3.5.2S43.5,6.2,43.5,5.9Zm-.5.3h-.1l.2-.2h.1C43.3,6.1,43.1,6.2,43,6.2Z"/><path class="cls-2" d="M42.3,3.6c0-.1-.1-.1-.1,0s-.1.4-.1.6h-.5V3.4a.1.1,0,0,0-.2,0,8,8,0,0,1-.3,1.5A5.7,5.7,0,0,1,40,6.5c-.1.1.1.3.2.2l.4-.5c.1.2.2.2.4.3l-.3.3c-.1.1,0,.3.2.2A3.2,3.2,0,0,0,42.3,3.6Zm-.4,1.7h-.6c0-.1.1-.2.1-.3h.3l.3.2A.3.3,0,0,1,41.9,5.3Zm-.2-1,.4.2h0v.4h-.6a.8.8,0,0,1,.1-.4Zm-.8,1.9h-.2l.3-.4.2.2.3.2-.3.2Zm.4-.6H41a.5.5,0,0,0,.2-.4c.1.1.2.1.2.2h.4a.2.2,0,0,1-.2.2Z"/><path class="cls-2" d="M44.5,8.9A3.7,3.7,0,0,1,46,5.8h0c-.3-.1-.5.1-.7.3L45,5.7l.5-.3a.1.1,0,0,0-.1-.1c-.9-.3-2.7,2.8-1.8,3.2s.2,0,.2-.1a.6.6,0,0,1-.1-.4l.5.2v.7C44.1,9.1,44.5,9.1,44.5,8.9Zm.3-3H45l.2.2a.2.2,0,0,0-.2.2.1.1,0,0,0-.1-.1l-.3-.2Zm-.4.4h0l.5.3c-.1.1-.2.2-.2.3l-.2-.2h-.3Zm-.5.9c0-.1.1-.3.1-.4h.1l.5.3-.2.3-.5-.2Zm-.2.5h0a.3.3,0,0,1,.1-.2h.6a.4.4,0,0,0-.1.3A.9.9,0,0,0,43.7,7.7Z"/><path class="cls-2" d="M44.2,4.6c-.2,0-.3.2-.5.1V4.5h-.1c0-.1-.1-.1-.1,0s0,.4.2.5a.9.9,0,0,0,.7-.1C44.4,4.8,44.3,4.6,44.2,4.6Z"/><path class="cls-2" d="M42.5,7.2a.5.5,0,0,0-.7.1c-.1.2.1.3.2.2s.2-.2.3-.1.1.2.2.4h.1A.6.6,0,0,0,42.5,7.2Z"/><path class="cls-2" d="M42.7,4.6c-.1-.1-.3.2-.1.2S42.8,4.7,42.7,4.6Z"/><path class="cls-2" d="M42.7,5.3c-.1-.1-.2.1-.1.2S42.9,5.3,42.7,5.3Z"/><path class="cls-2" d="M42.4,6.1c-.1,0-.2,0-.2.1h.1C42.4,6.3,42.4,6.1,42.4,6.1Z"/><path class="cls-2" d="M41.9,6.3c-.2,0-.3.1-.2.2S42,6.4,41.9,6.3Z"/><path class="cls-2" d="M43.9,5.8c-.1-.1-.2.1-.1.2S44,5.9,43.9,5.8Z"/><path class="cls-2" d="M44.3,5.6h0c-.1,0-.1,0-.1.1h0C44.3,5.8,44.4,5.6,44.3,5.6Z"/><path class="cls-2" d="M43.4,6.6c-.1-.1-.2.1-.1.2S43.5,6.7,43.4,6.6Z"/><path class="cls-2" d="M43.4,7.1c-.1-.1-.2.1-.1.1S43.5,7.1,43.4,7.1Z"/><path class="cls-2" d="M41.2,4.3c-.2-.1-.3.1-.2.2S41.3,4.4,41.2,4.3Z"/><path class="cls-2" d="M40.6,5.4c-.1-.1-.3.2-.1.2A.1.1,0,1,0,40.6,5.4Z"/><path class="cls-2" d="M40.8,4.9h.1C41.1,4.9,40.8,4.8,40.8,4.9Z"/><path class="cls-2" d="M45.5,6.5a.2.2,0,0,1-.1.3C45.2,6.7,45.3,6.4,45.5,6.5Z"/><path class="cls-2" d="M44.9,7.6c.1.1,0,.3-.1.2S44.7,7.5,44.9,7.6Z"/><path class="cls-2" d="M45.2,7.2h0c-.1.1-.2,0-.2-.1h0C45,7,45.3,7.1,45.2,7.2Z"/><path class="cls-2" d="M21.1,57.2c.4-.1.5-.4.9-.5a1.5,1.5,0,0,1,.7.3c.2.2.2.5.3.7s.2,0,.2-.1a1.3,1.3,0,0,0-1-1.1c-.4-.1-.9.3-1.1.6S21.1,57.2,21.1,57.2Z"/><path class="cls-2" d="M22,54.3a.9.9,0,0,0,.3.6,1.1,1.1,0,0,0,1.5-.6c.1-.1-.1-.3-.2-.2l-.5.5a.8.8,0,0,1-.8-.1c-.1-.3-.1-.6-.4-.8h-.1A1.7,1.7,0,0,0,22,54.3Z"/><path class="cls-2" d="M22,55.9a.4.4,0,0,0,.6.3c.1-.1.2-.2.2-.3s.1-.1.1-.2a.4.4,0,0,0-.1-.3h-.6A.5.5,0,0,0,22,55.9Zm.4-.3h.2a.2.2,0,0,1-.2.2h-.1C22.2,55.7,22.3,55.6,22.4,55.6Z"/><path class="cls-2" d="M23.8,57.9c0,.1.1.1.1,0s-.1-.4-.1-.7h.5c.1.2.1.4.2.6s.2.1.2,0a7.1,7.1,0,0,1-.1-1.5,6.7,6.7,0,0,1,.7-1.8c0-.1-.2-.3-.3-.1s-.1.3-.2.5l-.5-.2c0-.1.1-.2.2-.3s-.1-.3-.2-.2A3.2,3.2,0,0,0,23.8,57.9Zm-.1-1.8h.7a.8.8,0,0,0-.1.4h-.6Zm.5.9h-.5v-.4h.6v.4Zm.2-2h.3c-.1.2-.1.4-.2.5h-.6a.5.5,0,0,0,.2-.4Zm-.2.6h.3a.4.4,0,0,0-.1.3h-.7a.4.4,0,0,0,.1-.3Z"/><path class="cls-2" d="M20.3,53.4a3.9,3.9,0,0,1-.6,3.3c-.1,0-.1.1,0,.1a.7.7,0,0,0,.5-.4h.4l-.3.5c-.1,0,0,.1,0,.1s1.9-3.5.9-3.6a.1.1,0,0,0-.1.1c.1.1.1.3.2.4h-.6a1.5,1.5,0,0,0-.1-.7C20.6,53.1,20.3,53.2,20.3,53.4Zm.5,2.9h-.5c.1,0,.1-.1.1-.2h.1l.4.2C20.9,56.2,20.8,56.2,20.8,56.3Zm.2-.4h-.5a.8.8,0,0,0,.1-.4h.6Zm.3-1.1v.4h-.6v-.4Zm0-.5h0v.2h-.6v-.3Z"/><path class="cls-2" d="M21.7,57.4l.4-.2h.2c0,.1.1.1.1.2h0a.1.1,0,0,0,.1-.1c.1-.2-.1-.4-.3-.4a.5.5,0,0,0-.6.2A.1.1,0,1,0,21.7,57.4Z"/><path class="cls-2" d="M22.7,54.5c.2.1.5-.1.6-.4A.2.2,0,0,0,23,54c0,.1-.1.2-.3.2l-.2-.3h-.1C22.3,54.1,22.5,54.4,22.7,54.5Z"/><path class="cls-2" d="M23.1,57c.2,0,.2-.2.1-.2S23,57,23.1,57Z"/><path class="cls-2" d="M22.9,56.4c.1,0,.2-.2.1-.2S22.8,56.3,22.9,56.4Z"/><path class="cls-2" d="M23.1,55.5a.3.3,0,0,0,.1-.2H23S23,55.5,23.1,55.5Z"/><path class="cls-2" d="M23.5,55.1c.1.1.2-.1.1-.2S23.4,55.1,23.5,55.1Z"/><path class="cls-2" d="M21.7,56.2c.1,0,.2-.2,0-.2S21.5,56.1,21.7,56.2Z"/><path class="cls-2" d="M21.3,56.5h.1C21.3,56.2,21.2,56.5,21.3,56.5Z"/><path class="cls-2" d="M22,55.3c.1,0,.1-.2,0-.2S21.8,55.2,22,55.3Z"/><path class="cls-2" d="M21.8,54.8c.1,0,.1-.1,0-.2S21.7,54.8,21.8,54.8Z"/><path class="cls-2" d="M24.7,56.9c.2.1.2-.2.1-.2S24.5,56.9,24.7,56.9Z"/><path class="cls-2" d="M24.9,55.7c.2,0,.3-.2.1-.3S24.8,55.6,24.9,55.7Z"/><path class="cls-2" d="M24.9,56.2h0c0-.1-.1-.2-.2-.1h0C24.6,56.3,24.9,56.3,24.9,56.2Z"/><path class="cls-2" d="M19.9,55.9c-.1,0-.1-.3.1-.3S20.1,55.9,19.9,55.9Z"/><path class="cls-2" d="M20.2,54.7c-.1-.1-.1-.3.1-.3S20.4,54.7,20.2,54.7Z"/><path class="cls-2" d="M20.2,55.1h.1c0-.1.1,0,.1.1h0C20.5,55.3,20.2,55.3,20.2,55.1Z"/><path class="cls-2" d="M37.8,1.8c-.3.1-.5.5-.9.5L36.2,2c-.2-.2-.2-.4-.3-.6s-.2-.1-.2.1a1.4,1.4,0,0,0,1,1c.5.1.9-.3,1.2-.6Z"/><path class="cls-2" d="M37,4.8a.9.9,0,0,0-.4-.6,1.1,1.1,0,0,0-1.5.5c-.1.2.2.3.2.2s.3-.4.6-.5a.6.6,0,0,1,.7.2c.1.2.2.6.4.7h.1A4.3,4.3,0,0,0,37,4.8Z"/><path class="cls-2" d="M36.9,3.1c0-.3-.3-.4-.6-.3s-.2.2-.2.3v.2c-.1.1,0,.2,0,.3a.5.5,0,0,0,.6.1A.5.5,0,0,0,36.9,3.1Zm-.4.4a.1.1,0,0,1-.1-.1.1.1,0,0,1-.1-.1l.2-.2h.2C36.7,3.3,36.6,3.5,36.5,3.5Z"/><path class="cls-2" d="M35.2,1.1h-.1v.7h-.5c-.1-.2-.1-.4-.2-.6h-.1a7.6,7.6,0,0,0,.1,1.5,5.6,5.6,0,0,1-.7,1.8c-.1.2.1.3.2.2l.3-.6.5.2-.3.4c0,.1.1.3.2.1A3.3,3.3,0,0,0,35.2,1.1Zm0,1.8H35c-.1,0-.3-.1-.4,0V2.5h.7ZM34.8,2h.4v.3h-.3a.2.2,0,0,0-.3,0V2Zm-.3,2h-.3c.1-.2.2-.3.2-.5H35c-.1.2-.1.3-.2.4Zm.2-.6h-.2V3h.7c0,.1-.1.2-.1.3Z"/><path class="cls-2" d="M38.6,5.7a3.8,3.8,0,0,1,.7-3.3c0-.1,0-.1-.1-.1s-.4.1-.5.4l-.4-.2.4-.4c0-.1,0-.1-.1-.1s-1.9,3.4-.9,3.6.1-.1.1-.2a.4.4,0,0,1-.1-.3h.5c0,.2.1.4.1.7S38.7,5.9,38.6,5.7Zm-.5-2.9h.5a.4.4,0,0,0-.1.3.1.1,0,0,0-.1-.1L38,2.9A.1.1,0,0,0,38.1,2.8Zm-.2.4h0l.5.2c0,.1-.1.2-.1.3h-.5A.4.4,0,0,1,37.9,3.2Zm-.3,1a.8.8,0,0,1,.1-.4h0l.6.2a.4.4,0,0,0-.1.3Zm0,.5h0V4.5h.6v.4Z"/><path class="cls-2" d="M37.2,1.6c-.1.1-.2.3-.4.2h-.4a.9.9,0,0,0,.3.5.9.9,0,0,0,.7-.3C37.5,1.7,37.3,1.6,37.2,1.6Z"/><path class="cls-2" d="M36.3,4.6c-.3-.1-.6.1-.6.3a.1.1,0,1,0,.2.1c.1-.1.1-.2.3-.2l.2.3c.1.1.1,0,.1,0A.4.4,0,0,0,36.3,4.6Z"/><path class="cls-2" d="M35.8,2c-.2,0-.2.2-.1.3S36,2.1,35.8,2Z"/><path class="cls-2" d="M36,2.6c-.1,0-.2.2,0,.3S36.2,2.7,36,2.6Z"/><path class="cls-2" d="M35.9,3.6c-.1-.1-.2,0-.1.1h.1C36,3.7,35.9,3.6,35.9,3.6Z"/><path class="cls-2" d="M35.4,3.9c-.1,0-.2.2,0,.2S35.6,3.9,35.4,3.9Z"/><path class="cls-2" d="M37.3,2.9c-.2-.1-.2.1-.1.2S37.4,2.9,37.3,2.9Z"/><path class="cls-2" d="M37.6,2.6h0c-.1,0-.1,0,0,.1h0C37.6,2.8,37.7,2.5,37.6,2.6Z"/><path class="cls-2" d="M37,3.8c-.2,0-.2.1-.1.2S37.1,3.8,37,3.8Z"/><path class="cls-2" d="M37.2,4.2c-.2,0-.2.2-.1.2S37.3,4.3,37.2,4.2Z"/><path class="cls-2" d="M34.2,2.1c-.1,0-.2.2,0,.3S34.4,2.2,34.2,2.1Z"/><path class="cls-2" d="M34,3.4c-.2-.1-.2.2-.1.2S34.2,3.4,34,3.4Z"/><path class="cls-2" d="M34,2.9h0c0,.1.2.1.2,0h0C34.3,2.8,34,2.7,34,2.9Z"/><path class="cls-2" d="M39,3.1c.2.1.1.3-.1.3S38.8,3.1,39,3.1Z"/><path class="cls-2" d="M38.7,4.4c.1,0,.1.2-.1.2S38.5,4.3,38.7,4.4Z"/><path class="cls-2" d="M38.9,3.9h-.1c0,.1-.1.1-.1,0h0C38.6,3.7,38.9,3.8,38.9,3.9Z"/></svg>